<?xml version="1.0" standalone="no"?>
<!DOCTYPE svg PUBLIC "-//W3C//DTD SVG 1.1//EN" "http://www.w3.org/Graphics/SVG/1.1/DTD/svg11.dtd" >
<svg xmlns="http://www.w3.org/2000/svg">
<metadata>
<json>
<![CDATA[
{
	"fontFamily": "edicons",
	"majorVersion": 1,
	"minorVersion": 0,
	"version": "Version 1.0",
	"fontId": "edicons",
	"psName": "edicons",
	"subFamily": "Regular",
	"fullName": "edicons",
	"description": "Font generated by IcoMoon."
}
]]>
</json>
</metadata>
<defs>
<font id="edicons" horiz-adv-x="512">
<font-face units-per-em="512" ascent="480" descent="-32" />
<missing-glyph horiz-adv-x="512" />
<glyph unicode="&#x20;" horiz-adv-x="256" d="" />
<glyph unicode="&#xe600;" glyph-name="visualidentity-ec" data-tags="visualidentity-ec" d="M49.17 447.944c-3.431-0.322-17.171-2.877-17.171-23.507v-223.403c20.454 20.87 49.587 34.709 88.058 34.709 56.741 0 88.418-31.223 102.198-71.254 20.466 42.319 64.192 71.254 128.827 71.254 20.309 0 42.798-3.376 59.041-9.458l-12.304-57.48c-9.144 4.065-22.853 7.621-43.156 7.621-40.618 0-67.082-28.988-66.571-69.601 0-45.696 30.563-69.51 68.132-69.51 18.279 0 32.486 3.059 44.166 7.621l7.162-44.901h54.543c0 0 17.906-0.066 17.906 23.507v400.896c0 0 0.009 23.507-17.906 23.507h-412.19c0 0-0.245 0.046-0.734 0zM130.158 338.4h71.621l-62.072-77.13h-53.257l43.708 77.13zM115.466 184.598c-32.491 0-45.799-29.595-47.84-50.411h91.455c0 18.789-8.082 50.411-43.615 50.411zM68.269 81.482c2.532-31.98 34.014-47.288 70.060-47.288 26.405 0 47.679 3.594 68.5 10.192l8.631-44.35h42.698c-25.992 18.022-42.779 45.919-47.656 81.446h-142.232z" />
<glyph unicode="&#xe601;" glyph-name="classroom" data-tags="classroom" d="M203.063 401.844c-47.942 0-95.103-59.805-80.063-115.938 10.827-40.406 22.075-70.798 44.625-85.313v-27.563c-127.406-7.938-135.221-61.151-135.625-126.875h94.938c0.582 49.832 7.454 91.738 69.563 111.563-53.361-21.765-57.889-63.111-58.188-111.563h341.688c-0.405 65.724-8.219 118.937-135.625 126.875v27.563c2.179 1.394 4.146 3.125 6.125 4.813 3.792-1.952 7.57-3.108 11.375-3.5 1.327-3.034 3.522-6.147 6.125-8.75 3.765-3.765 8.248-6.372 12.688-7.438 1.726-2.911 3.868-5.618 6.563-8.313 10.413-10.412 23.697-13.928 29.75-7.875s2.538 19.338-7.875 29.75c-2.695 2.695-5.839 4.837-8.75 6.563-1.065 4.44-3.235 8.923-7 12.688-2.616 2.616-5.7 4.798-8.75 6.125-0.699 6.611-3.848 13.286-9.188 19.25 4.935 12.273 9.349 26.715 13.563 42.438 15.041 56.132-32.121 115.5-80.063 115.5s-94.666-59.368-79.625-115.5c3.408-12.719 6.643-24.437 10.5-35-2.372-1.517-4.438-3.563-6.563-5.688-6.298-6.298-10.172-13.769-10.938-21-3.050-1.327-5.697-3.509-8.313-6.125-3.765-3.765-6.371-8.248-7.438-12.688-2.911-1.726-5.618-3.868-8.313-6.563-10.412-10.412-13.928-23.697-7.875-29.75 2.27-2.27 5.401-3.351 9.188-3.063-8.118-4.616-20.23-5.252-24.606-0.875-6.053 6.053-2.537 19.338 7.875 29.75 2.695 2.695 9.882 6.858 12.793 8.584 1.065 4.44-0.808 6.901 2.957 10.666 2.616 2.616 5.7 6.384 8.75 7.709 0.765 7.231 4.202 13.118 10.5 19.416 2.125 2.125 4.628 3.734 7 5.25-3.857 10.563-7.53 22.281-10.938 35-10.067 37.57 7.811 76.69 35 98.438-14.404 13.185-28.038 21.438-45.832 21.438zM263.438 209.781c3.265-3.396 6.635-6.7 10.5-9.188v-27.563c-7.342-0.457-13.992-0.997-20.563-1.75-4.998 0.592-9.779 1.405-15.313 1.75v19.25c0.393 0.352 0.931 0.495 1.314 0.873 2.602 2.603 4.362 5.716 5.688 8.75 6.089 0.627 12.733 3.298 18.375 7.875z" />
<glyph unicode="&#xe602;" glyph-name="cycle-1" data-tags="cycle-1" d="M256 448c-123.714 0-224-100.286-224-224s100.286-224 224-224c123.714 0 224 100.286 224 224s-100.286 224-224 224zM209.466 359.27h93.068v-270.541h-58.578v213.827h-34.489v56.714z" />
<glyph unicode="&#xe603;" glyph-name="cycle-2" data-tags="cycle-2" d="M256 448c-123.714 0-224-100.286-224-224s100.286-224 224-224c123.714 0 224 100.286 224 224s-100.286 224-224 224zM260.339 362.858c24.998 0 44.233-6.57 57.608-19.673 13.381-13.111 20.054-32.062 20.055-56.789-0-12.699-2.574-26.338-7.706-41-5.139-14.656-12.851-30.764-23.118-48.33l-33.221-56.783h54.544v-55.14h-154.5l88.36 151.054c10.812 18.107 16.238 34.59 16.238 49.453 0 7.431-1.621 13.452-4.866 18.179-3.239 4.731-7.255 7.106-12.118 7.106-7.702 0-12.752-3.050-15.115-9.2s-3.593-18.257-3.592-36.362v-9.947h-59.404c0 20.264 0.848 36.168 2.543 47.656 1.692 11.482 5.213 21.6 10.551 30.449 5.338 8.853 13.526 15.983 24.538 21.322s24.071 8.005 39.204 8.005z" />
<glyph unicode="&#xe604;" glyph-name="cycle-3" data-tags="cycle-3" d="M256 448c-123.714 0-224-100.286-224-224s100.286-224 224-224c123.714 0 224 100.286 224 224s-100.286 224-224 224zM256.813 366.151c20.806-0.001 37.959-7.44 51.474-22.372 13.51-14.927 20.272-33.886 20.272-56.857 0-26.754-10.373-47.727-31.049-62.995 24.322-12.57 36.51-35.041 36.51-67.334 0-12.841-3.038-25.616-9.051-38.385-6.010-12.769-14.699-22.010-26.183-27.754-11.488-5.744-24.924-8.604-40.327-8.604-23.105 0-42.055 6.771-56.785 20.351-14.732 13.581-22.636 32.255-23.718 56.036h58.209c0.245-16.62 6.855-24.914 19.823-24.914 12.705 0 19.077 11.341 19.078 34.041 0 10.541-1.892 17.875-5.609 21.996s-10.296 6.135-19.753 6.135h-18.63v56.188h20.279c8.648 0 14.836 2.281 18.553 6.808s5.536 11.876 5.536 22.148c0 22.158-6.2 33.215-18.628 33.215-5.812-0-9.713-2.29-11.674-6.881-1.958-4.594-2.917-12.697-2.917-24.314v-5.685h-59.18c0.259 15.538 1.614 27.637 4.117 36.286 2.5 8.648 6.868 17.12 13.018 25.363s14.168 14.907 24.166 19.976c9.996 5.067 20.847 7.554 32.471 7.555z" />
<glyph unicode="&#xe605;" glyph-name="discipline-citizenship" data-tags="discipline-citizenship" d="M122.694 386.474c-50.093 0-90.694-40.145-90.694-90.238v-20.964c0-44.982 32.747-82.223 75.654-89.327v-47.853l46.942 46.486h32.814c-0.81 5.269-1.823 10.908-1.823 16.407v24.154c0 57.726 46.64 103.911 104.366 103.911h9.57c-13.067 33.658-45.856 57.424-84.314 57.424h-92.517zM296.789 309.909c-50.093 0-90.238-40.145-90.238-90.238v-20.964c0-50.093 40.145-90.694 90.238-90.694h60.615l46.942-46.486v47.853c42.907 7.103 75.654 44.344 75.654 89.327v20.964c0 50.093-40.601 90.238-90.694 90.238h-92.517z" />
<glyph unicode="&#xe606;" glyph-name="discipline-geography" data-tags="discipline-geography" d="M256.513 448.001c-3.225 0-6.476-0.345-9.662-0.509-1.245-0.064-2.322 0.080-3.559 0-1.927-0.096-4.172-0.349-6.102-0.509-0.44-0.048-0.577-0.459-1.018-0.509-10.081-0.897-20.425-1.959-30.511-4.577-77.479-20.104-129.41-86.154-135.773-161.707-0.048-0.411 0.032-1.112 0-1.527-0.385-4.97-1.037-9.71-1.017-14.747-0.016-1.115 0-2.44 0-3.56 0-2.945 0.371-5.733 0.509-8.645 4.376-93.814 78.447-168.666 171.369-176.454v-37.63c0 0-80.041-4.653-103.228-15.255s-32.545-22.375-32.545-22.375h302.057c0 0-13.425 11.772-36.613 22.375s-99.16 15.255-99.16 15.255v36.613c1.505 0.096 3.070-0.128 4.577 0 0.995 0.096 1.55 0.392 2.543 0.509 9.124 0.957 18.842 2.209 27.968 4.577 76.527 19.857 128.296 85.257 135.773 159.673 0.064 0.71-0.064 1.321 0 2.034 0.096 0.953-0.080 2.093 0 3.051 0.325 4.485 1.021 8.683 1.017 13.221-0.002 4.198-0.221 8.481-0.509 12.713-0.323 6.383-1.087 12.613-2.034 18.815-13.46 88.148-87.769 156.221-178.997 158.656-1.675 0.048-3.4 0.509-5.085 0.509zM296.685 419.524c61.786-15.609 108.625-66.224 120.009-129.671-0.863-6.066-1.429-11.717-2.543-14.238-17.017 19.733-23.851 43.656-54.92 35.596-12.481-1.438-35.409 13.744-14.238-5.085 6.799-0.566 20.692 8.798 19.832-10.17-5.087-16.353-26.378-33.159-34.070-13.221s-32.122 32.589-16.272 11.696c15.85-20.894 27.522-37.179 43.732-27.969-0.597-27.002-1.111-33.981-7.627-73.734s14.526-52.515-23.392-70.683c-18 21.041-26.142 50.949-35.087 74.243s-19.363 25.909-47.291 21.866c-27.928-4.043-35.565 38.987-31.019 61.022s17.743 31.805 40.681 33.562c22.938 1.757 36.597 0.391 51.868 3.051-8.445 32.666-28.543 8.163-37.63 13.73-5.029 14.241-16.381 7.669-5.594 1.017s-10.402-15.032-1.525-4.068c-20.633 22.865-27.93-7.186-38.138-18.815-17.475-2.753-12.467 24.132 2.542 24.409-18.715 12.581 10.687 25.886 16.781 28.986 17.639-0.816 33.065 42.832 5.085 28.476 8.918-10.065-5.488-33.061-8.644-14.747-24.682-5.298-2.302 28.851 6.611 33.562 5.503 4.464 14.341 2.228 18.815 0 4.474-2.219 21.557 3.060 26.442 7.627 1.991 1.861 3.868 2.86 5.594 3.559zM185.321 408.337c-6.316-14.535-6.186-22.303-26.442-33.053-9.555-3.653-7.929-14.020-13.73-20.341-9.338 2.64-11.352 7.92-11.696 13.222 14.539 16.617 31.771 30.479 51.869 40.172zM114.129 342.23c7.618-6.157 14.102-27.665 10.678-28.477-15.284-4.564 3.486 19.21-14.747 4.068-5.525-1.699-8.223-2.74-8.645-3.56s1.259-1.813 3.051-3.051c-0.561-0.080 0.251-1.757 1.017-0.509 1.421-1.131 3.061-2.341 4.068-4.577 11.974 2.165-6.011-3.878-13.73-11.695 1.427 6.69 3.377 13.469 5.594 19.832 3.407 9.78 7.606 19.127 12.713 27.968zM112.095 202.897c18.291 1.283 37.727-13.57 51.36-22.883 38.593 5.219 28.013-35.221 26.442-57.462-2.87-1.945-3.88-5.194-5.085-8.645-36.907 17.945-66.369 48.515-81.362 86.956 0.171 0.064 0.336 0.445 0.509 0.509 2.519 0.917 5.523 1.341 8.136 1.525zM372.454 197.813c2.334-0.207 3.876-11.466 4.068-19.324s0.669-20.626-5.085-17.289c-5.755 3.337-1.318 36.82 1.017 36.613z" />
<glyph unicode="&#xe607;" glyph-name="discipline-healthwellbeing" data-tags="discipline-healthwellbeing" d="M151 425.5c-28.435-0.158-36.972-4.351-54-13-24.041-12.212-42.734-32.13-55.5-59-7.525-15.837-9.468-26.131-9.5-53-0.038-33.145 7.047-60.72 22-86.5h86.5l12 69c0.922 8.536 16.578 8.536 17.5 0l11-73c3.481 18.655 4.917 24.6 9.5 49 4.673 24.88 8.992 49.701 12.5 68 1.754 9.15 3.468 16.842 4.5 22 0.515 2.579 0.701 4.137 1 5.5 0.147 0.682 0.34 1.405 0.5 2 0.080 0.298 0.045 0.115 1 2 0.239 0.471 1.996 2.998 2 3 1.063 0.771 2.306 1.736 3.5 2 3.582 0.791 7.35-1.055 9.5-4 0.84-1.15 1.499-3.99 1.5-4s0-0.773 0-1c0 1.25-0.048 0.052 0-0.5s-0.112-1.459 0-2.5c0.218-2.082 0.587-4.78 1-8.5 0.827-7.439 2.079-18.099 3.5-30.5 2.84-24.802 6.713-57.425 10.5-90 4.505-38.742 6.088-52.102 9-77l21 101.5c0.647 8.583 16.365 9.033 17.5 0.5l9.5-33.5h160.5c5.13 8.762 8.996 18.042 12.5 27.5 12.19 32.9 10.747 91.147-3 118.5-43.333 86.226-167.499 87.381-206.5 2l-7-15-3 11c-4.531 17.762-26.203 42.8-47.5 54.5-17.498 9.613-23.755 13.165-53.5 13zM215 296c-2.523-13.315-4.734-25.276-7.5-40-9.342-49.74-18.5-100-18.5-100-0.922-8.536-16.578-8.536-17.5 0l-11 72.5-4-23c0.037-1.685-0.953-2.391-2-3.5-0.931-1.461-2.284-2.58-3.886-3.199 0.109-0.228-1.486-0.788-3.21-0.803l-83.403 0.002c8.359-11.373 18.497-22.447 30.5-33.5 23.802-21.916 31.879-28.231 90.5-72.5 19.785-14.941 43.858-36.195 53.5-47 18.288-20.493 14.359-27.111 18.5-19 3.567 6.988 54.724 56.618 100 89.5 44.354 32.212 72.298 57.345 91 82.5h-156c-3.542-0.443-7.153 2.241-8.5 5.5-0.397 0.466-0.712 0.961-1 1.5-0.016 0.146 0.012 0.356 0 0.5-0.16 0.347-0.388 0.629-0.5 1l-0.5 1.5-25-118c-1.135-8.533-16.853-8.083-17.5 0.5 0 0-7.423 64.84-15 130-3.179 27.339-6.38 52.716-9 75.5z" />
<glyph unicode="&#xe608;" glyph-name="discipline-history" data-tags="discipline-history" d="M168.833 448c0 0-23.71-12.31-33.779-20.911-9.828-8.396-25.312-29.378-25.312-29.378s-0.010-198.677 0-282.462l233.429-115.248v282.881l-217.085 106.866c0 0 9.995 16.327 17.14 22.464 7.38 6.338 25.607 13.997 25.607 13.997l215.828-106.447v-260.67l17.601-8.801v282.462z" />
<glyph unicode="&#xe609;" glyph-name="discipline-manualactivities" data-tags="discipline-manualactivities" d="M463.389 144.478c0.57 0.606 1.131 1.235 1.672 1.875 18.373 19.19 13.143 51.152-4.974 68.582-16.843 18.726-49.036 23.792-67.766 6.483-19.507-18.028-11.262-22.976-18.368-30.274-9.092-9.338-34.6 19.039-92.108 44.851l-8.624 3.813-76.247 164.889c-11.453 20.974-31.23 40.955-61.671 39.775l78.816-178.589-178.589 78.816c-1.181-30.44 18.8-50.218 39.775-61.671l164.89-76.247 3.813-8.623c25.812-57.508 54.19-83.017 44.851-92.108-7.299-7.107-12.247 1.139-30.274-18.368-17.31-18.73-12.244-50.924 6.483-67.766 17.43-18.118 49.392-23.347 68.582-4.974 20.48 17.327 22.596 50.794 5.28 71.089-18.428 25.582-47.992 50.251-55.289 102.913l-1.203 8.623 8.624-1.203c52.662-7.298 77.331-36.862 102.913-55.289 19.661-16.774 51.683-15.322 69.418 3.404zM324.738 28.904c-2.026-2-4.413-3.74-7.135-5.178-19.124-12.126-45.341 3.102-50.743 23.18-7.891 29.329 22.399 55.805 47.196 41.488 20.652-10.325 26.943-42.041 11.519-58.613-0.277-0.295-0.547-0.591-0.834-0.878zM451.074 155.285c-16.306-16.492-48.959-10.358-59.469 10.663-14.318 24.797 12.159 55.087 41.488 47.195 20.077-5.402 35.306-31.619 23.18-50.743-1.438-2.723-3.196-5.089-5.199-7.115zM259.681 220.319c-6.369-6.37-16.709-6.37-23.078 0s-6.369 16.709 0 23.078c6.369 6.369 16.708 6.369 23.078 0s6.37-16.709 0-23.078z" />
<glyph unicode="&#xe60a;" glyph-name="discipline-mathematics" data-tags="discipline-mathematics" d="M99.111 448c-7.879 0-14.222-6.342-14.222-14.222v-419.555c0-7.88 6.343-14.223 14.222-14.223h313.778c7.879 0 14.222 6.342 14.222 14.223v419.555c0 7.88-6.343 14.223-14.222 14.223h-313.778zM125.778 409.778h260.445v-73.333h-260.445v73.333zM125.778 297.333h74.222v-74.665h-74.222v74.666zM218.222 297.333h75.111v-74.665h-75.111v74.666zM311.111 297.333h75.111v-74.665h-75.111v74.666zM125.778 204.889h74.222v-73.779h-74.222v73.779zM218.222 204.889h75.111v-73.779h-75.111v73.779zM312.445 204.889h73.778v-166.667h-73.778v166.667zM125.778 112.889h74.222v-74.667h-74.222v74.667zM218.222 112.889h75.111v-74.667h-75.111v74.667z" />
<glyph unicode="&#xe60b;" glyph-name="discipline-mitic" data-tags="discipline-mitic" d="M463.847 425.789l-113.071-72.688c-22.143 21.322-40.744 32.76-86.015 30.691-49.384-2.258-112.073-58.769-157.492-104.187s-69.897-86.587-74.304-128.013c-4.407-41.425 6.319-71.739 31.499-96.918s55.897-35.906 97.322-31.498 82.191 28.885 127.609 74.304c45.418 45.418 101.93 108.108 104.187 157.492 1.769 38.696-6.498 57.78-22.211 76.323l108.63 69.862-16.153 24.633zM287.779 298.988c5.529 0.096 10.745-1.862 14.942-6.058 8.393-8.393 7.988-21.894-0.403-30.287-8.393-8.393-21.49-8.393-29.883 0s-8.393 21.49 0 29.883c4.197 4.197 9.817 6.357 15.346 6.462z" />
<glyph unicode="&#xe60c;" glyph-name="discipline-music" data-tags="discipline-music" d="M191.943 401.112v-294.884c-13.779 3.932-29.87 4.38-46.156-0.366-37.18-10.839-60.633-42.397-52.383-70.698s45.24-42.342 82.421-31.503c29.137 8.494 49.857 29.568 53.482 52.017h0.367v2.564c0.187 1.796 0.032 3.696 0 5.495v280.964l152.754 31.294v-222.876c-13.779 3.932-29.87 4.38-46.156-0.366-37.18-10.839-60.633-42.397-52.383-70.699s45.24-42.342 82.421-31.503c29.137 8.494 49.857 29.568 53.482 52.017h0.366v2.565c0.187 1.796 0.032 3.696 0 5.495v337.376z" />
<glyph unicode="&#xe60d;" glyph-name="discipline-nutrition" data-tags="discipline-nutrition" d="M336.644 255.863c24.679-13.218 72.211-9.169 108.351 26.971 35.838 35.838 49.385 88.243 15.51 123.243 0 0 0.014 0.014 0.014 0.014-0.16 0.16-0.726 0.726-0.88 0.877 0 0 0-0.013-0.014-0.013-35.001 33.875-87.392 20.327-123.243-15.51-36.14-36.14-40.189-83.672-26.971-108.351-3.404-20.204-31.13-42.125-55.987-56.358-19.175 11.832-43.359 32.736-45.899 74.764 1.839 16.786-3.692 34.232-16.54 47.079-1.181 1.181-4.571 4.050-4.571 4.050l-93.665 72.952-8.537-8.524 101.639-95.353-11.022-11.022-98.469 98.469-9.046-9.031 98.454-98.482-9.306-9.306-98.454 98.454-8.236-8.166 97.864-97.865-11.214-11.255-95.092 100.664-9.334-9.361 77.729-97.947c0 0 1.853-1.894 2.635-2.594 11.31-9.882 25.516-14.549 39.571-14.151 0.096 0 0.248-0.032 0.301-0.032 37.005-0.369 59.871-22.867 74.257-42.275-35.193-35.207-144.409-144.436-144.409-144.436l0.032-0.032c-0.096-0.080-0.248-0.178-0.357-0.289-8.894-8.88-8.894-23.306 0-32.214 0.454-0.453 2.169-2.155 2.608-2.608 8.894-8.894 23.334-8.894 32.215-0.014 0.096 0.096 0.207 0.248 0.29 0.357l0.032-0.032c0 0 101.419 101.42 140.304 140.291 37.005-36.99 139.59-139.549 139.59-139.549l0.032 0.032c0.080-0.096 0.128-0.219 0.261-0.357 8.743-8.729 22.99-8.729 31.748 0.032 8.757 8.757 8.784 22.977 0.014 31.748-0.144 0.128-0.261 0.173-0.37 0.289l0.014 0.032c0 0-113.293 113.293-144.724 144.752 14.192 23.128 34.274 46.942 52.885 50.072zM324.62 323.544c0.534 6.012 1.743 12.93 3.733 20.245 1.058 3.638 2.306 7.385 3.815 11.173 1.674 3.843 3.432 7.425 5.998 11.173 4.928 7.192 10.912 12.779 16.882 17.473 5.902 4.749 11.901 8.442 17.212 11.242 5.284 2.855 10.006 4.708 13.382 5.765 3.432 1.125 5.435 1.277 5.435 1.277s-1.647-1.25-4.118-3.555c-2.498-2.32-6.039-5.642-10.308-9.622-8.208-8.002-19.902-18.392-28.179-29.689-2.004-2.58-3.788-5.984-5.339-9.1-1.688-3.185-3.198-6.478-4.557-9.732-2.841-6.478-5.188-12.751-7.206-18.159-1.976-5.422-3.527-10.006-4.42-13.259-1.002-3.267-0.865-5.202-0.714-5.202-0.080-0.128-1.289 1.757-1.661 5.353-0.44 3.555-0.522 8.62 0.032 14.618z" />
<glyph unicode="&#xe60e;" glyph-name="discipline-sciences" data-tags="discipline-sciences" d="M101.498 364.197c-71.705-71.705-77.178-184.763-16.394-262.736l308.562 267.673-354.197-347.868 21.267-21.267 58.928 66.903c77.973-60.786 191.031-55.312 262.736 16.394 77.615 77.615 90.132 364.704 90.132 364.704s-293.418-6.188-371.034-83.803z" />
<glyph unicode="&#xe60f;" glyph-name="discipline-sport" data-tags="discipline-sport" d="M186.98 437.134c-50.23-16.224-91.137-48.805-118.292-90.173 0.264 0.080 0.513 0.144 0.779 0.2 7.945 1.757 16.183 2.042 24.108 1.238 15.85-1.611 31.431-6.993 47.050-12.666 27.744-10.077 55.23-20.479 80.314-17.538l-32.011 119.452c-0.642-0.2-1.31-0.318-1.95-0.522zM207.054 442.511l32.011-119.453c23.232 10.004 41.992 32.796 60.979 55.394 10.69 12.722 21.492 25.173 34.413 34.492 6.721 4.848 14.18 8.74 22.276 11.19-44.82 22.56-97.349 30.129-149.679 18.378zM69.229 329.353c-3.973-1.315-7.761-3.296-11.547-6.018-1.353-0.973-2.697-2.11-3.96-3.149-0.048-0.080-0.096-0.144-0.144-0.251-20.801-43.862-27.468-94.659-16.007-145.267l206.971 55.452-19.008 70.931c-32.942-5.202-64.39 8.261-92.468 18.459-15.348 5.575-29.797 10.34-42.383 11.619-6.293 0.638-11.977 0.486-17.362-0.683-1.346-0.293-2.769-0.659-4.093-1.095zM360.976 407.517c-5.238-1.651-10.248-4.388-15.378-8.089-10.26-7.4-20.586-18.802-31.089-31.303-19.216-22.87-39.718-50.251-70.849-62.215l19.008-70.931 207.166 55.504c-15.351 49.46-46.422 90.076-86.257 117.659-1.852 0.328-3.784 0.789-5.694 0.979-6.185 0.619-11.668 0.048-16.907-1.606zM42.115 157.719c15.36-49.645 46.557-90.375 86.556-117.997 0.096-0.013 0.144-0.128 0.251-0.144 1.617-0.271 3.292-0.385 4.952-0.553 12.36-1.235 22.168 2.54 32.428 9.941s20.388 18.75 30.895 31.252c19.22 22.87 39.712 50.279 70.849 62.214l-18.956 70.737-206.971-55.452zM267.211 218.026l18.956-70.737c32.935 5.23 64.389-8.26 92.467-18.459 15.348-5.575 29.991-10.288 42.578-11.567s22.764 0.293 32.86 7.55c1.558 1.12 3.054 2.291 4.493 3.501 20.732 43.86 27.313 94.641 15.812 145.214l-207.166-55.503zM272.638 125.286c-23.231-10.004-41.935-32.992-60.927-55.589-10.691-12.721-21.299-25.12-34.218-34.44-6.674-4.815-14.135-8.916-22.224-11.385 44.764-22.532 97.219-30.118 149.485-18.43l-32.115 119.842zM290.762 130.142l32.115-119.843c51.195 15.986 92.901 48.801 120.436 90.747-8.236-1.927-16.695-2.090-24.939-1.25-15.85 1.611-31.431 6.993-47.050 12.666-27.743 10.077-55.44 20.632-80.562 17.682z" />
<glyph unicode="&#xe610;" glyph-name="discipline-visualarts" data-tags="discipline-visualarts" d="M170.041 350.79c-81.028-38.398-138.041-116.298-138.041-116.298s100.328-137.282 224-137.282c123.672 0 224 137.282 224 137.282s-57.014 77.9-138.041 116.298c20.481-21.403 33.12-50.457 33.12-82.42 0-65.826-53.253-119.079-119.079-119.079s-119.079 53.253-119.079 119.079c0 31.962 12.639 61.017 33.12 82.42zM256 329.806c-33.91 0-61.435-27.273-61.435-61.183s27.525-61.436 61.435-61.436c33.91 0 61.435 27.525 61.435 61.435 0 6.93-1.17 13.506-3.286 19.72l-54.104-17.192v58.402c-1.336 0.080-2.688 0.253-4.045 0.253z" />
<glyph unicode="&#xe611;" glyph-name="learning" data-tags="learning" d="M83.249 448c-28.423 0-51.249-22.899-51.249-51.318v-345.363c0-28.419 22.825-51.318 51.249-51.318h345.429c28.418 0 51.322 22.899 51.322 51.318v345.363c0 28.418-22.904 51.318-51.322 51.318h-345.43zM110.032 386.587h70.63v-254.709h221.229v-70.537h-291.859v325.247z" />
<glyph unicode="&#xe612;" glyph-name="learningoptional" data-tags="learningoptional" d="M110 386.5v-325h292v70.5h-221.5v254.5h-70.5z" />
<glyph unicode="&#xe613;" glyph-name="studentf" data-tags="studentf" d="M255.964 448c-60.383 0-119.533-74.988-100.586-145.689 4.294-16.018 8.673-30.77 13.53-44.075-2.988-1.913-5.868-4.156-8.542-6.837-7.934-7.934-12.562-17.611-13.53-26.715-3.84-1.672-7.499-4.157-10.797-7.45-4.741-4.741-7.81-10.399-9.153-15.99-3.672-2.176-7.338-4.945-10.731-8.337-13.112-13.113-17.535-29.957-9.909-37.584s24.471-3.138 37.584 9.975c3.397 3.396 6.094 7.066 8.272 10.731 5.59 1.342 11.249 4.412 15.99 9.153 3.279 3.279 5.707 6.981 7.379 10.797 7.67 0.776 15.788 4.147 22.892 9.909 4.112-4.274 8.592-8.002 13.465-11.136v-34.784c-160.472-9.999-170.601-77.19-171.112-159.97h430.575c-0.519 82.78-10.642 149.97-171.112 159.97v34.647c2.747 1.756 5.37 3.683 7.861 5.806 4.774-2.458 9.697-3.948 14.49-4.442 1.666-3.817 4.167-7.517 7.443-10.797 4.743-4.741 10.334-7.81 15.925-9.153 2.171-3.666 4.944-7.336 8.337-10.731 13.113-13.113 29.957-17.601 37.584-9.975s3.138 24.471-9.975 37.584c-3.399 3.393-7.066 6.161-10.731 8.337-1.342 5.59-4.412 11.249-9.158 15.99-3.293 3.293-6.952 5.778-10.797 7.45-0.88 8.326-4.822 17.086-11.548 24.601 6.217 15.459 11.64 33.222 16.949 53.025 18.943 70.701-40.207 145.689-100.59 145.689z" />
<glyph unicode="&#xe614;" glyph-name="studentm" data-tags="studentm" d="M255.964 448c-60.383 0-119.534-74.988-100.587-145.689 13.636-50.893 28.044-89.276 56.447-107.558v-34.784c-160.472-9.999-170.601-77.19-171.113-159.97h430.577c-0.519 82.78-10.642 149.97-171.113 159.97v34.647c28.273 18.072 42.568 56.156 56.378 107.694 18.943 70.701-40.207 145.689-100.59 145.689z" />
<glyph unicode="&#xe615;" glyph-name="teacherf" data-tags="teacherf" d="M256.009 448c-60.384 0-119.532-74.988-100.588-145.689 3.881-14.487 7.785-27.896 12.095-40.18-10.209-24.681-19.391-51.718-35.261-72.916 47.757 0.096 57.856-10.087 79.609-3.346v-25.899c-7.968-0.504-15.444-1.127-22.687-1.911 2.918-40.398 31.744-72.159 66.899-72.159s63.98 31.762 66.899 72.159c-7.243 0.755-14.787 1.425-22.755 1.911v25.012c19.664-4.855 31.043 4.317 76.398 4.234-15.003 20.041-23.981 45.33-33.552 68.885 4.83 13.291 9.208 28.082 13.53 44.212 18.944 70.7-40.204 145.689-100.588 145.689zM322.976 158.058c0.175-2.164 0.255-4.353 0.255-6.563 0-43.558-30.079-78.853-67.173-78.853s-67.171 35.294-67.171 78.853c0 2.209 0.144 4.399 0.248 6.563-138.642-14.805-147.94-79.387-148.422-158.058h430.575c-0.49 78.671-9.709 143.254-148.357 158.058z" />
<glyph unicode="&#xe616;" glyph-name="teacherm" data-tags="teacherm" d="M255.968 448c-60.383 0-119.533-74.988-100.586-145.689 13.636-50.893 28.043-89.276 56.446-107.558v-34.784c-160.472-9.999-170.601-77.19-171.112-159.97h196.392l16.674 111.726-23.714 41.067h51.864l-23.714-41.067 16.675-111.726h196.392c-0.519 82.78-10.637 149.97-171.11 159.97v34.647c28.271 18.072 42.566 56.156 56.377 107.694 18.943 70.7-40.204 145.689-100.59 145.689z" />
<glyph unicode="&#xe617;" glyph-name="visualidentity-ch" data-tags="visualidentity-ch" d="M256 448c-67.368 0-134.737-11.452-202.106-33.684 0-157.642-1.347-324.716 202.106-414.316 203.452 89.6 202.106 256.674 202.106 414.316-67.368 22.231-134.737 33.684-202.106 33.684zM215.579 380.632h80.842v-94.315h94.315v-80.842h-94.315v-94.316h-80.842v94.316h-94.316v80.842h94.316v94.315z" />
<glyph unicode="&#xe618;" glyph-name="visualidentity-ne" data-tags="visualidentity-ne" d="M98.397 386.060l-66.397-324.118h125.978l66.397 324.118h-125.978zM354.022 386.060l-66.397-324.118h125.978l66.397 324.118h-125.978zM400.771 366.49h25.074l-5.888-28.743h28.743l-5.262-25.685h-28.743l-5.888-28.743h-25.074l5.888 28.743h-28.743l5.262 25.685h28.743l5.888 28.743z" />
<glyph unicode="&#xe619;" glyph-name="visualidentity-neapp" data-tags="visualidentity-neapp" d="M256 448c-123.712 0-224-100.288-224-224s100.288-224 224-224c123.712 0 224 100.288 224 224s-100.288 224-224 224zM143 340.5h90.5l-48-233h-90.5l48 233zM326.5 340.5h90.5l-48-233h-90.5l48 233zM360 326.5l-4.5-21h-20.5l-3.5-18.5h20.5l-4.5-20.5h18l4.5 20.5h20.5l4 18.5h-21l4.5 21h-18z" />
<glyph unicode="&#xe61a;" glyph-name="visualidentity-per" data-tags="visualidentity-per" d="M284.060 447.992c-0.853 0.014-1.713 0.014-2.569-0.048-18.551-3.518-24.433-24.963-26.801-41.244-3.173-20.29-11.819-42.474-1.357-61.987 4.324-10.892 15.030-20.652 27.528-17.157 15.984 1.902 30.077 16.226 28.255 32.908 0.144 21.688 2.923 43.518 1.647 65.137-1.745 13.116-13.909 22.185-26.704 22.391zM178.066 312.531l-42.068-1.405c-18.407 0.387-33.469-8.913-30.436-27.577 2.46-15.144 14.306-28.003 32.714-28.352l94.895-1.793c-0.667-1.781-1.352-3.563-1.987-5.282l-62.132-168.611c-7.406-20.098-8.974-74.286 6.3-78.902s37.566 18.003 42.746 35.671l37.609 128.288 32.859-131.729c4.46-17.863 13.307-31.346 28.788-27.48s24.891 11.459 27.092 41.438c1.943 26.463-55.558 143.005-52.149 205.638l80.792-1.696c18.408-0.349 33.441 11.752 33.732 27.092s-14.313 27.705-32.714 28.304z" />
<glyph unicode="&#xe61b;" glyph-name="visualidentity-rpn" data-tags="visualidentity-rpn" d="M299.841 248.793c-10.049 0.768-22.281-5.796-27.183-14.599l-101.21-181.505c-4.909-8.803-0.683-15.669 9.387-15.253l179.11 7.359c10.070 0.416 22.422 7.894 27.443 16.627l90.464 157.131c5.028 8.732 0.923 16.514-9.127 17.281l-168.885 12.958zM255.56 243.343c4.909 8.803 3.74 22.415-2.599 30.246l-98.302 121.582c-6.331 7.838-15.845 7.225-21.126-1.352l-94.984-154.195c-5.282-8.577-7.916-18.154-5.838-21.274s8.338-12.535 13.916-20.922l57.697-86.767c5.578-8.387 14.711-22.12 20.288-30.514l11.584-17.415c5.577-8.394 14.162-8.063 19.070 0.74l100.294 179.87zM269.538 283.927c6.331-7.838 19.739-14.88 29.781-15.655l167.42-12.838c10.049-0.774 12.24 4.225 4.866 11.099l-102.844 95.991c-7.373 6.88-21.478 14.14-31.351 16.148l-154.892 31.45c-9.873 2.007-12.774-2.767-6.436-10.606l93.456-115.59z" />
<glyph unicode="&#xe61c;" glyph-name="visualidentity-rpnapp" data-tags="visualidentity-rpnapp" d="M48 448c-8.864 0-16-7.136-16-16v-416c0-8.864 7.136-16 16-16h416c8.864 0 16 7.136 16 16v416c0 8.864-7.136 16-16 16h-416zM189 380.5c1.312 0.241 2.926 0.423 5 0l130.5-26.5c8.296-1.687 19.805-7.719 26-13.5l87-81c6.195-5.775 3.944-9.651-4.5-9l-140.5 11c-8.438 0.651-20.18 6.414-25.5 13l-78 97c-3.994 4.94-3.936 8.274 0 9zM161.5 372.5c3.218 0.206 6.84-1.207 9.5-4.5l82.5-102.5c5.325-6.58 6.625-17.603 2.5-25l-84.5-151.5c-4.125-7.396-11.314-7.553-16-0.5l-10 15c-4.686 7.053-12.314 18.452-17 25.5l-48.5 72.5c-4.686 7.048-9.755 15.378-11.5 18s0.562 10.292 5 17.5l79.5 130c2.219 3.603 5.282 5.293 8.5 5.5zM293 245l142-11c8.444-0.645 11.725-7.162 7.5-14.5l-76-132c-4.219-7.337-15.038-13.649-23.5-14l-150-6.5c-8.463-0.349-12.125 6.103-8 13.5l85 152.5c4.118 7.397 14.556 12.645 23 12z" />
<glyph unicode="&#xe61d;" glyph-name="tool-eraser" data-tags="tool-eraser" d="M433.312 411.192c-15.126 26.2-49.039 35.286-75.238 20.16l-258.993-149.529-2.005-5.133-61.852-151.481-3.223-7.327 46.795-81.052c15.18-26.294 49.425-35.312 75.72-20.127l258.807 149.422 2.005 5.133 61.558 151.56 3.115 7.513-46.688 80.865zM274.554 345.37l-51.767-126.778 42.707-73.971c4.23-7.327 10.475-12.666 17.63-15.907l-144.962-83.694c-10.977-6.338-24.522-2.709-30.859 8.269l-38.727 67.077 56.544 138.727 149.434 86.276z" />
<glyph unicode="&#xe61e;" glyph-name="tool-pen" data-tags="tool-pen" d="M441.978 417.267c-26.755 26.756-66.987 30.251-93.344 9.151-0.291-0.233-0.327-0.366-0.61-0.609-0.435-0.338-1.128-0.519-1.525-0.915l-142.456-142.456c-5.913-5.913-5.269-15.474 1.221-21.963l80.227-80.226c6.49-6.49 16.355-7.438 22.268-1.525l104.63 104.63 9.762-9.762-85.107-85.107c-5.578-5.578-5.985-14.148-0.915-19.218s13.64-4.663 19.218 0.915l120.187 120.187c5.578 5.578 5.985 14.148 0.915 19.218s-13.64 4.663-19.218-0.915l-10.676-10.677-9.762 9.762 13.422 13.422c0.397 0.399 0.576 1.093 0.915 1.525 0.923 1.173 1.939 2.294 2.44 3.66 18.919 26.348 14.924 64.388-10.982 90.293l-0.61 0.61zM193.063 250.714l-59.483-59.483c-5.080-5.080-6.882-11.647-5.49-17.082l-52.468-13.422-14.032-3.661 5.796-12.507c0 0 3.479-7.718 2.135-26.539-1.343-18.821-8.159-47.582-32.334-86.022l-5.186-7.626 16.472-16.473 7.931 4.881c38.426 24.166 67.136 31.055 86.022 32.334s26.844-2.44 26.844-2.44l12.506-5.796 3.661 14.032 13.117 52.163c5.534-1.698 12.428 0.226 17.692 5.49l59.483 59.483-82.667 82.667zM144.561 155.235l35.385-35.385-13.727-54.603c-6.066 1.615-9.35 3.744-24.099 2.745-14.9-1.010-35.042-6.959-58.263-17.387l32.334 32.334c6.439-2.68 14.034-1.829 19.523 3.661 7.145 7.145 7.363 18.26 0.609 25.014s-17.869 6.534-25.014-0.61c-5.489-5.489-6.341-13.084-3.66-19.523l-32.334-32.334c10.362 23.308 16.020 43.698 17.082 58.569 1.032 14.471-1.173 17.385-2.746 23.488l54.908 14.032z" />
<glyph unicode="&#xe61f;" glyph-name="tool-pencil" data-tags="tool-pencil" d="M440.267 408.043c-31.341 31.341-67.578 46.99-83.88 36.889l-0.235 0.235-289.233-289.233c-5.038-4.108-11.513-15.742-11.513-15.742s-13.832-68.851-20.911-103.147c-0.163-0.392-0.080-0.784-0.235-1.175-3.541-9.491-3.042-19.454 2.349-27.255l0.235-0.705 2.821-2.82 0.939-0.471c7.828-5.411 17.883-5.863 27.255-2.349 0.24 0.080 0.467 0.144 0.706 0.235h0.471l102.677 20.911c0 0 10.277 5.578 16.212 11.513l289.233 289.233-0.235 0.235c10.102 16.302-5.313 52.305-36.654 83.645zM402.44 417.207c3.156-3.155 3.39-8.357 0.235-11.513l-260.334-260.334c-3.156-3.156-8.357-2.921-11.513 0.235s-3.156 8.122 0 11.278l260.334 260.334c3.156 3.156 8.122 3.156 11.278 0zM448.961 370.685c3.156-3.156 3.39-8.358 0.235-11.513l-260.334-260.334c-3.156-3.156-8.357-2.921-11.513 0.235s-3.156 8.122 0 11.278l260.333 260.334c3.156 3.156 8.122 3.156 11.278 0zM132.708 100.954c20.504-20.504 34.518-43.161 38.768-60.854-1.695-1.363-3.155-2.351-4.23-2.82-0.112-0.048-0.128-0.19-0.235-0.235l-74.246-15.038c-1.769 8.999-6.067 17.815-13.392 25.14-7.34 7.339-16.083 11.562-25.141 13.392l15.508 75.187c0.422 0.883 1.502 2.166 2.585 3.524 17.703-4.313 39.969-17.883 60.385-38.298z" />
<glyph unicode="&#xe620;" glyph-name="tool-stab" data-tags="tool-stab" d="M374.901 440.839l98.186-98.186c9.7-9.7 8.69-24.325 0.098-34.921l-180.109-222.096c-8.593-10.596-25.221-9.603-34.921 0.098l-140.174 140.174c-9.7 9.7-10.694 26.328-0.098 34.92l222.096 180.109c10.596 8.593 25.221 9.603 34.921-0.098zM102.909 212.307l-16.401-16.401c3.604-35.414 1.187-42.386-19.771-70.764-6.041-6.041-5.92-15.73-0.123-21.527l69.25-69.25c5.797-5.797 15.486-5.918 21.527 0.123 28.378 20.958 35.35 23.375 70.764 19.771l16.401 16.401-141.648 141.647zM64.638 88.389l55.999-55.999-32.142-32.142-56.496 28.662 0.497 27.337z" />
<glyph unicode="&#xe621;" glyph-name="visualidentity-sien" data-tags="visualidentity-sien" d="M32.001 447.61l0.493-182.324c0 0 23.983 41.007 66.748 40.443 47.044-3.188 73.982-14.303 73.982-14.303l0.657-41.43c0 0-29.429 18.275-66.419 20.715-12.076 1.864-49.758-0.544-49.978-41.923-0.221-42.234 61.333-58.474 83.517-67.898 21.147-8.984 103.272-76.022 6.083-160.458 0.208-0.096 332.918 0 332.918 0v447.178h-448zM32.493 182.262c-0.112-0.4-0.33-135.962-0.33-135.962s110.403-63.306 125.44 24.825c5.833 58.162-113.838 78.692-125.111 111.137z" />
<glyph unicode="&#xe622;" glyph-name="visualidentity-er" data-tags="visualidentity-er" d="M50 448c0 0-18 0.077-18-23.5v-212c20.12 17.619 47.087 29 82 29 40.19 0 67.725-15.236 85.5-38.5v39h82v-49.5h1c12.93 35.864 35.884 54 69.5 54 8.623 0 15.668-0.931 20.5-3v-75.5c-9.831 5.341-21.402 8-34.5 8-17.761 0-31.5-6.481-41.5-19.5s-15-30.586-15-53v-103.5h180.5c0 0 18-0.072 18 23.5v401c0 0-0.085 23.5-18 23.5h-412zM124 345h72.5l-62.5-77.5h-54l44 77.5zM109.5 190c-32.715 0-46.446-29.541-48.5-50.5h92.5c0 18.919-8.22 50.5-44 50.5zM62 86.5c2.549-32.201 34.206-48 70.5-48 25.875 0 46.569 3.695 67 10v38h-137.5z" />
<glyph unicode="&#xe623;" glyph-name="visualidentity-icar" data-tags="visualidentity-icar" d="M48 448c-8.864 0-16-7.136-16-16v-416c0-8.864 7.136-16 16-16h47.5c40.117 120.35 145.179 321 321 321-82.43-66.132-120.325-220.5-180.5-220.5h-60l-60.5-100.5h348.5c8.864 0 16 7.136 16 16v416c0 8.864-7.136 16-16 16h-416z" />
<glyph unicode="&#xe624;" glyph-name="visualidentity-tcs" data-tags="visualidentity-tcs" d="M48 448c-8.864 0-16-7.136-16-16v-124c163.893-12.221 295.084-143.796 306-308h126c8.864 0 16 7.136 16 16v416c0 8.864-7.136 16-16 16h-416zM34.5 258v-178c26.565 44.902 54.835 91.894 91.5 153-28.43 13.202-58.864 21.882-91.5 25zM169 208.5l-91.5-159c46.814 26.309 99.046 55.355 160.5 89.5-18.922 26.899-42.019 50.661-69 69.5zM263.5 97l-163.5-95.5c41.314-0.497 91.427-0.844 142-1.5h47c-2.695 34.38-11.608 67.244-25.5 97z" />
<glyph unicode="&#xe625;" glyph-name="visualidentity-phoenix" data-tags="visualidentity-phoenix" d="M48 448c-8.797 0-16-7.204-16-16v-416c0-8.796 7.203-16 16-16h111c-15.233 6.367-52.014 34.268-60.5 60-14.901 38.762 0.44 81.196 22.5 112.5 8.049 14.312 11.186 32.002 8.5 49 36.076-28.923 59.942-66.666 66.5-109 2.086 14.011 7.028 26.884 11.5 40 19.974 51.878 76.68 77.63 122 100l16 7c24.156 11.64 50.556 30.968 59.5 57.5 0.596 1.49 2.805 4.786 4 1.5 8.939-42.634-4.303-84.705-21-119 10.735 9.849 19.47 19.056 30.5 28 1.195-0.895 0.5-2.31 0.5-3.5-19.674-48.301 5.921-104.003-7.5-153.5-8.084-34.696-39.908-60.748-73.5-70.5h126c8.796 0 16 7.204 16 16v416c0 8.796-7.204 16-16 16zM356 222.5c-28.623-29.218-67.345-42.919-90-79-24.15-28.923-17.014-90.341-27-105.5-15.062-22.865-43.423-33.467-65.5-38h70c36.778 9.102 68.246 34.339 85 68.5 23.851 41.143 0.322 97.462 20 139.5 1.796 5.072 7.5 10.313 7.5 14.5z" />
<glyph unicode="&#xe626;" glyph-name="visualidentity-iclasse" data-tags="visualidentity-iclasse" d="M48 448c-8.864 0-16-7.136-16-16v-416c0-8.864 7.136-16 16-16h416c8.864 0 16 7.136 16 16v416c0 8.864-7.136 16-16 16h-416zM256 409c29.925 0 54-24.075 54-54s-24.075-54-54-54c-29.925 0-54 24.075-54 54s24.075 54 54 54zM256 270.5c30.018 0 54-24.482 54-54.5v-123c0-30.018-23.982-54-54-54s-54 23.982-54 54v123c0 30.018 23.982 54.5 54 54.5z" />
<glyph unicode="&#xe900;" glyph-name="sense-hearing" data-tags="sense-hearing" d="M256 448c-95.189 0-172.5-79.803-172.5-177.5 0 0 0 0 0 0 0-7.594 6.156-13.75 13.75-13.75s13.75 6.156 13.75 13.75c0 0 0 0 0 0 0 83.548 64.963 150.5 145 150.5 79.899 0 144.774-66.696 145-150-0.002-0.122 0.003-0.373 0-0.5-0.586-21.851-12.147-45.617-28-71-15.946-25.533-35.549-52.312-50-82-13.368-27.464-27.353-50.509-44.5-66s-37.187-24.5-66-24.5c-56.601 0-101.5 43.081-101.5 95.5 0 0 0 0 0 0 0 7.594-6.156 13.75-13.75 13.75s-13.75-6.156-13.75-13.75c0 0 0 0 0 0 0-67.966 58.528-122.5 129-122.5 34.724 0 62.594 12.159 84 31.5s36.981 45.2 51 74c12.935 26.575 31.765 52.704 48.5 79.5s31.859 54.43 32.5 85v0.5c0 97.74-77.312 177.5-172.5 177.5zM248 391.5c-7.002-0.396-13.909-1.587-21-3.5-56.727-15.3-90.774-73.752-75.5-130.5 7.637-28.374 25.861-51.389 49.5-65 1.536-0.649 3.323-1.027 5.198-1.027 7.549 0 13.668 6.12 13.668 13.668 0 4.412-2.090 8.336-5.335 10.835-17.69 10.19-30.799 27.226-36.532 48.524-2.225 8.267-2.874 16.412-2.5 24.5 1.333 0.143 2.554 0.454 3.698 0.916 43.361 13.584 90.686-10.522 104.802-54.916s-10.442-91.5-55-105.5c-22.279-7-45.31-4.451-64.5 5.5-2.169 1.538-4.87 2.457-7.786 2.457-7.492 0-13.565-6.073-13.565-13.565 0-5.985 3.876-11.065 9.255-12.865 25.389-13.144 55.336-16.721 84.596-7.528 58.519 18.386 91.567 81.111 73 139.5-13.925 43.791-52.776 72.863-96 77-10.396 0.995-20.96 0.445-31.5-1.5 9.489 20.59 27.255 37.096 51 43.5 42.568 11.481 86.034-13.903 97.5-56.5 1.689-5.83 6.98-10.021 13.25-10.021 7.605 0 13.771 6.165 13.771 13.771 0 1.335-0.19 2.627-0.545 3.848-11.432 42.463-47.31 72.187-88.476 77.902-6.861 0.952-13.998 0.896-21 0.5zM409 180c-8.090-0.877-14.332-7.67-14.332-15.92 0-7.536 5.209-13.857 12.222-15.558l75.11-20.022c1.51-0.52 3.248-0.82 5.058-0.82 5.611 0 10.548 2.888 13.404 7.259 1.406 1.913 2.397 4.13 2.849 6.536-0.608-2.238-0.2-0.223-0.2 1.887 0 7.637-5.349 14.024-12.505 15.618l-75.106 20.52c-1.334 0.401-2.866 0.632-4.452 0.632-0.722 0-1.433-0.048-2.13-0.14zM373.5 122.5c-7.406-1.5-12.904-7.957-12.904-15.699 0-5.852 3.142-10.971 7.83-13.76l67.574-39.041c2.435-1.575 5.411-2.512 8.606-2.512 6.294 0 11.739 3.634 14.352 8.918 0.464 1.369 0.735 2.841 0.791 4.369 0.254-0.789 0.545 0.923 0.545 2.702 0 6.010-3.313 11.246-8.212 13.981l-67.581 39.041c-2.338 1.413-5.163 2.25-8.182 2.25-0.996 0-1.971-0.091-2.916-0.265zM344 64.5c-8.565-0.349-15.377-7.377-15.377-15.995 0-4.514 1.868-8.591 4.873-11.5l55.005-55.004c2.909-2.981 6.967-4.83 11.457-4.83 6.024 0 11.272 3.329 14.002 8.249 1.357 1.817 2.339 3.881 2.851 6.125-1.111-2.812-0.706-0.805-0.706 1.296 0 4.858-2.164 9.209-5.582 12.144l-55.022 54.518c-2.909 3.067-7.009 4.981-11.556 5z" />
<glyph unicode="&#xe901;" glyph-name="sense-sight" data-tags="sense-sight" d="M329.999 391.794c-7.451-0.776-13.21-7.023-13.21-14.615 0-7.058 4.978-12.954 11.615-14.367 61.599-29.163 102.712-79.806 113.096-93.017-11.464-14.487-89.996-112-185.5-112s-174.036 97.512-185.5 112c10.385 13.211 51.497 63.854 113 93 5.131 2.366 8.627 7.465 8.627 13.38 0 8.113-6.577 14.69-14.69 14.69-0.506 0-1.006-0.025-1.499-0.075-1.102 0.009-3.467-0.769-5.5-2.031-78.861-37.365-131.938-110.964-131.938-110.964l-6.5-8.5 6.5-9c0 0 93.095-132 217.5-132s217.5 132 217.5 132l6.5 9-6.5 8.5c0 0-53.077 73.599-132 111-2.185 1.737-5.197 2.906-8.479 3-0.471 0.049-0.993 0.077-1.521 0.077s-1.050-0.028-1.564-0.082zM255.999 353.294c-46.607 0-84.5-38.393-84.5-85s37.893-84.5 84.5-84.5c46.607 0 85 37.894 85 84.5s-38.394 85-85 85zM255.999 323.794c30.73 0 55.5-24.77 55.5-55.5s-24.77-55-55.5-55c-30.73 0-55 24.27-55 55s24.27 55.5 55 55.5zM255.999 306.794c-21.255 0-38.5-17.245-38.5-38.5s17.245-38.5 38.5-38.5c21.254 0 38.5 17.245 38.5 38.5s-17.245 38.5-38.5 38.5zM248.499 104.795c-8.172-0.788-14.51-7.62-14.51-15.932 0-0.2 0.004-0.399 0.011-0.596l-0.001-77.971c-0.006-0.17-0.010-0.37-0.010-0.57 0-8.837 7.164-16.002 16.001-16.002 0.531 0 1.056 0.026 1.574 0.077-0.811-0.197 0.66 0.072 2.048 0.526 7.096 1.624 12.392 7.985 12.392 15.583 0 0.135-0.002 0.271-0.005 0.405l0 77.98c0.007 0.17 0.010 0.37 0.010 0.57 0 8.837-7.164 16.002-16.001 16.002-0.531 0-1.056-0.026-1.574-0.077zM180.999 102.795c-6.175-0.862-11.408-5.648-12.976-11.889l-20.023-75.111c-0.412-1.351-0.649-2.904-0.649-4.512 0-8.837 7.164-16.002 16.001-16.002 0.227 0 0.454 0.005 0.68 0.014 0.191-0.012 0.453-0.019 0.718-0.019s0.526 0.007 0.786 0.019c6.526 0.786 11.996 5.834 13.444 12.392l20.019 75.106c0.356 1.259 0.56 2.704 0.56 4.197 0 8.841-7.167 16.008-16.008 16.008-0.901 0-1.785-0.075-2.645-0.217zM314.499 102.795c-7.724-1.231-13.555-7.844-13.555-15.819 0-1.488 0.203-2.927 0.582-4.293l19.974-74.887c1.557-6.967 7.627-12.207 14.969-12.499 0.481-0.046 1.002-0.072 1.531-0.072s1.050 0.026 1.565 0.075c7.724 1.161 13.63 7.805 13.63 15.829 0 1.664-0.254 3.269-0.726 4.779l-19.969 74.887c-1.776 7.052-8.060 12.189-15.546 12.189-0.866 0-1.716-0.069-2.546-0.202z" />
<glyph unicode="&#xe902;" glyph-name="smile-happy-white" data-tags="smile-happy-white" d="M256 448c-123.522 0-224-100.478-224-224s100.478-224 224-224c123.522 0 224 100.478 224 224s-100.478 224-224 224zM256 416c106.228 0 192-85.772 192-192s-85.772-192-192-192c-106.228 0-192 85.772-192 192s85.772 192 192 192zM181.094 340.5c-15.23 0-25.242-10.567-30.5-20.5s-7.5-21.154-7.5-33.5c0-12.346 2.242-24.067 7.5-34s15.27-20.5 30.5-20.5c15.23 0 25.742 10.567 31 20.5s7.5 21.654 7.5 34c0 12.346-2.242 23.567-7.5 33.5s-15.77 20.5-31 20.5zM330.594 340.5c-15.229 0-25.241-10.567-30.5-20.5s-7.5-21.154-7.5-33.5c0-12.346 2.241-24.067 7.5-34s15.271-20.5 30.5-20.5c15.229 0 25.741 10.567 31 20.5s7.5 21.654 7.5 34c0 12.346-2.241 23.567-7.5 33.5s-15.771 20.5-31 20.5zM127.594 193.5c-10.254-1.334-16.932-14.411-12-23.5 0 0 46.907-102.5 140.5-102.5s140.5 102.5 140.5 102.5c3.665 7.592 0.096 17.835-7.5 21.5-7.592 3.665-17.835 0.096-21.5-7.5 0 0-42.41-84.5-111.5-84.5s-111.5 84.5-111.5 84.5c-2.609 5.893-9.065 9.85-15.5 9.5-0.499 0.016-1.001 0.016-1.5 0z" />
<glyph unicode="&#xe903;" glyph-name="sense-smell" data-tags="sense-smell" d="M111.5 470c-5.627-0.611-10.329-4.060-12.69-8.868-1.126-1.368-2.108-3.432-2.619-5.675 1.111 2.812 0.706 0.805 0.706-1.296 0-4.857 2.165-9.209 5.582-12.144l55.021-54.518c2.933-4.145 7.708-6.819 13.107-6.819 8.841 0 16.008 7.167 16.008 16.008 0 5.526-2.8 10.398-7.059 13.275l-55.056 55.036c-2.927 3.115-7.073 5.055-11.671 5.055-0.468 0-0.93-0.020-1.388-0.060zM316.5 400c-4.587-0.624-8.496-3.113-10.995-6.666 0.495 0.666-48.81-61.567-96.005-128.834-23.597-33.633-46.466-68.339-63-98-8.267-14.831-14.713-28.526-19-40.5s-8.293-22.143-3-35l1-3 2-2c29.291-31.623 79.734-37.043 126-38s91.544 4.5 103.5 4.5c11.376 0 23.755 5.479 29 15s4.205 18.911 2.5 27c-3.411 16.178-11.541 30.377-18.5 39.5-15.012 19.683-39.115 24.010-59 24-14.889-0.007-27.818-6.132-39.5-11.5s-21-11-21-11c-5.642-2.556-9.496-8.137-9.496-14.62 0-8.837 7.164-16.002 16.001-16.002 3.574 0 6.873 1.171 9.537 3.151-0.043-0.031 8.252 4.279 18.457 8.969s23.295 8.998 26 9c15.302 0.007 27.406-3.511 33.5-11.5 3.594-4.712 10.762-18.257 12.5-26.5 0.339-1.608 0.528-2.584 0.5-3.5-0.31 0.009-0.007 0-0.5 0-19.19 0-59.67-5.396-103-4.5-41.237 0.853-80.74 9.678-99 26 0.331 0.822 0.016 2.573 2.5 9.5 3.278 9.154 9.231 21.562 17 35.5 15.539 27.877 38.243 61.851 61.5 95 46.514 66.298 95 128 95 128 2.255 2.737 3.623 6.279 3.623 10.139 0 8.838-7.164 16.002-16.002 16.002-0.748 0-1.484-0.052-2.204-0.151zM66 395.5c-5.576-0.899-10.126-4.572-12.243-9.533-0.18-0.743-0.45-2.215-0.506-3.743-0.254 0.789-0.544-0.923-0.544-2.702 0-6.010 3.313-11.246 8.212-13.981l67.581-39.042c2.62-1.95 5.921-3.121 9.494-3.121 8.838 0 16.001 7.164 16.001 16.001 0 6.482-3.854 12.063-9.395 14.579l-67.6 39.041c-2.482 1.66-5.535 2.649-8.819 2.649-0.769 0-1.526-0.055-2.266-0.159zM24.5 319.5c-5.279-0.548-9.745-3.59-12.249-7.911-1.12-1.441-2.11-3.657-2.563-6.064 0.607 2.238 0.2 0.223 0.2-1.887 0-7.637 5.35-14.024 12.505-15.619l75.106-20.52c1.274-0.363 2.737-0.572 4.25-0.572 8.876 0 16.072 7.195 16.072 16.072 0 7.364-4.953 13.571-11.709 15.473l-75.113 20.027c-1.672 0.648-3.608 1.024-5.631 1.024-0.305 0-0.609-0.009-0.91-0.025z" />
<glyph unicode="&#xe904;" glyph-name="sense-taste" data-tags="sense-taste" d="M256 389.5c-66.767 0-128-9.5-128-9.5-8.594-0.308-15.445-7.35-15.445-15.992 0-8.837 7.164-16.002 16.001-16.002 1.401 0 2.76 0.18 4.054 0.518-0.112-0.024 59.606 8.976 123.388 8.976s123.5-9 123.5-9c1.183-0.313 2.543-0.494 3.943-0.494 8.837 0 16.002 7.164 16.002 16.002 0 8.642-6.851 15.683-15.417 15.991-0.028 0.001-61.261 9.501-128.028 9.501zM41 328c-7.903-1.143-13.907-7.87-13.907-16 0-8.923 7.234-16.158 16.157-16.158 0.794 0 1.574 0.057 2.337 0.168l47.413-0.010c6.718-99.52 75.582-180.5 163.5-180.5s156.783 80.98 163.5 180.5h47.5c0.067-0.001 0.147-0.001 0.226-0.001 8.837 0 16.002 7.164 16.002 16.001s-7.164 16.001-16.002 16.001c-0.079 0-0.159-0-0.238-0.001h-421.988c-0.224 0.011-0.486 0.018-0.75 0.018s-0.526-0.007-0.787-0.019c-0.187 0.012-0.45 0.019-0.713 0.019s-0.526-0.007-0.787-0.019c-0.187 0.012-0.45 0.019-0.713 0.019s-0.526-0.007-0.787-0.019zM126.5 296h114v-52c-0.001-0.067-0.001-0.147-0.001-0.226 0-8.838 7.164-16.001 16.001-16.001s16.002 7.164 16.002 16.001c0 0.079-0 0.159-0.002 0.238v51.988h114c-6.863-84.12-62.819-148.5-130-148.5s-123.137 64.38-130 148.5zM254 93c-8.167-0.793-14.5-7.622-14.5-15.931 0-0.024 0-0.048 0-0.072v-77.997c-0.006-0.17-0.010-0.37-0.010-0.57 0-8.837 7.164-16.002 16.001-16.002 0.531 0 1.056 0.026 1.574 0.077 1.495 0.285 2.886 0.758 4.178 1.401 4.966 0.75 10.261 7.111 10.261 14.709 0 0.135-0.002 0.271-0.005 0.405l0 77.98c0 0.021 0 0.045 0 0.068 0 8.837-7.164 16.002-16.001 16.002-0.528 0-1.049-0.026-1.564-0.075zM188 91.5c-7.063-0.459-12.846-5.433-14.516-12.046l-19.984-74.954c-0.412-1.351-0.649-2.904-0.649-4.512 0-8.837 7.164-16.002 16.001-16.002 0.227 0 0.454 0.005 0.68 0.014 0.191-0.012 0.454-0.019 0.718-0.019s0.526 0.007 0.787 0.019c6.782 0.947 12.175 6.078 13.504 12.68l19.959 74.819c0.327 1.207 0.514 2.594 0.514 4.024 0 8.841-7.167 16.008-16.008 16.008-0.354 0-0.706-0.012-1.054-0.034zM321.5 91.5c-8.402-0.539-15.014-7.486-15.014-15.977 0-1.43 0.188-2.816 0.539-4.135l19.974-74.888c1.613-7.038 7.707-12.251 15.060-12.502 0.39-0.043 0.913-0.068 1.44-0.068s1.050 0.026 1.565 0.075c7.724 1.161 13.63 7.805 13.63 15.829 0 1.664-0.254 3.269-0.726 4.779l-19.969 74.887c-1.832 6.972-8.078 12.031-15.506 12.031-0.349 0-0.697-0.011-1.041-0.034z" />
<glyph unicode="&#xe905;" glyph-name="sense-touch" data-tags="sense-touch" d="M109.5 472c-5.627-0.611-10.329-4.060-12.69-8.868-1.126-1.368-2.108-3.432-2.619-5.675 1.111 2.812 0.706 0.805 0.706-1.296 0-4.857 2.165-9.209 5.582-12.144l54.521-54.518c2.958-3.675 7.457-6.008 12.5-6.008 8.841 0 16.008 7.167 16.008 16.008 0 5.043-2.332 9.542-5.977 12.476l-55.031 55.024c-2.927 3.115-7.073 5.055-11.671 5.055-0.468 0-0.93-0.020-1.388-0.060zM64 397.5c-5.576-0.899-10.126-4.572-12.243-9.533-0.18-0.743-0.45-2.215-0.506-3.743-0.254 0.789-0.544-0.923-0.544-2.702 0-6.010 3.313-11.246 8.212-13.981l67.581-39.042c2.62-1.95 5.921-3.121 9.494-3.121 8.838 0 16.001 7.164 16.001 16.001 0 6.482-3.854 12.063-9.395 14.579l-67.6 39.041c-2.482 1.66-5.535 2.649-8.819 2.649-0.769 0-1.526-0.055-2.267-0.159zM251 383c-26.678 0-50.21-14.634-66-36.5s-25-51.195-25-83v-215.5c0.001-8.836 7.164-15.999 16-16h160c8.836 0.001 15.999 7.164 16 16v215.5c0 31.805-9.21 61.134-25 83s-39.322 36.5-66 36.5h-10zM251 351h10c14.808 0 28.757-7.93 40-23.5s19-38.385 19-64v-199.5h-128v199.5c0 25.615 7.757 48.43 19 64s25.191 23.5 40 23.5zM254 332.5c-10.853 0-20.904-2.067-29.5-6.5s-18-12.719-18-25.5v-48.5c0-12.781 9.404-21.067 18-25.5s18.647-6.5 29.5-6.5h4c10.853 0 20.904 2.067 29.5 6.5s17.5 12.719 17.5 25.5v48.5c0 12.781-8.904 21.067-17.5 25.5s-18.647 6.5-29.5 6.5h-4zM22.5 321.5c-5.279-0.548-9.745-3.59-12.249-7.911-1.12-1.441-2.11-3.657-2.563-6.064 0.607 2.238 0.2 0.223 0.2-1.887 0-7.637 5.35-14.024 12.505-15.619l75.106-20.52c1.274-0.363 2.737-0.572 4.25-0.572 8.876 0 16.072 7.195 16.072 16.072 0 7.364-4.953 13.571-11.709 15.473l-75.113 20.027c-1.672 0.648-3.608 1.024-5.631 1.024-0.305 0-0.609-0.009-0.91-0.025zM254 300.5h4c6.425 0 12.322-1.119 15-2.5v-43c-2.678-1.381-8.575-3-15-3h-4c-6.425 0-12.322 1.619-15 3-0.401 0.207-0.293-0.112-0.5 0v43c0.207 0.144 0.097-0.208 0.5 0 2.678 1.381 8.575 2.5 15 2.5zM220.5 115.5c-7.904-1.142-13.91-7.87-13.91-16 0-8.923 7.234-16.158 16.157-16.158 0.794 0 1.576 0.058 2.339 0.168l61.913-0.010c0.067-0.001 0.147-0.002 0.226-0.002 8.837 0 16.002 7.164 16.002 16.002s-7.164 16.002-16.002 16.002c-0.079 0-0.159-0-0.238-0.002h-61.988c-0.45 0.045-0.972 0.070-1.5 0.070s-1.050-0.026-1.565-0.075c-0.159 0.017-0.421 0.022-0.685 0.022s-0.526-0.007-0.787-0.019z" />
<glyph unicode="&#xe906;" glyph-name="smile-happy" data-tags="smile-happy" d="M256 448c-123.712 0-224-100.288-224-224s100.288-224 224-224c123.712 0 224 100.288 224 224s-100.288 224-224 224zM181 340.5c15.23 0 25.742-10.567 31-20.5s7.5-21.154 7.5-33.5c0-12.346-2.242-24.067-7.5-34s-15.77-20.5-31-20.5c-15.23 0-25.242 10.567-30.5 20.5s-7.5 21.654-7.5 34c0 12.346 2.242 23.567 7.5 33.5s15.27 20.5 30.5 20.5zM330.5 340.5c15.229 0 25.741-10.567 31-20.5s7.5-21.154 7.5-33.5c0-12.346-2.241-24.067-7.5-34s-15.771-20.5-31-20.5c-15.229 0-25.241 10.567-30.5 20.5s-7.5 21.654-7.5 34c0 12.346 2.241 23.567 7.5 33.5s15.271 20.5 30.5 20.5zM127.5 193.5c0.499 0.016 1.001 0.016 1.5 0 6.435 0.35 12.891-3.607 15.5-9.5 0 0 42.41-84.5 111.5-84.5s111.5 84.5 111.5 84.5c3.665 7.596 13.908 11.165 21.5 7.5 7.596-3.665 11.165-13.908 7.5-21.5 0 0-46.908-102.5-140.5-102.5s-140.5 102.5-140.5 102.5c-4.932 9.089 1.746 22.166 12 23.5z" />
<glyph unicode="&#xe907;" glyph-name="smile-neutral" data-tags="smile-neutral" d="M256 448c-123.712 0-224-100.288-224-224s100.288-224 224-224c123.712 0 224 100.288 224 224s-100.288 224-224 224zM182 329c15.332 0 25.145-10.562 30.5-20.5s8-21.543 8-34c0-12.457-2.571-23.625-8-33.5s-15.5-20.5-30.5-20.5c-15 0-25.26 10.601-30.5 20.5s-7.5 21.219-7.5 33.5c0 12.281 2.333 23.54 7.5 33.5s15.168 21 30.5 21zM332 329c15.332 0 25.332-11.040 30.5-21s7.5-21.219 7.5-33.5c0-12.281-2.26-23.601-7.5-33.5s-15.5-20.5-30.5-20.5c-15 0-25.071 10.625-30.5 20.5s-8 21.043-8 33.5c0 12.457 2.645 24.062 8 34s15.168 20.5 30.5 20.5zM115 165c1.162 0.128 2.338 0.128 3.5 0h277c8.453 0.12 16-7.546 16-16s-7.547-16.128-16-16h-277c-8.379-0.918-17.083 6.121-18 14.5s6.12 16.587 14.5 17.5z" />
<glyph unicode="&#xe908;" glyph-name="smile-sad" data-tags="smile-sad" d="M256 448c-123.712 0-224-100.288-224-224s100.288-224 224-224c123.712 0 224 100.288 224 224s-100.288 224-224 224zM181 336.5c15.332 0 25.145-10.562 30.5-20.5s8-21.543 8-34c0-12.457-2.571-23.625-8-33.5s-15.5-20.5-30.5-20.5c-15 0-25.26 10.601-30.5 20.5s-7.5 21.219-7.5 33.5c0 12.281 2.333 23.54 7.5 33.5s15.168 21 30.5 21zM331 336.5c15.332 0 25.332-11.040 30.5-21s7.5-21.219 7.5-33.5c0-12.281-2.26-23.601-7.5-33.5s-15.5-20.5-30.5-20.5c-15 0-25.071 10.625-30.5 20.5s-8 21.043-8 33.5c0 12.457 2.645 24.062 8 34s15.168 20.5 30.5 20.5zM256 215.5c93.592 0 140.5-102.5 140.5-102.5 3.665-7.592 0.092-17.835-7.5-21.5s-17.835-0.092-21.5 7.5c0 0-42.41 84.5-111.5 84.5s-111.5-84.5-111.5-84.5c-3.665-7.593-13.908-11.165-21.5-7.5s-11.165 13.908-7.5 21.5c0 0 46.907 102.5 140.5 102.5z" />
<glyph unicode="&#xe909;" glyph-name="tip" data-tags="tip" d="M203.321 447.946c-8.61-2.332-14.119-12.599-11.302-21.062l9.761-35.959c10.25 4.039 20.658 7.041 31.85 8.733l-9.761 35.445c-1.697 7.706-9.605 13.519-17.466 12.843-0.512 0.016-1.029 0.016-1.541 0-0.513 0.016-1.029 0.016-1.541 0zM299.896 447.946c-5.914-1.621-10.692-6.815-11.815-12.843l-9.247-35.445c10.877-1.665 21.356-4.332 31.336-8.219l9.76 35.446c3.002 10.146-6.399 21.826-16.952 21.062-0.514 0.016-1.029 0.016-1.541 0-0.514 0.016-1.029 0.016-1.541 0zM386.197 400.172c-0.349-0.165-0.69-0.331-1.027-0.514-3.532-0.642-6.837-2.477-9.247-5.137l-26.199-26.199c8.487-6.838 16.298-14.612 23.116-23.116l26.199 26.198c10.64 9.15 1.074 30.58-12.842 28.767zM121.129 399.659c-11.951-2.168-17.142-20.013-8.219-28.254l26.198-26.198c6.772 8.423 14.707 16.326 23.117 23.116l-26.198 26.199c-3.376 3.599-8.438 5.546-13.356 5.137-0.513 0.016-1.029 0.016-1.541 0zM256.231 381.166c-74.185 0-134.589-60.405-134.589-134.589s60.405-134.589 134.589-134.589c9.099 0 18.11 1.36 26.712 3.082 1.74 0.494 3.261 1.202 4.637 2.113 57.64 11.329 103.24 64.875 103.24 129.394 0 74.185-60.405 134.589-134.589 134.589zM256.231 348.288c56.416 0 101.712-45.296 101.712-101.713 0-38.787-21.124-72.295-52.911-89.384l14.384 53.425c0.367 1.296 0.577 2.783 0.577 4.32 0 9.079-7.361 16.44-16.44 16.44-0.929 0-1.84-0.077-2.727-0.225-6.601-1.095-11.875-6.123-13.329-12.596l-19.451-73.178c-3.919-0.45-7.772-0.514-11.815-0.514-3.526 0-6.841 0.17-10.274 0.514l-19.52 73.459c-1.791 7.287-8.268 12.608-15.988 12.608-1.067 0-2.112-0.102-3.123-0.296-7.595-1.452-13.335-8.129-13.335-16.147 0-1.56 0.218-3.070 0.624-4.5l14.356-54.337c-32.677 16.813-54.966 50.967-54.966 90.411 0 56.416 45.809 101.713 102.226 101.713zM209.484 100.171c-1.446-0.046-2.821-0.272-4.127-0.656-7.175-1.318-12.925-8-12.925-16.025 0-0.639 0.036-1.269 0.107-1.888l5.643-53.863c1.112-11.010 8.911-18.116 16.439-22.089s15.815-5.651 25.172-5.651h32.363c9.356 0 18.113 1.743 25.685 5.651s15.81 10.774 16.952 22.089l5.137 53.938c0.057 0.514 0.089 1.111 0.089 1.716 0 9.079-7.361 16.44-16.44 16.44-1.68 0-3.301-0.252-4.828-0.721-13.098-4.115-27.589-6.134-42.52-6.134-14.928 0-28.911 2.019-42.124 6.164-1.647 0.645-3.552 1.034-5.544 1.070zM227.464 64.212c9.606-1.576 18.8-4.11 28.767-4.11 9.872 0 19.25 2.564 28.767 4.11l-2.568-29.281c-1.757-0.829-5.666-2.055-10.274-2.055h-32.363c-4.587 0-7.631 1.285-9.246 2.055l-3.082 29.281z" />
<glyph unicode="&#xe90a;" glyph-name="bullet-black" data-tags="bullet-black" d="M255.93 372.328c-81.731 0-148.386-66.655-148.386-148.386s66.655-148.386 148.386-148.386c81.731 0 148.386 66.655 148.386 148.386s-66.655 148.386-148.386 148.386z" />
<glyph unicode="&#xe90b;" glyph-name="bullet-white" data-tags="bullet-white" d="M255.93 372.328c-81.731 0-148.386-66.655-148.386-148.386s66.655-148.386 148.386-148.386c81.731 0 148.386 66.655 148.386 148.386s-66.655 148.386-148.386 148.386zM255.93 340.387c64.437 0 116.445-52.007 116.445-116.445s-52.007-116.445-116.445-116.445c-64.437 0-116.445 52.007-116.445 116.445s52.007 116.445 116.445 116.445z" />
<glyph unicode="&#xe90c;" glyph-name="smile-neutral-white" data-tags="smile-neutral-white" d="M256 448c-123.522 0-224-100.478-224-224s100.478-224 224-224c123.522 0 224 100.478 224 224s-100.478 224-224 224zM256 416c106.228 0 192-85.772 192-192s-85.772-192-192-192c-106.228 0-192 85.772-192 192s85.772 192 192 192zM182 329c-15.332 0-25.333-11.040-30.5-21s-7.5-21.219-7.5-33.5c0-12.281 2.26-23.601 7.5-33.5s15.5-20.5 30.5-20.5c15 0 25.071 10.625 30.5 20.5s8 21.043 8 33.5c0 12.457-2.645 24.062-8 34s-15.168 20.5-30.5 20.5zM332 329c-15.332 0-25.145-10.562-30.5-20.5s-8-21.543-8-34c0-12.457 2.571-23.625 8-33.5s15.5-20.5 30.5-20.5c15 0 25.26 10.601 30.5 20.5s7.5 21.219 7.5 33.5c0 12.281-2.332 23.54-7.5 33.5s-15.168 21-30.5 21zM115 165c-8.38-0.913-15.416-9.121-14.5-17.5s9.621-15.418 18-14.5h277c8.453-0.128 16 7.546 16 16s-7.547 16.12-16 16h-277c-1.162 0.128-2.338 0.128-3.5 0z" />
<glyph unicode="&#xe90d;" glyph-name="smile-sad-white" data-tags="smile-sad-white" d="M256 448c-123.522 0-224-100.478-224-224s100.478-224 224-224c123.522 0 224 100.478 224 224s-100.478 224-224 224zM256 416c106.228 0 192-85.772 192-192s-85.772-192-192-192c-106.228 0-192 85.772-192 192s85.772 192 192 192zM181 336.5c-15.332 0-25.333-11.040-30.5-21s-7.5-21.219-7.5-33.5c0-12.281 2.26-23.601 7.5-33.5s15.5-20.5 30.5-20.5c15 0 25.071 10.625 30.5 20.5s8 21.043 8 33.5c0 12.457-2.645 24.062-8 34s-15.168 20.5-30.5 20.5zM331 336.5c-15.332 0-25.145-10.562-30.5-20.5s-8-21.543-8-34c0-12.457 2.571-23.625 8-33.5s15.5-20.5 30.5-20.5c15 0 25.26 10.601 30.5 20.5s7.5 21.219 7.5 33.5c0 12.281-2.332 23.54-7.5 33.5s-15.168 21-30.5 21zM256 215.5c-93.593 0-140.5-102.5-140.5-102.5-3.665-7.592-0.092-17.835 7.5-21.5s17.835-0.093 21.5 7.5c0 0 42.41 84.5 111.5 84.5s111.5-84.5 111.5-84.5c3.665-7.592 13.908-11.165 21.5-7.5s11.165 13.908 7.5 21.5c0 0-46.908 102.5-140.5 102.5z" />
<glyph unicode="&#xe90e;" glyph-name="visualidentity-common" data-tags="visualidentity-common" d="M48 448c-8.864 0-16-7.136-16-16v-416c0-8.864 7.136-16 16-16h416c2.216 0 4.334 0.442 6.25 1.25 5.747 2.423 9.75 8.102 9.75 14.75v416c0 8.864-7.136 16-16 16h-416zM256 355.469l151.813-262.938h-303.625l151.813 262.938z" />
<glyph unicode="&#xe90f;" glyph-name="visualidentity-e2sso" data-tags="visualidentity-e2sso" d="M48 448c-8.864 0-16-7.136-16-16v-416c0-8.864 7.136-16 16-16h416c8.864 0 16 7.136 16 16v416c0 8.864-7.136 16-16 16h-416zM358.156 341.094c13.622 0 25.631-2.893 36-8.688 10.471-5.692 18.799-13.966 25-24.844 6.303-10.775 9.469-21.755 9.469-32.938 0-13.317-3.813-27.65-11.438-43-7.522-15.35-21.372-33.496-41.5-54.438l-25.156-26.531h79.906v-39.5h-155.375v20.438l69.375 70.75c16.773 16.976 27.917 30.608 33.406 40.875 5.591 10.369 8.375 19.726 8.375 28.063 0 8.641-2.893 15.752-8.688 21.344-5.693 5.692-13.077 8.531-22.125 8.531-9.149 0-16.745-3.408-22.844-10.219s-9.375-16.060-9.781-27.75h-41.625c1.118 24.194 8.69 43.206 22.719 57.031 14.13 13.927 32.222 20.875 54.281 20.875zM167.406 281.344c26.125 0 47.383-8.383 63.75-25.156 16.367-16.672 24.531-38.74 24.531-66.188l-0.156-7.938h-133.719c1.931-11.792 7.071-21.204 15.406-28.219 8.438-6.913 19.144-10.344 32.156-10.344 15.553 0 28.943 5.435 40.125 16.313l35.063-16.469c-8.743-12.402-19.208-21.596-31.406-27.594-12.198-5.896-26.696-8.844-43.469-8.844-26.024 0-47.227 8.164-63.594 24.531-16.367 16.469-24.531 37.048-24.531 61.75 0 25.313 8.142 46.328 24.406 63 16.367 16.773 36.837 25.156 61.438 25.156zM169.375 246.125c-11.589 0-21.726-3.275-30.469-9.781-5.489-4.066-10.574-11.232-15.25-21.5h90.094c-2.744 9.25-8.18 16.768-16.313 22.563-8.031 5.794-17.388 8.719-28.063 8.719z" />
<glyph unicode="&#xe910;" glyph-name="visualidentity-load" data-tags="visualidentity-load" d="M48 448c-8.864 0-16-7.136-16-16v-416c0-8.864 7.136-16 16-16h416c8.864 0 16 7.136 16 16v416c0 8.864-7.136 16-16 16h-416zM136.031 388.156c26.214-0.005 47.464-21.255 47.469-47.469-0.024-21.095-13.82-38.974-32.882-45.125 0.965-7.799 9.548-50.753 45.101-65.25 20.965-8.548 35.24-23.101 44.969-37.813v103.313c-18.838 6.555-32.128 24.159-32.156 44.871 0.005 26.218 21.255 47.468 47.469 47.472 0.007 0 0.015 0 0.023 0 26.218 0 47.472-21.252 47.478-47.469-0.019-22.565-15.783-41.447-36.901-46.252l-0.318-110.592c9.555 17.417 24.884 36.228 50 46.469 35.553 14.497 44.137 57.451 45.438 65.156-19.389 6.237-33.188 24.112-33.219 45.215 0.005 26.218 21.255 47.468 47.469 47.473 26.215-0.005 47.464-21.255 47.469-47.469-0.024-22.058-15.101-40.597-35.514-45.897-0.568-2.317-7.735-66.076-61.986-88.197-29.589-12.065-42.211-43.087-46.688-57.906 14.541-8.279 24.201-23.682 24.219-41.341 0-0.010 0-0.017 0-0.025 0-26.218-21.252-47.472-47.469-47.478-26.218 0.005-47.469 21.26-47.469 47.478 0 0.008 0 0.016 0 0.024 0.012 17.647 9.667 33.051 23.986 41.22-4.243 14.941-16.864 45.964-46.454 58.029-54.251 22.121-61.418 85.88-61.656 88.125-20.735 5.365-35.815 23.902-35.844 45.966 0.005 26.217 21.255 47.467 47.469 47.472zM136.031 367.969c-0.004 0-0.008 0-0.013 0-15.070 0-27.289-12.212-27.299-27.281 0-0.005 0-0.010 0-0.014 0-15.077 12.222-27.299 27.299-27.299 0.005 0 0.009 0 0.014 0 0.003 0 0.007 0 0.012 0 15.077 0 27.299 12.222 27.299 27.299 0 0.005 0 0.009 0 0.014-0.011 15.069-12.229 27.281-27.299 27.281-0.005 0-0.009 0-0.014 0zM256 367.969c-15.063-0.010-27.271-12.219-27.281-27.281 0-0.005 0-0.010 0-0.014 0-15.070 12.212-27.289 27.28-27.299 0.005 0 0.009 0 0.014 0 15.077 0 27.3 12.222 27.3 27.299 0 0.005 0 0.009 0 0.014-0.010 15.069-12.229 27.281-27.3 27.281-0.005 0-0.009 0-0.014 0zM375.969 367.969c-0.004 0-0.009 0-0.013 0-15.070 0-27.289-12.212-27.3-27.281 0-0.005 0-0.010 0-0.014 0-15.077 12.223-27.299 27.3-27.299 0.005 0 0.009 0 0.014 0 0.003 0 0.007 0 0.012 0 15.077 0 27.3 12.222 27.3 27.299 0 0.005 0 0.009 0 0.014-0.010 15.069-12.229 27.281-27.3 27.281-0.005 0-0.009 0-0.014 0zM256 134.625c-15.063-0.010-27.271-12.219-27.281-27.281 0-0.005 0-0.010 0-0.014 0-15.070 12.212-27.289 27.28-27.3 0.005 0 0.009 0 0.014 0 15.077 0 27.3 12.223 27.3 27.3 0 0.005 0 0.009 0 0.014-0.010 15.069-12.229 27.281-27.3 27.281-0.005 0-0.009 0-0.014 0z" />
<glyph unicode="&#xe911;" glyph-name="visualidentity-gu" data-tags="visualidentity-gu" d="M48 448c-8.864 0-16-7.136-16-16v-416c0-8.864 7.136-16 16-16h416c8.864 0 16 7.136 16 16v416c0 8.864-7.136 16-16 16h-416zM302.594 193.344v-0.031c5.297 0 8.821-1.813 10.563-5.469 1.745-3.654 2.625-8.93 2.625-15.813v-84.469c0-9.647-0.991-17.954-2.938-24.906-1.941-6.961-5.051-12.718-9.344-17.25-4.291-4.543-9.898-7.909-16.844-10.094-6.934-2.205-15.58-3.313-25.906-3.313-9.455 0-17.903 1.399-25.344 4.188-7.442 2.812-13.164 6.447-17.188 10.875-4.024 4.442-6.031 9.004-6.031 13.688 0 3.542 1.13 6.42 3.406 8.656 2.281 2.242 5.031 3.375 8.25 3.375 4.024 0 7.544-1.898 10.563-5.656 1.474-1.916 2.989-3.851 4.563-5.813 1.577-1.938 3.347-3.618 5.25-5 1.919-1.385 4.192-2.416 6.875-3.094 2.683-0.669 5.762-1 9.25-1 7.108 0 12.632 1.036 16.563 3.125 3.916 2.11 6.668 5.055 8.25 8.813 1.568 3.767 2.485 7.772 2.75 12.063 0.271 4.291 0.497 11.202 0.625 20.719-4.228-6.248-9.133-11.012-14.656-14.281-5.538-3.261-12.106-4.875-19.75-4.875-9.189 0-17.228 2.467-24.094 7.438-6.878 4.968-12.155 11.935-15.844 20.875-3.686 8.945-5.531 19.289-5.531 31 0 8.736 1.13 16.622 3.375 23.656 2.245 7.029 5.439 12.947 9.594 17.781 4.158 4.829 8.975 8.452 14.406 10.906 5.433 2.446 11.4 3.688 17.906 3.688 7.775 0 14.487-1.591 20.188-4.75 5.698-3.164 11.014-8.096 15.906-14.844v3.938c0 5.041 1.151 8.947 3.5 11.719 2.345 2.766 5.372 4.156 9.063 4.156zM356.344 191.625c4.522 0 8.161-1.478 10.938-4.406 2.767-2.937 4.156-7.301 4.156-13.094v-46.875c0-6.796 0.575-12.512 1.75-17.125 1.159-4.611 3.286-8.204 6.313-10.813 3.018-2.62 7.106-3.938 12.281-3.938 5.038 0 9.769 1.475 14.219 4.406 4.44 2.93 7.68 6.774 9.719 11.5 1.673 4.139 2.531 13.199 2.531 27.219v35.625c0 5.793 1.379 10.158 4.156 13.094 2.768 2.93 6.392 4.406 10.844 4.406 4.447 0 8.017-1.447 10.719-4.344 2.688-2.9 4.031-7.296 4.031-13.156v-84.844c0-5.58-1.295-9.771-3.875-12.563-2.589-2.783-5.925-4.188-10-4.188-4.091 0-7.469 1.455-10.125 4.344-2.668 2.896-4 6.964-4 12.188v3.75c-3.581-4.44-7.313-8.151-11.25-11.156-3.94-3.005-8.25-5.263-12.906-6.719-4.668-1.457-9.993-2.188-15.969-2.188-7.22 0-13.688 1.493-19.406 4.406-5.731 2.926-10.18 6.976-13.313 12.125-3.716 6.219-5.563 15.147-5.563 26.813v58.031c0 5.86 1.339 10.256 4.031 13.156 2.697 2.897 6.269 4.344 10.719 4.344zM262.156 171.594c-7.846 0-14.124-3.144-18.844-9.469-4.734-6.314-7.094-15.296-7.094-26.938 0-11.791 2.416-20.714 7.281-26.75 4.856-6.036 11.166-9.063 18.875-9.063 4.559 0 8.846 1.315 12.906 3.906 4.052 2.594 7.358 6.5 9.906 11.719s3.813 11.544 3.813 19c0 11.854-2.44 21.084-7.375 27.688-4.921 6.606-11.422 9.906-19.469 9.906z" />
<glyph unicode="&#xe912;" glyph-name="shape-airplane" data-tags="shape-airplane" d="M367.979 168l-79.991 79.991 191.984 143.995-55.996 55.996-239.973-96.006-75.54 75.567c-21.782 21.783-52.188 26.99-67.588 11.591s-10.191-45.805 11.591-67.588l75.54-75.54-96.006-240.001 55.996-55.996 144.023 191.984 79.991-79.991v-111.993h55.996l27.998 83.995 83.995 27.998v55.996h-111.993z" />
<glyph unicode="&#xe913;" glyph-name="shape-circle" data-tags="shape-circle" d="M480 224c0-123.712-100.288-224-224-224s-224 100.288-224 224c0 123.712 100.288 224 224 224s224-100.288 224-224z" />
<glyph unicode="&#xe914;" glyph-name="shape-cloud" data-tags="shape-cloud" d="M480 174.331c0 35.922-24.807 66.020-58.18 74.139-1.428 56.304-47.457 101.522-104.070 101.522-33.15 0-62.688-15.539-81.755-39.702-10.696 13.831-27.439 22.734-46.253 22.734-32.282 0-58.46-26.207-58.46-58.488 0-2.828 0.196-5.572 0.588-8.287-4.9 0.896-9.968 1.372-15.119 1.372-46.813 0-84.751-37.965-84.751-84.806s37.938-84.806 84.751-84.806h287.094c42.053 0.085 76.127 34.214 76.127 76.323z" />
<glyph unicode="&#xe915;" glyph-name="shape-clubs" data-tags="shape-clubs" d="M376.252 276.147c-25.815 0-49.025-10.752-65.544-28.306-7-7.419-19.151-16.239-32.282-23.967 6.159 23.575 25.675 53.252 39.197 66.272 17.331 16.687 27.998 40.178 27.998 66.272 0 50.257-40.010 91.050-89.594 91.583-49.585-0.532-89.594-41.298-89.594-91.583 0-26.094 10.639-49.585 27.999-66.272 13.551-13.019 33.038-42.697 39.197-66.272-13.131 7.756-25.282 16.547-32.282 23.966-16.519 17.555-39.73 28.306-65.544 28.306-50.033 0-90.603-40.961-90.603-91.582s40.541-91.582 90.603-91.582c25.843 0 49.025 11.087 65.544 28.642 7.363 7.812 20.327 17.555 34.242 25.647-1.316-64.62-32.17-112.077-63.584-130.752v-16.519h167.989v16.519c-31.414 18.703-62.268 66.16-63.584 130.752 13.943-8.091 26.906-17.835 34.242-25.647 16.519-17.527 39.73-28.642 65.544-28.642 50.033 0 90.603 40.99 90.603 91.582s-40.541 91.582-90.603 91.582z" />
<glyph unicode="&#xe916;" glyph-name="shape-cross" data-tags="shape-cross" d="M58.010 342.794l118.794-118.794-118.794-118.794 79.196-79.196 118.794 118.794 118.794-118.794 79.196 79.196-118.794 118.794 118.794 118.794-79.196 79.196-118.794-118.794-118.794 118.794-79.196-79.196z" />
<glyph unicode="&#xe917;" glyph-name="shape-diamonds" data-tags="shape-diamonds" d="M256 448l-140-224 140-224 140 224z" />
<glyph unicode="&#xe918;" glyph-name="shape-flag" data-tags="shape-flag" d="M32 448v-448h56v448h-56zM214 448c-42.168 0-78.904-8.748-98-21.656v-224c19.096 12.908 55.832 21.656 98 21.656 33.46 0 63.476-5.51 84-14.219v224c-20.524 8.736-50.54 14.219-84 14.219zM312 412.344v-224c16.38-12.908 47.852-21.656 84-21.656s67.62 8.748 84 21.656v224c-16.38-12.908-47.852-21.656-84-21.656s-67.62 8.748-84 21.656z" />
<glyph unicode="&#xe919;" glyph-name="shape-heart" data-tags="shape-heart" d="M362.372 431.424c-47.096 0-87.612-38.304-106.372-78.316-18.788 40.012-59.304 78.316-106.4 78.316-64.904 0-117.6-52.696-117.6-117.6 0-132.048 133.224-166.684 224-297.248 85.82 129.752 224 169.4 224 297.248 0 64.932-52.696 117.6-117.6 117.6z" />
<glyph unicode="&#xe91a;" glyph-name="shape-mug" data-tags="shape-mug" d="M452 322h-84v42c0 38.668-75.208 70-168 70s-168-31.332-168-70v-280c0-38.668 75.208-70 168-70s168 31.332 168 70v42h84c15.456 0 28 12.544 28 28v140c0 15.456-12.544 28-28 28zM109.028 348.964c-16.184 5.32-25.984 11.032-31.248 15.036 5.264 4.004 15.064 9.716 31.248 15.036 25.34 8.344 57.652 12.964 90.972 12.964s65.632-4.592 90.972-12.964c16.184-5.32 25.984-11.032 31.248-15.036-5.264-4.004-15.064-9.716-31.248-15.036-25.34-8.344-57.652-12.964-90.972-12.964s-65.632 4.592-90.972 12.964zM424 182h-56v84h56v-84z" />
<glyph unicode="&#xe91b;" glyph-name="shape-pentagone" data-tags="shape-pentagone" d="M256 437.037l224-162.745-85.56-263.327h-276.88l-85.561 263.327z" />
<glyph unicode="&#xe91c;" glyph-name="shape-power" data-tags="shape-power" d="M200 448l-168-224h168l-112-224 392 280h-224l168 168z" />
<glyph unicode="&#xe91d;" glyph-name="shape-power-cord" data-tags="shape-power-cord" d="M347.988 448l-83.529-83.529-53.623 53.623-40.48-40.48 239.256-239.256 40.479 40.479-53.623 53.623 83.529 83.529-42.291 42.291-83.529-83.529-47.431 47.431 83.529 83.529-42.291 42.291zM165.158 340.522c-44.771-53.683-95.626-136.676-60.515-208.065l-61.742-61.741c-14.535-14.535-14.535-38.387 0-52.921l6.892-6.892c14.535-14.535 38.386-14.535 52.922 0l61.742 61.741c71.388-35.111 154.351 15.714 208.065 60.515l-207.363 207.363z" />
<glyph unicode="&#xe91e;" glyph-name="shape-rocket" data-tags="shape-rocket" d="M340 420l-140-140h-84l-84-112c0 0 88.984 24.78 140.896 13.16l-140.896-181.16 184.576 143.556c25.732-58.912-16.576-143.556-16.576-143.556l112 84v84l140 140 28 140-140-28z" />
<glyph unicode="&#xe91f;" glyph-name="shape-spades" data-tags="shape-spades" d="M389.663 295.69c-84.666 62.94-113.869 113.309-133.663 152.31v0c0 0 0 0 0 0v0c-19.823-39.001-48.997-89.37-133.663-152.31-144.387-107.317-8.483-257.080 111.013-174.653-7.784-51.153-34.354-88.447-61.344-104.517v-16.519h167.989v16.519c-26.99 16.071-53.56 53.365-61.344 104.517 119.497-82.427 255.4 67.336 111.013 174.653z" />
<glyph unicode="&#xe920;" glyph-name="shape-spiral" data-tags="shape-spiral" d="M264.599 447.414c-106.585 8.228-206.772-71.087-213.904-180.055-6.23-95.202 65.296-184.615 163.131-189.375 83.063-4.041 161.071 59.3 163.020 145.349 1.584 69.902-53.166 135.834-126.6 134.149-27.614-0.634-54.137-12.185-73.449-31.083s-31.374-45.981-27.682-75.827c2.356-19.047 12.583-37.584 28.013-50.468s38.858-19.259 60.202-7.882l-13.329 24.999c-10.866-5.792-19.356-3.188-28.705 4.618s-16.754 21.674-18.058 32.217c-2.538 20.517 5.313 38.383 19.358 52.127s34.327 22.522 54.313 22.981c55.95 1.283 98.858-50.483 97.618-105.195-1.565-69.106-65.512-120.995-133.347-117.695-81.195 3.95-141.482 79.303-136.251 159.231 6.055 92.52 92.212 160.747 183.484 153.701 103.255-7.971 179-104.38 170.238-206.409-8.087-94.17-84.047-171.142-177.151-184.784l4.093-28.014c105.983 15.529 192.033 102.52 201.293 210.364 10.079 117.375-76.718 227.82-196.288 237.050z" />
<glyph unicode="&#xe921;" glyph-name="shape-square" data-tags="shape-square" d="M55.572 424.428h400.857v-400.857h-400.857z" />
<glyph unicode="&#xe922;" glyph-name="shape-star" data-tags="shape-star" d="M256 437.037l56.704-157.481 167.296-5.264-132.251-102.593 46.691-160.735-138.44 94.076-138.44-94.076 46.691 160.735-132.251 102.593 167.296 5.264z" />
<glyph unicode="&#xe923;" glyph-name="shape-triangle" data-tags="shape-triangle" d="M480 30.010c-149.333 0-298.666 0-448 0 74.666 129.327 149.333 258.653 224 387.979 74.666-129.327 149.333-258.653 224-387.979z" />
<glyph unicode="&#xe924;" glyph-name="shape-truck" data-tags="shape-truck" d="M480 210l-56 112h-84v56c0 15.4-12.6 28-28 28h-252c-15.4 0-28-12.6-28-28v-224l28-28h35.504c-4.76-8.232-7.504-17.808-7.504-28 0-30.94 25.060-56 56-56s56 25.060 56 56c0 10.192-2.744 19.768-7.504 28h155.008c-4.76-8.232-7.504-17.808-7.504-28 0-30.94 25.060-56 56-56s56 25.060 56 56c0 10.192-2.744 19.768-7.504 28h35.504v84zM340 210v84h58.044l42-84h-100.044z" />
<glyph unicode="&#xe925;" glyph-name="visualidentity-perception" data-tags="visualidentity-perception" d="M48 448c-8.864 0-16-7.136-16-16v-416c0-8.864 7.136-16 16-16h416c2.216 0 4.334 0.442 6.25 1.25 5.747 2.423 9.75 8.102 9.75 14.75v416c0 8.864-7.136 16-16 16h-416zM107.594 355.469h251.094c25.149 0 45.719-20.57 45.719-45.719v-171.5c0-25.149-20.57-45.719-45.719-45.719h-205.75v194.344h205c11.432 0 22.101 8.381 23.625 19.813 1.525 14.099-9.158 25.906-22.875 25.906h-228.625v-198.531h-22.469v221.406zM153.688 315.438h195.469v-11.406h-195.469v11.406z" />
<glyph unicode="&#xe926;" glyph-name="visualidentity-satax" data-tags="visualidentity-satax" d="M48 448c-8.864 0-16-7.136-16-16v-416c0-8.864 7.136-16 16-16h416c2.216 0 4.334 0.442 6.25 1.25 5.747 2.423 9.75 8.102 9.75 14.75v416c0 8.864-7.136 16-16 16h-416zM279.438 389.5c78.459-0.004 142.063-63.608 142.063-142.069 0-0.009 0-0.018 0-0.026l-142.063 0.001v142.094zM256 366.094v-142.125h142.063c-0.007-58.823-35.763-109.293-86.725-130.868-17.003-7.195-35.699-11.175-55.323-11.175-39.244 0-74.772 15.912-100.483 41.637-25.701 25.709-41.597 61.219-41.597 100.444 0 19.617 3.975 38.304 11.165 55.302 21.562 50.996 72.051 86.781 130.899 86.786z" />
<glyph unicode="&#xe927;" glyph-name="visualidentity-choix11" data-tags="visualidentity-choix11" d="M48 448c-8.864 0-16-7.136-16-16v-416c0-8.864 7.136-16 16-16h416c2.216 0 4.334 0.442 6.25 1.25 5.747 2.423 9.75 8.102 9.75 14.75v416c0 8.864-7.136 16-16 16h-416zM194.313 292.625c35.749-0.046 68.117-14.48 91.633-37.821l-110.852-110.867-41.281 41.281c-7.322 7.322-16.861 9.577-21.406 5.031l-10.406-10.375c-4.545-4.545-2.29-14.147 5.031-21.469l59.844-59.844c4.546-4.546 14.085-2.29 21.406 5.031l120.594 120.563c9.864-17.874 15.683-39.175 15.719-61.833 0-0.012 0-0.014 0-0.014 0-71.958-58.325-130.293-130.28-130.308-0.002 0-0.004 0-0.006 0-71.968 0-130.309 58.341-130.309 130.308 0 0.002 0 0.002 0 0.004s0 0.002 0 0.004c0 71.968 58.341 130.308 130.309 130.308 0.001 0 0.002 0 0.004 0z" />
</font>
</defs>
</svg>
