<?xml version="1.0" encoding="utf-8"?>
<!-- Generator: Adobe Illustrator 15.0.0, SVG Export Plug-In . SVG Version: 6.00 Build 0)  -->
<!DOCTYPE svg PUBLIC "-//W3C//DTD SVG 1.1//EN" "http://www.w3.org/Graphics/SVG/1.1/DTD/svg11.dtd">
<svg version="1.1" id="Calque_1" xmlns="http://www.w3.org/2000/svg" xmlns:xlink="http://www.w3.org/1999/xlink" x="0px" y="0px"
	 width="32px" height="32px" viewBox="0 0 32 32" enable-background="new 0 0 32 32" xml:space="preserve">
<g>
	<defs>
		<rect id="SVGID_1_" width="32" height="32"/>
	</defs>
	<clipPath id="SVGID_2_">
		<use xlink:href="#SVGID_1_"  overflow="visible"/>
	</clipPath>
	<path clip-path="url(#SVGID_2_)" d="M28,15.999c0-0.312-0.178-0.726-0.355-0.924L17.54,3.644c-0.471-0.518-1.238-0.578-1.787-0.053
		c-0.493,0.473-0.503,1.391-0.049,1.902l8.111,9.161H5.263C4.566,14.654,4,15.256,4,15.999c0,0.742,0.566,1.345,1.263,1.345h18.552
		l-8.111,9.161c-0.454,0.511-0.421,1.407,0.049,1.901c0.497,0.521,1.322,0.476,1.787-0.054l10.104-11.43
		C27.941,16.612,27.997,16.314,28,15.999"/>
</g>
</svg>
