<?xml version="1.0" encoding="utf-8"?>
<!-- Generator: Adobe Illustrator 15.0.0, SVG Export Plug-In . SVG Version: 6.00 Build 0)  -->
<!DOCTYPE svg PUBLIC "-//W3C//DTD SVG 1.1//EN" "http://www.w3.org/Graphics/SVG/1.1/DTD/svg11.dtd">
<svg version="1.1" id="Calque_1" xmlns="http://www.w3.org/2000/svg" xmlns:xlink="http://www.w3.org/1999/xlink" x="0px" y="0px"
	 width="32px" height="32px" viewBox="0 0 32 32" enable-background="new 0 0 32 32" xml:space="preserve">
<g>
	<defs>
		<rect id="SVGID_1_" width="32" height="32"/>
	</defs>
	<clipPath id="SVGID_2_">
		<use xlink:href="#SVGID_1_"  overflow="visible"/>
	</clipPath>
	<path clip-path="url(#SVGID_2_)" d="M16.001,27.272c0.293,0,0.682-0.167,0.868-0.334l10.737-9.493
		c0.486-0.44,0.544-1.161,0.05-1.677c-0.445-0.464-1.307-0.473-1.786-0.047l-8.606,7.62V5.915c0-0.655-0.565-1.187-1.263-1.187
		c-0.697,0-1.263,0.532-1.263,1.187v17.427l-8.606-7.62c-0.48-0.426-1.322-0.395-1.786,0.047c-0.49,0.466-0.447,1.242,0.05,1.677
		l10.737,9.493C15.425,27.217,15.705,27.27,16.001,27.272"/>
</g>
</svg>
