<?xml version="1.0" encoding="UTF-8" standalone="no"?>
<!-- Generator: Adobe Illustrator 15.0.0, SVG Export Plug-In . SVG Version: 6.00 Build 0)  -->

<svg
   xmlns:dc="http://purl.org/dc/elements/1.1/"
   xmlns:cc="http://creativecommons.org/ns#"
   xmlns:rdf="http://www.w3.org/1999/02/22-rdf-syntax-ns#"
   xmlns:svg="http://www.w3.org/2000/svg"
   xmlns="http://www.w3.org/2000/svg"
   xmlns:sodipodi="http://sodipodi.sourceforge.net/DTD/sodipodi-0.dtd"
   xmlns:inkscape="http://www.inkscape.org/namespaces/inkscape"
   version="1.1"
   id="Calque_1"
   x="0px"
   y="0px"
   width="32px"
   height="32px"
   viewBox="0 0 32 32"
   enable-background="new 0 0 32 32"
   xml:space="preserve"
   inkscape:version="0.91 r13725"
   sodipodi:docname="boat.svg"><metadata
     id="metadata17"><rdf:RDF><cc:Work
         rdf:about=""><dc:format>image/svg+xml</dc:format><dc:type
           rdf:resource="http://purl.org/dc/dcmitype/StillImage" /></cc:Work></rdf:RDF></metadata><defs
     id="defs15" /><sodipodi:namedview
     pagecolor="#ffffff"
     bordercolor="#666666"
     borderopacity="1"
     objecttolerance="10"
     gridtolerance="10"
     guidetolerance="10"
     inkscape:pageopacity="0"
     inkscape:pageshadow="2"
     inkscape:window-width="1920"
     inkscape:window-height="1017"
     id="namedview13"
     showgrid="false"
     inkscape:zoom="7.375"
     inkscape:cx="16"
     inkscape:cy="16"
     inkscape:window-x="-8"
     inkscape:window-y="-4"
     inkscape:window-maximized="1"
     inkscape:current-layer="Calque_1" /><path
     inkscape:connector-curvature="0"
     style="fill:currentColor"
     d="m 23.46502,20.929977 2.959194,-2.959194 c 0.714269,-0.714315 0.420217,-1.934602 -0.542539,-2.244042 l -1.766421,-0.567771 0,-5.9216835 c 0,-0.746983 -0.605558,-1.3525402 -1.352543,-1.3525402 l -2.705084,0 0,-1.6906778 c 0,-0.560251 -0.454158,-1.0144077 -1.014406,-1.0144077 l -6.086442,0 c -0.560249,0 -1.014407,0.4541567 -1.014407,1.0144077 l 0,1.6906778 -2.7050845,0 c -0.7469836,0 -1.3525418,0.6055572 -1.3525418,1.3525402 l 0,5.9216835 -1.766421,0.567771 C 5.1566248,16.035843 4.860714,17.255665 5.575786,17.970783 l 2.9591942,2.959194 c -0.7420387,1.844866 -2.4429031,3.185276 -5.0459983,3.185276 -0.5602483,0 -1.0144063,0.454163 -1.0144063,1.014409 l 0,0.67627 c 0,0.56025 0.454158,1.014407 1.0144063,1.014407 2.5792565,0 4.5436552,-0.871122 6.0550786,-2.510488 0.6094475,1.472076 2.0610645,2.510488 3.7508545,2.510488 l 5.41017,0 c 1.68979,0 3.141406,-1.038412 3.750853,-2.510488 1.511171,1.639113 3.475443,2.510488 6.055079,2.510488 0.560249,0 1.014407,-0.454157 1.014407,-1.014407 l 0,-0.67627 c 0,-0.560246 -0.454158,-1.014409 -1.014407,-1.014409 -2.570549,0 -4.29187,-1.310316 -5.045997,-3.185276 z M 10.5866,10.589831 l 10.82357,0 0,3.699668 -5.4134,-0.735171 -5.41017,0.620761"
     id="path4"
     sodipodi:nodetypes="ccccsscsssscssccccsssscsscsssscccccc" /></svg>