<?xml version="1.0" encoding="UTF-8" standalone="no"?>
<!-- Created with Inkscape (http://www.inkscape.org/) -->

<svg
   xmlns:dc="http://purl.org/dc/elements/1.1/"
   xmlns:cc="http://creativecommons.org/ns#"
   xmlns:rdf="http://www.w3.org/1999/02/22-rdf-syntax-ns#"
   xmlns:svg="http://www.w3.org/2000/svg"
   xmlns="http://www.w3.org/2000/svg"
   xmlns:sodipodi="http://sodipodi.sourceforge.net/DTD/sodipodi-0.dtd"
   xmlns:inkscape="http://www.inkscape.org/namespaces/inkscape"
   width="32"
   height="32"
   id="svg4271"
   version="1.1"
   inkscape:version="0.48.5 r10040"
   sodipodi:docname="classroom.svg">
  <defs
     id="defs4273" />
  <sodipodi:namedview
     id="base"
     pagecolor="#ffffff"
     bordercolor="#666666"
     borderopacity="1.0"
     inkscape:pageopacity="0.0"
     inkscape:pageshadow="2"
     inkscape:zoom="7.919596"
     inkscape:cx="3.3866795"
     inkscape:cy="16.119668"
     inkscape:document-units="px"
     inkscape:current-layer="layer1"
     showgrid="false"
     fit-margin-top="0"
     fit-margin-left="0"
     fit-margin-right="0"
     fit-margin-bottom="0"
     inkscape:window-width="1600"
     inkscape:window-height="1147"
     inkscape:window-x="-8"
     inkscape:window-y="-8"
     inkscape:window-maximized="1" />
  <metadata
     id="metadata4276">
    <rdf:RDF>
      <cc:Work
         rdf:about="">
        <dc:format>image/svg+xml</dc:format>
        <dc:type
           rdf:resource="http://purl.org/dc/dcmitype/StillImage" />
        <dc:title />
      </cc:Work>
    </rdf:RDF>
  </metadata>
  <g
     inkscape:label="Layer 1"
     inkscape:groupmode="layer"
     id="layer1"
     transform="translate(-281.4375,-566.48186)">
    <path
       style="color:#000000;fill:#000000;fill-opacity:1;fill-rule:nonzero;stroke:none;stroke-width:0.48866057;marker:none;visibility:visible;display:inline;overflow:visible;enable-background:accumulate"
       clip-path="none"
       d="m 294.12891,571.36663 c -2.99637,0 -5.94394,3.73785 -5.00391,7.24609 0.67669,2.52539 1.37967,4.42489 2.78907,5.33203 l 0,1.72266 c -7.96287,0.49613 -8.4513,3.82193 -8.47657,7.92969 l 5.93359,0 c 0.0364,-3.11452 0.4659,-5.73358 4.34766,-6.97266 -3.33506,1.3603 -3.61809,3.94444 -3.63672,6.97266 l 21.35547,0 c -0.0253,-4.10776 -0.51373,-7.43356 -8.47656,-7.92969 l 0,-1.72266 c 0.13619,-0.0871 0.25908,-0.19527 0.38281,-0.30078 0.237,0.12202 0.47313,0.19421 0.71094,0.21875 0.0829,0.18961 0.22015,0.38421 0.38282,0.54687 0.2353,0.2353 0.51549,0.39822 0.79296,0.46486 0.10791,0.18193 0.24171,0.35108 0.41015,0.51952 0.65077,0.65076 1.48104,0.87054 1.85938,0.49218 0.37834,-0.37835 0.15858,-1.20861 -0.49219,-1.85937 -0.16843,-0.16844 -0.36492,-0.30227 -0.54687,-0.41016 -0.0666,-0.27746 -0.20219,-0.55766 -0.4375,-0.79297 -0.16349,-0.1635 -0.35625,-0.29992 -0.54687,-0.38281 -0.0437,-0.41318 -0.24049,-0.83042 -0.57423,-1.20312 0.30841,-0.76707 0.58435,-1.6697 0.84766,-2.65235 0.94002,-3.50823 -2.00755,-7.21875 -5.0039,-7.21875 -2.99637,0 -5.91659,3.71052 -4.97656,7.21875 0.21299,0.79495 0.41521,1.52731 0.65624,2.1875 -0.14824,0.0948 -0.27736,0.22268 -0.41016,0.35547 -0.39365,0.39366 -0.63571,0.86057 -0.68358,1.3125 -0.19063,0.0829 -0.35604,0.21931 -0.51953,0.38281 -0.2353,0.23531 -0.39822,0.51551 -0.46485,0.79297 -0.18194,0.10789 -0.35108,0.24172 -0.51953,0.41016 -0.65076,0.65076 -0.87054,1.48102 -0.4922,1.85937 0.14189,0.14188 0.33756,0.20945 0.57423,0.19141 -0.50733,0.28854 -1.26434,0.32821 -1.53786,0.0547 -0.37834,-0.37835 -0.15857,-1.20861 0.49218,-1.85938 0.16845,-0.16843 0.61765,-0.42861 0.79958,-0.53651 0.0666,-0.27746 -0.0505,-0.4313 0.1848,-0.66661 0.1635,-0.1635 0.35625,-0.39896 0.54688,-0.48182 0.0478,-0.45194 0.2626,-0.81985 0.65625,-1.2135 0.13278,-0.13279 0.28925,-0.23338 0.4375,-0.32812 -0.24104,-0.66019 -0.47059,-1.39255 -0.6836,-2.1875 -0.62919,-2.34817 0.48821,-4.79309 2.18751,-6.15234 -0.90024,-0.82406 -1.75238,-1.33984 -2.86449,-1.33984 z m 3.77344,12.00391 c 0.20407,0.21222 0.41465,0.41871 0.65625,0.57421 l 0,1.72266 c -0.45889,0.0286 -0.87449,0.0623 -1.28516,0.10938 -0.31237,-0.037 -0.61116,-0.0878 -0.95704,-0.10938 l 0,-1.20313 c 0.0246,-0.022 0.0582,-0.0309 0.0821,-0.0546 0.16266,-0.16266 0.27259,-0.35726 0.35546,-0.54687 0.38055,-0.0392 0.79581,-0.20611 1.14845,-0.49218 z"
       id="path2985-9"
       inkscape:connector-curvature="0"
       sodipodi:nodetypes="cscccccccccccscssscccccsccccccccccccccccsccccccccccccc" />
  </g>
</svg>
