<?xml version="1.0" encoding="UTF-8" standalone="no"?>
<!-- Created with Inkscape (http://www.inkscape.org/) -->

<svg
   xmlns:dc="http://purl.org/dc/elements/1.1/"
   xmlns:cc="http://creativecommons.org/ns#"
   xmlns:rdf="http://www.w3.org/1999/02/22-rdf-syntax-ns#"
   xmlns:svg="http://www.w3.org/2000/svg"
   xmlns="http://www.w3.org/2000/svg"
   xmlns:sodipodi="http://sodipodi.sourceforge.net/DTD/sodipodi-0.dtd"
   xmlns:inkscape="http://www.inkscape.org/namespaces/inkscape"
   width="187.13"
   height="187.13"
   id="svg4271"
   version="1.1"
   inkscape:version="0.48.2 r9819"
   sodipodi:docname="classroom.svg">
  <defs
     id="defs4273" />
  <sodipodi:namedview
     id="base"
     pagecolor="#ffffff"
     bordercolor="#666666"
     borderopacity="1.0"
     inkscape:pageopacity="0.0"
     inkscape:pageshadow="2"
     inkscape:zoom="1.4"
     inkscape:cx="8.2053571"
     inkscape:cy="66.119668"
     inkscape:document-units="px"
     inkscape:current-layer="layer1"
     showgrid="false"
     fit-margin-top="0"
     fit-margin-left="0"
     fit-margin-right="0"
     fit-margin-bottom="0"
     inkscape:window-width="1067"
     inkscape:window-height="781"
     inkscape:window-x="233"
     inkscape:window-y="33"
     inkscape:window-maximized="0" />
  <metadata
     id="metadata4276">
    <rdf:RDF>
      <cc:Work
         rdf:about="">
        <dc:format>image/svg+xml</dc:format>
        <dc:type
           rdf:resource="http://purl.org/dc/dcmitype/StillImage" />
        <dc:title />
      </cc:Work>
    </rdf:RDF>
  </metadata>
  <g
     inkscape:label="Layer 1"
     inkscape:groupmode="layer"
     id="layer1"
     transform="translate(-281.4375,-411.35186)">
    <path
       style="color:#000000;fill:#000000;fill-opacity:1;fill-rule:nonzero;stroke:none;stroke-width:0.53799999;marker:none;visibility:visible;display:inline;overflow:visible;enable-background:accumulate"
       d="M 20.3125 0 C 8.9603365 0.57232669 0 9.9370522 0 21.4375 L 0 165.71875 C 0 177.59018 9.53482 187.15625 21.40625 187.15625 L 165.6875 187.15625 C 177.55893 187.15625 187.125 177.59018 187.125 165.71875 L 187.125 21.4375 C 187.125 9.56607 177.55893 0 165.6875 0 L 21.40625 0 C 21.035268 0 20.678699 -0.018462151 20.3125 0 z M 40.28125 34.21875 C 51.20631 34.21875 60.0625 43.10619 60.0625 54.03125 C 60.0625 64.95631 51.20631 73.8125 40.28125 73.8125 C 29.35617 73.8125 20.5 64.95631 20.5 54.03125 C 20.5 43.10619 29.35617 34.21875 40.28125 34.21875 z M 93.5625 34.21875 C 104.48755 34.21875 113.34375 43.10619 113.34375 54.03125 C 113.34375 64.95631 104.48755 73.8125 93.5625 73.8125 C 82.63742 73.8125 73.78125 64.95631 73.78125 54.03125 C 73.78125 43.10619 82.63742 34.21875 93.5625 34.21875 z M 146.875 34.21875 C 157.80006 34.21875 166.65625 43.10619 166.65625 54.03125 C 166.65625 64.95631 157.80006 73.8125 146.875 73.8125 C 135.94994 73.8125 127.09375 64.95631 127.09375 54.03125 C 127.09375 43.10619 135.94994 34.21875 146.875 34.21875 z M 22.8125 67.59375 C 26.86603 72.7992 33.17265 76.1875 40.28125 76.1875 C 47.38983 76.1875 53.66521 72.7992 57.71875 67.59375 C 61.40439 68.79178 64.58567 71.06841 66.90625 74.0625 C 69.22682 71.06841 72.40814 68.79178 76.09375 67.59375 C 80.1473 72.7992 86.45389 76.1875 93.5625 76.1875 C 100.67108 76.1875 106.94647 72.7992 111 67.59375 C 114.66671 68.78563 117.86997 71.02856 120.1875 74 C 122.50639 71.01861 125.73122 68.78835 129.40625 67.59375 C 133.45978 72.7992 139.76641 76.1875 146.875 76.1875 C 153.98359 76.1875 160.25895 72.7992 164.3125 67.59375 C 171.99107 70.08971 177.53125 77.31165 177.53125 85.84375 L 177.53125 90.4375 C 174.3735 88.30396 170.5969 87.03125 166.5 87.03125 C 155.57493 87.03125 146.71875 95.91868 146.71875 106.84375 C 146.71875 117.76882 155.57493 126.625 166.5 126.625 C 170.5969 126.625 174.3735 125.35229 177.53125 123.21875 L 177.53125 126.03125 C 174.28844 127.92498 170.53256 129 166.5 129 C 159.3914 129 153.08478 125.6117 149.03125 120.40625 C 145.35621 121.60083 142.13138 123.83109 139.8125 126.8125 C 137.49498 123.84104 134.2917 121.59813 130.625 120.40625 C 126.57146 125.6117 120.29608 129 113.1875 129 C 106.0789 129 99.74103 125.6117 95.6875 120.40625 C 92.00187 121.60427 88.85182 123.88091 86.53125 126.875 C 84.21068 123.88091 81.02938 121.60427 77.34375 120.40625 C 73.29021 125.6117 67.01485 129 59.90625 129 C 52.79766 129 46.49103 125.6117 42.4375 120.40625 C 34.75892 122.9022 29.21875 130.12415 29.21875 138.65625 L 29.21875 152.90625 L 28.75 152.90625 C 18.13413 152.90625 9.59375 144.36588 9.59375 133.75 L 9.59375 85.84375 C 9.59375 77.31165 15.13391 70.08971 22.8125 67.59375 z M 59.90625 87.03125 C 48.98118 87.03125 40.125 95.91868 40.125 106.84375 C 40.125 117.76882 48.98118 126.625 59.90625 126.625 C 70.83132 126.625 79.6875 117.76882 79.6875 106.84375 C 79.6875 95.91868 70.83132 87.03125 59.90625 87.03125 z M 113.1875 87.03125 C 102.26243 87.03125 93.40625 95.91868 93.40625 106.84375 C 93.40625 117.76882 102.26243 126.625 113.1875 126.625 C 124.11256 126.625 132.96875 117.76882 132.96875 106.84375 C 132.96875 95.91868 124.11256 87.03125 113.1875 87.03125 z "
       transform="translate(281.4375,411.35186)"
       id="rect2987" />
  </g>
</svg>
