<?xml version="1.0" encoding="UTF-8" standalone="no"?>
<!-- Created with Inkscape (http://www.inkscape.org/) -->

<svg
   xmlns:dc="http://purl.org/dc/elements/1.1/"
   xmlns:cc="http://creativecommons.org/ns#"
   xmlns:rdf="http://www.w3.org/1999/02/22-rdf-syntax-ns#"
   xmlns:svg="http://www.w3.org/2000/svg"
   xmlns="http://www.w3.org/2000/svg"
   xmlns:sodipodi="http://sodipodi.sourceforge.net/DTD/sodipodi-0.dtd"
   xmlns:inkscape="http://www.inkscape.org/namespaces/inkscape"
   width="187.125"
   height="187.125"
   id="svg4335"
   version="1.1"
   inkscape:version="0.48.2 r9819"
   sodipodi:docname="cycle2.svg">
  <defs
     id="defs4337" />
  <sodipodi:namedview
     id="base"
     pagecolor="#ffffff"
     bordercolor="#666666"
     borderopacity="1.0"
     inkscape:pageopacity="0.0"
     inkscape:pageshadow="2"
     inkscape:zoom="0.35"
     inkscape:cx="-57.151786"
     inkscape:cy="-80.723212"
     inkscape:document-units="px"
     inkscape:current-layer="layer1"
     showgrid="false"
     fit-margin-top="0"
     fit-margin-left="0"
     fit-margin-right="0"
     fit-margin-bottom="0"
     inkscape:window-width="708"
     inkscape:window-height="425"
     inkscape:window-x="225"
     inkscape:window-y="225"
     inkscape:window-maximized="0" />
  <metadata
     id="metadata4340">
    <rdf:RDF>
      <cc:Work
         rdf:about="">
        <dc:format>image/svg+xml</dc:format>
        <dc:type
           rdf:resource="http://purl.org/dc/dcmitype/StillImage" />
        <dc:title />
      </cc:Work>
    </rdf:RDF>
  </metadata>
  <g
     inkscape:label="Layer 1"
     inkscape:groupmode="layer"
     id="layer1"
     transform="translate(-432.15179,-264.51397)">
    <path
       style="color:#000000;fill:#000000;fill-opacity:1;fill-rule:nonzero;stroke:none;stroke-width:2.13800001;marker:none;visibility:visible;display:inline;overflow:visible;enable-background:accumulate"
       d="M 93.5625 0 C 41.889358 0 -1.3766887e-017 41.889358 0 93.5625 C 9.2518585e-018 145.23564 41.889358 187.125 93.5625 187.125 C 145.23564 187.125 187.125 145.23564 187.125 93.5625 C 187.125 41.889358 145.23564 -1.3766887e-017 93.5625 0 z M 95.375 35.5625 C 105.81633 35.562616 113.84989 38.306693 119.4375 43.78125 C 125.02498 49.256023 127.81242 57.171592 127.8125 67.5 C 127.81242 72.805429 126.73839 78.501344 124.59375 84.625 C 122.44896 90.74879 119.22687 97.475367 114.9375 104.8125 L 101.0625 128.53125 L 123.84375 128.53125 L 123.84375 151.5625 L 59.3125 151.5625 L 96.21875 88.46875 C 100.73389 80.905874 102.99995 74.020967 103 67.8125 C 102.99995 64.708392 102.32326 62.194236 100.96875 60.21875 C 99.614145 58.243447 97.938041 57.250094 95.90625 57.25 C 92.689136 57.250094 90.58141 58.525828 89.59375 61.09375 C 88.606016 63.661853 88.093715 68.718386 88.09375 76.28125 L 88.09375 80.4375 L 63.28125 80.4375 C 63.281239 71.971594 63.63824 65.328728 64.34375 60.53125 C 65.049236 55.733954 66.52061 51.509414 68.75 47.8125 C 70.979358 44.115794 74.400126 41.135737 79 38.90625 C 83.599821 36.676989 89.053695 35.562616 95.375 35.5625 z "
       transform="translate(432.15179,264.51397)"
       id="path4117-4" />
  </g>
</svg>
