<?xml version="1.0" encoding="UTF-8" standalone="no"?>
<!-- Created with Inkscape (http://www.inkscape.org/) -->

<svg
   xmlns:dc="http://purl.org/dc/elements/1.1/"
   xmlns:cc="http://creativecommons.org/ns#"
   xmlns:rdf="http://www.w3.org/1999/02/22-rdf-syntax-ns#"
   xmlns:svg="http://www.w3.org/2000/svg"
   xmlns="http://www.w3.org/2000/svg"
   xmlns:sodipodi="http://sodipodi.sourceforge.net/DTD/sodipodi-0.dtd"
   xmlns:inkscape="http://www.inkscape.org/namespaces/inkscape"
   width="187.125"
   height="187.125"
   id="svg4370"
   version="1.1"
   inkscape:version="0.48.2 r9819"
   sodipodi:docname="cycle3.svg">
  <defs
     id="defs4372" />
  <sodipodi:namedview
     id="base"
     pagecolor="#ffffff"
     bordercolor="#666666"
     borderopacity="1.0"
     inkscape:pageopacity="0.0"
     inkscape:pageshadow="2"
     inkscape:zoom="0.35"
     inkscape:cx="88.562498"
     inkscape:cy="56.419643"
     inkscape:document-units="px"
     inkscape:current-layer="layer1"
     showgrid="false"
     fit-margin-top="0"
     fit-margin-left="0"
     fit-margin-right="0"
     fit-margin-bottom="0"
     inkscape:window-width="469"
     inkscape:window-height="425"
     inkscape:window-x="275"
     inkscape:window-y="275"
     inkscape:window-maximized="0" />
  <metadata
     id="metadata4375">
    <rdf:RDF>
      <cc:Work
         rdf:about="">
        <dc:format>image/svg+xml</dc:format>
        <dc:type
           rdf:resource="http://purl.org/dc/dcmitype/StillImage" />
        <dc:title />
      </cc:Work>
    </rdf:RDF>
  </metadata>
  <g
     inkscape:label="Layer 1"
     inkscape:groupmode="layer"
     id="layer1"
     transform="translate(-286.4375,-401.65683)">
    <path
       style="color:#000000;fill:#000000;fill-opacity:1;fill-rule:nonzero;stroke:none;stroke-width:2.13800001;marker:none;visibility:visible;display:inline;overflow:visible;enable-background:accumulate"
       d="M 93.5625 0 C 41.889358 0 -1.3766887e-017 41.889358 0 93.5625 C 9.2518585e-018 145.23564 41.889358 187.125 93.5625 187.125 C 145.23564 187.125 187.125 145.23564 187.125 93.5625 C 187.125 41.889358 145.23564 -1.3766887e-017 93.5625 0 z M 93.90625 34.1875 C 102.59794 34.187616 109.7622 37.294754 115.40625 43.53125 C 121.05017 49.767959 123.87493 57.686559 123.875 67.28125 C 123.87493 78.456422 119.54149 87.216104 110.90625 93.59375 C 121.06536 98.842712 126.15617 108.22966 126.15625 121.71875 C 126.15617 127.08056 124.8865 132.41645 122.375 137.75 C 119.86335 143.08358 116.23483 146.94506 111.4375 149.34375 C 106.64005 151.74244 101.02785 152.9375 94.59375 152.9375 C 84.942492 152.9375 77.026922 150.10971 70.875 144.4375 C 64.723036 138.7653 61.420258 130.96469 60.96875 121.03125 L 85.28125 121.03125 C 85.394095 127.97338 88.144232 131.43752 93.5625 131.4375 C 98.867802 131.43752 101.5312 126.70068 101.53125 117.21875 C 101.5312 112.81647 100.73955 109.75271 99.1875 108.03125 C 97.635355 106.30988 94.888248 105.46879 90.9375 105.46875 L 83.15625 105.46875 L 83.15625 82 L 91.625 82 C 95.237109 82.000068 97.822855 81.047056 99.375 79.15625 C 100.92705 77.265586 101.68745 74.195758 101.6875 69.90625 C 101.68745 60.650196 99.098672 56.031344 93.90625 56.03125 C 91.479293 56.031344 89.849589 56.987386 89.03125 58.90625 C 88.212833 60.825296 87.812462 64.208754 87.8125 69.0625 L 87.8125 71.4375 L 63.09375 71.4375 C 63.206617 64.946996 63.768348 59.893494 64.8125 56.28125 C 65.856623 52.669194 67.681967 49.130435 70.25 45.6875 C 72.817993 42.244774 76.167171 39.460357 80.34375 37.34375 C 84.520268 35.227368 89.05238 34.187616 93.90625 34.1875 z "
       transform="translate(286.4375,401.65683)"
       id="path4117-4-2" />
  </g>
</svg>
