<?xml version="1.0" encoding="UTF-8" standalone="no"?>
<!-- Created with Inkscape (http://www.inkscape.org/) -->

<svg
   xmlns:dc="http://purl.org/dc/elements/1.1/"
   xmlns:cc="http://creativecommons.org/ns#"
   xmlns:rdf="http://www.w3.org/1999/02/22-rdf-syntax-ns#"
   xmlns:svg="http://www.w3.org/2000/svg"
   xmlns="http://www.w3.org/2000/svg"
   xmlns:sodipodi="http://sodipodi.sourceforge.net/DTD/sodipodi-0.dtd"
   xmlns:inkscape="http://www.inkscape.org/namespaces/inkscape"
   width="32"
   height="32"
   id="svg4335"
   version="1.1"
   inkscape:version="0.48.5 r10040"
   sodipodi:docname="cycle2.svg">
  <defs
     id="defs4337" />
  <sodipodi:namedview
     id="base"
     pagecolor="#ffffff"
     bordercolor="#666666"
     borderopacity="1.0"
     inkscape:pageopacity="0.0"
     inkscape:pageshadow="2"
     inkscape:zoom="1.979899"
     inkscape:cx="-117.5084"
     inkscape:cy="-80.723212"
     inkscape:document-units="px"
     inkscape:current-layer="layer1"
     showgrid="false"
     fit-margin-top="0"
     fit-margin-left="0"
     fit-margin-right="0"
     fit-margin-bottom="0"
     inkscape:window-width="1600"
     inkscape:window-height="1147"
     inkscape:window-x="-8"
     inkscape:window-y="-8"
     inkscape:window-maximized="1" />
  <metadata
     id="metadata4340">
    <rdf:RDF>
      <cc:Work
         rdf:about="">
        <dc:format>image/svg+xml</dc:format>
        <dc:type
           rdf:resource="http://purl.org/dc/dcmitype/StillImage" />
        <dc:title />
      </cc:Work>
    </rdf:RDF>
  </metadata>
  <g
     inkscape:label="Layer 1"
     inkscape:groupmode="layer"
     id="layer1"
     transform="translate(-432.15179,-419.63897)">
    <path
       style="color:#000000;fill:#000000;fill-opacity:1;fill-rule:nonzero;stroke:none;stroke-width:2.13800001;marker:none;visibility:visible;display:inline;overflow:visible;enable-background:accumulate"
       d="m 448.15179,421.63897 c -7.73216,0 -14,6.26784 -14,14 0,7.73216 6.26784,14 14,14 7.73216,0 14,-6.26784 14,-14 0,-7.73216 -6.26784,-14 -14,-14 z m 0.27115,5.3214 c 1.56236,0 2.76457,0.41058 3.6005,1.22957 0.83631,0.81944 1.25338,2.00387 1.2534,3.54932 -2e-5,0.79367 -0.16088,1.64612 -0.48164,2.56252 -0.32117,0.91602 -0.80321,1.92272 -1.4449,3.02064 l -2.07634,3.54891 3.40899,0 0,3.44624 -9.65621,0 5.52249,-9.44088 c 0.67573,-1.13171 1.01485,-2.16189 1.01485,-3.09079 0,-0.46443 -0.10132,-0.84077 -0.30416,-1.1362 -0.20245,-0.29573 -0.45347,-0.44413 -0.75733,-0.44413 -0.48135,0 -0.79699,0.19063 -0.94469,0.57496 -0.14771,0.38437 -0.22452,1.14108 -0.22451,2.27264 l 0,0.62171 -3.71276,0 c 0,-1.26654 0.053,-2.26053 0.15896,-2.97854 0.10578,-0.71758 0.3258,-1.35001 0.65945,-1.90302 0.33364,-0.55335 0.84542,-0.99898 1.53364,-1.33264 0.68821,-0.33363 1.50447,-0.50031 2.45026,-0.50031 z"
       id="path4117-4"
       inkscape:connector-curvature="0" />
  </g>
</svg>
