<?xml version="1.0" encoding="UTF-8" standalone="no"?>
<!-- Created with Inkscape (http://www.inkscape.org/) -->

<svg
   xmlns:dc="http://purl.org/dc/elements/1.1/"
   xmlns:cc="http://creativecommons.org/ns#"
   xmlns:rdf="http://www.w3.org/1999/02/22-rdf-syntax-ns#"
   xmlns:svg="http://www.w3.org/2000/svg"
   xmlns="http://www.w3.org/2000/svg"
   xmlns:sodipodi="http://sodipodi.sourceforge.net/DTD/sodipodi-0.dtd"
   xmlns:inkscape="http://www.inkscape.org/namespaces/inkscape"
   width="32"
   height="32"
   id="svg4271"
   version="1.1"
   inkscape:version="0.48.5 r10040"
   sodipodi:docname="discipline-manualactivities.svg">
  <defs
     id="defs4273">
    <inkscape:path-effect
       effect="skeletal"
       id="path-effect3060"
       is_visible="true"
       pattern="M 9.53125,0 C 9.53125,0 0,9.04999 0,15.3125 0,20.406167 2.831179,24.694903 6.71875,26.125 L 8.9375,9.34375 l 0,17.28125 0,4.65625 2.90625,0 -0.625,-4.8125 C 15.669796,25.513216 19.0625,20.883181 19.0625,15.3125 19.0625,9.04999 9.53125,0 9.53125,0 z"
       copytype="single_stretched"
       prop_scale="1"
       scale_y_rel="false"
       spacing="0"
       normal_offset="0"
       tang_offset="0"
       prop_units="false"
       vertical_pattern="false"
       fuse_tolerance="0" />
    <inkscape:path-effect
       effect="skeletal"
       id="path-effect3050"
       is_visible="true"
       pattern="M 9.53125,0 C 9.53125,0 0,9.04999 0,15.3125 0,20.406167 2.831179,24.694903 6.71875,26.125 L 8.9375,9.34375 l 0,17.28125 0,4.65625 2.90625,0 -0.625,-4.8125 C 15.669796,25.513216 19.0625,20.883181 19.0625,15.3125 19.0625,9.04999 9.53125,0 9.53125,0 z"
       copytype="single_stretched"
       prop_scale="1"
       scale_y_rel="false"
       spacing="0"
       normal_offset="0"
       tang_offset="0"
       prop_units="false"
       vertical_pattern="false"
       fuse_tolerance="0" />
    <inkscape:path-effect
       effect="skeletal"
       id="path-effect3011"
       is_visible="true"
       pattern="M 0,0 1,0"
       copytype="single_stretched"
       prop_scale="1"
       scale_y_rel="false"
       spacing="0"
       normal_offset="0"
       tang_offset="0"
       prop_units="false"
       vertical_pattern="false"
       fuse_tolerance="0" />
    <inkscape:path-effect
       effect="skeletal"
       id="path-effect3002"
       is_visible="true"
       pattern="m 316.73214,558.2899 c 0,0 -9.07677,9.53125 -15.33928,9.53125 -6.26252,0 -11.33929,-4.26729 -11.33929,-9.53125 0,-5.26397 5.07677,-9.53125 11.33929,-9.53125 6.26251,0 15.33928,9.53125 15.33928,9.53125 z"
       copytype="single_stretched"
       prop_scale="1"
       scale_y_rel="false"
       spacing="0"
       normal_offset="0"
       tang_offset="0"
       prop_units="false"
       vertical_pattern="false"
       fuse_tolerance="0" />
  </defs>
  <sodipodi:namedview
     id="base"
     pagecolor="#ffffff"
     bordercolor="#666666"
     borderopacity="1.0"
     inkscape:pageopacity="0.0"
     inkscape:pageshadow="2"
     inkscape:zoom="5.6"
     inkscape:cx="-60.123537"
     inkscape:cy="30.225715"
     inkscape:document-units="px"
     inkscape:current-layer="layer1"
     showgrid="false"
     fit-margin-top="0"
     fit-margin-left="0"
     fit-margin-right="0"
     fit-margin-bottom="0"
     inkscape:window-width="1600"
     inkscape:window-height="1147"
     inkscape:window-x="-8"
     inkscape:window-y="-8"
     inkscape:window-maximized="1"
     showguides="true"
     inkscape:guide-bbox="true" />
  <metadata
     id="metadata4276">
    <rdf:RDF>
      <cc:Work
         rdf:about="">
        <dc:format>image/svg+xml</dc:format>
        <dc:type
           rdf:resource="http://purl.org/dc/dcmitype/StillImage" />
        <dc:title />
      </cc:Work>
    </rdf:RDF>
  </metadata>
  <g
     inkscape:label="Layer 1"
     inkscape:groupmode="layer"
     id="layer1"
     transform="translate(-281.4375,-566.48186)">
    <path
       style="stroke:#000000;stroke-width:0.43481493;stroke-miterlimit:4;stroke-opacity:1;marker-start:none"
       d="m 310.39932,587.45199 c 0.0356,-0.0379 0.0707,-0.0772 0.10449,-0.11722 1.1483,-1.19937 0.82143,-3.19699 -0.3109,-4.28635 -1.05265,-1.1704 -3.06479,-1.48703 -4.23539,-0.40519 -1.21921,1.12675 -0.70386,1.43596 -1.14804,1.89216 -0.56824,0.58363 -2.16251,-1.18998 -5.75676,-2.8032 l -0.53899,-0.23828 -4.76545,-10.3056 c -0.71583,-1.31091 -1.95188,-2.55969 -3.8544,-2.48593 l 4.92599,11.16185 -11.16185,-4.926 c -0.0738,1.90253 1.17502,3.13858 2.48593,3.85441 l 10.30561,4.76545 0.23827,0.53898 c 1.61322,3.59425 3.38683,5.18852 2.8032,5.75677 -0.45618,0.44418 -0.76541,-0.0712 -1.89216,1.14804 -1.08183,1.1706 -0.76521,3.18274 0.40519,4.23538 1.08937,1.13233 3.08698,1.4592 4.28636,0.31091 1.28,-1.08291 1.41222,-3.17461 0.33001,-4.44308 -1.15172,-1.59888 -2.99951,-3.1407 -3.45559,-6.43209 l -0.0752,-0.53898 0.53899,0.0752 c 3.29138,0.45608 4.8332,2.30387 6.43208,3.45559 1.22883,1.04839 3.2302,0.95763 4.3386,-0.21279 z m -8.66573,7.22335 c -0.12667,0.125 -0.27579,0.23377 -0.44597,0.32364 -1.19525,0.75787 -2.83382,-0.19389 -3.17144,-1.44874 -0.49319,-1.83305 1.39994,-3.48785 2.94974,-2.59297 1.29074,0.64533 1.68395,2.62755 0.71991,3.66328 -0.0173,0.0184 -0.0342,0.0369 -0.0521,0.0549 z m 7.896,-7.89878 c -1.01912,1.03074 -3.05993,0.6474 -3.71679,-0.6664 -0.89488,-1.5498 0.75992,-3.44292 2.59297,-2.94973 1.25485,0.33762 2.20661,1.97619 1.44874,3.17144 -0.0899,0.17017 -0.19976,0.3181 -0.32492,0.44469 z m -11.96204,-4.06465 c -0.39808,0.39808 -1.04429,0.39808 -1.44237,0 -0.39808,-0.39808 -0.39808,-1.04429 0,-1.44237 0.39808,-0.39809 1.04429,-0.39809 1.44237,-10e-6 0.39808,0.39809 0.39808,1.0443 0,1.44238 z"
       id="path49000"
       inkscape:connector-curvature="0" />
  </g>
</svg>
