<?xml version="1.0" encoding="UTF-8" standalone="no"?>
<!-- Created with Inkscape (http://www.inkscape.org/) -->

<svg
   xmlns:dc="http://purl.org/dc/elements/1.1/"
   xmlns:cc="http://creativecommons.org/ns#"
   xmlns:rdf="http://www.w3.org/1999/02/22-rdf-syntax-ns#"
   xmlns:svg="http://www.w3.org/2000/svg"
   xmlns="http://www.w3.org/2000/svg"
   xmlns:sodipodi="http://sodipodi.sourceforge.net/DTD/sodipodi-0.dtd"
   xmlns:inkscape="http://www.inkscape.org/namespaces/inkscape"
   width="32"
   height="32"
   id="svg4271"
   version="1.1"
   inkscape:version="0.48.5 r10040"
   sodipodi:docname="discipline-sport.svg">
  <defs
     id="defs4273">
    <inkscape:path-effect
       effect="skeletal"
       id="path-effect3060"
       is_visible="true"
       pattern="M 9.53125,0 C 9.53125,0 0,9.04999 0,15.3125 0,20.406167 2.831179,24.694903 6.71875,26.125 L 8.9375,9.34375 l 0,17.28125 0,4.65625 2.90625,0 -0.625,-4.8125 C 15.669796,25.513216 19.0625,20.883181 19.0625,15.3125 19.0625,9.04999 9.53125,0 9.53125,0 z"
       copytype="single_stretched"
       prop_scale="1"
       scale_y_rel="false"
       spacing="0"
       normal_offset="0"
       tang_offset="0"
       prop_units="false"
       vertical_pattern="false"
       fuse_tolerance="0" />
    <inkscape:path-effect
       effect="skeletal"
       id="path-effect3050"
       is_visible="true"
       pattern="M 9.53125,0 C 9.53125,0 0,9.04999 0,15.3125 0,20.406167 2.831179,24.694903 6.71875,26.125 L 8.9375,9.34375 l 0,17.28125 0,4.65625 2.90625,0 -0.625,-4.8125 C 15.669796,25.513216 19.0625,20.883181 19.0625,15.3125 19.0625,9.04999 9.53125,0 9.53125,0 z"
       copytype="single_stretched"
       prop_scale="1"
       scale_y_rel="false"
       spacing="0"
       normal_offset="0"
       tang_offset="0"
       prop_units="false"
       vertical_pattern="false"
       fuse_tolerance="0" />
    <inkscape:path-effect
       effect="skeletal"
       id="path-effect3011"
       is_visible="true"
       pattern="M 0,0 1,0"
       copytype="single_stretched"
       prop_scale="1"
       scale_y_rel="false"
       spacing="0"
       normal_offset="0"
       tang_offset="0"
       prop_units="false"
       vertical_pattern="false"
       fuse_tolerance="0" />
    <inkscape:path-effect
       effect="skeletal"
       id="path-effect3002"
       is_visible="true"
       pattern="m 316.73214,558.2899 c 0,0 -9.07677,9.53125 -15.33928,9.53125 -6.26252,0 -11.33929,-4.26729 -11.33929,-9.53125 0,-5.26397 5.07677,-9.53125 11.33929,-9.53125 6.26251,0 15.33928,9.53125 15.33928,9.53125 z"
       copytype="single_stretched"
       prop_scale="1"
       scale_y_rel="false"
       spacing="0"
       normal_offset="0"
       tang_offset="0"
       prop_units="false"
       vertical_pattern="false"
       fuse_tolerance="0" />
  </defs>
  <sodipodi:namedview
     id="base"
     pagecolor="#ffffff"
     bordercolor="#666666"
     borderopacity="1.0"
     inkscape:pageopacity="0.0"
     inkscape:pageshadow="2"
     inkscape:zoom="2.8"
     inkscape:cx="-5.0051889"
     inkscape:cy="15.995277"
     inkscape:document-units="px"
     inkscape:current-layer="layer1"
     showgrid="false"
     fit-margin-top="0"
     fit-margin-left="0"
     fit-margin-right="0"
     fit-margin-bottom="0"
     inkscape:window-width="1600"
     inkscape:window-height="1147"
     inkscape:window-x="-8"
     inkscape:window-y="-8"
     inkscape:window-maximized="1"
     showguides="true"
     inkscape:guide-bbox="true" />
  <metadata
     id="metadata4276">
    <rdf:RDF>
      <cc:Work
         rdf:about="">
        <dc:format>image/svg+xml</dc:format>
        <dc:type
           rdf:resource="http://purl.org/dc/dcmitype/StillImage" />
        <dc:title />
      </cc:Work>
    </rdf:RDF>
  </metadata>
  <g
     inkscape:label="Layer 1"
     inkscape:groupmode="layer"
     id="layer1"
     transform="translate(-281.4375,-566.48186)">
    <path
       style="fill:#000000;stroke:none"
       d="M 16 2 C 8.2680135 2 2 8.2680135 2 16 C 2 23.731987 8.2680135 30 16 30 C 23.731987 30 30 23.731987 30 16 C 30 8.2680135 23.731987 2 16 2 z M 15.71875 3.3125 C 16.871287 3.2892965 18.015566 3.436442 19.125 3.71875 L 19.21875 3.71875 C 19.242602 3.7212215 19.258068 3.7437883 19.28125 3.75 C 22.283016 4.5543146 24.984371 6.4599094 26.75 9.28125 L 26.78125 9.25 L 27 9.65625 L 27.21875 10.03125 L 27.21875 10.0625 C 28.779288 13.00225 29.054327 16.279487 28.25 19.28125 L 28.25 19.34375 L 28.1875 19.4375 C 27.360217 22.376038 25.488109 25.014968 22.71875 26.75 L 22.75 26.78125 L 22.34375 27 L 21.96875 27.21875 L 21.9375 27.21875 C 19.050239 28.749569 15.83349 29.034071 12.875 28.28125 L 12.78125 28.28125 L 12.71875 28.25 C 9.7169837 27.445686 7.0156294 25.54009 5.25 22.71875 L 5.21875 22.75 L 5 22.34375 L 4.78125 21.96875 L 4.78125 21.9375 C 3.2207123 18.99775 2.9456735 15.720513 3.75 12.71875 C 3.7562571 12.695646 3.7401356 12.678188 3.75 12.65625 L 3.8125 12.5625 C 4.6397827 9.6239618 6.5118909 6.9850318 9.28125 5.25 L 9.25 5.21875 L 9.65625 5 L 10.03125 4.78125 L 10.0625 4.78125 C 11.867038 3.8244879 13.797856 3.3511725 15.71875 3.3125 z M 15.75 4.28125 C 13.969467 4.2917614 12.173785 4.7169088 10.5 5.59375 L 13.65625 11.03125 C 13.678184 11.01341 13.697083 11.018629 13.71875 11 C 14.134998 10.642186 14.51005 10.167502 14.8125 9.625 C 15.21818 8.8973254 15.544776 8.0366061 15.875 7.21875 C 16.207791 6.3944865 16.533563 5.6235325 17.03125 4.96875 C 17.18283 4.7693278 17.341174 4.5736262 17.53125 4.40625 C 16.945775 4.3265785 16.343511 4.2777462 15.75 4.28125 z M 19.15625 4.6875 C 19.017414 4.7028429 18.895465 4.7195827 18.78125 4.75 C 18.773033 4.7526481 18.757981 4.747488 18.75 4.75 C 18.629883 4.7838251 18.509211 4.810316 18.40625 4.875 C 18.186276 5.0119365 17.984172 5.2642612 17.78125 5.53125 C 17.388528 6.0479163 17.046569 6.8130699 16.71875 7.625 C 16.553547 8.0341694 16.405128 8.4248282 16.21875 8.84375 C 16.032368 9.2626842 15.81663 9.6939628 15.59375 10.09375 C 15.25761 10.696677 14.844873 11.273478 14.3125 11.71875 C 14.253444 11.768125 14.186498 11.799546 14.125 11.84375 L 16.15625 15.375 L 25.96875 9.71875 C 24.352748 7.1556287 21.888226 5.4458215 19.15625 4.6875 z M 9.71875 6.03125 C 7.5904047 7.379409 6.0824598 9.343762 5.1875 11.53125 C 5.4274902 11.450327 5.6890052 11.406561 5.9375 11.375 C 6.7534018 11.271382 7.5885212 11.376074 8.46875 11.5 C 9.3421462 11.622946 10.229475 11.768742 11.0625 11.78125 C 11.71587 11.79106 12.337264 11.704973 12.875 11.5 L 9.71875 6.03125 z M 26.40625 10.5 L 16.625 16.15625 L 18.65625 19.6875 C 19.37679 19.373304 20.132996 19.269641 20.90625 19.28125 C 21.821589 19.294993 22.751099 19.439479 23.625 19.5625 C 24.492062 19.684565 25.324951 19.76927 25.96875 19.6875 C 26.301426 19.645251 26.61539 19.591162 26.84375 19.46875 C 27.015348 19.377128 27.11157 19.232753 27.25 19.0625 C 27.283762 19.020477 27.340588 18.985347 27.375 18.9375 C 28.084263 16.192378 27.817977 13.18106 26.40625 10.5 z M 6.5625 12.28125 C 6.3813623 12.282732 6.1921998 12.292058 6.03125 12.3125 C 5.6985743 12.354749 5.3846097 12.408838 5.15625 12.53125 C 4.9835805 12.623448 4.8868615 12.767 4.75 12.9375 C 4.715366 12.980026 4.6602224 13.014604 4.625 13.0625 C 3.9157371 15.807622 4.1820233 18.81894 5.59375 21.5 L 15.375 15.84375 L 13.34375 12.3125 C 12.62321 12.626696 11.867004 12.730359 11.09375 12.71875 C 10.178411 12.705007 9.2489008 12.560521 8.375 12.4375 C 7.7247038 12.345951 7.1059132 12.276805 6.5625 12.28125 z M 15.84375 16.625 L 6.03125 22.28125 C 7.6472526 24.844371 10.111773 26.554179 12.84375 27.3125 C 12.902825 27.305954 12.977088 27.28999 13.03125 27.28125 C 13.103282 27.270157 13.154596 27.267024 13.21875 27.25 C 13.347538 27.215675 13.48447 27.193332 13.59375 27.125 C 13.813724 26.988064 14.015823 26.735731 14.21875 26.46875 C 14.611464 25.952088 14.953431 25.18693 15.28125 24.375 C 15.611661 23.556669 15.960482 22.705829 16.40625 21.90625 C 16.782823 21.230788 17.242628 20.623156 17.875 20.15625 L 15.84375 16.625 z M 20.9375 20.21875 C 20.284131 20.20894 19.662736 20.295027 19.125 20.5 L 22.28125 25.96875 C 24.409596 24.620592 25.917544 22.656245 26.8125 20.46875 C 26.57251 20.549673 26.310995 20.593439 26.0625 20.625 C 25.246598 20.728618 24.411479 20.623926 23.53125 20.5 C 22.657854 20.377054 21.770525 20.231258 20.9375 20.21875 z M 18.34375 20.96875 C 18.32167 20.986737 18.302935 20.981402 18.28125 21 C 17.865 21.357819 17.489946 21.8325 17.1875 22.375 C 16.78182 23.102675 16.455224 23.963394 16.125 24.78125 C 15.792209 25.605514 15.466437 26.376467 14.96875 27.03125 C 14.81717 27.230672 14.658826 27.426374 14.46875 27.59375 C 16.810654 27.912443 19.268288 27.575373 21.5 26.40625 L 18.34375 20.96875 z "
       transform="translate(281.4375,566.48186)"
       id="path3043" />
  </g>
</svg>
