<?xml version="1.0" encoding="UTF-8" standalone="no"?>
<!-- Created with Inkscape (http://www.inkscape.org/) -->

<svg
   xmlns:dc="http://purl.org/dc/elements/1.1/"
   xmlns:cc="http://creativecommons.org/ns#"
   xmlns:rdf="http://www.w3.org/1999/02/22-rdf-syntax-ns#"
   xmlns:svg="http://www.w3.org/2000/svg"
   xmlns="http://www.w3.org/2000/svg"
   xmlns:sodipodi="http://sodipodi.sourceforge.net/DTD/sodipodi-0.dtd"
   xmlns:inkscape="http://www.inkscape.org/namespaces/inkscape"
   width="32"
   height="32"
   id="svg2"
   version="1.1"
   inkscape:version="0.48.5 r10040"
   sodipodi:docname="math.svg">
  <defs
     id="defs4" />
  <sodipodi:namedview
     id="base"
     pagecolor="#ffffff"
     bordercolor="#666666"
     borderopacity="1.0"
     inkscape:pageopacity="0.0"
     inkscape:pageshadow="2"
     inkscape:zoom="22.4"
     inkscape:cx="2.7911622"
     inkscape:cy="17.544102"
     inkscape:document-units="px"
     inkscape:current-layer="layer1"
     showgrid="false"
     inkscape:window-width="1600"
     inkscape:window-height="1147"
     inkscape:window-x="-8"
     inkscape:window-y="-8"
     inkscape:window-maximized="1" />
  <metadata
     id="metadata7">
    <rdf:RDF>
      <cc:Work
         rdf:about="">
        <dc:format>image/svg+xml</dc:format>
        <dc:type
           rdf:resource="http://purl.org/dc/dcmitype/StillImage" />
        <dc:title />
      </cc:Work>
    </rdf:RDF>
  </metadata>
  <g
     inkscape:label="Layer 1"
     inkscape:groupmode="layer"
     id="layer1"
     transform="translate(0,-1020.3622)">
    <path
       style="fill:#000000;stroke:none"
       d="m 6.1944444,1022.3622 c -0.4924445,0 -0.8888889,0.3964 -0.8888889,0.8889 l 0,26.2222 c 0,0.4925 0.3964444,0.8889 0.8888889,0.8889 l 19.6111106,0 c 0.492444,0 0.888889,-0.3964 0.888889,-0.8889 l 0,-26.2222 c 0,-0.4925 -0.396445,-0.8889 -0.888889,-0.8889 l -19.6111106,0 z m 1.6666667,2.3889 16.2777779,0 0,4.5833 -16.2777779,0 0,-4.5833 z m 0,7.0278 4.6388889,0 0,4.6666 -4.6388889,0 0,-4.6666 z m 5.7777779,0 4.694444,0 0,4.6666 -4.694445,0 0,-4.6666 z m 5.805555,0 4.694444,0 0,4.6666 -4.694444,0 0,-4.6666 z m -11.5833329,5.7777 4.6388879,0 0,4.6112 -4.6388879,0 0,-4.6112 z m 5.7777769,0 4.694445,0 0,4.6112 -4.694445,0 0,-4.6112 z m 5.888889,0 4.611111,0 0,10.4167 -4.611111,0 0,-10.4167 z m -11.6666659,5.75 4.6388879,0 0,4.6667 -4.6388879,0 0,-4.6667 z m 5.7777769,0 4.694445,0 0,4.6667 -4.694445,0 0,-4.6667 z"
       id="rect2983"
       inkscape:connector-curvature="0" />
  </g>
</svg>
