<?xml version="1.0" encoding="UTF-8" standalone="no"?>
<!-- Created with Inkscape (http://www.inkscape.org/) -->

<svg
   xmlns:dc="http://purl.org/dc/elements/1.1/"
   xmlns:cc="http://creativecommons.org/ns#"
   xmlns:rdf="http://www.w3.org/1999/02/22-rdf-syntax-ns#"
   xmlns:svg="http://www.w3.org/2000/svg"
   xmlns="http://www.w3.org/2000/svg"
   xmlns:sodipodi="http://sodipodi.sourceforge.net/DTD/sodipodi-0.dtd"
   xmlns:inkscape="http://www.inkscape.org/namespaces/inkscape"
   width="32"
   height="32"
   id="svg4271"
   version="1.1"
   inkscape:version="0.91 r13725"
   sodipodi:docname="discipline-manualactivities.svg">
  <defs
     id="defs4273">
    <inkscape:path-effect
       effect="skeletal"
       id="path-effect3060"
       is_visible="true"
       pattern="M 9.53125,0 C 9.53125,0 0,9.04999 0,15.3125 0,20.406167 2.831179,24.694903 6.71875,26.125 L 8.9375,9.34375 l 0,17.28125 0,4.65625 2.90625,0 -0.625,-4.8125 C 15.669796,25.513216 19.0625,20.883181 19.0625,15.3125 19.0625,9.04999 9.53125,0 9.53125,0 z"
       copytype="single_stretched"
       prop_scale="1"
       scale_y_rel="false"
       spacing="0"
       normal_offset="0"
       tang_offset="0"
       prop_units="false"
       vertical_pattern="false"
       fuse_tolerance="0" />
    <inkscape:path-effect
       effect="skeletal"
       id="path-effect3050"
       is_visible="true"
       pattern="M 9.53125,0 C 9.53125,0 0,9.04999 0,15.3125 0,20.406167 2.831179,24.694903 6.71875,26.125 L 8.9375,9.34375 l 0,17.28125 0,4.65625 2.90625,0 -0.625,-4.8125 C 15.669796,25.513216 19.0625,20.883181 19.0625,15.3125 19.0625,9.04999 9.53125,0 9.53125,0 z"
       copytype="single_stretched"
       prop_scale="1"
       scale_y_rel="false"
       spacing="0"
       normal_offset="0"
       tang_offset="0"
       prop_units="false"
       vertical_pattern="false"
       fuse_tolerance="0" />
    <inkscape:path-effect
       effect="skeletal"
       id="path-effect3011"
       is_visible="true"
       pattern="M 0,0 1,0"
       copytype="single_stretched"
       prop_scale="1"
       scale_y_rel="false"
       spacing="0"
       normal_offset="0"
       tang_offset="0"
       prop_units="false"
       vertical_pattern="false"
       fuse_tolerance="0" />
    <inkscape:path-effect
       effect="skeletal"
       id="path-effect3002"
       is_visible="true"
       pattern="m 316.73214,558.2899 c 0,0 -9.07677,9.53125 -15.33928,9.53125 -6.26252,0 -11.33929,-4.26729 -11.33929,-9.53125 0,-5.26397 5.07677,-9.53125 11.33929,-9.53125 6.26251,0 15.33928,9.53125 15.33928,9.53125 z"
       copytype="single_stretched"
       prop_scale="1"
       scale_y_rel="false"
       spacing="0"
       normal_offset="0"
       tang_offset="0"
       prop_units="false"
       vertical_pattern="false"
       fuse_tolerance="0" />
  </defs>
  <sodipodi:namedview
     id="base"
     pagecolor="#ffffff"
     bordercolor="#666666"
     borderopacity="1.0"
     inkscape:pageopacity="0.0"
     inkscape:pageshadow="2"
     inkscape:zoom="15.839192"
     inkscape:cx="19.974914"
     inkscape:cy="11.195618"
     inkscape:document-units="px"
     inkscape:current-layer="layer1"
     showgrid="false"
     fit-margin-top="0"
     fit-margin-left="0"
     fit-margin-right="0"
     fit-margin-bottom="0"
     inkscape:window-width="1920"
     inkscape:window-height="1017"
     inkscape:window-x="1912"
     inkscape:window-y="-8"
     inkscape:window-maximized="1"
     showguides="true"
     inkscape:guide-bbox="true" />
  <metadata
     id="metadata4276">
    <rdf:RDF>
      <cc:Work
         rdf:about="">
        <dc:format>image/svg+xml</dc:format>
        <dc:type
           rdf:resource="http://purl.org/dc/dcmitype/StillImage" />
        <dc:title />
      </cc:Work>
    </rdf:RDF>
  </metadata>
  <g
     inkscape:label="Layer 1"
     inkscape:groupmode="layer"
     id="layer1"
     transform="translate(-281.4375,-566.48186)">
    <path
       style="color:#000000;font-style:normal;font-variant:normal;font-weight:normal;font-stretch:normal;font-size:medium;line-height:normal;font-family:sans-serif;text-indent:0;text-align:start;text-decoration:none;text-decoration-line:none;text-decoration-style:solid;text-decoration-color:#000000;letter-spacing:normal;word-spacing:normal;text-transform:none;direction:ltr;block-progression:tb;writing-mode:lr-tb;baseline-shift:baseline;text-anchor:start;white-space:normal;clip-rule:nonzero;display:inline;overflow:visible;visibility:visible;opacity:1;isolation:auto;mix-blend-mode:normal;color-interpolation:sRGB;color-interpolation-filters:linearRGB;solid-color:#000000;solid-opacity:1;fill:#000000;fill-opacity:1;fill-rule:nonzero;stroke:none;stroke-width:0.43481493;stroke-linecap:butt;stroke-linejoin:miter;stroke-miterlimit:4;stroke-dasharray:none;stroke-dashoffset:0;stroke-opacity:1;color-rendering:auto;image-rendering:auto;shape-rendering:auto;text-rendering:auto;enable-background:accumulate"
       d="m 289.88477,568.48438 -0.31836,0.0137 4.82812,10.9414 -10.94141,-4.83007 -0.0117,0.32031 c -0.0776,2.0011 1.24532,3.31624 2.59765,4.05469 l 0.008,0.002 10.23632,4.73437 0.20508,0.46485 0.002,0 c 0.81389,1.81332 1.66853,3.12395 2.23829,4.03906 0.28487,0.45755 0.49662,0.8188 0.59375,1.07227 0.0486,0.12673 0.0669,0.22509 0.0645,0.28515 -0.002,0.0601 -0.0118,0.0811 -0.0469,0.11524 -0.0902,0.0878 -0.15208,0.1181 -0.24023,0.14453 -0.0882,0.0264 -0.20868,0.0415 -0.36328,0.0859 -0.30921,0.0889 -0.71641,0.29767 -1.29688,0.92579 -1.17901,1.27575 -0.83656,3.40627 0.41797,4.53906 1.16751,1.20575 3.28116,1.55399 4.58008,0.31445 1.37259,-1.16902 1.50997,-3.37982 0.34766,-4.74219 -1.17756,-1.6292 -2.95915,-3.10973 -3.4043,-6.32226 l -0.0352,-0.25391 0.25391,0.0352 c 3.21252,0.44515 4.6911,2.22869 6.32031,3.40625 1.32222,1.12806 3.44234,1.0327 4.63672,-0.22852 l 0.006,-0.006 0.0215,-0.0234 0.006,-0.006 c 0.0242,-0.0265 0.0469,-0.0546 0.0703,-0.082 1.24441,-1.29976 0.89489,-3.4181 -0.31446,-4.58594 -1.13355,-1.25182 -3.26052,-1.59205 -4.53515,-0.41406 -0.6281,0.58046 -0.83692,0.98766 -0.92578,1.29687 -0.0444,0.1546 -0.0615,0.27317 -0.0879,0.36133 -0.0264,0.0882 -0.0548,0.15003 -0.14258,0.24023 -0.0341,0.035 -0.0571,0.0464 -0.11719,0.0488 -0.0601,0.002 -0.15647,-0.0159 -0.2832,-0.0644 -0.25347,-0.0971 -0.61472,-0.30888 -1.07227,-0.59375 -0.9151,-0.56975 -2.22574,-1.42636 -4.03906,-2.24024 l -0.002,0 -0.46484,-0.20508 -4.73242,-10.23828 -0.004,-0.006 c -0.73845,-1.35233 -2.0536,-2.67719 -4.05468,-2.5996 z m 6.49414,12.93945 c 0.31489,-0.31491 0.81987,-0.3149 1.13476,0 0.3149,0.3149 0.3149,0.81987 0,1.13476 -0.31489,0.3149 -0.81987,0.3149 -1.13476,0 -0.3149,-0.31489 -0.3149,-0.81987 0,-1.13476 z m 12.07031,1.94726 c 0.55553,0.14947 1.06803,0.60183 1.3418,1.15039 0.27377,0.54857 0.3133,1.16844 -0.0195,1.69336 l -0.006,0.008 -0.004,0.008 c -0.08,0.1515 -0.17677,0.28097 -0.28711,0.39258 -0.44907,0.45419 -1.13886,0.60701 -1.80078,0.48633 -0.66192,-0.12069 -1.27447,-0.5118 -1.56641,-1.09571 l -0.004,-0.006 -0.002,-0.006 c -0.39925,-0.69145 -0.23251,-1.44235 0.24805,-1.99023 0.48056,-0.54788 1.26633,-0.86482 2.09961,-0.64063 z m -8.54105,7.56836 c 0.34232,-0.052 0.70311,0.007 1.04883,0.20703 l 0.006,0.002 0.006,0.004 c 0.57363,0.2868 0.96185,0.8821 1.08984,1.53125 0.128,0.64916 -0.007,1.33262 -0.43164,1.78907 -0.0182,0.0194 -0.0335,0.0354 -0.0469,0.0488 -0.11083,0.10938 -0.24203,0.20463 -0.39453,0.28516 l -0.008,0.004 -0.006,0.004 c -0.52493,0.33284 -1.14675,0.2933 -1.69532,0.0195 -0.54856,-0.27377 -1.00092,-0.78431 -1.15039,-1.33984 -0.2242,-0.83328 0.0947,-1.61905 0.64258,-2.09961 0.27394,-0.24028 0.59714,-0.40307 0.93945,-0.45508 z"
       id="path49000"
       inkscape:connector-curvature="0"
       sodipodi:nodetypes="ccccccccccscccccccccccccccccccccccccscccccccccccccccccccccscccccccccccccssccc" />
  </g>
</svg>
