<?xml version="1.0" encoding="UTF-8" standalone="no"?>
<!-- Created with Inkscape (http://www.inkscape.org/) -->

<svg
   xmlns:dc="http://purl.org/dc/elements/1.1/"
   xmlns:cc="http://creativecommons.org/ns#"
   xmlns:rdf="http://www.w3.org/1999/02/22-rdf-syntax-ns#"
   xmlns:svg="http://www.w3.org/2000/svg"
   xmlns="http://www.w3.org/2000/svg"
   xmlns:sodipodi="http://sodipodi.sourceforge.net/DTD/sodipodi-0.dtd"
   xmlns:inkscape="http://www.inkscape.org/namespaces/inkscape"
   width="32"
   height="32"
   id="svg4271"
   version="1.1"
   inkscape:version="0.48.5 r10040"
   sodipodi:docname="discipline-geography.svg">
  <defs
     id="defs4273" />
  <sodipodi:namedview
     id="base"
     pagecolor="#ffffff"
     bordercolor="#666666"
     borderopacity="1.0"
     inkscape:pageopacity="0.0"
     inkscape:pageshadow="2"
     inkscape:zoom="3.959798"
     inkscape:cx="26.408128"
     inkscape:cy="41.633437"
     inkscape:document-units="px"
     inkscape:current-layer="layer1"
     showgrid="false"
     fit-margin-top="0"
     fit-margin-left="0"
     fit-margin-right="0"
     fit-margin-bottom="0"
     inkscape:window-width="1600"
     inkscape:window-height="1147"
     inkscape:window-x="-8"
     inkscape:window-y="-8"
     inkscape:window-maximized="1" />
  <metadata
     id="metadata4276">
    <rdf:RDF>
      <cc:Work
         rdf:about="">
        <dc:format>image/svg+xml</dc:format>
        <dc:type
           rdf:resource="http://purl.org/dc/dcmitype/StillImage" />
        <dc:title />
      </cc:Work>
    </rdf:RDF>
  </metadata>
  <g
     inkscape:label="Layer 1"
     inkscape:groupmode="layer"
     id="layer1"
     transform="translate(-281.4375,-566.48186)">
    <path
       style="fill:#000000;stroke:none"
       d="m 293.6776,568.48741 c -7.44633,1.99517 -11.79392,9.88349 -9.72487,17.60513 2.06905,7.72175 9.77818,12.37947 17.22464,10.38415 7.4463,-1.99516 11.81557,-9.88927 9.74655,-17.61104 -2.06904,-7.72164 -9.79989,-12.37356 -17.24632,-10.37824 z m -2.86108,1.97401 c 0.65688,-0.14851 1.2613,-0.21449 1.67432,-0.0776 -0.90255,1.67439 -0.51286,2.25137 -2.33358,3.24914 -0.71486,0.28216 -0.58415,1.08472 -1.01813,1.57298 -1.61956,-0.47284 -0.50359,-2.00116 -0.95186,-2.25258 0.013,-0.18066 -0.0586,-0.27768 -0.16355,-0.3508 0.81842,-0.83338 1.76239,-1.55094 2.79287,-2.14153 z m 0.17066,0.11699 0.0645,-0.0181 -0.0645,0.0181 z m 0.56322,-0.15087 c -0.0483,0.0373 -0.0314,0.16513 0.0715,0.005 -0.0283,-0.0223 -0.0549,-0.0176 -0.0715,-0.005 z m 0.4775,0.56863 0.11415,-0.006 -0.11415,0.006 z m 8.3033,-1.85338 c 0.084,0.0217 0.16793,0.0494 0.25149,0.0727 -0.0533,0.04 -0.0676,0.0581 -0.1341,0.10553 -0.62044,0.53588 0.83768,0.58191 -0.0858,0.71954 -0.70817,-0.16944 -0.42308,-0.58644 -0.0312,-0.89714 z m -8.17716,2.23745 c 0.0312,-0.0278 0.26839,-0.0209 0.0549,0.0315 -0.0626,-0.0209 -0.0649,-0.0227 -0.0549,-0.0315 z m -0.59612,0.4616 0.0496,0.01 -0.0496,-0.01 z m -0.0467,0.17472 0.077,0.0259 -0.077,-0.0259 z m 5.43217,-1.13037 c 0.85873,-0.36323 3.12479,0.12903 1.38454,0.48805 0.82802,0.40263 1.10719,-0.3459 1.67771,-0.84434 -0.0314,0.008 -0.0684,0.0174 -0.13569,0.013 -0.14233,-0.29133 0.2253,-0.13947 0.19494,-0.0524 0.26484,-0.21721 0.59368,-0.37927 1.06575,-0.35516 -0.0507,-0.54394 1.05891,-0.0182 0.90679,-0.42876 0.24393,0.0988 0.4747,0.20706 0.71261,0.31991 0.0576,0.0869 0.10055,0.12475 0.10418,0.0421 3.27005,1.58313 5.92007,4.50645 7.14091,8.2797 -0.50447,0.63542 -0.5178,2.51452 -0.72744,3.00439 -1.27307,-1.52442 -1.78629,-3.39884 -4.11062,-2.7762 -0.93376,0.11114 -2.63789,-1.05597 -1.05409,0.3986 0.50865,0.0438 1.55763,-0.65821 1.4933,0.8072 -0.38056,1.26333 -1.96232,3.1593 -2.5675,0.98973 -0.53658,-0.88639 -2.81881,-2.74331 -1.21174,-0.88264 0.75276,1.35153 2.06072,2.87607 3.27338,2.16455 -0.0447,2.08596 -1.59768,3.96405 -0.17197,5.94375 -1.12901,1.40205 0.28463,4.14192 -1.8693,4.98207 l -0.29006,0.21714 c -1.34663,-1.62549 -2.3575,-3.62683 -2.60444,-5.73385 -1.04411,-1.36478 -1.60522,-3.49379 -3.5647,-1.69174 -2.19866,0.0344 -3.14131,-2.92874 -2.3041,-4.69984 -0.18349,-1.50155 2.08757,-3.38552 3.02501,-2.57509 0.95565,1.22944 2.6668,-0.049 3.80931,-0.25452 -0.63179,-2.52352 -2.00432,-0.0661 -2.69994,-1.06437 -0.37622,-1.10016 -2.25939,-0.91314 -0.44369,-0.18302 0.5119,0.8259 -0.78212,1.27343 -0.11803,0.42639 -1.54364,-1.76636 -2.0792,0.53674 -2.8429,1.43506 -1.30734,0.21269 -0.95908,-1.8801 0.16384,-1.90141 -1.40017,-0.97192 1.18455,-1.86259 0.92234,-3.0567 0.49973,2.00106 3.11548,-2.20142 1.45802,-0.97108 -0.74898,-0.18369 0.19288,-1.90317 -0.75177,-0.37908 0.66718,0.77751 -0.39234,2.53518 -0.62849,1.12037 -1.84654,0.40928 -0.17138,-2.20676 0.49538,-2.5707 0.0498,-0.0893 0.14566,-0.15942 0.26846,-0.21118 z m -10.15825,3.16296 c 0.2825,0.32053 0.31249,0.68488 -0.20003,0.72698 0.36926,0.5558 -0.21433,0.73359 -0.70122,0.67548 0.26986,-0.484 0.57492,-0.95688 0.90125,-1.40246 z m -1.0699,1.72632 c 0.13334,0.0866 0.27713,0.26115 0.44408,0.53103 0.71894,-1.15022 1.8141,1.98339 1.46026,2.07005 -1.14342,0.35258 0.24407,-1.45011 -1.11996,-0.28036 -0.82675,0.26241 -0.67357,0.28867 -0.40543,0.48006 -0.042,0.006 0.025,0.14453 0.0824,0.048 0.10623,0.0874 0.20838,0.19252 0.28371,0.36521 1.15732,-0.21602 -1.38325,0.55263 -1.24368,1.42446 -0.37279,0.59539 -0.78462,1.28294 -1.04353,1.99788 -0.036,-2.3672 0.49631,-4.63574 1.54222,-6.63591 z m 8.4612,-1.52425 c 0.0509,-0.0605 0.19258,0.0781 0.54818,0.57294 0.90892,0.44171 0.21036,0.92912 -0.36702,1.14316 0.0895,-0.46753 -0.2925,-1.58207 -0.18116,-1.7161 z m -0.2823,0.6794 c 0.29168,-0.0361 0.60641,0.42483 -0.20851,0.86848 -0.12461,-0.47083 -0.0514,-0.71519 0.0842,-0.81204 0.0366,-0.0274 0.0826,-0.0516 0.12428,-0.0565 z m 8.33399,-0.3524 c -0.6509,0.62564 0.68884,1.91891 1.19717,1.95468 -0.0194,-0.93314 -0.80553,-1.66012 -1.19717,-1.95468 z m -4.01811,2.07505 c -0.0192,0.0158 0.002,0.10654 0.0275,0.0158 -0.019,-0.0239 -0.0216,-0.0214 -0.0275,-0.0158 z m 0.29636,0.15277 c -0.0365,-0.005 -0.032,0.16561 0.0456,0.0811 -0.0224,-0.0562 -0.0331,-0.0794 -0.0456,-0.0811 z m 0.19729,0.73654 c 0.0342,0.008 0.0968,0.096 -0.0148,0.0275 -0.002,-0.0256 0.003,-0.0296 0.0148,-0.0275 z m -12.62962,9.53712 c 1.50795,-0.5658 3.29609,0.83819 4.46173,1.66041 2.88727,-0.40315 2.09631,2.72037 1.97881,4.43861 -0.46668,0.32669 -0.56344,1.02372 -0.61922,1.67525 -2.91511,-1.44064 -5.30724,-3.95244 -6.63832,-7.18383 0.0645,-0.064 0.12523,-0.12603 0.19763,-0.21557 0.20178,-0.16835 0.40394,-0.29406 0.61936,-0.37493 z m 23.60513,-5.83743 c 0.15579,-0.11144 0.62171,0.15799 0.28821,0.64264 -0.35607,-0.36593 -0.38165,-0.57578 -0.28821,-0.64264 z m -5.43802,4.66137 0.006,0.11414 -0.006,-0.11414 z m 1.83654,1.4815 c 0.0269,-0.0182 0.0607,-0.0219 0.0866,-0.0236 0.13743,-0.008 0.24096,0.22761 0.28122,0.8766 -0.22939,0.53195 0.35166,1.6766 -0.37041,1.9103 -0.85125,-0.42891 -0.39811,-2.48693 0.002,-2.7637 z"
       id="path2983"
       inkscape:connector-curvature="0" />
  </g>
</svg>
