<?xml version="1.0" encoding="UTF-8" standalone="no"?>
<!-- Created with Inkscape (http://www.inkscape.org/) -->

<svg
   xmlns:dc="http://purl.org/dc/elements/1.1/"
   xmlns:cc="http://creativecommons.org/ns#"
   xmlns:rdf="http://www.w3.org/1999/02/22-rdf-syntax-ns#"
   xmlns:svg="http://www.w3.org/2000/svg"
   xmlns="http://www.w3.org/2000/svg"
   xmlns:sodipodi="http://sodipodi.sourceforge.net/DTD/sodipodi-0.dtd"
   xmlns:inkscape="http://www.inkscape.org/namespaces/inkscape"
   width="32"
   height="32"
   id="svg4271"
   version="1.1"
   inkscape:version="0.48.5 r10040"
   sodipodi:docname="discipline-geography.svg">
  <defs
     id="defs4273" />
  <sodipodi:namedview
     id="base"
     pagecolor="#ffffff"
     bordercolor="#666666"
     borderopacity="1.0"
     inkscape:pageopacity="0.0"
     inkscape:pageshadow="2"
     inkscape:zoom="15.839192"
     inkscape:cx="6.8558166"
     inkscape:cy="16.198556"
     inkscape:document-units="px"
     inkscape:current-layer="layer1"
     showgrid="false"
     fit-margin-top="0"
     fit-margin-left="0"
     fit-margin-right="0"
     fit-margin-bottom="0"
     inkscape:window-width="1600"
     inkscape:window-height="1147"
     inkscape:window-x="-8"
     inkscape:window-y="-8"
     inkscape:window-maximized="1" />
  <metadata
     id="metadata4276">
    <rdf:RDF>
      <cc:Work
         rdf:about="">
        <dc:format>image/svg+xml</dc:format>
        <dc:type
           rdf:resource="http://purl.org/dc/dcmitype/StillImage" />
        <dc:title />
      </cc:Work>
    </rdf:RDF>
  </metadata>
  <g
     inkscape:label="Layer 1"
     inkscape:groupmode="layer"
     id="layer1"
     transform="translate(-281.4375,-566.48186)">
    <path
       style="fill:#000000;stroke:none"
       d="m 297.46956,568.48181 c -0.20152,0 -0.40476,0.0216 -0.60386,0.0318 -0.0778,0.004 -0.14511,-0.005 -0.22247,0 -0.12042,0.006 -0.26072,0.0218 -0.38139,0.0318 -0.0275,0.003 -0.0361,0.0287 -0.0636,0.0318 -0.63007,0.0561 -1.27657,0.12246 -1.90693,0.28603 -4.84245,1.25651 -8.08813,5.38463 -8.48581,10.1067 -0.003,0.0257 0.002,0.0695 0,0.0954 -0.0241,0.31061 -0.0648,0.60686 -0.0636,0.92168 -10e-4,0.0697 0,0.15251 0,0.22247 0,0.18404 0.0232,0.35835 0.0318,0.5403 0.27353,5.86339 4.90294,10.54162 10.71056,11.02837 l 0,2.35188 c 0,0 -5.00254,0.29081 -6.45176,0.95346 -1.44923,0.66266 -2.03406,1.39841 -2.03406,1.39841 l 18.87855,0 c 0,0 -0.83909,-0.73575 -2.28831,-1.39841 -1.44922,-0.66265 -6.1975,-0.95346 -6.1975,-0.95346 l 0,-2.28831 c 0.0941,-0.006 0.19183,0.008 0.28604,0 0.0622,-0.006 0.0969,-0.0245 0.15891,-0.0318 0.57024,-0.0598 1.17766,-0.13804 1.74801,-0.28604 4.78293,-1.24107 8.01846,-5.32854 8.48581,-9.97957 0.004,-0.0444 -0.004,-0.0826 0,-0.12713 0.006,-0.0596 -0.005,-0.13082 0,-0.19069 0.0203,-0.2803 0.0638,-0.54266 0.0636,-0.82634 -1.7e-4,-0.26239 -0.0138,-0.53006 -0.0318,-0.79455 -0.0202,-0.39891 -0.0679,-0.78827 -0.12713,-1.17593 -0.84126,-5.50926 -5.48552,-9.76382 -11.18729,-9.91601 -0.10466,-0.003 -0.21249,-0.0318 -0.31782,-0.0318 z m 2.51078,1.7798 c 3.86161,0.97557 6.78906,4.13898 7.50057,8.10442 -0.0539,0.37911 -0.0893,0.7323 -0.15891,0.8899 -1.06354,-1.23331 -1.49068,-2.72847 -3.43246,-2.22474 -0.78007,0.0899 -2.21303,-0.85897 -0.8899,0.31782 0.42493,0.0354 1.29324,-0.54992 1.2395,0.63564 -0.31792,1.02207 -1.64864,2.07246 -2.1294,0.82633 -0.48076,-1.24614 -2.00763,-2.03683 -1.01702,-0.73099 0.99061,1.30583 1.72017,2.32366 2.73325,1.74802 -0.0373,1.68761 -0.0694,2.1238 -0.47673,4.6084 -0.40735,2.4846 0.90786,3.28218 -1.46197,4.4177 -1.125,-1.31507 -1.63392,-3.18432 -2.19297,-4.64018 -0.55903,-1.45586 -1.2102,-1.61928 -2.95573,-1.36663 -1.74553,0.25267 -2.22277,-2.43669 -1.9387,-3.81384 0.28406,-1.37717 1.10894,-1.98782 2.54256,-2.09762 1.43363,-0.10979 2.2873,-0.0244 3.24177,-0.19069 -0.5278,-2.04161 -1.78392,-0.5102 -2.35187,-0.85812 -0.3143,-0.89006 -1.02379,-0.47933 -0.3496,-0.0636 0.67416,0.41578 -0.65014,0.93954 -0.0953,0.25425 -1.28958,-1.42904 -1.74564,0.44917 -2.38365,1.17594 -1.09218,0.17207 -0.7792,-1.50829 0.15891,-1.52554 -1.16973,-0.7863 0.66794,-1.61788 1.0488,-1.81158 1.1024,0.051 2.06658,-2.67704 0.31782,-1.77979 0.55738,0.62902 -0.34301,2.0663 -0.54029,0.92168 -1.54263,0.33112 -0.14385,-1.80318 0.41317,-2.09762 0.34393,-0.27903 0.8963,-0.13927 1.17593,0 0.27963,0.13871 1.34732,-0.19126 1.65267,-0.47673 0.12444,-0.11633 0.24172,-0.17875 0.3496,-0.22247 z m -6.96027,0.6992 c -0.39475,0.90846 -0.38663,1.39395 -1.65267,2.06584 -0.5972,0.22827 -0.49556,0.87627 -0.85811,1.27128 -0.58362,-0.16501 -0.7095,-0.495 -0.73099,-0.82634 0.90869,-1.03857 1.98568,-1.90496 3.24177,-2.51078 z m -4.44949,4.13167 c 0.47616,0.38477 0.88138,1.72905 0.66742,1.7798 -0.95522,0.28523 0.21785,-1.20062 -0.92168,-0.25426 -0.34534,0.10615 -0.51394,0.17127 -0.54029,0.22247 -0.0263,0.0512 0.0787,0.11328 0.19069,0.1907 -0.0351,0.005 0.0157,0.10982 0.0636,0.0318 0.0888,0.0707 0.19132,0.14632 0.25425,0.28604 0.74837,-0.13528 -0.37572,0.24241 -0.85811,0.73098 0.0892,-0.41814 0.21106,-0.84183 0.3496,-1.2395 0.21295,-0.61122 0.47538,-1.1954 0.79455,-1.74801 z m -0.12713,8.70829 c 1.14318,-0.0802 2.35793,0.84813 3.20999,1.43019 2.41207,-0.32616 1.75083,2.20127 1.65267,3.59137 -0.17936,0.1216 -0.24251,0.32464 -0.31782,0.5403 -2.3067,-1.12155 -4.14805,-3.03221 -5.08513,-5.43474 0.0107,-0.004 0.021,-0.0278 0.0318,-0.0318 0.15748,-0.0573 0.3452,-0.0838 0.50851,-0.0953 z m 16.27242,0.31782 c 0.14591,0.0129 0.24224,0.7166 0.25426,1.20771 0.012,0.49111 0.0418,1.28911 -0.31782,1.0806 -0.35967,-0.20853 -0.0824,-2.30122 0.0636,-2.28831 z"
       id="path2983"
       inkscape:connector-curvature="0" />
  </g>
</svg>
