<?xml version="1.0" encoding="UTF-8" standalone="no"?>
<!-- Created with Inkscape (http://www.inkscape.org/) -->

<svg
   xmlns:dc="http://purl.org/dc/elements/1.1/"
   xmlns:cc="http://creativecommons.org/ns#"
   xmlns:rdf="http://www.w3.org/1999/02/22-rdf-syntax-ns#"
   xmlns:svg="http://www.w3.org/2000/svg"
   xmlns="http://www.w3.org/2000/svg"
   xmlns:sodipodi="http://sodipodi.sourceforge.net/DTD/sodipodi-0.dtd"
   xmlns:inkscape="http://www.inkscape.org/namespaces/inkscape"
   width="32"
   height="32"
   id="svg4271"
   version="1.1"
   inkscape:version="0.48.5 r10040"
   sodipodi:docname="discipline-nutrition.svg">
  <defs
     id="defs4273">
    <inkscape:path-effect
       effect="skeletal"
       id="path-effect3060"
       is_visible="true"
       pattern="M 9.53125,0 C 9.53125,0 0,9.04999 0,15.3125 0,20.406167 2.831179,24.694903 6.71875,26.125 L 8.9375,9.34375 l 0,17.28125 0,4.65625 2.90625,0 -0.625,-4.8125 C 15.669796,25.513216 19.0625,20.883181 19.0625,15.3125 19.0625,9.04999 9.53125,0 9.53125,0 z"
       copytype="single_stretched"
       prop_scale="1"
       scale_y_rel="false"
       spacing="0"
       normal_offset="0"
       tang_offset="0"
       prop_units="false"
       vertical_pattern="false"
       fuse_tolerance="0" />
    <inkscape:path-effect
       effect="skeletal"
       id="path-effect3050"
       is_visible="true"
       pattern="M 9.53125,0 C 9.53125,0 0,9.04999 0,15.3125 0,20.406167 2.831179,24.694903 6.71875,26.125 L 8.9375,9.34375 l 0,17.28125 0,4.65625 2.90625,0 -0.625,-4.8125 C 15.669796,25.513216 19.0625,20.883181 19.0625,15.3125 19.0625,9.04999 9.53125,0 9.53125,0 z"
       copytype="single_stretched"
       prop_scale="1"
       scale_y_rel="false"
       spacing="0"
       normal_offset="0"
       tang_offset="0"
       prop_units="false"
       vertical_pattern="false"
       fuse_tolerance="0" />
    <inkscape:path-effect
       effect="skeletal"
       id="path-effect3011"
       is_visible="true"
       pattern="M 0,0 1,0"
       copytype="single_stretched"
       prop_scale="1"
       scale_y_rel="false"
       spacing="0"
       normal_offset="0"
       tang_offset="0"
       prop_units="false"
       vertical_pattern="false"
       fuse_tolerance="0" />
    <inkscape:path-effect
       effect="skeletal"
       id="path-effect3002"
       is_visible="true"
       pattern="m 316.73214,558.2899 c 0,0 -9.07677,9.53125 -15.33928,9.53125 -6.26252,0 -11.33929,-4.26729 -11.33929,-9.53125 0,-5.26397 5.07677,-9.53125 11.33929,-9.53125 6.26251,0 15.33928,9.53125 15.33928,9.53125 z"
       copytype="single_stretched"
       prop_scale="1"
       scale_y_rel="false"
       spacing="0"
       normal_offset="0"
       tang_offset="0"
       prop_units="false"
       vertical_pattern="false"
       fuse_tolerance="0" />
  </defs>
  <sodipodi:namedview
     id="base"
     pagecolor="#ffffff"
     bordercolor="#666666"
     borderopacity="1.0"
     inkscape:pageopacity="0.0"
     inkscape:pageshadow="2"
     inkscape:zoom="15.839192"
     inkscape:cx="5.4765478"
     inkscape:cy="19.133419"
     inkscape:document-units="px"
     inkscape:current-layer="layer1"
     showgrid="false"
     fit-margin-top="0"
     fit-margin-left="0"
     fit-margin-right="0"
     fit-margin-bottom="0"
     inkscape:window-width="1600"
     inkscape:window-height="1147"
     inkscape:window-x="-8"
     inkscape:window-y="-8"
     inkscape:window-maximized="1"
     showguides="true"
     inkscape:guide-bbox="true" />
  <metadata
     id="metadata4276">
    <rdf:RDF>
      <cc:Work
         rdf:about="">
        <dc:format>image/svg+xml</dc:format>
        <dc:type
           rdf:resource="http://purl.org/dc/dcmitype/StillImage" />
        <dc:title />
      </cc:Work>
    </rdf:RDF>
  </metadata>
  <g
     inkscape:label="Layer 1"
     inkscape:groupmode="layer"
     id="layer1"
     transform="translate(-281.4375,-566.48186)">
    <path
       inkscape:connector-curvature="0"
       d="m 302.47773,580.49045 c 1.54243,0.82612 4.51319,0.57305 6.77193,-1.68569 2.23987,-2.23986 3.08657,-5.51517 0.96938,-7.7027 0,0 8.6e-4,-8.7e-4 8.6e-4,-8.7e-4 -0.01,-0.01 -0.0454,-0.0454 -0.055,-0.0548 0,0 0,8.5e-4 -8.5e-4,8.5e-4 -2.18755,-2.11718 -5.46199,-1.27048 -7.70271,0.96938 -2.25874,2.25874 -2.51181,5.2295 -1.68569,6.77194 -0.21276,1.26276 -1.94562,2.63277 -3.4992,3.52236 -1.19843,-0.73947 -2.70998,-2.04599 -2.86868,-4.67275 0.11496,-1.04916 -0.23077,-2.1395 -1.03372,-2.94245 -0.0738,-0.0738 -0.28567,-0.25308 -0.28567,-0.25308 l -5.85402,-4.55951 -0.53359,0.53273 6.35244,5.95954 -0.68886,0.68886 -6.15427,-6.15427 -0.56534,0.56447 6.15342,6.15513 -0.58162,0.58163 -6.15342,-6.15342 -0.51472,0.51042 6.11653,6.11653 -0.70086,0.70345 -5.94325,-6.29153 -0.58334,0.58505 4.85805,6.12168 c 0,0 0.11581,0.11838 0.16471,0.16213 0.70687,0.61767 1.59476,0.90934 2.4732,0.88446 0.006,0 0.0155,0.002 0.0188,0.002 2.31278,0.0231 3.74198,1.42919 4.64102,2.6422 -2.19955,2.20041 -9.02553,9.02725 -9.02553,9.02725 l 0.002,0.002 c -0.006,0.005 -0.0155,0.0111 -0.0223,0.0181 -0.55588,0.55504 -0.55588,1.45665 0,2.0134 0.0284,0.0283 0.13555,0.13469 0.163,0.163 0.55589,0.55588 1.45836,0.55588 2.0134,8.5e-4 0.006,-0.006 0.0129,-0.0155 0.0181,-0.0223 l 0.002,0.002 c 0,0 6.33871,-6.33871 8.76902,-8.76816 2.31279,2.31192 8.72442,8.72184 8.72442,8.72184 l 0.002,-0.002 c 0.005,0.006 0.008,0.0137 0.0163,0.0223 0.54645,0.5456 1.43691,0.5456 1.98423,-0.002 0.54731,-0.54731 0.54903,-1.43606 8.5e-4,-1.98422 -0.009,-0.008 -0.0163,-0.0108 -0.0231,-0.0181 l 8.7e-4,-0.002 c 0,0 -7.08077,-7.08077 -9.04527,-9.04697 0.88704,-1.44549 2.14208,-2.93388 3.30534,-3.12947 z m -0.75149,-4.2301 c 0.0334,-0.37574 0.10896,-0.8081 0.23335,-1.26534 0.0661,-0.22733 0.14412,-0.46153 0.23848,-0.69829 0.10461,-0.2402 0.21447,-0.4641 0.37488,-0.6983 0.30797,-0.44952 0.682,-0.79867 1.05517,-1.09206 0.36888,-0.29681 0.74377,-0.52758 1.07575,-0.70258 0.33027,-0.17844 0.62538,-0.29425 0.83641,-0.3603 0.21447,-0.0703 0.33971,-0.0798 0.33971,-0.0798 0,0 -0.10298,0.0781 -0.25735,0.22218 -0.15613,0.14498 -0.37746,0.35258 -0.64425,0.60136 -0.513,0.50013 -1.2439,1.14953 -1.76118,1.85555 -0.12525,0.16127 -0.23678,0.37402 -0.33371,0.56876 -0.10547,0.19902 -0.19989,0.40491 -0.28482,0.60822 -0.17756,0.40491 -0.32426,0.79695 -0.45037,1.13494 -0.12353,0.33886 -0.22047,0.62538 -0.27622,0.82869 -0.0626,0.20417 -0.0541,0.32513 -0.0446,0.32513 -0.005,0.008 -0.0806,-0.1098 -0.10385,-0.33456 -0.0275,-0.22219 -0.0326,-0.53874 0.002,-0.91362 z"
       id="path3" />
  </g>
</svg>
