<?xml version="1.0" encoding="utf-8"?>
<!-- Generator: Adobe Illustrator 15.0.0, SVG Export Plug-In . SVG Version: 6.00 Build 0)  -->
<!DOCTYPE svg PUBLIC "-//W3C//DTD SVG 1.1//EN" "http://www.w3.org/Graphics/SVG/1.1/DTD/svg11.dtd">
<svg version="1.1" id="Calque_1" xmlns="http://www.w3.org/2000/svg" xmlns:xlink="http://www.w3.org/1999/xlink" x="0px" y="0px"
	 width="32px" height="32px" viewBox="0 0 32 32" enable-background="new 0 0 32 32" xml:space="preserve">
<g>
	<defs>
		<rect id="SVGID_1_" width="32" height="32"/>
	</defs>
	<clipPath id="SVGID_2_">
		<use xlink:href="#SVGID_1_"  overflow="visible"/>
	</clipPath>
	<path clip-path="url(#SVGID_2_)" d="M2.461,30.897c2.571,0,1.559-2.444,0.548-3.034c-1.011-1.644,2.402-3.287,2.992-3.793
		s2.655-1.644,2.528-3.962c-0.041-0.97,4.51,1.054,5.943,1.307c1.432,0.253,4.425,0.211,4.931-0.338
		c0.506-0.548-1.139,8.344,1.812,8.934s4.382-0.547,3.665-1.727c-0.715-1.181-2.317-0.885-1.474-4.088
		c0.842-3.203,0.041-3.329,0-3.498c-0.042-0.169,4.467-4.595,4.551-6.658c0.084-2.065-0.675-5.478,1.979-6.574
		c2.655-1.096,2.023-2.529,1.939-2.909c-0.084-0.378-2.951-0.294-2.951-0.294s-0.294-1.391-2.401-1.391l-0.421-1.517L25.259,2.24
		l-0.422-1.137c0,0-4.128,5.226-5.436,7.67c-1.307,2.444-8.133,3.119-9.062,3.119c-0.927,0-5.393-0.38-3.75-2.655
		c0.972-0.717,2.36,1.475,2.486,1.811c0.127,0.338,3.794,0.844,1.981-3.37C9.245,3.463,3.556,3.126,1.786,6.455
		c-1.77,3.33,0.926,7.923,1.222,8.175c0,0-3.54,3.455-0.801,7.417c0.625,1.038-1.602,2.276-2.023,3.287
		C-0.237,26.345-0.109,30.897,2.461,30.897"/>
</g>
</svg>
