<?xml version="1.0" encoding="UTF-8" standalone="no"?>
<!-- Created with Inkscape (http://www.inkscape.org/) -->

<svg
   xmlns:dc="http://purl.org/dc/elements/1.1/"
   xmlns:cc="http://creativecommons.org/ns#"
   xmlns:rdf="http://www.w3.org/1999/02/22-rdf-syntax-ns#"
   xmlns:svg="http://www.w3.org/2000/svg"
   xmlns="http://www.w3.org/2000/svg"
   xmlns:sodipodi="http://sodipodi.sourceforge.net/DTD/sodipodi-0.dtd"
   xmlns:inkscape="http://www.inkscape.org/namespaces/inkscape"
   width="32"
   height="32"
   id="svg3608"
   version="1.1"
   inkscape:version="0.91 r13725"
   sodipodi:docname="game-link.svg">
  <defs
     id="defs3610">
    <linearGradient
       y2="276.55899"
       x2="434.30521"
       y1="290.0405"
       x1="423.79391"
       gradientUnits="userSpaceOnUse"
       id="SVGID_3_">
      <stop
         id="stop26"
         style="stop-color:#6299BE"
         offset="0" />
      <stop
         id="stop28"
         style="stop-color:#3B80AE"
         offset="1" />
    </linearGradient>
    <linearGradient
       y2="300.50229"
       x2="388.9137"
       y1="293.1777"
       x1="420.64011"
       gradientUnits="userSpaceOnUse"
       id="SVGID_2_">
      <stop
         id="stop17"
         style="stop-color:#89B5D0"
         offset="0" />
      <stop
         id="stop19"
         style="stop-color:#6BA2C4"
         offset="1" />
    </linearGradient>
    <linearGradient
       y2="322.70029"
       x2="435.91449"
       y1="294.87839"
       x1="423.02151"
       gradientUnits="userSpaceOnUse"
       id="SVGID_1_">
      <stop
         id="stop8"
         style="stop-color:#7690BA"
         offset="0" />
      <stop
         id="stop10"
         style="stop-color:#5474A9"
         offset="1" />
    </linearGradient>
    <linearGradient
       y2="276.55899"
       x2="434.30521"
       y1="290.0405"
       x1="423.79391"
       gradientUnits="userSpaceOnUse"
       id="SVGID_3_-8">
      <stop
         id="stop26-8"
         style="stop-color:#6299BE"
         offset="0" />
      <stop
         id="stop28-2"
         style="stop-color:#3B80AE"
         offset="1" />
    </linearGradient>
    <linearGradient
       y2="300.50229"
       x2="388.9137"
       y1="293.1777"
       x1="420.64011"
       gradientUnits="userSpaceOnUse"
       id="SVGID_2_-0">
      <stop
         id="stop17-9"
         style="stop-color:#89B5D0"
         offset="0" />
      <stop
         id="stop19-4"
         style="stop-color:#6BA2C4"
         offset="1" />
    </linearGradient>
    <linearGradient
       y2="322.70029"
       x2="435.91449"
       y1="294.87839"
       x1="423.02151"
       gradientUnits="userSpaceOnUse"
       id="SVGID_1_-1">
      <stop
         id="stop8-7"
         style="stop-color:#7690BA"
         offset="0" />
      <stop
         id="stop10-4"
         style="stop-color:#5474A9"
         offset="1" />
    </linearGradient>
  </defs>
  <sodipodi:namedview
     id="base"
     pagecolor="#ffffff"
     bordercolor="#666666"
     borderopacity="1.0"
     inkscape:pageopacity="0.0"
     inkscape:pageshadow="2"
     inkscape:zoom="11.2"
     inkscape:cx="-17.388302"
     inkscape:cy="19.531285"
     inkscape:document-units="px"
     inkscape:current-layer="layer1"
     showgrid="false"
     inkscape:window-width="1920"
     inkscape:window-height="1017"
     inkscape:window-x="1912"
     inkscape:window-y="-8"
     inkscape:window-maximized="1"
     fit-margin-top="0"
     fit-margin-left="0"
     fit-margin-right="0"
     fit-margin-bottom="0" />
  <metadata
     id="metadata3613">
    <rdf:RDF>
      <cc:Work
         rdf:about="">
        <dc:format>image/svg+xml</dc:format>
        <dc:type
           rdf:resource="http://purl.org/dc/dcmitype/StillImage" />
        <dc:title></dc:title>
      </cc:Work>
    </rdf:RDF>
  </metadata>
  <g
     inkscape:label="Layer 1"
     inkscape:groupmode="layer"
     id="layer1"
     transform="translate(-203.3125,-672.125)">
    <path
       style="fill:#000000;fill-opacity:1;stroke:none"
       d="M 3 2 C 2.446 2 2 2.446 2 3 L 2 20.103516 L 2 29 C 2 29.554 2.446 30 3 30 L 11.894531 30 L 29 30 C 29.1385 30 29.270906 29.972365 29.390625 29.921875 C 29.749781 29.770484 30 29.4155 30 29 L 30 11.896484 L 30 3 C 30 2.446 29.554 2 29 2 L 20.105469 2 L 3 2 z M 8.78125 5.9921875 L 12.521484 5.9921875 C 13.859447 5.9921875 14.9375 7.0702408 14.9375 8.4082031 L 14.9375 15.4375 C 14.9375 16.775462 13.859447 17.853516 12.521484 17.853516 L 8.78125 17.853516 C 7.4432877 17.853516 6.3652344 16.775462 6.3652344 15.4375 L 6.3652344 8.4082031 C 6.3652344 7.0702408 7.4432877 5.9921875 8.78125 5.9921875 z M 19.478516 5.9921875 L 23.21875 5.9921875 C 24.556712 5.9921875 25.634766 7.0702408 25.634766 8.4082031 L 25.634766 9.7226562 C 25.634766 11.060619 24.556712 12.138672 23.21875 12.138672 L 19.478516 12.138672 C 18.140553 12.138672 17.0625 11.060619 17.0625 9.7226562 L 17.0625 8.4082031 C 17.0625 7.0702408 18.140553 5.9921875 19.478516 5.9921875 z M 19.478516 14.146484 L 23.21875 14.146484 C 24.556712 14.146484 25.634766 15.224538 25.634766 16.5625 L 25.634766 23.591797 C 25.634766 24.929759 24.556712 26.007812 23.21875 26.007812 L 19.478516 26.007812 C 18.140553 26.007812 17.0625 24.929759 17.0625 23.591797 L 17.0625 16.5625 C 17.0625 15.224538 18.140553 14.146484 19.478516 14.146484 z M 8.78125 19.861328 L 12.521484 19.861328 C 13.859447 19.861328 14.9375 20.939381 14.9375 22.277344 L 14.9375 23.591797 C 14.9375 24.929759 13.859447 26.007812 12.521484 26.007812 L 8.78125 26.007812 C 7.4432877 26.007812 6.3652344 24.929759 6.3652344 23.591797 L 6.3652344 22.277344 C 6.3652344 20.939381 7.4432877 19.861328 8.78125 19.861328 z "
       transform="translate(203.3125,672.125)"
       id="rect2995" />
  </g>
</svg>
