<?xml version="1.0" encoding="UTF-8" standalone="no"?>
<!-- Created with Inkscape (http://www.inkscape.org/) -->

<svg
   xmlns:dc="http://purl.org/dc/elements/1.1/"
   xmlns:cc="http://creativecommons.org/ns#"
   xmlns:rdf="http://www.w3.org/1999/02/22-rdf-syntax-ns#"
   xmlns:svg="http://www.w3.org/2000/svg"
   xmlns="http://www.w3.org/2000/svg"
   xmlns:sodipodi="http://sodipodi.sourceforge.net/DTD/sodipodi-0.dtd"
   xmlns:inkscape="http://www.inkscape.org/namespaces/inkscape"
   width="32"
   height="32"
   id="svg3608"
   version="1.1"
   inkscape:version="0.91 r13725"
   sodipodi:docname="game-grid.svg">
  <defs
     id="defs3610">
    <linearGradient
       y2="276.55899"
       x2="434.30521"
       y1="290.0405"
       x1="423.79391"
       gradientUnits="userSpaceOnUse"
       id="SVGID_3_">
      <stop
         id="stop26"
         style="stop-color:#6299BE"
         offset="0" />
      <stop
         id="stop28"
         style="stop-color:#3B80AE"
         offset="1" />
    </linearGradient>
    <linearGradient
       y2="300.50229"
       x2="388.9137"
       y1="293.1777"
       x1="420.64011"
       gradientUnits="userSpaceOnUse"
       id="SVGID_2_">
      <stop
         id="stop17"
         style="stop-color:#89B5D0"
         offset="0" />
      <stop
         id="stop19"
         style="stop-color:#6BA2C4"
         offset="1" />
    </linearGradient>
    <linearGradient
       y2="322.70029"
       x2="435.91449"
       y1="294.87839"
       x1="423.02151"
       gradientUnits="userSpaceOnUse"
       id="SVGID_1_">
      <stop
         id="stop8"
         style="stop-color:#7690BA"
         offset="0" />
      <stop
         id="stop10"
         style="stop-color:#5474A9"
         offset="1" />
    </linearGradient>
    <linearGradient
       y2="276.55899"
       x2="434.30521"
       y1="290.0405"
       x1="423.79391"
       gradientUnits="userSpaceOnUse"
       id="SVGID_3_-8">
      <stop
         id="stop26-8"
         style="stop-color:#6299BE"
         offset="0" />
      <stop
         id="stop28-2"
         style="stop-color:#3B80AE"
         offset="1" />
    </linearGradient>
    <linearGradient
       y2="300.50229"
       x2="388.9137"
       y1="293.1777"
       x1="420.64011"
       gradientUnits="userSpaceOnUse"
       id="SVGID_2_-0">
      <stop
         id="stop17-9"
         style="stop-color:#89B5D0"
         offset="0" />
      <stop
         id="stop19-4"
         style="stop-color:#6BA2C4"
         offset="1" />
    </linearGradient>
    <linearGradient
       y2="322.70029"
       x2="435.91449"
       y1="294.87839"
       x1="423.02151"
       gradientUnits="userSpaceOnUse"
       id="SVGID_1_-1">
      <stop
         id="stop8-7"
         style="stop-color:#7690BA"
         offset="0" />
      <stop
         id="stop10-4"
         style="stop-color:#5474A9"
         offset="1" />
    </linearGradient>
  </defs>
  <sodipodi:namedview
     id="base"
     pagecolor="#ffffff"
     bordercolor="#666666"
     borderopacity="1.0"
     inkscape:pageopacity="0.0"
     inkscape:pageshadow="2"
     inkscape:zoom="15.839192"
     inkscape:cx="13.223043"
     inkscape:cy="12.651984"
     inkscape:document-units="px"
     inkscape:current-layer="layer1"
     showgrid="false"
     inkscape:window-width="1920"
     inkscape:window-height="1017"
     inkscape:window-x="1912"
     inkscape:window-y="-8"
     inkscape:window-maximized="1"
     fit-margin-top="0"
     fit-margin-left="0"
     fit-margin-right="0"
     fit-margin-bottom="0" />
  <metadata
     id="metadata3613">
    <rdf:RDF>
      <cc:Work
         rdf:about="">
        <dc:format>image/svg+xml</dc:format>
        <dc:type
           rdf:resource="http://purl.org/dc/dcmitype/StillImage" />
        <dc:title />
      </cc:Work>
    </rdf:RDF>
  </metadata>
  <g
     inkscape:label="Layer 1"
     inkscape:groupmode="layer"
     id="layer1"
     transform="translate(-203.3125,-672.125)">
    <path
       style="fill:#000000;fill-opacity:1;stroke:none"
       d="M 3 2 C 2.446 2 2 2.446 2 3 L 2 29 C 2 29.554 2.446 30 3 30 L 29 30 C 29.1385 30 29.270906 29.972365 29.390625 29.921875 C 29.749781 29.770494 30 29.4155 30 29 L 30 3 C 30 2.446 29.554 2 29 2 L 3 2 z M 6.2832031 5.2832031 L 9.2714844 5.2832031 C 9.8254844 5.2832031 10.271484 5.7292031 10.271484 6.2832031 L 10.271484 9.2714844 C 10.271484 9.8254844 9.8254844 10.271484 9.2714844 10.271484 L 6.2832031 10.271484 C 5.7292031 10.271484 5.2832031 9.8254844 5.2832031 9.2714844 L 5.2832031 6.2832031 C 5.2832031 5.7292031 5.7292031 5.2832031 6.2832031 5.2832031 z M 11.765625 5.2832031 L 14.753906 5.2832031 C 15.307906 5.2832031 15.753906 5.7292031 15.753906 6.2832031 L 15.753906 9.2714844 C 15.753906 9.8254844 15.307906 10.271484 14.753906 10.271484 L 11.765625 10.271484 C 11.211625 10.271484 10.765625 9.8254844 10.765625 9.2714844 L 10.765625 6.2832031 C 10.765625 5.7292031 11.211625 5.2832031 11.765625 5.2832031 z M 17.248047 5.2832031 L 20.234375 5.2832031 C 20.788375 5.2832031 21.234375 5.7292031 21.234375 6.2832031 L 21.234375 9.2714844 C 21.234375 9.8254844 20.788375 10.271484 20.234375 10.271484 L 17.248047 10.271484 C 16.694047 10.271484 16.248047 9.8254844 16.248047 9.2714844 L 16.248047 6.2832031 C 16.248047 5.7292031 16.694047 5.2832031 17.248047 5.2832031 z M 22.730469 5.2832031 L 25.716797 5.2832031 C 26.270797 5.2832031 26.716797 5.7292031 26.716797 6.2832031 L 26.716797 9.2714844 C 26.716797 9.8254844 26.270797 10.271484 25.716797 10.271484 L 22.730469 10.271484 C 22.176459 10.271484 21.730469 9.8254844 21.730469 9.2714844 L 21.730469 6.2832031 C 21.730469 5.7292031 22.176459 5.2832031 22.730469 5.2832031 z M 6.2832031 10.765625 L 9.2714844 10.765625 C 9.8254844 10.765625 10.271484 11.211625 10.271484 11.765625 L 10.271484 14.753906 C 10.271484 15.307906 9.8254844 15.753906 9.2714844 15.753906 L 6.2832031 15.753906 C 5.7292031 15.753906 5.2832031 15.307906 5.2832031 14.753906 L 5.2832031 11.765625 C 5.2832031 11.211625 5.7292031 10.765625 6.2832031 10.765625 z M 11.765625 10.765625 L 14.753906 10.765625 C 15.307906 10.765625 15.753906 11.211625 15.753906 11.765625 L 15.753906 14.753906 C 15.753906 15.307906 15.307906 15.753906 14.753906 15.753906 L 11.765625 15.753906 C 11.211625 15.753906 10.765625 15.307906 10.765625 14.753906 L 10.765625 11.765625 C 10.765625 11.211625 11.211625 10.765625 11.765625 10.765625 z M 17.248047 10.765625 L 20.234375 10.765625 C 20.788375 10.765625 21.234375 11.211625 21.234375 11.765625 L 21.234375 14.753906 C 21.234375 15.307906 20.788375 15.753906 20.234375 15.753906 L 17.248047 15.753906 C 16.694047 15.753906 16.248047 15.307906 16.248047 14.753906 L 16.248047 11.765625 C 16.248047 11.211625 16.694047 10.765625 17.248047 10.765625 z M 22.730469 10.765625 L 25.716797 10.765625 C 26.270797 10.765625 26.716797 11.211625 26.716797 11.765625 L 26.716797 14.753906 C 26.716797 15.307906 26.270797 15.753906 25.716797 15.753906 L 22.730469 15.753906 C 22.176469 15.753906 21.730469 15.307906 21.730469 14.753906 L 21.730469 11.765625 C 21.730469 11.211625 22.176469 10.765625 22.730469 10.765625 z M 6.2832031 16.246094 L 9.2714844 16.246094 C 9.8254844 16.246094 10.271484 16.692094 10.271484 17.246094 L 10.271484 20.234375 C 10.271484 20.788375 9.8254844 21.234375 9.2714844 21.234375 L 6.2832031 21.234375 C 5.7292031 21.234375 5.2832031 20.788375 5.2832031 20.234375 L 5.2832031 17.246094 C 5.2832031 16.692094 5.7292031 16.246094 6.2832031 16.246094 z M 11.765625 16.246094 L 14.753906 16.246094 C 15.307906 16.246094 15.753906 16.692094 15.753906 17.246094 L 15.753906 20.234375 C 15.753906 20.788375 15.307906 21.234375 14.753906 21.234375 L 11.765625 21.234375 C 11.211625 21.234375 10.765625 20.788375 10.765625 20.234375 L 10.765625 17.246094 C 10.765625 16.692094 11.211625 16.246094 11.765625 16.246094 z M 17.248047 16.246094 L 20.234375 16.246094 C 20.788375 16.246094 21.234375 16.692094 21.234375 17.246094 L 21.234375 20.234375 C 21.234375 20.788375 20.788375 21.234375 20.234375 21.234375 L 17.248047 21.234375 C 16.694047 21.234375 16.248047 20.788375 16.248047 20.234375 L 16.248047 17.246094 C 16.248047 16.692094 16.694047 16.246094 17.248047 16.246094 z M 22.730469 16.246094 L 25.716797 16.246094 C 26.270797 16.246094 26.716797 16.692094 26.716797 17.246094 L 26.716797 20.234375 C 26.716797 20.788375 26.270797 21.234375 25.716797 21.234375 L 22.730469 21.234375 C 22.176469 21.234375 21.730469 20.788375 21.730469 20.234375 L 21.730469 17.246094 C 21.730469 16.692094 22.176469 16.246094 22.730469 16.246094 z M 6.2832031 21.728516 L 9.2714844 21.728516 C 9.8254844 21.728516 10.271484 22.174516 10.271484 22.728516 L 10.271484 25.716797 C 10.271484 26.270797 9.8254844 26.716797 9.2714844 26.716797 L 6.2832031 26.716797 C 5.7292031 26.716797 5.2832031 26.270797 5.2832031 25.716797 L 5.2832031 22.728516 C 5.2832031 22.174516 5.7292031 21.728516 6.2832031 21.728516 z M 11.765625 21.728516 L 14.753906 21.728516 C 15.307906 21.728516 15.753906 22.174516 15.753906 22.728516 L 15.753906 25.716797 C 15.753906 26.270797 15.307906 26.716797 14.753906 26.716797 L 11.765625 26.716797 C 11.211625 26.716797 10.765625 26.270797 10.765625 25.716797 L 10.765625 22.728516 C 10.765625 22.174516 11.211625 21.728516 11.765625 21.728516 z M 17.248047 21.728516 L 20.234375 21.728516 C 20.788375 21.728516 21.234375 22.174516 21.234375 22.728516 L 21.234375 25.716797 C 21.234375 26.270797 20.788375 26.716797 20.234375 26.716797 L 17.248047 26.716797 C 16.694047 26.716797 16.248047 26.270797 16.248047 25.716797 L 16.248047 22.728516 C 16.248047 22.174516 16.694047 21.728516 17.248047 21.728516 z M 22.730469 21.728516 L 25.716797 21.728516 C 26.270797 21.728516 26.716797 22.174516 26.716797 22.728516 L 26.716797 25.716797 C 26.716797 26.270797 26.270797 26.716797 25.716797 26.716797 L 22.730469 26.716797 C 22.176469 26.716797 21.730469 26.270797 21.730469 25.716797 L 21.730469 22.728516 C 21.730469 22.174516 22.176469 21.728516 22.730469 21.728516 z "
       transform="translate(203.3125,672.125)"
       id="rect2995" />
  </g>
</svg>
