<?xml version="1.0" encoding="utf-8"?>
<!-- Generator: Adobe Illustrator 15.0.0, SVG Export Plug-In . SVG Version: 6.00 Build 0)  -->
<!DOCTYPE svg PUBLIC "-//W3C//DTD SVG 1.1//EN" "http://www.w3.org/Graphics/SVG/1.1/DTD/svg11.dtd">
<svg version="1.1" id="Calque_1" xmlns="http://www.w3.org/2000/svg" xmlns:xlink="http://www.w3.org/1999/xlink" x="0px" y="0px"
	 width="32px" height="32px" viewBox="0 0 32 32" enable-background="new 0 0 32 32" xml:space="preserve">
<g>
	<defs>
		<rect id="SVGID_1_" width="32" height="32"/>
	</defs>
	<clipPath id="SVGID_2_">
		<use xlink:href="#SVGID_1_"  overflow="visible"/>
	</clipPath>
	<path clip-path="url(#SVGID_2_)" d="M31.201,20.556c-0.156,0.028-3.901,0.672-6.701-4.303c-0.336-0.596-0.699-1.17-1.082-1.711
		c0.467-0.146,0.89-0.346,1.241-0.605c0.965-0.707,1.352-1.783,1.088-3.032c-0.769-3.654-6.685-4.922-10.534-5.363
		c-0.228-2.015-1.984-3.595-4.133-3.595c-2.305,0-4.179,1.809-4.179,4.031c0,1.766,1.192,3.253,2.836,3.796v6.481
		c0,1.061,0.754,2.117,1.711,3.452c1.292,1.807,2.9,4.057,2.076,5.733c-0.476,0.971-2.001,1.67-4.08,1.87
		c-2.936,0.29-5.731-0.513-6.408-1.403C2.348,25,2.805,23.688,3.297,22.762l0.02,0.022c0,0,0.024-0.459,1.888-0.11
		c-1.122-1.628-0.663-6.367-0.663-6.367l-2.763,3.827c-0.113,0.147-0.228,0.304-0.343,0.475l-0.007,0.011
		c-1.172,1.756-2.253,4.644-0.532,6.912c1.311,1.729,4.465,2.522,7.361,2.522c0.492,0,0.977-0.024,1.444-0.069
		c3.104-0.3,5.318-1.493,6.234-3.36c1.531-3.118-0.686-6.218-2.304-8.479c-0.486-0.68-1.152-1.609-1.209-1.89V9.773
		c1.349-0.445,2.388-1.526,2.717-2.88c3.787,0.462,8.74,1.657,9.293,4.287c0.156,0.743-0.024,1.275-0.567,1.673
		c-0.348,0.256-0.807,0.433-1.325,0.542c-2.065-2.499-4.453-4.049-6.033-3.71c-0.809,0.175-1.32,0.815-1.404,1.759
		c-0.08,0.913,0.488,1.762,1.602,2.39c1.347,0.758,3.43,1.158,5.256,0.989c0.476,0.627,0.938,1.325,1.368,2.087
		c2.509,4.455,5.789,5.026,7.306,5.026c0.479,0,0.78-0.057,0.827-0.065c0.362-0.073,0.596-0.426,0.524-0.787
		C31.916,20.723,31.572,20.476,31.201,20.556 M11.08,7.321c-0.823,0-1.493-0.602-1.493-1.343c0-0.741,0.67-1.345,1.493-1.345
		c0.551,0,1.013,0.283,1.272,0.684c-0.145-0.006-0.263-0.009-0.34-0.011c-0.369,0.023-0.679,0.285-0.688,0.656
		C11.316,6.333,11.61,6.64,11.98,6.648c0.108,0.003,0.235,0.009,0.354,0.014C12.071,7.049,11.619,7.321,11.08,7.321 M17.366,12.665
		c-0.363-0.206-0.967-0.62-0.924-1.102c0.045-0.498,0.25-0.543,0.348-0.564c0.062-0.013,0.127-0.019,0.198-0.019
		c0.835,0,2.346,0.895,3.884,2.545C19.595,13.488,18.261,13.169,17.366,12.665"/>
</g>
</svg>
