<?xml version="1.0" encoding="UTF-8" standalone="no"?>
<!-- Created with Inkscape (http://www.inkscape.org/) -->

<svg
   xmlns:dc="http://purl.org/dc/elements/1.1/"
   xmlns:cc="http://creativecommons.org/ns#"
   xmlns:rdf="http://www.w3.org/1999/02/22-rdf-syntax-ns#"
   xmlns:svg="http://www.w3.org/2000/svg"
   xmlns="http://www.w3.org/2000/svg"
   xmlns:sodipodi="http://sodipodi.sourceforge.net/DTD/sodipodi-0.dtd"
   xmlns:inkscape="http://www.inkscape.org/namespaces/inkscape"
   width="126.01901"
   height="187.15601"
   id="svg4245"
   version="1.1"
   inkscape:version="0.48.2 r9819"
   sodipodi:docname="New document 24">
  <defs
     id="defs4247" />
  <sodipodi:namedview
     id="base"
     pagecolor="#ffffff"
     bordercolor="#666666"
     borderopacity="1.0"
     inkscape:pageopacity="0.0"
     inkscape:pageshadow="2"
     inkscape:zoom="0.35"
     inkscape:cx="63.009506"
     inkscape:cy="93.578"
     inkscape:document-units="px"
     inkscape:current-layer="layer1"
     showgrid="false"
     fit-margin-top="0"
     fit-margin-left="0"
     fit-margin-right="0"
     fit-margin-bottom="0"
     inkscape:window-width="469"
     inkscape:window-height="425"
     inkscape:window-x="75"
     inkscape:window-y="75"
     inkscape:window-maximized="0" />
  <metadata
     id="metadata4250">
    <rdf:RDF>
      <cc:Work
         rdf:about="">
        <dc:format>image/svg+xml</dc:format>
        <dc:type
           rdf:resource="http://purl.org/dc/dcmitype/StillImage" />
        <dc:title></dc:title>
      </cc:Work>
    </rdf:RDF>
  </metadata>
  <g
     inkscape:label="Layer 1"
     inkscape:groupmode="layer"
     id="layer1"
     transform="translate(-311.99049,-438.78418)">
    <path
       style="color:#000000;fill:#000000;stroke:none;stroke-width:6.13800001;marker:none;visibility:visible;display:inline;overflow:visible;enable-background:accumulate"
       d="m 386.72255,438.78789 c -0.35637,-0.006 -0.7156,-0.008 -1.07309,0.0202 -7.75012,1.46951 -10.20719,10.42845 -11.19648,17.23004 -1.32534,8.47633 -4.93744,17.74386 -0.56691,25.89567 1.80631,4.55019 6.2791,8.62751 11.50019,7.16737 6.67754,-0.79476 12.56506,-6.7788 11.80389,-13.74758 0.0596,-9.06022 1.22104,-18.18013 0.68839,-27.21172 -0.72882,-5.47953 -5.81043,-9.26823 -11.15599,-9.35403 z m -44.27977,56.58984 -17.57423,0.58715 c -7.68978,-0.16168 -13.98181,3.72368 -12.715,11.52044 1.02795,6.3266 5.9765,11.69855 13.6666,11.84439 l 39.64325,0.74913 c -0.27914,0.74412 -0.56527,1.48824 -0.83013,2.2069 l -25.9564,70.43867 c -3.09425,8.39584 -3.74887,31.03354 2.63208,32.9618 6.38096,1.92827 15.69372,-7.52086 17.85769,-14.90165 l 15.71152,-53.59331 13.72734,55.03083 c 1.86327,7.46238 5.55922,13.09478 12.0266,11.47995 6.4674,-1.61484 10.39847,-4.78694 11.31797,-17.31103 0.81166,-11.05525 -23.21003,-59.74119 -21.78557,-85.90722 l 33.75144,0.70863 c 7.69009,0.14584 13.97025,-4.90956 14.09178,-11.31797 0.12153,-6.4084 -5.9792,-11.57395 -13.6666,-11.82414 z"
       id="rect3808"
       inkscape:connector-curvature="0"
       sodipodi:nodetypes="sccccccsccsccccscccssccscc" />
  </g>
</svg>
