<?xml version="1.0" encoding="UTF-8" standalone="no"?>
<!-- Generator: Adobe Illustrator 15.0.0, SVG Export Plug-In . SVG Version: 6.00 Build 0)  -->

<svg
   xmlns:dc="http://purl.org/dc/elements/1.1/"
   xmlns:cc="http://creativecommons.org/ns#"
   xmlns:rdf="http://www.w3.org/1999/02/22-rdf-syntax-ns#"
   xmlns:svg="http://www.w3.org/2000/svg"
   xmlns="http://www.w3.org/2000/svg"
   xmlns:xlink="http://www.w3.org/1999/xlink"
   xmlns:sodipodi="http://sodipodi.sourceforge.net/DTD/sodipodi-0.dtd"
   xmlns:inkscape="http://www.inkscape.org/namespaces/inkscape"
   version="1.1"
   id="Calque_1"
   x="0px"
   y="0px"
   width="32px"
   height="32px"
   viewBox="0 0 32 32"
   enable-background="new 0 0 32 32"
   xml:space="preserve"
   inkscape:version="0.91 r13725"
   sodipodi:docname="gu-icon-roof.svg"><metadata
     id="metadata19"><rdf:RDF><cc:Work
         rdf:about=""><dc:format>image/svg+xml</dc:format><dc:type
           rdf:resource="http://purl.org/dc/dcmitype/StillImage" /></cc:Work></rdf:RDF></metadata><defs
     id="defs17" /><sodipodi:namedview
     pagecolor="#ffffff"
     bordercolor="#666666"
     borderopacity="1"
     objecttolerance="10"
     gridtolerance="10"
     guidetolerance="10"
     inkscape:pageopacity="0"
     inkscape:pageshadow="2"
     inkscape:window-width="864"
     inkscape:window-height="480"
     id="namedview15"
     showgrid="false"
     inkscape:zoom="7.375"
     inkscape:cx="16"
     inkscape:cy="16"
     inkscape:window-x="621"
     inkscape:window-y="149"
     inkscape:window-maximized="0"
     inkscape:current-layer="Calque_1" /><g
     id="g3"><defs
       id="defs5"><rect
         id="SVGID_1_"
         width="32"
         height="32" /></defs><clipPath
       id="SVGID_2_"><use
         xlink:href="#SVGID_1_"
         overflow="visible"
         id="use9" /></clipPath><path
       clip-path="url(#SVGID_2_)"
       d="M 16 0 L 3.78125 8.3125 L 5.7382812 11.1875 L 16 4.2050781 L 26.261719 11.1875 L 28.21875 8.3125 L 16 0 z M 16.085938 8.1582031 C 12.794937 8.1582031 10.125 10.828141 10.125 14.119141 C 10.125 17.408141 12.793938 20.080078 16.085938 20.080078 C 19.376938 20.080078 22.044922 17.408141 22.044922 14.119141 C 22.044922 10.828141 19.376938 8.1582031 16.085938 8.1582031 z M 11.226562 19.085938 C 7.1595625 19.085938 6.1503906 23.804719 6.1503906 27.886719 C 6.1503906 30.152719 7.6410313 32 9.4570312 32 L 22.712891 32 C 24.528891 32 26.018578 30.152719 26.017578 27.886719 C 26.017578 23.804719 25.008406 19.085938 20.941406 19.085938 C 19.685406 20.311937 17.979937 21.072266 16.085938 21.072266 C 14.191937 21.072266 12.483562 20.312938 11.226562 19.085938 z "
       id="path11" /></g></svg>