<?xml version="1.0" encoding="UTF-8" standalone="no"?>
<!-- Created with Inkscape (http://www.inkscape.org/) -->

<svg
   xmlns:dc="http://purl.org/dc/elements/1.1/"
   xmlns:cc="http://creativecommons.org/ns#"
   xmlns:rdf="http://www.w3.org/1999/02/22-rdf-syntax-ns#"
   xmlns:svg="http://www.w3.org/2000/svg"
   xmlns="http://www.w3.org/2000/svg"
   xmlns:sodipodi="http://sodipodi.sourceforge.net/DTD/sodipodi-0.dtd"
   xmlns:inkscape="http://www.inkscape.org/namespaces/inkscape"
   width="343.40625"
   height="343.40625"
   id="svg3608"
   version="1.1"
   inkscape:version="0.48.2 r9819"
   sodipodi:docname="rpnsite.svg">
  <defs
     id="defs3610">
    <linearGradient
       y2="276.55899"
       x2="434.30521"
       y1="290.0405"
       x1="423.79391"
       gradientUnits="userSpaceOnUse"
       id="SVGID_3_">
      <stop
         id="stop26"
         style="stop-color:#6299BE"
         offset="0" />
      <stop
         id="stop28"
         style="stop-color:#3B80AE"
         offset="1" />
    </linearGradient>
    <linearGradient
       y2="300.50229"
       x2="388.9137"
       y1="293.1777"
       x1="420.64011"
       gradientUnits="userSpaceOnUse"
       id="SVGID_2_">
      <stop
         id="stop17"
         style="stop-color:#89B5D0"
         offset="0" />
      <stop
         id="stop19"
         style="stop-color:#6BA2C4"
         offset="1" />
    </linearGradient>
    <linearGradient
       y2="322.70029"
       x2="435.91449"
       y1="294.87839"
       x1="423.02151"
       gradientUnits="userSpaceOnUse"
       id="SVGID_1_">
      <stop
         id="stop8"
         style="stop-color:#7690BA"
         offset="0" />
      <stop
         id="stop10"
         style="stop-color:#5474A9"
         offset="1" />
    </linearGradient>
  </defs>
  <sodipodi:namedview
     id="base"
     pagecolor="#ffffff"
     bordercolor="#666666"
     borderopacity="1.0"
     inkscape:pageopacity="0.0"
     inkscape:pageshadow="2"
     inkscape:zoom="0.35"
     inkscape:cx="-169.74107"
     inkscape:cy="171.76282"
     inkscape:document-units="px"
     inkscape:current-layer="layer1"
     showgrid="false"
     inkscape:window-width="835"
     inkscape:window-height="670"
     inkscape:window-x="1675"
     inkscape:window-y="75"
     inkscape:window-maximized="0"
     fit-margin-top="0"
     fit-margin-left="0"
     fit-margin-right="0"
     fit-margin-bottom="0" />
  <metadata
     id="metadata3613">
    <rdf:RDF>
      <cc:Work
         rdf:about="">
        <dc:format>image/svg+xml</dc:format>
        <dc:type
           rdf:resource="http://purl.org/dc/dcmitype/StillImage" />
        <dc:title />
      </cc:Work>
    </rdf:RDF>
  </metadata>
  <g
     inkscape:label="Layer 1"
     inkscape:groupmode="layer"
     id="layer1"
     transform="translate(-203.3125,-360.71875)">
    <path
       style="color:#000000;fill:#000000;fill-opacity:1;fill-rule:nonzero;stroke:#ffffff;stroke-width:0.53799999;stroke-miterlimit:4;stroke-dasharray:none;stroke-dashoffset:31.37999773;marker:none;visibility:visible;display:inline;overflow:visible;enable-background:accumulate"
       d="m 375,361 c -94.67738,0 -171.40625,76.76012 -171.40625,171.4375 0,94.67738 76.72887,171.40625 171.40625,171.40625 94.67738,0 171.4375,-76.72887 171.4375,-171.40625 C 546.4375,437.76012 469.67738,361 375,361 z m -45.0625,66.09375 c 20.34085,3.43883 40.73306,8.20365 61.09375,12.125 14.62759,4.05918 30.89174,3.48685 43.84375,12.125 20.70862,18.0177 40.27618,37.43131 60.5625,55.96875 0.47852,1.12504 5.11406,3.53487 3.53125,4.84375 -24.61714,-1.08442 -49.27179,-3.7007 -73.90625,-5.34375 -12.85645,-2.15134 -27.89447,1.32023 -38.53125,-7.9375 -18.68726,-21.91344 -36.37445,-44.81161 -54.6875,-67.09375 -0.35355,-0.86728 -4.23114,-4.19488 -1.90625,-4.6875 z m -18.875,5.6875 c 0.86728,0.0542 1.70173,0.37066 2.4375,0.84375 16.92113,19.72257 32.82337,40.49225 49.375,60.59375 5.37058,6.85285 14.25755,14.11382 11.03125,23.90625 -18.17683,33.92245 -37.51227,67.39827 -56.125,101.15625 -1.22252,2.97482 -4.74115,10.01346 -8.78125,6.15625 -19.47694,-28.26063 -38.13543,-57.20667 -57.3125,-85.71875 -3.24457,-3.15091 -4.70127,-7.01552 -2.21875,-10.96875 15.75974,-27.37738 33.09298,-53.95559 49.4375,-81.03125 4.08879,-4.47449 5.14752,-12.72422 11.28125,-14.90625 0.29433,-0.047 0.58591,-0.0493 0.875,-0.0312 z m 87.65625,87.3125 c 31.14331,2.14656 62.26549,4.77006 93.40625,7.09375 3.29037,-0.19606 11.05617,0.14262 9.46875,5.4375 -13.69484,25.1813 -28.63004,49.84909 -42.78125,74.84375 -6.13119,8.97058 -9.26522,22.43531 -21.125,25.46875 -33.55612,2.20505 -67.28405,2.86928 -100.90625,4.5 -2.84146,0.23546 -10.69191,1.52934 -9.40625,-3.71875 17.67331,-33.00261 36.49272,-65.5497 54.59375,-98.375 2.96985,-7.1537 8.19408,-14.97199 16.75,-15.25 z"
       id="path3653"
       inkscape:connector-curvature="0" />
  </g>
</svg>
