<?xml version="1.0" encoding="UTF-8" standalone="no"?>
<!-- Created with Inkscape (http://www.inkscape.org/) -->

<svg
   xmlns:dc="http://purl.org/dc/elements/1.1/"
   xmlns:cc="http://creativecommons.org/ns#"
   xmlns:rdf="http://www.w3.org/1999/02/22-rdf-syntax-ns#"
   xmlns:svg="http://www.w3.org/2000/svg"
   xmlns="http://www.w3.org/2000/svg"
   xmlns:sodipodi="http://sodipodi.sourceforge.net/DTD/sodipodi-0.dtd"
   xmlns:inkscape="http://www.inkscape.org/namespaces/inkscape"
   width="32"
   height="32"
   id="svg3608"
   version="1.1"
   inkscape:version="0.48.5 r10040"
   sodipodi:docname="sense-taste.svg">
  <defs
     id="defs3610">
    <linearGradient
       y2="276.55899"
       x2="434.30521"
       y1="290.0405"
       x1="423.79391"
       gradientUnits="userSpaceOnUse"
       id="SVGID_3_">
      <stop
         id="stop26"
         style="stop-color:#6299BE"
         offset="0" />
      <stop
         id="stop28"
         style="stop-color:#3B80AE"
         offset="1" />
    </linearGradient>
    <linearGradient
       y2="300.50229"
       x2="388.9137"
       y1="293.1777"
       x1="420.64011"
       gradientUnits="userSpaceOnUse"
       id="SVGID_2_">
      <stop
         id="stop17"
         style="stop-color:#89B5D0"
         offset="0" />
      <stop
         id="stop19"
         style="stop-color:#6BA2C4"
         offset="1" />
    </linearGradient>
    <linearGradient
       y2="322.70029"
       x2="435.91449"
       y1="294.87839"
       x1="423.02151"
       gradientUnits="userSpaceOnUse"
       id="SVGID_1_">
      <stop
         id="stop8"
         style="stop-color:#7690BA"
         offset="0" />
      <stop
         id="stop10"
         style="stop-color:#5474A9"
         offset="1" />
    </linearGradient>
    <linearGradient
       y2="276.55899"
       x2="434.30521"
       y1="290.0405"
       x1="423.79391"
       gradientUnits="userSpaceOnUse"
       id="SVGID_3_-8">
      <stop
         id="stop26-8"
         style="stop-color:#6299BE"
         offset="0" />
      <stop
         id="stop28-2"
         style="stop-color:#3B80AE"
         offset="1" />
    </linearGradient>
    <linearGradient
       y2="300.50229"
       x2="388.9137"
       y1="293.1777"
       x1="420.64011"
       gradientUnits="userSpaceOnUse"
       id="SVGID_2_-0">
      <stop
         id="stop17-9"
         style="stop-color:#89B5D0"
         offset="0" />
      <stop
         id="stop19-4"
         style="stop-color:#6BA2C4"
         offset="1" />
    </linearGradient>
    <linearGradient
       y2="322.70029"
       x2="435.91449"
       y1="294.87839"
       x1="423.02151"
       gradientUnits="userSpaceOnUse"
       id="SVGID_1_-1">
      <stop
         id="stop8-7"
         style="stop-color:#7690BA"
         offset="0" />
      <stop
         id="stop10-4"
         style="stop-color:#5474A9"
         offset="1" />
    </linearGradient>
  </defs>
  <sodipodi:namedview
     id="base"
     pagecolor="#ffffff"
     bordercolor="#666666"
     borderopacity="1.0"
     inkscape:pageopacity="0.0"
     inkscape:pageshadow="2"
     inkscape:zoom="11.2"
     inkscape:cx="-5.1384641"
     inkscape:cy="23.332706"
     inkscape:document-units="px"
     inkscape:current-layer="layer1"
     showgrid="false"
     inkscape:window-width="1600"
     inkscape:window-height="1147"
     inkscape:window-x="-8"
     inkscape:window-y="-8"
     inkscape:window-maximized="1"
     fit-margin-top="0"
     fit-margin-left="0"
     fit-margin-right="0"
     fit-margin-bottom="0" />
  <metadata
     id="metadata3613">
    <rdf:RDF>
      <cc:Work
         rdf:about="">
        <dc:format>image/svg+xml</dc:format>
        <dc:type
           rdf:resource="http://purl.org/dc/dcmitype/StillImage" />
        <dc:title />
      </cc:Work>
    </rdf:RDF>
  </metadata>
  <g
     inkscape:label="Layer 1"
     inkscape:groupmode="layer"
     id="layer1"
     transform="translate(-203.3125,-672.125)">
    <path
       style="font-size:medium;font-style:normal;font-variant:normal;font-weight:normal;font-stretch:normal;text-indent:0;text-align:start;text-decoration:none;line-height:normal;letter-spacing:normal;word-spacing:normal;text-transform:none;direction:ltr;block-progression:tb;writing-mode:lr-tb;text-anchor:start;baseline-shift:baseline;color:#000000;fill:#000000;fill-opacity:1;stroke:none;stroke-width:1.99999988;marker:none;visibility:visible;display:inline;overflow:visible;enable-background:accumulate;font-family:Sans;-inkscape-font-specification:Sans"
       d="M 16 5.65625 C 11.82705 5.65625 8 6.25 8 6.25 A 1.0000999 1.0000999 0 1 0 8.28125 8.21875 C 8.28125 8.21875 12.01357 7.65625 16 7.65625 C 19.98643 7.65625 23.71875 8.21875 23.71875 8.21875 A 1.0000999 1.0000999 0 1 0 24 6.25 C 24 6.25 20.17295 5.65625 16 5.65625 z M 2.5625 9.5 A 1.0043849 1.0043849 0 0 0 2.84375 11.5 L 5.8125 11.5 C 6.23234 17.72001 10.5364 22.78125 16.03125 22.78125 C 21.52611 22.78125 25.83017 17.72001 26.25 11.5 L 29.21875 11.5 A 1.0000999 1.0000999 0 1 0 29.21875 9.5 L 2.84375 9.5 A 1.0000999 1.0000999 0 0 0 2.75 9.5 A 1.001098 1.001098 0 0 0 2.65625 9.5 A 1.0043849 1.0043849 0 0 0 2.5625 9.5 z M 7.90625 11.5 L 15.03125 11.5 L 15.03125 14.75 A 1.0000999 1.0000999 0 1 0 17.03125 14.75 L 17.03125 11.5 L 24.15625 11.5 C 23.72735 16.75747 20.23007 20.78125 16.03125 20.78125 C 11.83244 20.78125 8.33515 16.75747 7.90625 11.5 z M 15.875 24.1875 A 1.0001 1.0001 0 0 0 14.96875 25.1875 L 14.96875 30.0625 A 1.0001 1.0001 0 0 0 16.0625 31.09375 A 1.0001 1.0001 0 0 0 16.1875 31.0625 A 1.0001 1.0001 0 0 0 16.96875 30.0625 L 16.96875 25.1875 A 1.0001 1.0001 0 0 0 15.875 24.1875 z M 11.75 24.28125 A 1.0004918 1.0004918 0 0 0 10.84375 25.03125 L 9.59375 29.71875 A 1.0001 1.0001 0 0 0 10.59375 31 A 1.0001 1.0001 0 0 0 10.6875 31 A 1.0001 1.0001 0 0 0 11.53125 30.21875 L 12.78125 25.53125 A 1.0004918 1.0004918 0 0 0 11.75 24.28125 z M 20.09375 24.28125 A 1.0004978 1.0004978 0 0 0 19.1875 25.53125 L 20.4375 30.21875 A 1.0001 1.0001 0 0 0 21.375 31 A 1.0001 1.0001 0 0 0 21.5625 31 A 1.0001 1.0001 0 0 0 22.375 29.71875 L 21.125 25.03125 A 1.0004978 1.0004978 0 0 0 20.09375 24.28125 z "
       transform="translate(203.3125,672.125)"
       id="path3002" />
  </g>
</svg>
