<?xml version="1.0" encoding="UTF-8" standalone="no"?>
<!-- Created with Inkscape (http://www.inkscape.org/) -->

<svg
   xmlns:dc="http://purl.org/dc/elements/1.1/"
   xmlns:cc="http://creativecommons.org/ns#"
   xmlns:rdf="http://www.w3.org/1999/02/22-rdf-syntax-ns#"
   xmlns:svg="http://www.w3.org/2000/svg"
   xmlns="http://www.w3.org/2000/svg"
   xmlns:sodipodi="http://sodipodi.sourceforge.net/DTD/sodipodi-0.dtd"
   xmlns:inkscape="http://www.inkscape.org/namespaces/inkscape"
   width="32"
   height="32"
   id="svg3608"
   version="1.1"
   inkscape:version="0.48.5 r10040"
   sodipodi:docname="sense-hearing.svg">
  <defs
     id="defs3610">
    <linearGradient
       y2="276.55899"
       x2="434.30521"
       y1="290.0405"
       x1="423.79391"
       gradientUnits="userSpaceOnUse"
       id="SVGID_3_">
      <stop
         id="stop26"
         style="stop-color:#6299BE"
         offset="0" />
      <stop
         id="stop28"
         style="stop-color:#3B80AE"
         offset="1" />
    </linearGradient>
    <linearGradient
       y2="300.50229"
       x2="388.9137"
       y1="293.1777"
       x1="420.64011"
       gradientUnits="userSpaceOnUse"
       id="SVGID_2_">
      <stop
         id="stop17"
         style="stop-color:#89B5D0"
         offset="0" />
      <stop
         id="stop19"
         style="stop-color:#6BA2C4"
         offset="1" />
    </linearGradient>
    <linearGradient
       y2="322.70029"
       x2="435.91449"
       y1="294.87839"
       x1="423.02151"
       gradientUnits="userSpaceOnUse"
       id="SVGID_1_">
      <stop
         id="stop8"
         style="stop-color:#7690BA"
         offset="0" />
      <stop
         id="stop10"
         style="stop-color:#5474A9"
         offset="1" />
    </linearGradient>
    <linearGradient
       y2="276.55899"
       x2="434.30521"
       y1="290.0405"
       x1="423.79391"
       gradientUnits="userSpaceOnUse"
       id="SVGID_3_-8">
      <stop
         id="stop26-8"
         style="stop-color:#6299BE"
         offset="0" />
      <stop
         id="stop28-2"
         style="stop-color:#3B80AE"
         offset="1" />
    </linearGradient>
    <linearGradient
       y2="300.50229"
       x2="388.9137"
       y1="293.1777"
       x1="420.64011"
       gradientUnits="userSpaceOnUse"
       id="SVGID_2_-0">
      <stop
         id="stop17-9"
         style="stop-color:#89B5D0"
         offset="0" />
      <stop
         id="stop19-4"
         style="stop-color:#6BA2C4"
         offset="1" />
    </linearGradient>
    <linearGradient
       y2="322.70029"
       x2="435.91449"
       y1="294.87839"
       x1="423.02151"
       gradientUnits="userSpaceOnUse"
       id="SVGID_1_-1">
      <stop
         id="stop8-7"
         style="stop-color:#7690BA"
         offset="0" />
      <stop
         id="stop10-4"
         style="stop-color:#5474A9"
         offset="1" />
    </linearGradient>
  </defs>
  <sodipodi:namedview
     id="base"
     pagecolor="#ffffff"
     bordercolor="#666666"
     borderopacity="1.0"
     inkscape:pageopacity="0.0"
     inkscape:pageshadow="2"
     inkscape:zoom="15.839192"
     inkscape:cx="8.5572282"
     inkscape:cy="18.841343"
     inkscape:document-units="px"
     inkscape:current-layer="layer1"
     showgrid="false"
     inkscape:window-width="1600"
     inkscape:window-height="1147"
     inkscape:window-x="-8"
     inkscape:window-y="-8"
     inkscape:window-maximized="1"
     fit-margin-top="0"
     fit-margin-left="0"
     fit-margin-right="0"
     fit-margin-bottom="0" />
  <metadata
     id="metadata3613">
    <rdf:RDF>
      <cc:Work
         rdf:about="">
        <dc:format>image/svg+xml</dc:format>
        <dc:type
           rdf:resource="http://purl.org/dc/dcmitype/StillImage" />
        <dc:title></dc:title>
      </cc:Work>
    </rdf:RDF>
  </metadata>
  <g
     inkscape:label="Layer 1"
     inkscape:groupmode="layer"
     id="layer1"
     transform="translate(-203.3125,-672.125)">
    <g
       id="g3837"
       transform="matrix(0.84768212,0,0,0.84768212,60.43837,115.10513)" />
    <path
       inkscape:connector-curvature="0"
       style="font-size:medium;font-style:normal;font-variant:normal;font-weight:normal;font-stretch:normal;text-indent:0;text-align:start;text-decoration:none;line-height:normal;letter-spacing:normal;word-spacing:normal;text-transform:none;direction:ltr;block-progression:tb;writing-mode:lr-tb;text-anchor:start;baseline-shift:baseline;color:#000000;fill:#000000;fill-opacity:1;stroke:none;stroke-width:2;marker:none;visibility:visible;display:inline;overflow:visible;enable-background:accumulate;font-family:Sans;-inkscape-font-specification:Sans"
       d="m 223.93745,677.63785 a 0.91812459,0.91812459 0 0 0 -0.0937,1.8125 c 3.84395,1.82162 6.41348,4.98681 7.0625,5.8125 -0.7165,0.90546 -5.62476,7 -11.59375,7 -5.96899,0 -10.87725,-6.09454 -11.59375,-7 0.64902,-0.82569 3.21855,-3.99088 7.0625,-5.8125 a 0.91812459,0.91812459 0 0 0 -0.46875,-1.75 0.91812459,0.91812459 0 0 0 -0.34375,0.125 c -4.93271,2.33757 -8.25,6.9375 -8.25,6.9375 l -0.40625,0.53125 0.40625,0.5625 c 0,0 5.81844,8.25 13.59375,8.25 7.77531,0 13.59375,-8.25 13.59375,-8.25 l 0.40625,-0.5625 -0.40625,-0.53125 c 0,0 -3.31729,-4.59993 -8.25,-6.9375 a 0.91812459,0.91812459 0 0 0 -0.53125,-0.1875 0.91812459,0.91812459 0 0 0 -0.1875,0 z m -4.625,2.40625 c -2.91291,0 -5.28125,2.39959 -5.28125,5.3125 0,2.91292 2.36834,5.28125 5.28125,5.28125 2.91291,0 5.3125,-2.36833 5.3125,-5.28125 0,-2.91291 -2.39959,-5.3125 -5.3125,-5.3125 z m 0,1.84375 c 1.92063,0 3.46875,1.54812 3.46875,3.46875 0,1.92063 -1.54812,3.4375 -3.46875,3.4375 -1.92063,0 -3.4375,-1.51687 -3.4375,-3.4375 0,-1.92063 1.51687,-3.46875 3.4375,-3.46875 z m 0,1.0625 c -1.32842,0 -2.40625,1.07783 -2.40625,2.40625 0,1.32842 1.07783,2.40625 2.40625,2.40625 1.32842,0 2.40625,-1.07783 2.40625,-2.40625 0,-1.32842 -1.07783,-2.40625 -2.40625,-2.40625 z m -0.46875,12.625 a 1.0001,1.0001 0 0 0 -0.90625,1.03125 l 0,4.875 a 1.0001,1.0001 0 0 0 1.09375,1.03125 1.0001,1.0001 0 0 0 0.125,-0.0312 1.0001,1.0001 0 0 0 0.78125,-1 l 0,-4.875 a 1.0001,1.0001 0 0 0 -1.09375,-1.03125 z m -4.21875,0.125 a 1.0004918,1.0004918 0 0 0 -0.8125,0.75 l -1.25,4.6875 a 1.0001,1.0001 0 0 0 1,1.28125 1.0001,1.0001 0 0 0 0.0937,0 1.0001,1.0001 0 0 0 0.84375,-0.78125 l 1.25,-4.6875 a 1.0004918,1.0004918 0 0 0 -1.125,-1.25 z m 8.34375,0 a 1.0004978,1.0004978 0 0 0 -0.8125,1.25 l 1.25,4.6875 a 1.0001,1.0001 0 0 0 0.9375,0.78125 1.0001,1.0001 0 0 0 0.1875,0 1.0001,1.0001 0 0 0 0.8125,-1.28125 l -1.25,-4.6875 a 1.0004978,1.0004978 0 0 0 -1.125,-0.75 z"
       id="path3813" />
  </g>
</svg>
