<?xml version="1.0" encoding="UTF-8" standalone="no"?>
<!-- Created with Inkscape (http://www.inkscape.org/) -->

<svg
   xmlns:dc="http://purl.org/dc/elements/1.1/"
   xmlns:cc="http://creativecommons.org/ns#"
   xmlns:rdf="http://www.w3.org/1999/02/22-rdf-syntax-ns#"
   xmlns:svg="http://www.w3.org/2000/svg"
   xmlns="http://www.w3.org/2000/svg"
   xmlns:sodipodi="http://sodipodi.sourceforge.net/DTD/sodipodi-0.dtd"
   xmlns:inkscape="http://www.inkscape.org/namespaces/inkscape"
   width="32"
   height="32"
   id="svg3608"
   version="1.1"
   inkscape:version="0.48.5 r10040"
   sodipodi:docname="sense-smell.svg">
  <defs
     id="defs3610">
    <linearGradient
       y2="276.55899"
       x2="434.30521"
       y1="290.0405"
       x1="423.79391"
       gradientUnits="userSpaceOnUse"
       id="SVGID_3_">
      <stop
         id="stop26"
         style="stop-color:#6299BE"
         offset="0" />
      <stop
         id="stop28"
         style="stop-color:#3B80AE"
         offset="1" />
    </linearGradient>
    <linearGradient
       y2="300.50229"
       x2="388.9137"
       y1="293.1777"
       x1="420.64011"
       gradientUnits="userSpaceOnUse"
       id="SVGID_2_">
      <stop
         id="stop17"
         style="stop-color:#89B5D0"
         offset="0" />
      <stop
         id="stop19"
         style="stop-color:#6BA2C4"
         offset="1" />
    </linearGradient>
    <linearGradient
       y2="322.70029"
       x2="435.91449"
       y1="294.87839"
       x1="423.02151"
       gradientUnits="userSpaceOnUse"
       id="SVGID_1_">
      <stop
         id="stop8"
         style="stop-color:#7690BA"
         offset="0" />
      <stop
         id="stop10"
         style="stop-color:#5474A9"
         offset="1" />
    </linearGradient>
    <linearGradient
       y2="276.55899"
       x2="434.30521"
       y1="290.0405"
       x1="423.79391"
       gradientUnits="userSpaceOnUse"
       id="SVGID_3_-8">
      <stop
         id="stop26-8"
         style="stop-color:#6299BE"
         offset="0" />
      <stop
         id="stop28-2"
         style="stop-color:#3B80AE"
         offset="1" />
    </linearGradient>
    <linearGradient
       y2="300.50229"
       x2="388.9137"
       y1="293.1777"
       x1="420.64011"
       gradientUnits="userSpaceOnUse"
       id="SVGID_2_-0">
      <stop
         id="stop17-9"
         style="stop-color:#89B5D0"
         offset="0" />
      <stop
         id="stop19-4"
         style="stop-color:#6BA2C4"
         offset="1" />
    </linearGradient>
    <linearGradient
       y2="322.70029"
       x2="435.91449"
       y1="294.87839"
       x1="423.02151"
       gradientUnits="userSpaceOnUse"
       id="SVGID_1_-1">
      <stop
         id="stop8-7"
         style="stop-color:#7690BA"
         offset="0" />
      <stop
         id="stop10-4"
         style="stop-color:#5474A9"
         offset="1" />
    </linearGradient>
  </defs>
  <sodipodi:namedview
     id="base"
     pagecolor="#ffffff"
     bordercolor="#666666"
     borderopacity="1.0"
     inkscape:pageopacity="0.0"
     inkscape:pageshadow="2"
     inkscape:zoom="15.839192"
     inkscape:cx="5.5311788"
     inkscape:cy="23.332706"
     inkscape:document-units="px"
     inkscape:current-layer="layer1"
     showgrid="false"
     inkscape:window-width="1600"
     inkscape:window-height="1147"
     inkscape:window-x="-8"
     inkscape:window-y="-8"
     inkscape:window-maximized="1"
     fit-margin-top="0"
     fit-margin-left="0"
     fit-margin-right="0"
     fit-margin-bottom="0" />
  <metadata
     id="metadata3613">
    <rdf:RDF>
      <cc:Work
         rdf:about="">
        <dc:format>image/svg+xml</dc:format>
        <dc:type
           rdf:resource="http://purl.org/dc/dcmitype/StillImage" />
        <dc:title />
      </cc:Work>
    </rdf:RDF>
  </metadata>
  <g
     inkscape:label="Layer 1"
     inkscape:groupmode="layer"
     id="layer1"
     transform="translate(-203.3125,-672.125)">
    <path
       style="font-size:medium;font-style:normal;font-variant:normal;font-weight:normal;font-stretch:normal;text-indent:0;text-align:start;text-decoration:none;line-height:normal;letter-spacing:normal;word-spacing:normal;text-transform:none;direction:ltr;block-progression:tb;writing-mode:lr-tb;text-anchor:start;baseline-shift:baseline;color:#000000;fill:#000000;fill-opacity:1;stroke:none;stroke-width:1.99999988;marker:none;visibility:visible;display:inline;overflow:visible;enable-background:accumulate;font-family:Sans;-inkscape-font-specification:Sans"
       d="M 6.96875 0.625 A 1.0001 1.0001 0 0 0 6.1875 1.15625 A 1.0001 1.0001 0 0 0 6.125 1.25 A 1.0001 1.0001 0 0 0 6.40625 2.375 L 9.84375 5.78125 A 1.0004893 1.0004893 0 1 0 11.21875 4.375 L 7.78125 0.9375 A 1.0001 1.0001 0 0 0 6.96875 0.625 z M 19.78125 5 A 1.0000999 1.0000999 0 0 0 19.125 5.375 C 19.125 5.375 16.04339 9.26456 13.09375 13.46875 C 11.61893 15.57085 10.1896 17.73993 9.15625 19.59375 C 8.63957 20.52066 8.2367 21.37663 7.96875 22.125 C 7.7008 22.87337 7.4504 23.50895 7.78125 24.3125 L 7.84375 24.5 L 7.96875 24.625 C 9.79943 26.60147 12.95211 26.94019 15.84375 27 C 18.73539 27.0598 21.56529 26.71875 22.3125 26.71875 C 23.02349 26.71875 23.79718 26.3763 24.125 25.78125 C 24.45282 25.1862 24.38783 24.59931 24.28125 24.09375 C 24.0681 23.08264 23.55994 22.19523 23.125 21.625 C 22.18671 20.39485 20.68034 20.1244 19.4375 20.125 C 18.50695 20.12544 17.69884 20.50822 16.96875 20.84375 C 16.23866 21.17928 15.65625 21.53125 15.65625 21.53125 A 1.0000999 1.0000999 0 1 0 16.65625 23.25 C 16.65625 23.25 17.1747 22.98062 17.8125 22.6875 C 18.4503 22.39438 19.26844 22.12508 19.4375 22.125 C 20.39388 22.12454 21.1504 22.34444 21.53125 22.84375 C 21.75587 23.13825 22.2039 23.98482 22.3125 24.5 C 22.33369 24.600523 22.345491 24.661486 22.34375 24.71875 C 22.324409 24.71821 22.343353 24.71875 22.3125 24.71875 C 21.11313 24.71875 18.58314 25.05601 15.875 25 C 13.29768 24.9467 10.82876 24.39514 9.6875 23.375 C 9.7082 23.3236 9.6885 23.21419 9.84375 22.78125 C 10.04861 22.20908 10.42065 21.43365 10.90625 20.5625 C 11.87744 18.82019 13.29643 16.69681 14.75 14.625 C 17.65714 10.48138 20.6875 6.625 20.6875 6.625 A 1.0000999 1.0000999 0 0 0 19.78125 5 z M 4.125 5.28125 A 1.0001 1.0001 0 0 0 3.375 5.84375 A 1.0001 1.0001 0 0 0 3.34375 5.96875 A 1.0001 1.0001 0 0 0 3.8125 7.15625 L 8.03125 9.59375 A 1.0001 1.0001 0 1 0 9.03125 7.875 L 4.8125 5.4375 A 1.0001 1.0001 0 0 0 4.125 5.28125 z M 1.53125 10.03125 A 1.0001 1.0001 0 0 0 0.78125 10.5 A 1.0001 1.0001 0 0 0 0.6875 10.65625 A 1.0001 1.0001 0 0 0 1.40625 12 L 6.09375 13.28125 A 1.0004961 1.0004961 0 1 0 6.625 11.34375 L 1.9375 10.09375 A 1.0001 1.0001 0 0 0 1.53125 10.03125 z "
       transform="translate(203.3125,672.125)"
       id="path3002" />
  </g>
</svg>
