<?xml version="1.0" encoding="UTF-8" standalone="no"?>
<!-- Created with Inkscape (http://www.inkscape.org/) -->

<svg
   xmlns:dc="http://purl.org/dc/elements/1.1/"
   xmlns:cc="http://creativecommons.org/ns#"
   xmlns:rdf="http://www.w3.org/1999/02/22-rdf-syntax-ns#"
   xmlns:svg="http://www.w3.org/2000/svg"
   xmlns="http://www.w3.org/2000/svg"
   xmlns:sodipodi="http://sodipodi.sourceforge.net/DTD/sodipodi-0.dtd"
   xmlns:inkscape="http://www.inkscape.org/namespaces/inkscape"
   width="32"
   height="32"
   id="svg3608"
   version="1.1"
   inkscape:version="0.48.5 r10040"
   sodipodi:docname="sense-sight.svg">
  <defs
     id="defs3610">
    <linearGradient
       y2="276.55899"
       x2="434.30521"
       y1="290.0405"
       x1="423.79391"
       gradientUnits="userSpaceOnUse"
       id="SVGID_3_">
      <stop
         id="stop26"
         style="stop-color:#6299BE"
         offset="0" />
      <stop
         id="stop28"
         style="stop-color:#3B80AE"
         offset="1" />
    </linearGradient>
    <linearGradient
       y2="300.50229"
       x2="388.9137"
       y1="293.1777"
       x1="420.64011"
       gradientUnits="userSpaceOnUse"
       id="SVGID_2_">
      <stop
         id="stop17"
         style="stop-color:#89B5D0"
         offset="0" />
      <stop
         id="stop19"
         style="stop-color:#6BA2C4"
         offset="1" />
    </linearGradient>
    <linearGradient
       y2="322.70029"
       x2="435.91449"
       y1="294.87839"
       x1="423.02151"
       gradientUnits="userSpaceOnUse"
       id="SVGID_1_">
      <stop
         id="stop8"
         style="stop-color:#7690BA"
         offset="0" />
      <stop
         id="stop10"
         style="stop-color:#5474A9"
         offset="1" />
    </linearGradient>
    <linearGradient
       y2="276.55899"
       x2="434.30521"
       y1="290.0405"
       x1="423.79391"
       gradientUnits="userSpaceOnUse"
       id="SVGID_3_-8">
      <stop
         id="stop26-8"
         style="stop-color:#6299BE"
         offset="0" />
      <stop
         id="stop28-2"
         style="stop-color:#3B80AE"
         offset="1" />
    </linearGradient>
    <linearGradient
       y2="300.50229"
       x2="388.9137"
       y1="293.1777"
       x1="420.64011"
       gradientUnits="userSpaceOnUse"
       id="SVGID_2_-0">
      <stop
         id="stop17-9"
         style="stop-color:#89B5D0"
         offset="0" />
      <stop
         id="stop19-4"
         style="stop-color:#6BA2C4"
         offset="1" />
    </linearGradient>
    <linearGradient
       y2="322.70029"
       x2="435.91449"
       y1="294.87839"
       x1="423.02151"
       gradientUnits="userSpaceOnUse"
       id="SVGID_1_-1">
      <stop
         id="stop8-7"
         style="stop-color:#7690BA"
         offset="0" />
      <stop
         id="stop10-4"
         style="stop-color:#5474A9"
         offset="1" />
    </linearGradient>
  </defs>
  <sodipodi:namedview
     id="base"
     pagecolor="#ffffff"
     bordercolor="#666666"
     borderopacity="1.0"
     inkscape:pageopacity="0.0"
     inkscape:pageshadow="2"
     inkscape:zoom="15.839192"
     inkscape:cx="-9.5579748"
     inkscape:cy="23.332706"
     inkscape:document-units="px"
     inkscape:current-layer="layer1"
     showgrid="false"
     inkscape:window-width="1600"
     inkscape:window-height="1147"
     inkscape:window-x="-8"
     inkscape:window-y="-8"
     inkscape:window-maximized="1"
     fit-margin-top="0"
     fit-margin-left="0"
     fit-margin-right="0"
     fit-margin-bottom="0" />
  <metadata
     id="metadata3613">
    <rdf:RDF>
      <cc:Work
         rdf:about="">
        <dc:format>image/svg+xml</dc:format>
        <dc:type
           rdf:resource="http://purl.org/dc/dcmitype/StillImage" />
        <dc:title />
      </cc:Work>
    </rdf:RDF>
  </metadata>
  <g
     inkscape:label="Layer 1"
     inkscape:groupmode="layer"
     id="layer1"
     transform="translate(-203.3125,-672.125)">
    <path
       sodipodi:type="arc"
       style="fill:#ffffff;fill-opacity:1;stroke:none"
       id="path3002-7"
       sodipodi:cx="-11.458918"
       sodipodi:cy="-2.18735"
       sodipodi:rx="3.5039666"
       sodipodi:ry="3.5039666"
       d="m -7.954951,-2.18735 c 0,1.93518727 -1.5687793,3.5039665 -3.503967,3.5039665 -1.935187,0 -3.503966,-1.56877923 -3.503966,-3.5039665 0,-1.9351873 1.568779,-3.5039666 3.503966,-3.5039666 1.9351877,0 3.503967,1.5687793 3.503967,3.5039666 z"
       transform="matrix(0.5045045,0,0,0.5045045,226.10833,686.88795)" />
    <path
       style="font-size:medium;font-style:normal;font-variant:normal;font-weight:normal;font-stretch:normal;text-indent:0;text-align:start;text-decoration:none;line-height:normal;letter-spacing:normal;word-spacing:normal;text-transform:none;direction:ltr;block-progression:tb;writing-mode:lr-tb;text-anchor:start;baseline-shift:baseline;color:#000000;fill:#000000;fill-opacity:1;stroke:none;stroke-width:2;marker:none;visibility:visible;display:inline;overflow:visible;enable-background:accumulate;font-family:Sans;-inkscape-font-specification:Sans"
       d="M 20.625 6.5 A 0.91812459 0.91812459 0 0 0 20.53125 8.3125 C 24.3752 10.13412 26.94473 13.29931 27.59375 14.125 C 26.87725 15.03046 21.96899 21.125 16 21.125 C 10.03101 21.125 5.12275 15.03046 4.40625 14.125 C 5.05527 13.29931 7.6248 10.13412 11.46875 8.3125 A 0.91812459 0.91812459 0 0 0 11 6.5625 A 0.91812459 0.91812459 0 0 0 10.65625 6.6875 C 5.72354 9.02507 2.40625 13.625 2.40625 13.625 L 2 14.15625 L 2.40625 14.71875 C 2.40625 14.71875 8.22469 22.96875 16 22.96875 C 23.77531 22.96875 29.59375 14.71875 29.59375 14.71875 L 30 14.15625 L 29.59375 13.625 C 29.59375 13.625 26.27646 9.02507 21.34375 6.6875 A 0.91812459 0.91812459 0 0 0 20.8125 6.5 A 0.91812459 0.91812459 0 0 0 20.625 6.5 z M 16 8.90625 C 13.08709 8.90625 10.71875 11.30584 10.71875 14.21875 C 10.71875 17.13167 13.08709 19.5 16 19.5 C 18.91291 19.5 21.3125 17.13167 21.3125 14.21875 C 21.3125 11.30584 18.91291 8.90625 16 8.90625 z M 16 10.75 C 17.92063 10.75 19.46875 12.29812 19.46875 14.21875 C 19.46875 16.13938 17.92063 17.65625 16 17.65625 C 14.07937 17.65625 12.5625 16.13938 12.5625 14.21875 C 12.5625 12.29812 14.07937 10.75 16 10.75 z M 16 11.8125 C 14.67158 11.8125 13.59375 12.89033 13.59375 14.21875 C 13.59375 15.54717 14.67158 16.625 16 16.625 C 17.32842 16.625 18.40625 15.54717 18.40625 14.21875 C 18.40625 12.89033 17.32842 11.8125 16 11.8125 z M 15.53125 24.4375 A 1.0001 1.0001 0 0 0 14.625 25.46875 L 14.625 30.34375 A 1.0001 1.0001 0 0 0 15.71875 31.375 A 1.0001 1.0001 0 0 0 15.84375 31.34375 A 1.0001 1.0001 0 0 0 16.625 30.34375 L 16.625 25.46875 A 1.0001 1.0001 0 0 0 15.53125 24.4375 z M 11.3125 24.5625 A 1.0004918 1.0004918 0 0 0 10.5 25.3125 L 9.25 30 A 1.0001 1.0001 0 0 0 10.25 31.28125 A 1.0001 1.0001 0 0 0 10.34375 31.28125 A 1.0001 1.0001 0 0 0 11.1875 30.5 L 12.4375 25.8125 A 1.0004918 1.0004918 0 0 0 11.3125 24.5625 z M 19.65625 24.5625 A 1.0004978 1.0004978 0 0 0 18.84375 25.8125 L 20.09375 30.5 A 1.0001 1.0001 0 0 0 21.03125 31.28125 A 1.0001 1.0001 0 0 0 21.21875 31.28125 A 1.0001 1.0001 0 0 0 22.03125 30 L 20.78125 25.3125 A 1.0004978 1.0004978 0 0 0 19.65625 24.5625 z "
       transform="translate(203.3125,672.125)"
       id="path3813" />
  </g>
</svg>
