<?xml version="1.0" encoding="UTF-8" standalone="no"?>
<!-- Created with Inkscape (http://www.inkscape.org/) -->

<svg
   xmlns:dc="http://purl.org/dc/elements/1.1/"
   xmlns:cc="http://creativecommons.org/ns#"
   xmlns:rdf="http://www.w3.org/1999/02/22-rdf-syntax-ns#"
   xmlns:svg="http://www.w3.org/2000/svg"
   xmlns="http://www.w3.org/2000/svg"
   xmlns:sodipodi="http://sodipodi.sourceforge.net/DTD/sodipodi-0.dtd"
   xmlns:inkscape="http://www.inkscape.org/namespaces/inkscape"
   width="32"
   height="32"
   id="svg3608"
   version="1.1"
   inkscape:version="0.48.5 r10040"
   sodipodi:docname="sense-hearing.svg">
  <defs
     id="defs3610">
    <linearGradient
       y2="276.55899"
       x2="434.30521"
       y1="290.0405"
       x1="423.79391"
       gradientUnits="userSpaceOnUse"
       id="SVGID_3_">
      <stop
         id="stop26"
         style="stop-color:#6299BE"
         offset="0" />
      <stop
         id="stop28"
         style="stop-color:#3B80AE"
         offset="1" />
    </linearGradient>
    <linearGradient
       y2="300.50229"
       x2="388.9137"
       y1="293.1777"
       x1="420.64011"
       gradientUnits="userSpaceOnUse"
       id="SVGID_2_">
      <stop
         id="stop17"
         style="stop-color:#89B5D0"
         offset="0" />
      <stop
         id="stop19"
         style="stop-color:#6BA2C4"
         offset="1" />
    </linearGradient>
    <linearGradient
       y2="322.70029"
       x2="435.91449"
       y1="294.87839"
       x1="423.02151"
       gradientUnits="userSpaceOnUse"
       id="SVGID_1_">
      <stop
         id="stop8"
         style="stop-color:#7690BA"
         offset="0" />
      <stop
         id="stop10"
         style="stop-color:#5474A9"
         offset="1" />
    </linearGradient>
    <linearGradient
       y2="276.55899"
       x2="434.30521"
       y1="290.0405"
       x1="423.79391"
       gradientUnits="userSpaceOnUse"
       id="SVGID_3_-8">
      <stop
         id="stop26-8"
         style="stop-color:#6299BE"
         offset="0" />
      <stop
         id="stop28-2"
         style="stop-color:#3B80AE"
         offset="1" />
    </linearGradient>
    <linearGradient
       y2="300.50229"
       x2="388.9137"
       y1="293.1777"
       x1="420.64011"
       gradientUnits="userSpaceOnUse"
       id="SVGID_2_-0">
      <stop
         id="stop17-9"
         style="stop-color:#89B5D0"
         offset="0" />
      <stop
         id="stop19-4"
         style="stop-color:#6BA2C4"
         offset="1" />
    </linearGradient>
    <linearGradient
       y2="322.70029"
       x2="435.91449"
       y1="294.87839"
       x1="423.02151"
       gradientUnits="userSpaceOnUse"
       id="SVGID_1_-1">
      <stop
         id="stop8-7"
         style="stop-color:#7690BA"
         offset="0" />
      <stop
         id="stop10-4"
         style="stop-color:#5474A9"
         offset="1" />
    </linearGradient>
  </defs>
  <sodipodi:namedview
     id="base"
     pagecolor="#ffffff"
     bordercolor="#666666"
     borderopacity="1.0"
     inkscape:pageopacity="0.0"
     inkscape:pageshadow="2"
     inkscape:zoom="15.839192"
     inkscape:cx="7.8355892"
     inkscape:cy="23.332706"
     inkscape:document-units="px"
     inkscape:current-layer="layer1"
     showgrid="false"
     inkscape:window-width="1600"
     inkscape:window-height="1147"
     inkscape:window-x="-8"
     inkscape:window-y="-8"
     inkscape:window-maximized="1"
     fit-margin-top="0"
     fit-margin-left="0"
     fit-margin-right="0"
     fit-margin-bottom="0" />
  <metadata
     id="metadata3613">
    <rdf:RDF>
      <cc:Work
         rdf:about="">
        <dc:format>image/svg+xml</dc:format>
        <dc:type
           rdf:resource="http://purl.org/dc/dcmitype/StillImage" />
        <dc:title />
      </cc:Work>
    </rdf:RDF>
  </metadata>
  <g
     inkscape:label="Layer 1"
     inkscape:groupmode="layer"
     id="layer1"
     transform="translate(-203.3125,-672.125)">
    <g
       id="g3837"
       transform="matrix(0.84768212,0,0,0.84768212,60.43837,115.10513)">
      <path
         style="font-size:medium;font-style:normal;font-variant:normal;font-weight:normal;font-stretch:normal;text-indent:0;text-align:start;text-decoration:none;line-height:normal;letter-spacing:normal;word-spacing:normal;text-transform:none;direction:ltr;block-progression:tb;writing-mode:lr-tb;text-anchor:start;baseline-shift:baseline;color:#000000;fill:#000000;fill-opacity:1;stroke:none;stroke-width:2;marker:none;visibility:visible;display:inline;overflow:visible;enable-background:accumulate;font-family:Sans;-inkscape-font-specification:Sans"
         d="M 16 2 C 10.050713 2 5.21875 6.9876753 5.21875 13.09375 A 0.84776689 0.84776689 0 1 0 6.9375 13.09375 C 6.9375 7.8719773 10.997641 3.6875 16 3.6875 C 20.993687 3.6875 25.048378 7.8560025 25.0625 13.0625 C 25.06233 13.070129 25.062712 13.085782 25.0625 13.09375 C 25.02588 14.459417 24.303279 15.944796 23.3125 17.53125 C 22.315889 19.127045 21.090697 20.800716 20.1875 22.65625 C 19.351974 24.372764 18.477907 25.813036 17.40625 26.78125 C 16.334593 27.749464 15.082057 28.3125 13.28125 28.3125 C 9.743703 28.3125 6.9375 25.619923 6.9375 22.34375 A 0.84776689 0.84776689 0 1 0 5.21875 22.34375 C 5.21875 26.591612 8.8767615 30 13.28125 30 C 15.45146 30 17.193336 29.240019 18.53125 28.03125 C 19.869164 26.822481 20.842603 25.20621 21.71875 23.40625 C 22.527227 21.74531 23.704096 20.112215 24.75 18.4375 C 25.795904 16.762785 26.74118 15.035633 26.78125 13.125 L 26.78125 13.09375 C 26.78125 6.9850305 21.949287 2 16 2 z M 15.5 5.53125 C 15.062368 5.5559896 14.630681 5.6304768 14.1875 5.75 C 10.642061 6.7062702 8.5141328 10.359514 9.46875 13.90625 C 9.9460713 15.679609 11.085032 17.118109 12.5625 17.96875 A 0.85427897 0.85427897 0 0 0 13.40625 16.5 C 12.302644 15.864603 11.48329 14.799891 11.125 13.46875 C 10.985942 12.952099 10.945373 12.443004 10.96875 11.9375 A 0.85888704 0.85888704 0 0 0 11.125 11.90625 C 13.909924 11.031256 16.867732 12.537901 17.75 15.3125 C 18.632251 18.087108 17.097407 21.031256 14.3125 21.90625 C 12.920046 22.343756 11.480644 22.184436 10.28125 21.5625 A 0.8477668 0.8477668 0 1 0 9.53125 23.0625 C 11.112101 23.882234 12.983761 24.105843 14.8125 23.53125 C 18.46996 22.382115 20.535392 18.461814 19.375 14.8125 C 18.504693 12.075521 16.076521 10.258585 13.375 10 C 12.725253 9.9378098 12.064998 9.9721576 11.40625 10.09375 C 11.999341 8.8068897 13.109694 7.775275 14.59375 7.375 C 17.254243 6.6574201 19.97092 8.2439517 20.6875 10.90625 A 0.85150215 0.85150215 0 1 0 22.34375 10.4375 C 21.627781 7.7774481 19.385342 5.9197472 16.8125 5.5625 C 16.383692 5.5029588 15.937632 5.5065104 15.5 5.53125 z M 25.5625 18.75 A 1.0004961 1.0004961 0 0 0 25.4375 20.71875 L 30.125 21.96875 A 1.0001 1.0001 0 0 0 31.28125 21.5625 A 1.0001 1.0001 0 0 0 31.375 21.40625 A 1.0001 1.0001 0 0 0 30.65625 20.0625 L 25.96875 18.78125 A 1.0004961 1.0004961 0 0 0 25.5625 18.75 z M 23.34375 22.34375 A 1.0001 1.0001 0 0 0 23.03125 24.1875 L 27.25 26.625 A 1.0001 1.0001 0 0 0 28.6875 26.21875 A 1.0001 1.0001 0 0 0 28.71875 26.09375 A 1.0001 1.0001 0 0 0 28.25 24.90625 L 24.03125 22.46875 A 1.0001 1.0001 0 0 0 23.34375 22.34375 z M 21.5 25.96875 A 1.0004893 1.0004893 0 0 0 20.84375 27.6875 L 24.28125 31.125 A 1.0001 1.0001 0 0 0 25.875 30.90625 A 1.0001 1.0001 0 0 0 25.9375 30.8125 A 1.0001 1.0001 0 0 0 25.65625 29.6875 L 22.21875 26.28125 A 1.0004893 1.0004893 0 0 0 21.5 25.96875 z "
         transform="matrix(1.1796875,0,0,1.1796875,168.54683,657.10938)"
         id="path3012" />
    </g>
  </g>
</svg>
