<?xml version="1.0" encoding="UTF-8" standalone="no"?>
<!-- Created with Inkscape (http://www.inkscape.org/) -->

<svg
   xmlns:dc="http://purl.org/dc/elements/1.1/"
   xmlns:cc="http://creativecommons.org/ns#"
   xmlns:rdf="http://www.w3.org/1999/02/22-rdf-syntax-ns#"
   xmlns:svg="http://www.w3.org/2000/svg"
   xmlns="http://www.w3.org/2000/svg"
   xmlns:sodipodi="http://sodipodi.sourceforge.net/DTD/sodipodi-0.dtd"
   xmlns:inkscape="http://www.inkscape.org/namespaces/inkscape"
   width="32"
   height="32"
   id="svg3608"
   version="1.1"
   inkscape:version="0.48.5 r10040"
   sodipodi:docname="sense-touch.svg">
  <defs
     id="defs3610">
    <linearGradient
       y2="276.55899"
       x2="434.30521"
       y1="290.0405"
       x1="423.79391"
       gradientUnits="userSpaceOnUse"
       id="SVGID_3_">
      <stop
         id="stop26"
         style="stop-color:#6299BE"
         offset="0" />
      <stop
         id="stop28"
         style="stop-color:#3B80AE"
         offset="1" />
    </linearGradient>
    <linearGradient
       y2="300.50229"
       x2="388.9137"
       y1="293.1777"
       x1="420.64011"
       gradientUnits="userSpaceOnUse"
       id="SVGID_2_">
      <stop
         id="stop17"
         style="stop-color:#89B5D0"
         offset="0" />
      <stop
         id="stop19"
         style="stop-color:#6BA2C4"
         offset="1" />
    </linearGradient>
    <linearGradient
       y2="322.70029"
       x2="435.91449"
       y1="294.87839"
       x1="423.02151"
       gradientUnits="userSpaceOnUse"
       id="SVGID_1_">
      <stop
         id="stop8"
         style="stop-color:#7690BA"
         offset="0" />
      <stop
         id="stop10"
         style="stop-color:#5474A9"
         offset="1" />
    </linearGradient>
    <linearGradient
       y2="276.55899"
       x2="434.30521"
       y1="290.0405"
       x1="423.79391"
       gradientUnits="userSpaceOnUse"
       id="SVGID_3_-8">
      <stop
         id="stop26-8"
         style="stop-color:#6299BE"
         offset="0" />
      <stop
         id="stop28-2"
         style="stop-color:#3B80AE"
         offset="1" />
    </linearGradient>
    <linearGradient
       y2="300.50229"
       x2="388.9137"
       y1="293.1777"
       x1="420.64011"
       gradientUnits="userSpaceOnUse"
       id="SVGID_2_-0">
      <stop
         id="stop17-9"
         style="stop-color:#89B5D0"
         offset="0" />
      <stop
         id="stop19-4"
         style="stop-color:#6BA2C4"
         offset="1" />
    </linearGradient>
    <linearGradient
       y2="322.70029"
       x2="435.91449"
       y1="294.87839"
       x1="423.02151"
       gradientUnits="userSpaceOnUse"
       id="SVGID_1_-1">
      <stop
         id="stop8-7"
         style="stop-color:#7690BA"
         offset="0" />
      <stop
         id="stop10-4"
         style="stop-color:#5474A9"
         offset="1" />
    </linearGradient>
  </defs>
  <sodipodi:namedview
     id="base"
     pagecolor="#ffffff"
     bordercolor="#666666"
     borderopacity="1.0"
     inkscape:pageopacity="0.0"
     inkscape:pageshadow="2"
     inkscape:zoom="15.839192"
     inkscape:cx="5.5311788"
     inkscape:cy="8.1804179"
     inkscape:document-units="px"
     inkscape:current-layer="layer1"
     showgrid="false"
     inkscape:window-width="1600"
     inkscape:window-height="1147"
     inkscape:window-x="-8"
     inkscape:window-y="-8"
     inkscape:window-maximized="1"
     fit-margin-top="0"
     fit-margin-left="0"
     fit-margin-right="0"
     fit-margin-bottom="0" />
  <metadata
     id="metadata3613">
    <rdf:RDF>
      <cc:Work
         rdf:about="">
        <dc:format>image/svg+xml</dc:format>
        <dc:type
           rdf:resource="http://purl.org/dc/dcmitype/StillImage" />
        <dc:title />
      </cc:Work>
    </rdf:RDF>
  </metadata>
  <g
     inkscape:label="Layer 1"
     inkscape:groupmode="layer"
     id="layer1"
     transform="translate(-203.3125,-672.125)">
    <path
       style="font-size:medium;font-style:normal;font-variant:normal;font-weight:normal;font-stretch:normal;text-indent:0;text-align:start;text-decoration:none;line-height:normal;letter-spacing:normal;word-spacing:normal;text-transform:none;direction:ltr;block-progression:tb;writing-mode:lr-tb;text-anchor:start;baseline-shift:baseline;color:#000000;fill:#000000;fill-opacity:1;stroke:none;stroke-width:2.00000024;marker:none;visibility:visible;display:inline;overflow:visible;enable-background:accumulate;font-family:Sans;-inkscape-font-specification:Sans"
       d="M 6.84375 0.5 A 1.0001 1.0001 0 0 0 6.0625 1.03125 A 1.0001 1.0001 0 0 0 6 1.125 A 1.0001 1.0001 0 0 0 6.28125 2.25 L 9.6875 5.65625 A 1.0004893 1.0004893 0 1 0 11.09375 4.25 L 7.65625 0.8125 A 1.0001 1.0001 0 0 0 6.84375 0.5 z M 4 5.15625 A 1.0001 1.0001 0 0 0 3.25 5.71875 A 1.0001 1.0001 0 0 0 3.21875 5.84375 A 1.0001 1.0001 0 0 0 3.6875 7.03125 L 7.90625 9.46875 A 1.0001 1.0001 0 1 0 8.90625 7.75 L 4.6875 5.3125 A 1.0001 1.0001 0 0 0 4 5.15625 z M 15.6875 6.0625 C 14.02016 6.0625 12.54938 6.97709 11.5625 8.34375 C 10.57562 9.71041 10 11.54343 10 13.53125 L 10 27 A 1.0000999 1.0000999 0 0 0 11 28 L 21 28 A 1.0000999 1.0000999 0 0 0 22 27 L 22 13.53125 C 22 11.54343 21.42438 9.71041 20.4375 8.34375 C 19.45062 6.97709 17.97984 6.0625 16.3125 6.0625 L 15.6875 6.0625 z M 15.6875 8.0625 L 16.3125 8.0625 C 17.23804 8.0625 18.10982 8.55816 18.8125 9.53125 C 19.51518 10.50434 20 11.93033 20 13.53125 L 20 26 L 12 26 L 12 13.53125 C 12 11.93033 12.48482 10.50434 13.1875 9.53125 C 13.89018 8.55816 14.76196 8.0625 15.6875 8.0625 z M 15.875 9.21875 C 15.19668 9.21875 14.56852 9.34797 14.03125 9.625 C 13.49398 9.90203 12.90625 10.4199 12.90625 11.21875 L 12.90625 14.25 C 12.90625 15.04885 13.49398 15.56672 14.03125 15.84375 C 14.56852 16.12078 15.19668 16.25 15.875 16.25 L 16.125 16.25 C 16.80332 16.25 17.43148 16.12078 17.96875 15.84375 C 18.50602 15.56672 19.0625 15.04885 19.0625 14.25 L 19.0625 11.21875 C 19.0625 10.4199 18.50602 9.90203 17.96875 9.625 C 17.43148 9.34797 16.80332 9.21875 16.125 9.21875 L 15.875 9.21875 z M 1.40625 9.90625 A 1.0001 1.0001 0 0 0 0.65625 10.375 A 1.0001 1.0001 0 0 0 0.5625 10.53125 A 1.0001 1.0001 0 0 0 1.28125 11.875 L 5.96875 13.15625 A 1.0004961 1.0004961 0 1 0 6.5 11.21875 L 1.8125 9.96875 A 1.0001 1.0001 0 0 0 1.40625 9.90625 z M 15.875 11.21875 L 16.125 11.21875 C 16.52658 11.21875 16.89511 11.28865 17.0625 11.375 L 17.0625 14.0625 C 16.89511 14.1488 16.52658 14.25 16.125 14.25 L 15.875 14.25 C 15.47342 14.25 15.10489 14.14881 14.9375 14.0625 C 14.9124 14.0496 14.91915 14.0695 14.90625 14.0625 L 14.90625 11.375 C 14.91915 11.366 14.9123 11.388 14.9375 11.375 C 15.10489 11.2887 15.47342 11.21875 15.875 11.21875 z M 13.78125 22.78125 A 1.0098393 1.0098393 0 1 0 14.0625 24.78125 L 17.9375 24.78125 A 1.0001001 1.0001001 0 1 0 17.9375 22.78125 L 14.0625 22.78125 A 1.0001001 1.0001001 0 0 0 13.875 22.78125 A 1.0043849 1.0043849 0 0 0 13.78125 22.78125 z "
       transform="translate(203.3125,672.125)"
       id="path3006-1" />
  </g>
</svg>
