<?xml version="1.0" encoding="UTF-8" standalone="no"?>
<!-- Generated by IcoMoon.io -->

<svg
   xmlns:dc="http://purl.org/dc/elements/1.1/"
   xmlns:cc="http://creativecommons.org/ns#"
   xmlns:rdf="http://www.w3.org/1999/02/22-rdf-syntax-ns#"
   xmlns:svg="http://www.w3.org/2000/svg"
   xmlns="http://www.w3.org/2000/svg"
   xmlns:sodipodi="http://sodipodi.sourceforge.net/DTD/sodipodi-0.dtd"
   xmlns:inkscape="http://www.inkscape.org/namespaces/inkscape"
   version="1.1"
   width="32"
   height="32"
   viewBox="0 0 32 32"
   id="svg2"
   inkscape:version="0.91 r13725"
   sodipodi:docname="shape-clubs.svg">
  <metadata
     id="metadata10">
    <rdf:RDF>
      <cc:Work
         rdf:about="">
        <dc:format>image/svg+xml</dc:format>
        <dc:type
           rdf:resource="http://purl.org/dc/dcmitype/StillImage" />
        <dc:title></dc:title>
      </cc:Work>
    </rdf:RDF>
  </metadata>
  <defs
     id="defs8" />
  <sodipodi:namedview
     pagecolor="#ffffff"
     bordercolor="#666666"
     borderopacity="1"
     objecttolerance="10"
     gridtolerance="10"
     guidetolerance="10"
     inkscape:pageopacity="0"
     inkscape:pageshadow="2"
     inkscape:window-width="1920"
     inkscape:window-height="1017"
     id="namedview6"
     showgrid="false"
     inkscape:zoom="5.6568542"
     inkscape:cx="8"
     inkscape:cy="8"
     inkscape:window-x="1912"
     inkscape:window-y="-8"
     inkscape:window-maximized="1"
     inkscape:current-layer="svg2" />
  <path
     d="m 23.51578,12.740829 c -1.613399,0 -3.064059,0.671958 -4.096494,1.769139 -0.437473,0.463721 -1.196925,1.014937 -2.017624,1.497907 0.384976,-1.473408 1.60465,-3.328292 2.449847,-4.141992 1.083182,-1.042934 1.74989,-2.511093 1.74989,-4.1419907 C 21.601399,4.5828386 19.100806,2.0332479 16.001749,2 12.902693,2.033248 10.4021,4.5810887 10.4021,7.7238923 c 0,1.6308977 0.664958,3.0990567 1.749891,4.1419907 0.846947,0.8137 2.064871,2.668584 2.449846,4.141992 -0.820699,-0.48472 -1.58015,-1.034186 -2.017624,-1.497907 -1.032435,-1.097181 -2.483094,-1.769139 -4.0964934,-1.769139 -3.1270546,0 -5.6626461,2.56009 -5.6626461,5.723892 0,3.163802 2.5338416,5.723892 5.6626461,5.723892 1.6151494,0 3.0640584,-0.692956 4.0964934,-1.790138 0.460222,-0.488219 1.270422,-1.097181 2.140117,-1.6029 -0.08225,4.038748 -2.010624,7.004812 -3.974002,8.17199 l 0,1.032435 10.499344,0 0,-1.032435 c -1.963378,-1.168927 -3.891757,-4.134992 -3.974001,-8.17199 0.871445,0.505719 1.681645,1.114681 2.140116,1.6029 1.032436,1.095432 2.483095,1.790138 4.096494,1.790138 3.127055,0 5.662646,-2.56184 5.662646,-5.723892 0,-3.162052 -2.533842,-5.723892 -5.662646,-5.723892 z"
     id="path4"
     inkscape:connector-curvature="0"
     style="fill:#000000" />
</svg>
