<?xml version="1.0" encoding="UTF-8" standalone="no"?>
<!-- Generated by IcoMoon.io -->

<svg
   xmlns:dc="http://purl.org/dc/elements/1.1/"
   xmlns:cc="http://creativecommons.org/ns#"
   xmlns:rdf="http://www.w3.org/1999/02/22-rdf-syntax-ns#"
   xmlns:svg="http://www.w3.org/2000/svg"
   xmlns="http://www.w3.org/2000/svg"
   xmlns:sodipodi="http://sodipodi.sourceforge.net/DTD/sodipodi-0.dtd"
   xmlns:inkscape="http://www.inkscape.org/namespaces/inkscape"
   version="1.1"
   width="32"
   height="32"
   viewBox="0 0 32 32"
   id="svg2"
   inkscape:version="0.91 r13725"
   sodipodi:docname="shape-flag.svg">
  <metadata
     id="metadata14">
    <rdf:RDF>
      <cc:Work
         rdf:about="">
        <dc:format>image/svg+xml</dc:format>
        <dc:type
           rdf:resource="http://purl.org/dc/dcmitype/StillImage" />
        <dc:title></dc:title>
      </cc:Work>
    </rdf:RDF>
  </metadata>
  <defs
     id="defs12" />
  <sodipodi:namedview
     pagecolor="#ffffff"
     bordercolor="#666666"
     borderopacity="1"
     objecttolerance="10"
     gridtolerance="10"
     guidetolerance="10"
     inkscape:pageopacity="0"
     inkscape:pageshadow="2"
     inkscape:window-width="1920"
     inkscape:window-height="1017"
     id="namedview10"
     showgrid="false"
     inkscape:zoom="14.75"
     inkscape:cx="8"
     inkscape:cy="8"
     inkscape:window-x="-8"
     inkscape:window-y="-8"
     inkscape:window-maximized="1"
     inkscape:current-layer="svg2" />
  <path
     style="fill:#000000"
     d="M 2,2 2,30 5.5,30 5.5,2 2,2 Z M 13.375,2 C 10.7395,2 8.4435,2.5467647 7.25,3.3535165 l 0,13.9999995 C 8.4435,16.546767 10.7395,16 13.375,16 c 2.09125,0 3.96725,0.344421 5.25,0.888671 l 0,-14 C 17.34225,2.3426728 15.46625,2 13.375,2 Z m 6.125,2.2285165 0,13.9999995 c 1.02375,0.806749 2.99075,1.353515 5.25,1.353515 2.25925,0 4.22625,-0.546765 5.25,-1.353515 L 30,4.2285165 c -1.02375,0.8067482 -2.99075,1.3535147 -5.25,1.3535147 -2.25925,0 -4.22625,-0.5467647 -5.25,-1.3535147 z"
     id="path4"
     inkscape:connector-curvature="0" />
</svg>
