<?xml version="1.0" encoding="UTF-8" standalone="no"?>
<!-- Generated by IcoMoon.io -->

<svg
   xmlns:dc="http://purl.org/dc/elements/1.1/"
   xmlns:cc="http://creativecommons.org/ns#"
   xmlns:rdf="http://www.w3.org/1999/02/22-rdf-syntax-ns#"
   xmlns:svg="http://www.w3.org/2000/svg"
   xmlns="http://www.w3.org/2000/svg"
   xmlns:sodipodi="http://sodipodi.sourceforge.net/DTD/sodipodi-0.dtd"
   xmlns:inkscape="http://www.inkscape.org/namespaces/inkscape"
   version="1.1"
   width="32"
   height="32"
   viewBox="0 0 32 32"
   id="svg2"
   inkscape:version="0.91 r13725"
   sodipodi:docname="shape-mug.svg">
  <metadata
     id="metadata10">
    <rdf:RDF>
      <cc:Work
         rdf:about="">
        <dc:format>image/svg+xml</dc:format>
        <dc:type
           rdf:resource="http://purl.org/dc/dcmitype/StillImage" />
        <dc:title></dc:title>
      </cc:Work>
    </rdf:RDF>
  </metadata>
  <defs
     id="defs8" />
  <sodipodi:namedview
     pagecolor="#ffffff"
     bordercolor="#666666"
     borderopacity="1"
     objecttolerance="10"
     gridtolerance="10"
     guidetolerance="10"
     inkscape:pageopacity="0"
     inkscape:pageshadow="2"
     inkscape:window-width="1920"
     inkscape:window-height="1017"
     id="namedview6"
     showgrid="false"
     inkscape:zoom="14.75"
     inkscape:cx="8"
     inkscape:cy="8"
     inkscape:window-x="-8"
     inkscape:window-y="-8"
     inkscape:window-maximized="1"
     inkscape:current-layer="svg2" />
  <path
     d="M 28.25,9.875 23,9.875 23,7.25 C 23,4.83325 18.2995,2.875 12.5,2.875 6.7005,2.875 2,4.83325 2,7.25 l 0,17.5 c 0,2.41675 4.7005,4.375 10.5,4.375 5.7995,0 10.5,-1.95825 10.5,-4.375 l 0,-2.625 5.25,0 c 0.966,0 1.75,-0.784 1.75,-1.75 l 0,-8.75 c 0,-0.966 -0.784,-1.75 -1.75,-1.75 z M 6.81425,8.18975 C 5.80275,7.85725 5.19025,7.50025 4.86125,7.25 5.19025,6.99975 5.80275,6.64275 6.81425,6.31025 8.398,5.78875 10.4175,5.5 12.5,5.5 c 2.0825,0 4.102,0.287 5.68575,0.81025 1.0115,0.3325 1.624,0.6895 1.953,0.93975 -0.329,0.25025 -0.9415,0.60725 -1.953,0.93975 C 16.602,8.71125 14.5825,9 12.5,9 10.4175,9 8.398,8.713 6.81425,8.18975 Z M 26.5,18.625 l -3.5,0 0,-5.25 3.5,0 0,5.25 z"
     id="path4"
     inkscape:connector-curvature="0"
     style="fill:#000000" />
</svg>
