<?xml version="1.0" encoding="UTF-8" standalone="no"?>
<!-- Generated by IcoMoon.io -->

<svg
   xmlns:dc="http://purl.org/dc/elements/1.1/"
   xmlns:cc="http://creativecommons.org/ns#"
   xmlns:rdf="http://www.w3.org/1999/02/22-rdf-syntax-ns#"
   xmlns:svg="http://www.w3.org/2000/svg"
   xmlns="http://www.w3.org/2000/svg"
   xmlns:sodipodi="http://sodipodi.sourceforge.net/DTD/sodipodi-0.dtd"
   xmlns:inkscape="http://www.inkscape.org/namespaces/inkscape"
   version="1.1"
   width="32"
   height="32"
   viewBox="0 0 32 32"
   id="svg2"
   inkscape:version="0.91 r13725"
   sodipodi:docname="shape-cloud.svg">
  <metadata
     id="metadata10">
    <rdf:RDF>
      <cc:Work
         rdf:about="">
        <dc:format>image/svg+xml</dc:format>
        <dc:type
           rdf:resource="http://purl.org/dc/dcmitype/StillImage" />
        <dc:title></dc:title>
      </cc:Work>
    </rdf:RDF>
  </metadata>
  <defs
     id="defs8" />
  <sodipodi:namedview
     pagecolor="#ffffff"
     bordercolor="#666666"
     borderopacity="1"
     objecttolerance="10"
     gridtolerance="10"
     guidetolerance="10"
     inkscape:pageopacity="0"
     inkscape:pageshadow="2"
     inkscape:window-width="1920"
     inkscape:window-height="1017"
     id="namedview6"
     showgrid="false"
     inkscape:zoom="14.75"
     inkscape:cx="8"
     inkscape:cy="8"
     inkscape:window-x="-8"
     inkscape:window-y="-8"
     inkscape:window-maximized="1"
     inkscape:current-layer="svg2" />
  <path
     d="m 30,19.104306 c 0,-2.24511 -1.550403,-4.126242 -3.636273,-4.63371 -0.08924,-3.51903 -2.966064,-6.345104 -6.504343,-6.345104 -2.071871,0 -3.918005,0.97119 -5.109681,2.481345 -0.668458,-0.864446 -1.714893,-1.420911 -2.890819,-1.420911 -2.0176242,0 -3.6537719,1.637898 -3.6537719,3.655522 0,0.176739 0.012249,0.348228 0.036748,0.517967 -0.3062309,-0.056 -0.6229611,-0.08574 -0.944941,-0.08574 -2.9258171,0 -5.2969189,2.372851 -5.2969189,5.300418 -3e-7,2.927563 2.3711015,5.300415 5.2969186,5.300415 l 17.9433782,0 c 2.628336,-0.0053 4.757953,-2.138366 4.757953,-4.770202 z"
     id="path4"
     inkscape:connector-curvature="0"
     style="fill:#000000" />
</svg>
