<?xml version="1.0" encoding="UTF-8" standalone="no"?>
<!-- Generated by IcoMoon.io -->

<svg
   xmlns:dc="http://purl.org/dc/elements/1.1/"
   xmlns:cc="http://creativecommons.org/ns#"
   xmlns:rdf="http://www.w3.org/1999/02/22-rdf-syntax-ns#"
   xmlns:svg="http://www.w3.org/2000/svg"
   xmlns="http://www.w3.org/2000/svg"
   xmlns:sodipodi="http://sodipodi.sourceforge.net/DTD/sodipodi-0.dtd"
   xmlns:inkscape="http://www.inkscape.org/namespaces/inkscape"
   version="1.1"
   width="32"
   height="32"
   viewBox="0 0 32 32"
   id="svg2"
   inkscape:version="0.91 r13725"
   sodipodi:docname="shape-truck.svg">
  <metadata
     id="metadata10">
    <rdf:RDF>
      <cc:Work
         rdf:about="">
        <dc:format>image/svg+xml</dc:format>
        <dc:type
           rdf:resource="http://purl.org/dc/dcmitype/StillImage" />
        <dc:title></dc:title>
      </cc:Work>
    </rdf:RDF>
  </metadata>
  <defs
     id="defs8" />
  <sodipodi:namedview
     pagecolor="#ffffff"
     bordercolor="#666666"
     borderopacity="1"
     objecttolerance="10"
     gridtolerance="10"
     guidetolerance="10"
     inkscape:pageopacity="0"
     inkscape:pageshadow="2"
     inkscape:window-width="1920"
     inkscape:window-height="1017"
     id="namedview6"
     showgrid="false"
     inkscape:zoom="14.75"
     inkscape:cx="8"
     inkscape:cy="8"
     inkscape:window-x="-8"
     inkscape:window-y="-8"
     inkscape:window-maximized="1"
     inkscape:current-layer="svg2" />
  <path
     d="m 30,16.875 -3.5,-7 -5.25,0 0,-3.5 c 0,-0.9625 -0.7875,-1.75 -1.75,-1.75 l -15.75,0 C 2.7875,4.625 2,5.4125 2,6.375 l 0,14 1.75,1.75 2.219,0 C 5.6715,22.6395 5.5,23.238 5.5,23.875 c 0,1.93375 1.56625,3.5 3.5,3.5 1.93375,0 3.5,-1.56625 3.5,-3.5 0,-0.637 -0.1715,-1.2355 -0.469,-1.75 l 9.688,0 c -0.2975,0.5145 -0.469,1.113 -0.469,1.75 0,1.93375 1.56625,3.5 3.5,3.5 1.93375,0 3.5,-1.56625 3.5,-3.5 0,-0.637 -0.1715,-1.2355 -0.469,-1.75 l 2.219,0 0,-5.25 z m -8.75,0 0,-5.25 3.62775,0 2.625,5.25 -6.25275,0 z"
     id="path4"
     inkscape:connector-curvature="0"
     style="fill:#000000" />
</svg>
