<?xml version="1.0" encoding="UTF-8" standalone="no"?>
<!-- Created with Inkscape (http://www.inkscape.org/) -->

<svg
   xmlns:dc="http://purl.org/dc/elements/1.1/"
   xmlns:cc="http://creativecommons.org/ns#"
   xmlns:rdf="http://www.w3.org/1999/02/22-rdf-syntax-ns#"
   xmlns:svg="http://www.w3.org/2000/svg"
   xmlns="http://www.w3.org/2000/svg"
   xmlns:sodipodi="http://sodipodi.sourceforge.net/DTD/sodipodi-0.dtd"
   xmlns:inkscape="http://www.inkscape.org/namespaces/inkscape"
   width="32"
   height="32"
   id="svg4271"
   version="1.1"
   inkscape:version="0.91 r13725"
   sodipodi:docname="pattern-spiral.svg">
  <defs
     id="defs4273" />
  <sodipodi:namedview
     id="base"
     pagecolor="#ffffff"
     bordercolor="#666666"
     borderopacity="1.0"
     inkscape:pageopacity="0.0"
     inkscape:pageshadow="2"
     inkscape:zoom="11.2"
     inkscape:cx="-3.9420943"
     inkscape:cy="11.068905"
     inkscape:document-units="px"
     inkscape:current-layer="layer1"
     showgrid="false"
     fit-margin-top="0"
     fit-margin-left="0"
     fit-margin-right="0"
     fit-margin-bottom="0"
     inkscape:window-width="1920"
     inkscape:window-height="1017"
     inkscape:window-x="-8"
     inkscape:window-y="-8"
     inkscape:window-maximized="1" />
  <metadata
     id="metadata4276">
    <rdf:RDF>
      <cc:Work
         rdf:about="">
        <dc:format>image/svg+xml</dc:format>
        <dc:type
           rdf:resource="http://purl.org/dc/dcmitype/StillImage" />
        <dc:title></dc:title>
      </cc:Work>
    </rdf:RDF>
  </metadata>
  <g
     inkscape:label="Layer 1"
     inkscape:groupmode="layer"
     id="layer1"
     transform="translate(-281.4375,-566.48186)">
    <path
       style="color:#000000;font-style:normal;font-variant:normal;font-weight:normal;font-stretch:normal;font-size:medium;line-height:normal;font-family:sans-serif;text-indent:0;text-align:start;text-decoration:none;text-decoration-line:none;text-decoration-style:solid;text-decoration-color:#000000;letter-spacing:normal;word-spacing:normal;text-transform:none;direction:ltr;block-progression:tb;writing-mode:lr-tb;baseline-shift:baseline;text-anchor:start;white-space:normal;clip-rule:nonzero;display:inline;overflow:visible;visibility:visible;opacity:1;isolation:auto;mix-blend-mode:normal;color-interpolation:sRGB;color-interpolation-filters:linearRGB;solid-color:#000000;solid-opacity:1;fill:#000000;fill-opacity:1;fill-rule:evenodd;stroke:none;stroke-width:2;stroke-linecap:butt;stroke-linejoin:miter;stroke-miterlimit:4;stroke-dasharray:none;stroke-dashoffset:0;stroke-opacity:1;color-rendering:auto;image-rendering:auto;shape-rendering:auto;text-rendering:auto;enable-background:accumulate"
       d="m 297.97492,568.51849 c -6.66157,-0.51422 -12.92326,4.44297 -13.36897,11.25345 -0.38941,5.95016 4.08102,11.53845 10.19568,11.83591 5.19144,0.25255 10.06693,-3.70628 10.18877,-9.08433 0.099,-4.36886 -3.3229,-8.48962 -7.9125,-8.38435 -1.72588,0.0396 -3.38357,0.76159 -4.59056,1.94269 -1.207,1.18111 -1.96084,2.8738 -1.73011,4.7392 0.14725,1.19046 0.78643,2.34899 1.75085,3.15429 0.96442,0.80529 2.42865,1.20367 3.76267,0.49258 l -0.83308,-1.56244 c -0.67913,0.362 -1.20971,0.19928 -1.79405,-0.28864 -0.58435,-0.48793 -1.04713,-1.35466 -1.12863,-2.01357 -0.15861,-1.28233 0.33202,-2.39896 1.20986,-3.25798 0.87784,-0.85901 2.14544,-1.40763 3.39453,-1.43627 3.49687,-0.0802 6.17862,3.15519 6.10116,6.57473 -0.0978,4.31914 -4.09453,7.56221 -8.33422,7.35596 -5.07469,-0.24687 -8.84264,-4.95641 -8.5157,-9.95198 0.37844,-5.7825 5.76323,-10.04665 11.46776,-9.60631 6.45342,0.49817 11.18746,6.52374 10.63987,12.9006 -0.5054,5.88561 -5.25294,10.69633 -11.07196,11.54899 l 0.2558,1.75084 c 6.62391,-0.9706 12.00205,-6.4075 12.58083,-13.14774 0.62995,-7.33593 -4.79484,-14.23875 -12.268,-14.81563 z"
       id="path4154"
       inkscape:connector-curvature="0" />
  </g>
</svg>
