<?xml version="1.0" encoding="UTF-8" standalone="no"?>
<!-- Generated by IcoMoon.io -->

<svg
   xmlns:dc="http://purl.org/dc/elements/1.1/"
   xmlns:cc="http://creativecommons.org/ns#"
   xmlns:rdf="http://www.w3.org/1999/02/22-rdf-syntax-ns#"
   xmlns:svg="http://www.w3.org/2000/svg"
   xmlns="http://www.w3.org/2000/svg"
   xmlns:sodipodi="http://sodipodi.sourceforge.net/DTD/sodipodi-0.dtd"
   xmlns:inkscape="http://www.inkscape.org/namespaces/inkscape"
   version="1.1"
   width="32"
   height="32"
   viewBox="0 0 32 32"
   id="svg2"
   inkscape:version="0.91 r13725"
   sodipodi:docname="shape-power-cord.svg">
  <metadata
     id="metadata12">
    <rdf:RDF>
      <cc:Work
         rdf:about="">
        <dc:format>image/svg+xml</dc:format>
        <dc:type
           rdf:resource="http://purl.org/dc/dcmitype/StillImage" />
        <dc:title></dc:title>
      </cc:Work>
    </rdf:RDF>
  </metadata>
  <defs
     id="defs10" />
  <sodipodi:namedview
     pagecolor="#ffffff"
     bordercolor="#666666"
     borderopacity="1"
     objecttolerance="10"
     gridtolerance="10"
     guidetolerance="10"
     inkscape:pageopacity="0"
     inkscape:pageshadow="2"
     inkscape:window-width="1920"
     inkscape:window-height="1017"
     id="namedview8"
     showgrid="false"
     inkscape:zoom="14.75"
     inkscape:cx="8"
     inkscape:cy="8"
     inkscape:window-x="-8"
     inkscape:window-y="-8"
     inkscape:window-maximized="1"
     inkscape:current-layer="svg2" />
  <path
     style="fill:#000000"
     d="M 21.749271,2 16.528675,7.2205955 13.177272,3.8691921 10.647291,6.3991734 25.600827,21.35271 28.130808,18.822729 24.779405,15.471325 30,10.25073 27.356847,7.6075762 22.136251,12.828172 19.171829,9.863749 24.392424,4.6431535 21.749271,2 Z M 10.322373,8.717409 c -2.7981805,3.3552 -5.9766248,8.542266 -3.7821932,13.004027 l -3.8588595,3.858859 c -0.9084273,0.908428 -0.9084273,2.399168 0,3.307596 l 0.4307904,0.430788 c 0.9084274,0.908428 2.3991664,0.908428 3.3075937,0 L 10.278564,25.45982 c 4.461761,2.194432 9.646958,-0.982142 13.004027,-3.782192 L 10.322373,8.717409 Z"
     id="path4"
     inkscape:connector-curvature="0" />
</svg>
