<?xml version="1.0" encoding="UTF-8" standalone="no"?>
<!-- Created with Inkscape (http://www.inkscape.org/) -->

<svg
   xmlns:dc="http://purl.org/dc/elements/1.1/"
   xmlns:cc="http://creativecommons.org/ns#"
   xmlns:rdf="http://www.w3.org/1999/02/22-rdf-syntax-ns#"
   xmlns:svg="http://www.w3.org/2000/svg"
   xmlns="http://www.w3.org/2000/svg"
   xmlns:sodipodi="http://sodipodi.sourceforge.net/DTD/sodipodi-0.dtd"
   xmlns:inkscape="http://www.inkscape.org/namespaces/inkscape"
   width="32"
   height="32"
   id="svg3608"
   version="1.1"
   inkscape:version="0.91 r13725"
   sodipodi:docname="smile-happy-white.svg">
  <defs
     id="defs3610">
    <linearGradient
       y2="276.55899"
       x2="434.30521"
       y1="290.0405"
       x1="423.79391"
       gradientUnits="userSpaceOnUse"
       id="SVGID_3_">
      <stop
         id="stop26"
         style="stop-color:#6299BE"
         offset="0" />
      <stop
         id="stop28"
         style="stop-color:#3B80AE"
         offset="1" />
    </linearGradient>
    <linearGradient
       y2="300.50229"
       x2="388.9137"
       y1="293.1777"
       x1="420.64011"
       gradientUnits="userSpaceOnUse"
       id="SVGID_2_">
      <stop
         id="stop17"
         style="stop-color:#89B5D0"
         offset="0" />
      <stop
         id="stop19"
         style="stop-color:#6BA2C4"
         offset="1" />
    </linearGradient>
    <linearGradient
       y2="322.70029"
       x2="435.91449"
       y1="294.87839"
       x1="423.02151"
       gradientUnits="userSpaceOnUse"
       id="SVGID_1_">
      <stop
         id="stop8"
         style="stop-color:#7690BA"
         offset="0" />
      <stop
         id="stop10"
         style="stop-color:#5474A9"
         offset="1" />
    </linearGradient>
    <linearGradient
       y2="276.55899"
       x2="434.30521"
       y1="290.0405"
       x1="423.79391"
       gradientUnits="userSpaceOnUse"
       id="SVGID_3_-8">
      <stop
         id="stop26-8"
         style="stop-color:#6299BE"
         offset="0" />
      <stop
         id="stop28-2"
         style="stop-color:#3B80AE"
         offset="1" />
    </linearGradient>
    <linearGradient
       y2="300.50229"
       x2="388.9137"
       y1="293.1777"
       x1="420.64011"
       gradientUnits="userSpaceOnUse"
       id="SVGID_2_-0">
      <stop
         id="stop17-9"
         style="stop-color:#89B5D0"
         offset="0" />
      <stop
         id="stop19-4"
         style="stop-color:#6BA2C4"
         offset="1" />
    </linearGradient>
    <linearGradient
       y2="322.70029"
       x2="435.91449"
       y1="294.87839"
       x1="423.02151"
       gradientUnits="userSpaceOnUse"
       id="SVGID_1_-1">
      <stop
         id="stop8-7"
         style="stop-color:#7690BA"
         offset="0" />
      <stop
         id="stop10-4"
         style="stop-color:#5474A9"
         offset="1" />
    </linearGradient>
  </defs>
  <sodipodi:namedview
     id="base"
     pagecolor="#ffffff"
     bordercolor="#666666"
     borderopacity="1.0"
     inkscape:pageopacity="0.0"
     inkscape:pageshadow="2"
     inkscape:zoom="7.919596"
     inkscape:cx="-19.180242"
     inkscape:cy="16.585966"
     inkscape:document-units="px"
     inkscape:current-layer="layer1"
     showgrid="false"
     inkscape:window-width="1920"
     inkscape:window-height="1027"
     inkscape:window-x="-8"
     inkscape:window-y="-8"
     inkscape:window-maximized="1"
     fit-margin-top="0"
     fit-margin-left="0"
     fit-margin-right="0"
     fit-margin-bottom="0" />
  <metadata
     id="metadata3613">
    <rdf:RDF>
      <cc:Work
         rdf:about="">
        <dc:format>image/svg+xml</dc:format>
        <dc:type
           rdf:resource="http://purl.org/dc/dcmitype/StillImage" />
        <dc:title />
      </cc:Work>
    </rdf:RDF>
  </metadata>
  <g
     inkscape:label="Layer 1"
     inkscape:groupmode="layer"
     id="layer1"
     transform="translate(-203.3125,-672.125)">
    <path
       style="opacity:1;fill:#000000;fill-opacity:1;stroke:none;stroke-width:1.99999976;stroke-linecap:round;stroke-linejoin:round;stroke-miterlimit:4;stroke-dasharray:none"
       d="M 16 2 C 8.27986 2 2 8.27986 2 16 C 2 23.72014 8.27986 30 16 30 C 23.72014 30 30 23.72014 30 16 C 30 8.27986 23.72014 2 16 2 z M 16 4 C 22.63926 4 28 9.36074 28 16 C 28 22.63926 22.63926 28 16 28 C 9.36074 28 4 22.63926 4 16 C 4 9.36074 9.36074 4 16 4 z M 11.318359 8.71875 C 10.366529 8.71875 9.7407794 9.37918 9.4121094 10 C 9.0834394 10.62082 8.9433594 11.32217 8.9433594 12.09375 C 8.9433594 12.86533 9.0834394 13.59793 9.4121094 14.21875 C 9.7407794 14.83957 10.366529 15.5 11.318359 15.5 C 12.270189 15.5 12.927189 14.83957 13.255859 14.21875 C 13.584529 13.59793 13.724609 12.86533 13.724609 12.09375 C 13.724609 11.32217 13.584529 10.62082 13.255859 10 C 12.927189 9.37918 12.270189 8.71875 11.318359 8.71875 z M 20.662109 8.71875 C 19.710279 8.71875 19.084529 9.37918 18.755859 10 C 18.427189 10.62082 18.287109 11.32217 18.287109 12.09375 C 18.287109 12.86533 18.427189 13.59793 18.755859 14.21875 C 19.084529 14.83957 19.710279 15.5 20.662109 15.5 C 21.613939 15.5 22.270939 14.83957 22.599609 14.21875 C 22.928279 13.59793 23.068359 12.86533 23.068359 12.09375 C 23.068359 11.32217 22.928279 10.62082 22.599609 10 C 22.270939 9.37918 21.613939 8.71875 20.662109 8.71875 z M 7.9746094 17.90625 C 7.3337394 17.98965 6.9163594 18.80697 7.2246094 19.375 C 7.2246094 19.375 10.156329 25.78125 16.005859 25.78125 C 21.855399 25.78125 24.787109 19.375 24.787109 19.375 C 25.016179 18.90049 24.793109 18.26032 24.318359 18.03125 C 23.843849 17.80218 23.203679 18.02525 22.974609 18.5 C 22.974609 18.5 20.323999 23.78125 16.005859 23.78125 C 11.687729 23.78125 9.0371094 18.5 9.0371094 18.5 C 8.8740394 18.13168 8.4705694 17.88439 8.0683594 17.90625 C 8.0371594 17.90525 8.0058094 17.90525 7.9746094 17.90625 z "
       transform="translate(203.3125,672.125)"
       id="path3352" />
  </g>
</svg>
