<?xml version="1.0" encoding="UTF-8" standalone="no"?>
<!-- Created with Inkscape (http://www.inkscape.org/) -->

<svg
   xmlns:dc="http://purl.org/dc/elements/1.1/"
   xmlns:cc="http://creativecommons.org/ns#"
   xmlns:rdf="http://www.w3.org/1999/02/22-rdf-syntax-ns#"
   xmlns:svg="http://www.w3.org/2000/svg"
   xmlns="http://www.w3.org/2000/svg"
   xmlns:sodipodi="http://sodipodi.sourceforge.net/DTD/sodipodi-0.dtd"
   xmlns:inkscape="http://www.inkscape.org/namespaces/inkscape"
   width="32"
   height="32"
   id="svg3608"
   version="1.1"
   inkscape:version="0.48.5 r10040"
   sodipodi:docname="smile-neutral.svg">
  <defs
     id="defs3610">
    <linearGradient
       y2="276.55899"
       x2="434.30521"
       y1="290.0405"
       x1="423.79391"
       gradientUnits="userSpaceOnUse"
       id="SVGID_3_">
      <stop
         id="stop26"
         style="stop-color:#6299BE"
         offset="0" />
      <stop
         id="stop28"
         style="stop-color:#3B80AE"
         offset="1" />
    </linearGradient>
    <linearGradient
       y2="300.50229"
       x2="388.9137"
       y1="293.1777"
       x1="420.64011"
       gradientUnits="userSpaceOnUse"
       id="SVGID_2_">
      <stop
         id="stop17"
         style="stop-color:#89B5D0"
         offset="0" />
      <stop
         id="stop19"
         style="stop-color:#6BA2C4"
         offset="1" />
    </linearGradient>
    <linearGradient
       y2="322.70029"
       x2="435.91449"
       y1="294.87839"
       x1="423.02151"
       gradientUnits="userSpaceOnUse"
       id="SVGID_1_">
      <stop
         id="stop8"
         style="stop-color:#7690BA"
         offset="0" />
      <stop
         id="stop10"
         style="stop-color:#5474A9"
         offset="1" />
    </linearGradient>
    <linearGradient
       y2="276.55899"
       x2="434.30521"
       y1="290.0405"
       x1="423.79391"
       gradientUnits="userSpaceOnUse"
       id="SVGID_3_-8">
      <stop
         id="stop26-8"
         style="stop-color:#6299BE"
         offset="0" />
      <stop
         id="stop28-2"
         style="stop-color:#3B80AE"
         offset="1" />
    </linearGradient>
    <linearGradient
       y2="300.50229"
       x2="388.9137"
       y1="293.1777"
       x1="420.64011"
       gradientUnits="userSpaceOnUse"
       id="SVGID_2_-0">
      <stop
         id="stop17-9"
         style="stop-color:#89B5D0"
         offset="0" />
      <stop
         id="stop19-4"
         style="stop-color:#6BA2C4"
         offset="1" />
    </linearGradient>
    <linearGradient
       y2="322.70029"
       x2="435.91449"
       y1="294.87839"
       x1="423.02151"
       gradientUnits="userSpaceOnUse"
       id="SVGID_1_-1">
      <stop
         id="stop8-7"
         style="stop-color:#7690BA"
         offset="0" />
      <stop
         id="stop10-4"
         style="stop-color:#5474A9"
         offset="1" />
    </linearGradient>
  </defs>
  <sodipodi:namedview
     id="base"
     pagecolor="#ffffff"
     bordercolor="#666666"
     borderopacity="1.0"
     inkscape:pageopacity="0.0"
     inkscape:pageshadow="2"
     inkscape:zoom="11.2"
     inkscape:cx="-9.1175973"
     inkscape:cy="16.585966"
     inkscape:document-units="px"
     inkscape:current-layer="layer1"
     showgrid="false"
     inkscape:window-width="1600"
     inkscape:window-height="1147"
     inkscape:window-x="-8"
     inkscape:window-y="-8"
     inkscape:window-maximized="1"
     fit-margin-top="0"
     fit-margin-left="0"
     fit-margin-right="0"
     fit-margin-bottom="0" />
  <metadata
     id="metadata3613">
    <rdf:RDF>
      <cc:Work
         rdf:about="">
        <dc:format>image/svg+xml</dc:format>
        <dc:type
           rdf:resource="http://purl.org/dc/dcmitype/StillImage" />
        <dc:title />
      </cc:Work>
    </rdf:RDF>
  </metadata>
  <g
     inkscape:label="Layer 1"
     inkscape:groupmode="layer"
     id="layer1"
     transform="translate(-203.3125,-672.125)">
    <path
       style="fill:#000000;stroke:none"
       d="M 16 2 C 8.2680135 2 2 8.2680135 2 16 C 2 23.731987 8.2680135 30 16 30 C 23.731987 30 30 23.731987 30 16 C 30 8.2680135 23.731987 2 16 2 z M 11.375 9.4375 C 12.33326 9.4375 12.94657 10.09762 13.28125 10.71875 C 13.61593 11.33988 13.78125 12.0652 13.78125 12.84375 C 13.78125 13.6223 13.62057 14.32033 13.28125 14.9375 C 12.94193 15.55467 12.31251 16.21875 11.375 16.21875 C 10.43749 16.21875 9.79629 15.55619 9.46875 14.9375 C 9.14121 14.31881 9 13.61132 9 12.84375 C 9 12.07618 9.14578 11.37249 9.46875 10.75 C 9.79172 10.12751 10.41674 9.4375 11.375 9.4375 z M 20.75 9.4375 C 21.70826 9.4375 22.33328 10.12751 22.65625 10.75 C 22.97922 11.37249 23.125 12.07618 23.125 12.84375 C 23.125 13.61132 22.98379 14.31881 22.65625 14.9375 C 22.32871 15.55619 21.68751 16.21875 20.75 16.21875 C 19.81249 16.21875 19.18307 15.55467 18.84375 14.9375 C 18.50443 14.32033 18.34375 13.6223 18.34375 12.84375 C 18.34375 12.0652 18.50907 11.33988 18.84375 10.71875 C 19.17843 10.09762 19.79174 9.4375 20.75 9.4375 z M 7.1875 19.6875 C 7.26012 19.6795 7.33365 19.6795 7.40625 19.6875 L 24.71875 19.6875 C 25.24706 19.68003 25.71875 20.15913 25.71875 20.6875 C 25.71875 21.21586 25.24706 21.6955 24.71875 21.6875 L 7.40625 21.6875 C 6.88257 21.74492 6.33855 21.30493 6.28125 20.78125 C 6.22397 20.25756 6.66379 19.7446 7.1875 19.6875 z "
       transform="translate(203.3125,672.125)"
       id="path3002" />
  </g>
</svg>
