<?xml version="1.0" encoding="UTF-8" standalone="no"?>
<svg
   xmlns:dc="http://purl.org/dc/elements/1.1/"
   xmlns:cc="http://creativecommons.org/ns#"
   xmlns:rdf="http://www.w3.org/1999/02/22-rdf-syntax-ns#"
   xmlns:svg="http://www.w3.org/2000/svg"
   xmlns="http://www.w3.org/2000/svg"
   xmlns:xlink="http://www.w3.org/1999/xlink"
   xmlns:sodipodi="http://sodipodi.sourceforge.net/DTD/sodipodi-0.dtd"
   xmlns:inkscape="http://www.inkscape.org/namespaces/inkscape"
   version="1.1"
   id="Calque_1"
   x="0px"
   y="0px"
   width="32px"
   height="32px"
   viewBox="0 0 32 32"
   enable-background="new 0 0 32 32"
   xml:space="preserve"
   inkscape:version="1.0.1 (3bc2e813f5, 2020-09-07)"
   sodipodi:docname="roof - Copy.svg"><metadata
     id="metadata19"><rdf:RDF><cc:Work
         rdf:about=""><dc:format>image/svg+xml</dc:format><dc:type
           rdf:resource="http://purl.org/dc/dcmitype/StillImage" /></cc:Work></rdf:RDF></metadata><defs
     id="defs17"><defs
       id="defs5"><rect
         id="SVGID_1_"
         width="32"
         height="32"
         x="0"
         y="0" /></defs><clipPath
       id="SVGID_2_"><use
         xlink:href="#SVGID_1_"
         overflow="visible"
         id="use9"
         x="0"
         y="0"
         width="100%"
         height="100%" /></clipPath></defs><sodipodi:namedview
     pagecolor="#ffffff"
     bordercolor="#666666"
     borderopacity="1"
     objecttolerance="10"
     gridtolerance="10"
     guidetolerance="10"
     inkscape:pageopacity="0"
     inkscape:pageshadow="2"
     inkscape:window-width="1920"
     inkscape:window-height="1027"
     id="namedview15"
     showgrid="false"
     inkscape:zoom="3.6875"
     inkscape:cx="58.307785"
     inkscape:cy="15.921701"
     inkscape:window-x="3832"
     inkscape:window-y="-8"
     inkscape:window-maximized="1"
     inkscape:current-layer="Calque_1"
     inkscape:document-rotation="0" /><path
     id="path11"
     clip-path="url(#SVGID_2_)"
     d="m 24.853516,2.1894531 c -3.444142,0 -6.234375,2.2677352 -6.234375,5.0664063 0,1.2081286 0.521546,2.3140331 1.388671,3.1835936 -0.304466,1.227616 -1.323758,2.319852 -1.335937,2.332031 -0.05359,0.05602 -0.06682,0.139819 -0.03516,0.212891 0.03166,0.07307 0.09979,0.117187 0.177734,0.117187 1.614899,0 2.824634,-0.774547 3.423828,-1.251953 0.796487,0.299597 1.679909,0.472657 2.615235,0.472657 3.444144,0 6.236328,-2.267736 6.236328,-5.0664066 0,-2.7986711 -2.792184,-5.0664063 -6.236328,-5.0664063 z M 11.867188,5.7617188 c -3.291002,0 -5.960938,2.6699376 -5.960938,5.9609372 0,3.289 2.668937,5.960938 5.960938,5.960938 3.291,0 5.958984,-2.671938 5.958984,-5.960938 0,-3.2909995 -2.667985,-5.9609374 -5.958984,-5.9609372 z m -0.01563,7.3730472 a 1.5340623,1.5340623 0 0 1 0.01367,0 1.5340623,1.5340623 0 0 1 1.533204,1.535156 1.5340623,1.5340623 0 0 1 -1.533204,1.533203 1.5340623,1.5340623 0 0 1 -1.533203,-1.533203 1.5340623,1.5340623 0 0 1 1.519531,-1.535156 z m -4.8437495,3.554687 c -4.0669995,0 -5.0761719,4.718781 -5.0761719,8.800781 0,2.266 1.4906408,4.113282 3.3066406,4.113282 H 18.494141 c 1.816,0 3.305687,-1.847282 3.304687,-4.113282 0,-4.082 -1.009172,-8.800781 -5.076172,-8.800781 -1.256,1.225999 -2.961469,1.986328 -4.855468,1.986328 -1.894002,0 -3.6023755,-0.759328 -4.8593755,-1.986328 z"
     transform="translate(-0.5107423,0.10351545)" /></svg>
