<?xml version="1.0" encoding="UTF-8" standalone="no"?>
<!-- Created with Inkscape (http://www.inkscape.org/) -->

<svg
   xmlns:dc="http://purl.org/dc/elements/1.1/"
   xmlns:cc="http://creativecommons.org/ns#"
   xmlns:rdf="http://www.w3.org/1999/02/22-rdf-syntax-ns#"
   xmlns:svg="http://www.w3.org/2000/svg"
   xmlns="http://www.w3.org/2000/svg"
   xmlns:sodipodi="http://sodipodi.sourceforge.net/DTD/sodipodi-0.dtd"
   xmlns:inkscape="http://www.inkscape.org/namespaces/inkscape"
   width="32"
   height="32"
   id="svg3284"
   version="1.1"
   inkscape:version="0.48.5 r10040"
   sodipodi:docname="studentf.svg">
  <defs
     id="defs3286" />
  <sodipodi:namedview
     id="base"
     pagecolor="#ffffff"
     bordercolor="#666666"
     borderopacity="1.0"
     inkscape:pageopacity="0.0"
     inkscape:pageshadow="2"
     inkscape:zoom="7.9195959"
     inkscape:cx="-21.989236"
     inkscape:cy="8.5089255"
     inkscape:document-units="px"
     inkscape:current-layer="layer1"
     showgrid="false"
     fit-margin-top="0"
     fit-margin-left="0"
     fit-margin-right="0"
     fit-margin-bottom="0"
     inkscape:window-width="1600"
     inkscape:window-height="1147"
     inkscape:window-x="-8"
     inkscape:window-y="-8"
     inkscape:window-maximized="1" />
  <metadata
     id="metadata3289">
    <rdf:RDF>
      <cc:Work
         rdf:about="">
        <dc:format>image/svg+xml</dc:format>
        <dc:type
           rdf:resource="http://purl.org/dc/dcmitype/StillImage" />
        <dc:title />
      </cc:Work>
    </rdf:RDF>
  </metadata>
  <g
     inkscape:label="Layer 1"
     inkscape:groupmode="layer"
     id="layer1"
     transform="translate(-298.17172,-580.29968)">
    <path
       style="color:#000000;fill:#000000;fill-opacity:1;fill-rule:nonzero;stroke:none;stroke-width:0.48866057;marker:none;visibility:visible;display:inline;overflow:visible;enable-background:accumulate"
       clip-path="none"
       d="m 314.16948,582.29968 c -3.77395,0 -7.4708,4.68678 -6.28664,9.10555 0.26838,1.00109 0.54205,1.92314 0.8456,2.75466 -0.18678,0.11958 -0.36676,0.25975 -0.53391,0.4273 -0.49585,0.49585 -0.78513,1.10068 -0.84565,1.66968 -0.24,0.10451 -0.46866,0.2598 -0.6748,0.46563 -0.29631,0.29631 -0.48815,0.64997 -0.57206,0.99936 -0.2295,0.13601 -0.45865,0.30902 -0.67072,0.52109 -0.81954,0.81954 -1.09596,1.87234 -0.61935,2.34896 0.47662,0.47662 1.52942,0.19611 2.34897,-0.62343 0.21232,-0.21221 0.38088,-0.44162 0.517,-0.67072 0.34939,-0.0839 0.70305,-0.27575 0.99936,-0.57206 0.20495,-0.20495 0.35665,-0.43627 0.46115,-0.6748 0.47937,-0.0485 0.98675,-0.25915 1.43075,-0.61935 0.25696,0.26709 0.53699,0.50017 0.84156,0.69601 l 0,2.17404 c -10.0295,0.62495 -10.66252,4.82434 -10.69449,9.99808 l 26.91094,0 c -0.0324,-5.17374 -0.66511,-9.37313 -10.69449,-9.99808 l 0,-2.16548 c 0.17165,-0.10974 0.33561,-0.23023 0.49132,-0.36289 0.29834,0.15363 0.60602,0.24675 0.90558,0.27767 0.1041,0.23853 0.26044,0.46985 0.46523,0.6748 0.29641,0.29631 0.64588,0.48815 0.99528,0.57206 0.13572,0.2291 0.30901,0.45851 0.52108,0.67072 0.81954,0.81954 1.87235,1.10005 2.34897,0.62343 0.47661,-0.47662 0.19611,-1.52942 -0.62343,-2.34896 -0.21247,-0.21207 -0.44162,-0.38508 -0.67072,-0.52109 -0.0839,-0.34939 -0.27575,-0.70305 -0.57237,-0.99936 -0.20583,-0.20583 -0.43449,-0.36112 -0.6748,-0.46563 -0.055,-0.52035 -0.3014,-1.06787 -0.72179,-1.53757 0.38859,-0.96617 0.72749,-2.07639 1.0593,-3.31407 1.18393,-4.41877 -2.51293,-9.10555 -6.28687,-9.10555 z"
       id="path2985-9-8"
       inkscape:connector-curvature="0" />
  </g>
</svg>
