<?xml version="1.0" encoding="UTF-8" standalone="no"?>
<!-- Created with Inkscape (http://www.inkscape.org/) -->

<svg
   xmlns:dc="http://purl.org/dc/elements/1.1/"
   xmlns:cc="http://creativecommons.org/ns#"
   xmlns:rdf="http://www.w3.org/1999/02/22-rdf-syntax-ns#"
   xmlns:svg="http://www.w3.org/2000/svg"
   xmlns="http://www.w3.org/2000/svg"
   xmlns:sodipodi="http://sodipodi.sourceforge.net/DTD/sodipodi-0.dtd"
   xmlns:inkscape="http://www.inkscape.org/namespaces/inkscape"
   width="201.91"
   height="209.88"
   id="svg3284"
   version="1.1"
   inkscape:version="0.48.2 r9819"
   sodipodi:docname="New document 15">
  <defs
     id="defs3286" />
  <sodipodi:namedview
     id="base"
     pagecolor="#ffffff"
     bordercolor="#666666"
     borderopacity="1.0"
     inkscape:pageopacity="0.0"
     inkscape:pageshadow="2"
     inkscape:zoom="0.35"
     inkscape:cx="76.82828"
     inkscape:cy="79.937497"
     inkscape:document-units="px"
     inkscape:current-layer="layer1"
     showgrid="false"
     fit-margin-top="0"
     fit-margin-left="0"
     fit-margin-right="0"
     fit-margin-bottom="0"
     inkscape:window-width="635"
     inkscape:window-height="425"
     inkscape:window-x="50"
     inkscape:window-y="50"
     inkscape:window-maximized="0" />
  <metadata
     id="metadata3289">
    <rdf:RDF>
      <cc:Work
         rdf:about="">
        <dc:format>image/svg+xml</dc:format>
        <dc:type
           rdf:resource="http://purl.org/dc/dcmitype/StillImage" />
        <dc:title></dc:title>
      </cc:Work>
    </rdf:RDF>
  </metadata>
  <g
     inkscape:label="Layer 1"
     inkscape:groupmode="layer"
     id="layer1"
     transform="translate(-298.17172,-402.41968)">
    <path
       style="color:#000000;fill:#000000;fill-opacity:1;fill-rule:nonzero;stroke:none;stroke-width:0.48866057;marker:none;visibility:visible;display:inline;overflow:visible;enable-background:accumulate"
       clip-path="none"
       d="m 399.11452,427.42218 c -21.54887,0 -42.65665,26.761 -35.89627,51.99108 1.53186,5.717 3.09498,10.98115 4.82844,15.729 -1.06615,0.6814 -2.09324,1.48359 -3.04826,2.43861 -2.83102,2.83102 -4.48413,6.28472 -4.82844,9.53495 -1.37094,0.59607 -2.67722,1.4823 -3.853,2.65808 -1.69222,1.69221 -2.78857,3.71093 -3.26773,5.70634 -1.30848,0.77598 -2.61722,1.7637 -3.82861,2.9751 -4.68005,4.68004 -6.25693,10.69138 -3.53598,13.41233 2.72095,2.72095 8.73228,1.11968 13.41233,-3.56037 1.2114,-1.21139 2.17473,-2.52013 2.95072,-3.82861 1.9954,-0.47916 4.01411,-1.57551 5.70633,-3.26773 1.16983,-1.16983 2.03766,-2.48942 2.6337,-3.853 2.73668,-0.28235 5.63333,-1.47859 8.16933,-3.53597 1.46767,1.52624 3.0666,2.85662 4.80405,3.97492 l 0,12.41251 c -57.26615,3.56796 -60.88098,27.54614 -61.06269,57.08776 l 153.65656,0 c -0.18173,-29.54159 -3.79658,-53.5198 -61.0627,-57.08776 l 0,-12.36373 c 0.9795,-0.62623 1.91453,-1.31414 2.8044,-2.07282 1.70437,0.87745 3.45963,1.40864 5.16985,1.58509 0.59604,1.36358 1.48825,2.68317 2.65808,3.853 1.69222,1.69222 3.68654,2.78857 5.68195,3.26773 0.77598,1.30848 1.7637,2.61722 2.9751,3.82861 4.68004,4.68005 10.69138,6.28132 13.41233,3.56037 2.72095,-2.72095 1.11968,-8.73229 -3.56037,-13.41233 -1.21139,-1.2114 -2.52013,-2.19912 -3.82861,-2.9751 -0.47916,-1.99541 -1.57551,-4.01413 -3.26773,-5.70634 -1.17577,-1.17578 -2.48205,-2.06201 -3.853,-2.65808 -0.31478,-2.97145 -1.72117,-6.09858 -4.12124,-8.77898 2.21791,-5.51655 4.15417,-11.85667 6.04774,-18.92358 6.76038,-25.23008 -14.3474,-51.99108 -35.89628,-51.99108 z"
       id="path2985-9-8"
       inkscape:connector-curvature="0" />
  </g>
</svg>
