<?xml version="1.0" encoding="UTF-8" standalone="no"?>
<!-- Created with Inkscape (http://www.inkscape.org/) -->

<svg
   xmlns:dc="http://purl.org/dc/elements/1.1/"
   xmlns:cc="http://creativecommons.org/ns#"
   xmlns:rdf="http://www.w3.org/1999/02/22-rdf-syntax-ns#"
   xmlns:svg="http://www.w3.org/2000/svg"
   xmlns="http://www.w3.org/2000/svg"
   xmlns:sodipodi="http://sodipodi.sourceforge.net/DTD/sodipodi-0.dtd"
   xmlns:inkscape="http://www.inkscape.org/namespaces/inkscape"
   width="32"
   height="32"
   id="svg3258"
   version="1.1"
   inkscape:version="0.48.5 r10040"
   sodipodi:docname="teacherf.svg">
  <defs
     id="defs3260" />
  <sodipodi:namedview
     id="base"
     pagecolor="#ffffff"
     bordercolor="#666666"
     borderopacity="1.0"
     inkscape:pageopacity="0.0"
     inkscape:pageshadow="2"
     inkscape:zoom="7.9195959"
     inkscape:cx="-42.039472"
     inkscape:cy="11.523771"
     inkscape:document-units="px"
     inkscape:current-layer="layer1"
     showgrid="false"
     fit-margin-top="0"
     fit-margin-left="0"
     fit-margin-right="0"
     fit-margin-bottom="0"
     inkscape:window-width="1600"
     inkscape:window-height="1147"
     inkscape:window-x="-8"
     inkscape:window-y="-8"
     inkscape:window-maximized="1" />
  <metadata
     id="metadata3263">
    <rdf:RDF>
      <cc:Work
         rdf:about="">
        <dc:format>image/svg+xml</dc:format>
        <dc:type
           rdf:resource="http://purl.org/dc/dcmitype/StillImage" />
        <dc:title />
      </cc:Work>
    </rdf:RDF>
  </metadata>
  <g
     inkscape:label="Layer 1"
     inkscape:groupmode="layer"
     id="layer1"
     transform="translate(-276.54687,-602.79968)">
    <path
       inkscape:connector-curvature="0"
       style="color:#000000;fill:#000000;fill-opacity:1;fill-rule:nonzero;stroke:none;stroke-width:0.48866057;marker:none;visibility:visible;display:inline;overflow:visible;enable-background:accumulate"
       clip-path="none"
       d="m 292.54742,604.79968 c -3.77401,0 -7.47076,4.68679 -6.28675,9.10555 0.24257,0.90543 0.48653,1.74346 0.75595,2.51124 -0.63807,1.54259 -1.21192,3.23237 -2.20379,4.55725 2.9848,-0.006 3.61597,0.63045 4.9756,0.20917 l 0,1.61871 c -0.49801,0.0315 -0.96522,0.0704 -1.41794,0.11947 0.18242,2.52487 1.98402,4.50996 4.18121,4.50996 2.19713,0 3.99874,-1.98515 4.18119,-4.50996 -0.45273,-0.0472 -0.92419,-0.0891 -1.42221,-0.11947 l 0,-1.56325 c 1.22902,0.30344 1.94019,-0.26977 4.77487,-0.26463 -0.93769,-1.25257 -1.49882,-2.83313 -2.09701,-4.30527 0.30191,-0.83072 0.57551,-1.75511 0.84564,-2.76322 1.18399,-4.41876 -2.51277,-9.10555 -6.28676,-9.10555 z m 4.18547,18.12139 c 0.0109,0.13525 0.0159,0.27206 0.0159,0.41018 0,2.72242 -1.87998,4.9283 -4.1983,4.9283 -2.31832,0 -4.1982,-2.20588 -4.1982,-4.9283 0,-0.13808 0.009,-0.27496 0.0155,-0.41018 -8.66511,0.92528 -9.24622,4.96167 -9.27639,9.87861 l 26.91094,0 c -0.0306,-4.91694 -0.60679,-8.95333 -9.27231,-9.87861 z"
       id="path2985-4" />
  </g>
</svg>
