<?xml version="1.0" encoding="UTF-8" standalone="no"?>
<!-- Created with Inkscape (http://www.inkscape.org/) -->

<svg
   xmlns:dc="http://purl.org/dc/elements/1.1/"
   xmlns:cc="http://creativecommons.org/ns#"
   xmlns:rdf="http://www.w3.org/1999/02/22-rdf-syntax-ns#"
   xmlns:svg="http://www.w3.org/2000/svg"
   xmlns="http://www.w3.org/2000/svg"
   xmlns:sodipodi="http://sodipodi.sourceforge.net/DTD/sodipodi-0.dtd"
   xmlns:inkscape="http://www.inkscape.org/namespaces/inkscape"
   width="32"
   height="32"
   id="svg3232"
   version="1.1"
   inkscape:version="0.48.5 r10040"
   sodipodi:docname="teacherm.svg">
  <defs
     id="defs3234" />
  <sodipodi:namedview
     id="base"
     pagecolor="#ffffff"
     bordercolor="#666666"
     borderopacity="1.0"
     inkscape:pageopacity="0.0"
     inkscape:pageshadow="2"
     inkscape:zoom="11.2"
     inkscape:cx="4.3342038"
     inkscape:cy="18.40133"
     inkscape:document-units="px"
     inkscape:current-layer="layer1"
     showgrid="false"
     fit-margin-top="0"
     fit-margin-left="0"
     fit-margin-right="0"
     fit-margin-bottom="0"
     inkscape:window-width="1600"
     inkscape:window-height="1147"
     inkscape:window-x="-8"
     inkscape:window-y="-8"
     inkscape:window-maximized="1" />
  <metadata
     id="metadata3237">
    <rdf:RDF>
      <cc:Work
         rdf:about="">
        <dc:format>image/svg+xml</dc:format>
        <dc:type
           rdf:resource="http://purl.org/dc/dcmitype/StillImage" />
        <dc:title />
      </cc:Work>
    </rdf:RDF>
  </metadata>
  <g
     inkscape:label="Layer 1"
     inkscape:groupmode="layer"
     id="layer1"
     transform="translate(-276.54687,-602.79968)">
    <path
       style="color:#000000;fill:#000000;fill-opacity:1;fill-rule:nonzero;stroke:none;stroke-width:0.48866057;marker:none;visibility:visible;display:inline;overflow:visible;enable-background:accumulate"
       clip-path="none"
       d="m 292.54485,604.79968 c -3.77395,0 -7.4708,4.68679 -6.28663,9.10555 0.85221,3.1808 1.75273,5.57973 3.52789,6.72233 l 0,2.17404 c -10.02949,0.62495 -10.66252,4.82434 -10.69449,9.99808 l 12.27447,0 1.04217,-6.98288 -1.48212,-2.56669 1.58038,0 0.0807,0 1.58038,0 -1.48212,2.56669 1.04217,6.98288 12.27447,0 c -0.0324,-5.17374 -0.66484,-9.37313 -10.69437,-9.99808 l 0,-2.16548 c 1.76695,-1.12952 2.66037,-3.50977 3.52353,-6.73089 1.18393,-4.41876 -2.51276,-9.10555 -6.28687,-9.10555 z"
       id="path2985"
       inkscape:connector-curvature="0" />
  </g>
</svg>
