<?xml version="1.0" encoding="UTF-8" standalone="no"?>
<!-- Created with Inkscape (http://www.inkscape.org/) -->

<svg
   xmlns:dc="http://purl.org/dc/elements/1.1/"
   xmlns:cc="http://creativecommons.org/ns#"
   xmlns:rdf="http://www.w3.org/1999/02/22-rdf-syntax-ns#"
   xmlns:svg="http://www.w3.org/2000/svg"
   xmlns="http://www.w3.org/2000/svg"
   xmlns:sodipodi="http://sodipodi.sourceforge.net/DTD/sodipodi-0.dtd"
   xmlns:inkscape="http://www.inkscape.org/namespaces/inkscape"
   width="196.90625"
   height="204.875"
   id="svg3258"
   version="1.1"
   inkscape:version="0.48.2 r9819"
   sodipodi:docname="New document 13">
  <defs
     id="defs3260" />
  <sodipodi:namedview
     id="base"
     pagecolor="#ffffff"
     bordercolor="#666666"
     borderopacity="1.0"
     inkscape:pageopacity="0.0"
     inkscape:pageshadow="2"
     inkscape:zoom="0.35"
     inkscape:cx="98.45313"
     inkscape:cy="102.4375"
     inkscape:document-units="px"
     inkscape:current-layer="layer1"
     showgrid="false"
     fit-margin-top="0"
     fit-margin-left="0"
     fit-margin-right="0"
     fit-margin-bottom="0"
     inkscape:window-width="469"
     inkscape:window-height="425"
     inkscape:window-x="25"
     inkscape:window-y="25"
     inkscape:window-maximized="0" />
  <metadata
     id="metadata3263">
    <rdf:RDF>
      <cc:Work
         rdf:about="">
        <dc:format>image/svg+xml</dc:format>
        <dc:type
           rdf:resource="http://purl.org/dc/dcmitype/StillImage" />
        <dc:title></dc:title>
      </cc:Work>
    </rdf:RDF>
  </metadata>
  <g
     inkscape:label="Layer 1"
     inkscape:groupmode="layer"
     id="layer1"
     transform="translate(-276.54687,-429.92468)">
    <path
       inkscape:connector-curvature="0"
       style="color:#000000;fill:#000000;fill-opacity:1;fill-rule:nonzero;stroke:none;stroke-width:0.48866057;marker:none;visibility:visible;display:inline;overflow:visible;enable-background:accumulate"
       clip-path="none"
       d="m 374.98437,429.92468 c -27.61424,0 -54.66322,34.29342 -46,66.625 1.77492,6.62408 3.55993,12.75774 5.53125,18.375 -4.66857,11.28727 -8.86744,23.65005 -16.125,33.34375 21.83965,-0.0374 26.45797,4.61512 36.40625,1.53125 l 0,11.84375 c -3.64382,0.22703 -7.06231,0.52133 -10.375,0.875 1.33479,18.47503 14.51716,33 30.59375,33 16.07635,0 29.25863,-14.52535 30.59375,-33 -3.31268,-0.35367 -6.76242,-0.64797 -10.40625,-0.875 l 0,-11.4375 c 8.99273,2.21936 14.1963,-1.97298 34.9375,-1.9375 -6.86109,-9.16414 -10.96677,-20.7278 -15.34375,-31.5 2.20912,-6.07912 4.21105,-12.84249 6.1875,-20.21875 8.66323,-32.33158 -18.38576,-66.625 -46,-66.625 z m 30.625,132.59375 c 0.07,0.98885 0.125,1.99025 0.125,3 0,19.9217 -13.75572,36.0625 -30.71875,36.0625 -16.96303,0 -30.71875,-16.1408 -30.71875,-36.0625 0,-1.0095 0.0551,-2.01135 0.125,-3 -63.40312,6.76906 -67.65368,36.30431 -67.875,72.28125 l 196.90625,0 c -0.22131,-35.97694 -4.44061,-65.51219 -67.84375,-72.28125 z"
       id="path2985-4" />
  </g>
</svg>
