<?xml version="1.0" encoding="UTF-8" standalone="no"?>
<!-- Created with Inkscape (http://www.inkscape.org/) -->

<svg
   xmlns:dc="http://purl.org/dc/elements/1.1/"
   xmlns:cc="http://creativecommons.org/ns#"
   xmlns:rdf="http://www.w3.org/1999/02/22-rdf-syntax-ns#"
   xmlns:svg="http://www.w3.org/2000/svg"
   xmlns="http://www.w3.org/2000/svg"
   xmlns:sodipodi="http://sodipodi.sourceforge.net/DTD/sodipodi-0.dtd"
   xmlns:inkscape="http://www.inkscape.org/namespaces/inkscape"
   width="196.90625"
   height="204.875"
   id="svg3232"
   version="1.1"
   inkscape:version="0.48.2 r9819"
   sodipodi:docname="New document 11">
  <defs
     id="defs3234" />
  <sodipodi:namedview
     id="base"
     pagecolor="#ffffff"
     bordercolor="#666666"
     borderopacity="1.0"
     inkscape:pageopacity="0.0"
     inkscape:pageshadow="2"
     inkscape:zoom="0.35"
     inkscape:cx="98.45313"
     inkscape:cy="102.4375"
     inkscape:document-units="px"
     inkscape:current-layer="layer1"
     showgrid="false"
     fit-margin-top="0"
     fit-margin-left="0"
     fit-margin-right="0"
     fit-margin-bottom="0"
     inkscape:window-width="469"
     inkscape:window-height="425"
     inkscape:window-x="275"
     inkscape:window-y="275"
     inkscape:window-maximized="0" />
  <metadata
     id="metadata3237">
    <rdf:RDF>
      <cc:Work
         rdf:about="">
        <dc:format>image/svg+xml</dc:format>
        <dc:type
           rdf:resource="http://purl.org/dc/dcmitype/StillImage" />
        <dc:title></dc:title>
      </cc:Work>
    </rdf:RDF>
  </metadata>
  <g
     inkscape:label="Layer 1"
     inkscape:groupmode="layer"
     id="layer1"
     transform="translate(-276.54687,-429.92468)">
    <path
       style="color:#000000;fill:#000000;fill-opacity:1;fill-rule:nonzero;stroke:none;stroke-width:0.48866057;marker:none;visibility:visible;display:inline;overflow:visible;enable-background:accumulate"
       clip-path="none"
       d="m 374.98437,429.92468 c -27.61424,0 -54.66322,34.29342 -46,66.625 6.2362,23.27381 12.82369,40.82733 25.8125,49.1875 l 0,15.90625 c -73.38485,4.57224 -78.01713,35.29955 -78.25,73.15625 l 89.8125,0 7.625,-51.09375 -10.84375,-18.78125 11.5625,0 0.59375,0 11.5625,0 -10.84375,18.78125 7.625,51.09375 89.8125,0 c -0.23287,-37.85666 -4.86519,-68.58401 -78.25,-73.15625 l 0,-15.84375 c 12.92935,-8.26622 19.46627,-25.68216 25.78125,-49.25 8.66323,-32.33158 -18.38576,-66.625 -46,-66.625 z"
       id="path2985"
       inkscape:connector-curvature="0" />
  </g>
</svg>
