<?xml version="1.0" encoding="UTF-8" standalone="no"?>
<!-- Created with Inkscape (http://www.inkscape.org/) -->

<svg
   xmlns:dc="http://purl.org/dc/elements/1.1/"
   xmlns:cc="http://creativecommons.org/ns#"
   xmlns:rdf="http://www.w3.org/1999/02/22-rdf-syntax-ns#"
   xmlns:svg="http://www.w3.org/2000/svg"
   xmlns="http://www.w3.org/2000/svg"
   xmlns:sodipodi="http://sodipodi.sourceforge.net/DTD/sodipodi-0.dtd"
   xmlns:inkscape="http://www.inkscape.org/namespaces/inkscape"
   width="32"
   height="32"
   id="svg3608"
   version="1.1"
   inkscape:version="0.48.5 r10040"
   sodipodi:docname="tip.svg">
  <defs
     id="defs3610">
    <linearGradient
       y2="276.55899"
       x2="434.30521"
       y1="290.0405"
       x1="423.79391"
       gradientUnits="userSpaceOnUse"
       id="SVGID_3_">
      <stop
         id="stop26"
         style="stop-color:#6299BE"
         offset="0" />
      <stop
         id="stop28"
         style="stop-color:#3B80AE"
         offset="1" />
    </linearGradient>
    <linearGradient
       y2="300.50229"
       x2="388.9137"
       y1="293.1777"
       x1="420.64011"
       gradientUnits="userSpaceOnUse"
       id="SVGID_2_">
      <stop
         id="stop17"
         style="stop-color:#89B5D0"
         offset="0" />
      <stop
         id="stop19"
         style="stop-color:#6BA2C4"
         offset="1" />
    </linearGradient>
    <linearGradient
       y2="322.70029"
       x2="435.91449"
       y1="294.87839"
       x1="423.02151"
       gradientUnits="userSpaceOnUse"
       id="SVGID_1_">
      <stop
         id="stop8"
         style="stop-color:#7690BA"
         offset="0" />
      <stop
         id="stop10"
         style="stop-color:#5474A9"
         offset="1" />
    </linearGradient>
    <linearGradient
       y2="276.55899"
       x2="434.30521"
       y1="290.0405"
       x1="423.79391"
       gradientUnits="userSpaceOnUse"
       id="SVGID_3_-8">
      <stop
         id="stop26-8"
         style="stop-color:#6299BE"
         offset="0" />
      <stop
         id="stop28-2"
         style="stop-color:#3B80AE"
         offset="1" />
    </linearGradient>
    <linearGradient
       y2="300.50229"
       x2="388.9137"
       y1="293.1777"
       x1="420.64011"
       gradientUnits="userSpaceOnUse"
       id="SVGID_2_-0">
      <stop
         id="stop17-9"
         style="stop-color:#89B5D0"
         offset="0" />
      <stop
         id="stop19-4"
         style="stop-color:#6BA2C4"
         offset="1" />
    </linearGradient>
    <linearGradient
       y2="322.70029"
       x2="435.91449"
       y1="294.87839"
       x1="423.02151"
       gradientUnits="userSpaceOnUse"
       id="SVGID_1_-1">
      <stop
         id="stop8-7"
         style="stop-color:#7690BA"
         offset="0" />
      <stop
         id="stop10-4"
         style="stop-color:#5474A9"
         offset="1" />
    </linearGradient>
  </defs>
  <sodipodi:namedview
     id="base"
     pagecolor="#ffffff"
     bordercolor="#666666"
     borderopacity="1.0"
     inkscape:pageopacity="0.0"
     inkscape:pageshadow="2"
     inkscape:zoom="7.919596"
     inkscape:cx="23.169866"
     inkscape:cy="11.445467"
     inkscape:document-units="px"
     inkscape:current-layer="layer1"
     showgrid="false"
     inkscape:window-width="1600"
     inkscape:window-height="1147"
     inkscape:window-x="-8"
     inkscape:window-y="-8"
     inkscape:window-maximized="1"
     fit-margin-top="0"
     fit-margin-left="0"
     fit-margin-right="0"
     fit-margin-bottom="0" />
  <metadata
     id="metadata3613">
    <rdf:RDF>
      <cc:Work
         rdf:about="">
        <dc:format>image/svg+xml</dc:format>
        <dc:type
           rdf:resource="http://purl.org/dc/dcmitype/StillImage" />
        <dc:title />
      </cc:Work>
    </rdf:RDF>
  </metadata>
  <g
     inkscape:label="Layer 1"
     inkscape:groupmode="layer"
     id="layer1"
     transform="translate(-203.3125,-672.125)">
    <path
       style="font-size:medium;font-style:normal;font-variant:normal;font-weight:normal;font-stretch:normal;text-indent:0;text-align:start;text-decoration:none;line-height:normal;letter-spacing:normal;word-spacing:normal;text-transform:none;direction:ltr;block-progression:tb;writing-mode:lr-tb;text-anchor:start;baseline-shift:baseline;color:#000000;fill:#000000;fill-opacity:1;stroke:none;stroke-width:2;marker:none;visibility:visible;display:inline;overflow:visible;enable-background:accumulate;font-family:Sans;-inkscape-font-specification:Sans"
       d="m 216.02002,674.12836 c -0.53812,0.14572 -0.88245,0.7874 -0.70634,1.31636 l 0.61002,2.24744 c 0.64063,-0.25243 1.29112,-0.44002 1.99059,-0.54581 l -0.61002,-2.21533 c -0.1061,-0.48162 -0.60027,-0.84498 -1.09162,-0.80266 -0.032,-0.001 -0.0643,-0.001 -0.0963,0 -0.0321,-0.001 -0.0643,-0.001 -0.0963,0 z m 6.03597,0 c -0.36961,0.1013 -0.66822,0.42591 -0.73844,0.80266 l -0.57792,2.21533 c 0.67979,0.10404 1.33479,0.27071 1.95849,0.5137 l 0.61001,-2.21533 c 0.18764,-0.63412 -0.39993,-1.36413 -1.0595,-1.31636 -0.0321,-0.001 -0.0643,-0.001 -0.0963,0 -0.0321,-0.001 -0.0643,-0.001 -0.0963,0 z m 5.39385,2.98588 c -0.0218,0.0103 -0.0431,0.0207 -0.0642,0.0321 -0.22076,0.0401 -0.42727,0.1548 -0.57791,0.32106 l -1.63742,1.63742 c 0.53043,0.4274 1.01864,0.91329 1.44478,1.44478 l 1.63742,-1.63742 c 0.66501,-0.57188 0.0671,-1.91123 -0.80266,-1.79795 z m -16.56682,0.0321 c -0.74695,0.13551 -1.0714,1.2508 -0.5137,1.76584 l 1.63742,1.63742 c 0.42321,-0.5264 0.91918,-1.02034 1.44478,-1.44478 l -1.63742,-1.63742 c -0.211,-0.22498 -0.52739,-0.34666 -0.83476,-0.32106 -0.0321,-10e-4 -0.0643,-10e-4 -0.0963,0 z m 8.44394,1.15582 c -4.63653,0 -8.41184,3.77531 -8.41184,8.41184 0,4.63653 3.77531,8.41184 8.41184,8.41184 0.56868,0 1.13189,-0.085 1.66952,-0.19264 a 1.0275026,1.0275026 0 0 0 0.0963,-0.0321 c 3.79601,-0.80799 6.646,-4.15467 6.646,-8.18709 0,-4.63653 -3.77531,-8.41184 -8.41184,-8.41184 z m 0,2.0548 c 3.52604,0 6.35704,2.83101 6.35704,6.35704 0,2.42415 -1.32024,4.51844 -3.30695,5.58649 l 0.89898,-3.33905 a 1.0275026,1.0275026 0 0 0 -1.15583,-1.28425 1.0275026,1.0275026 0 0 0 -0.83476,0.77055 l -1.22004,4.59119 c -0.24493,0.0281 -0.48573,0.0321 -0.73844,0.0321 -0.22038,0 -0.42758,-0.0106 -0.64213,-0.0321 l -1.22003,-4.59119 a 1.0275026,1.0275026 0 0 0 -1.18793,-0.77055 1.0275026,1.0275026 0 0 0 -0.80266,1.28425 l 0.89898,3.40326 c -2.0423,-1.0508 -3.43537,-3.18545 -3.43537,-5.6507 0,-3.52603 2.8631,-6.35704 6.38914,-6.35704 z m -2.92167,15.50732 a 1.0275026,1.0275026 0 0 0 -0.22474,0.0321 1.0275026,1.0275026 0 0 0 -0.83476,1.12372 l 0.35316,3.37115 c 0.0695,0.68812 0.55698,1.13224 1.0274,1.38057 0.47043,0.24833 0.98842,0.35317 1.57321,0.35317 l 2.02269,0 c 0.58479,0 1.13205,-0.10891 1.60532,-0.35317 0.47326,-0.24425 0.98815,-0.67338 1.0595,-1.38057 l 0.32106,-3.37115 a 1.0275026,1.0275026 0 0 0 -1.31635,-1.09162 c -0.82588,0.25915 -1.7316,0.38528 -2.66482,0.38528 -0.93296,0 -1.80696,-0.12623 -2.63271,-0.38528 a 1.0275026,1.0275026 0 0 0 -0.28896,-0.0642 z m 1.12372,2.24744 c 0.60036,0.0985 1.17503,0.25685 1.79795,0.25685 0.61699,0 1.20311,-0.16024 1.79795,-0.25685 l -0.16053,1.83006 c -0.10985,0.0518 -0.35409,0.12842 -0.64213,0.12842 l -2.02269,0 c -0.28669,0 -0.47696,-0.0803 -0.57791,-0.12842 l -0.19264,-1.83006 z"
       id="path4053-3-8-5"
       inkscape:connector-curvature="0" />
  </g>
</svg>
