<?xml version="1.0" encoding="UTF-8" standalone="no"?>
<!-- Created with Inkscape (http://www.inkscape.org/) -->

<svg
   xmlns:dc="http://purl.org/dc/elements/1.1/"
   xmlns:cc="http://creativecommons.org/ns#"
   xmlns:rdf="http://www.w3.org/1999/02/22-rdf-syntax-ns#"
   xmlns:svg="http://www.w3.org/2000/svg"
   xmlns="http://www.w3.org/2000/svg"
   xmlns:sodipodi="http://sodipodi.sourceforge.net/DTD/sodipodi-0.dtd"
   xmlns:inkscape="http://www.inkscape.org/namespaces/inkscape"
   width="32"
   height="32"
   id="svg4271"
   version="1.1"
   inkscape:version="0.48.4 r9939"
   sodipodi:docname="tool-pencil.svg">
  <defs
     id="defs4273" />
  <sodipodi:namedview
     id="base"
     pagecolor="#ffffff"
     bordercolor="#666666"
     borderopacity="1.0"
     inkscape:pageopacity="0.0"
     inkscape:pageshadow="2"
     inkscape:zoom="7.919596"
     inkscape:cx="41.833085"
     inkscape:cy="1.3743836"
     inkscape:document-units="px"
     inkscape:current-layer="layer1"
     showgrid="false"
     fit-margin-top="0"
     fit-margin-left="0"
     fit-margin-right="0"
     fit-margin-bottom="0"
     inkscape:window-width="1600"
     inkscape:window-height="1147"
     inkscape:window-x="-8"
     inkscape:window-y="-8"
     inkscape:window-maximized="1" />
  <metadata
     id="metadata4276">
    <rdf:RDF>
      <cc:Work
         rdf:about="">
        <dc:format>image/svg+xml</dc:format>
        <dc:type
           rdf:resource="http://purl.org/dc/dcmitype/StillImage" />
        <dc:title />
      </cc:Work>
    </rdf:RDF>
  </metadata>
  <g
     inkscape:label="Layer 1"
     inkscape:groupmode="layer"
     id="layer1"
     transform="translate(-281.4375,-566.48186)">
    <path
       style="fill:#000000;fill-opacity:1;stroke:none"
       d="m 308.95422,570.97913 c -1.9588,-1.95881 -4.22363,-2.93691 -5.24249,-2.30552 l -0.0147,-0.0147 -0.16153,0.16153 -17.91554,17.91554 c -0.31487,0.25679 -0.71956,0.98389 -0.71956,0.98389 0,0 -0.86449,4.30319 -1.30695,6.44665 -0.0102,0.0245 -0.005,0.049 -0.0147,0.0734 -0.22132,0.59319 -0.19013,1.21591 0.14685,1.70344 l 0.0147,0.0441 0.0294,0.0294 0.11748,0.11748 0.0294,0.0294 0.0587,0.0294 c 0.48923,0.33816 1.11773,0.36646 1.70344,0.14684 0.015,-0.005 0.0292,-0.009 0.0441,-0.0147 l 0.0294,0 6.41729,-1.30695 c 0,0 0.64231,-0.34861 1.01326,-0.71956 l 17.91554,-17.91554 0.16153,-0.16153 -0.0147,-0.0147 c 0.63139,-1.01886 -0.33204,-3.26902 -2.29084,-5.22782 z m -2.36426,-0.57271 c 0.19724,0.19723 0.21192,0.52233 0.0147,0.71956 l -16.27083,16.27083 c -0.19724,0.19723 -0.52233,0.18255 -0.71956,-0.0147 -0.19724,-0.19724 -0.19724,-0.50764 0,-0.70488 L 305.8851,570.4064 c 0.19723,-0.19723 0.50764,-0.19723 0.70487,0 z m 2.9076,2.9076 c 0.19724,0.19724 0.21192,0.52233 0.0147,0.71956 l -16.27083,16.27083 c -0.19724,0.19724 -0.52233,0.18255 -0.71956,-0.0147 -0.19724,-0.19723 -0.19724,-0.50764 0,-0.70488 L 308.7927,573.314 c 0.19723,-0.19723 0.50764,-0.19723 0.70487,0 z m -19.76582,16.85823 c 1.28151,1.28151 2.15742,2.69753 2.423,3.80338 -0.10595,0.0852 -0.19721,0.14697 -0.26433,0.17622 -0.007,0.003 -0.008,0.0119 -0.0147,0.0147 l -4.64042,0.93983 c -0.11055,-0.56245 -0.37922,-1.11346 -0.83704,-1.57128 -0.45872,-0.45873 -1.0052,-0.72258 -1.57128,-0.83704 l 0.96921,-4.69915 c 0.0264,-0.0552 0.0939,-0.13538 0.16152,-0.22028 1.10642,0.26959 2.49806,1.11768 3.77402,2.39364 z"
       id="rect2994"
       inkscape:connector-curvature="0" />
  </g>
</svg>
