<?xml version="1.0" encoding="UTF-8" standalone="no"?>
<!-- Created with Inkscape (http://www.inkscape.org/) -->

<svg
   xmlns:dc="http://purl.org/dc/elements/1.1/"
   xmlns:cc="http://creativecommons.org/ns#"
   xmlns:rdf="http://www.w3.org/1999/02/22-rdf-syntax-ns#"
   xmlns:svg="http://www.w3.org/2000/svg"
   xmlns="http://www.w3.org/2000/svg"
   xmlns:sodipodi="http://sodipodi.sourceforge.net/DTD/sodipodi-0.dtd"
   xmlns:inkscape="http://www.inkscape.org/namespaces/inkscape"
   width="32"
   height="32"
   id="svg4271"
   version="1.1"
   inkscape:version="0.48.4 r9939"
   sodipodi:docname="tool-stab.svg">
  <defs
     id="defs4273" />
  <sodipodi:namedview
     id="base"
     pagecolor="#ffffff"
     bordercolor="#666666"
     borderopacity="1.0"
     inkscape:pageopacity="0.0"
     inkscape:pageshadow="2"
     inkscape:zoom="11.2"
     inkscape:cx="-13.187551"
     inkscape:cy="11.068905"
     inkscape:document-units="px"
     inkscape:current-layer="layer1"
     showgrid="false"
     fit-margin-top="0"
     fit-margin-left="0"
     fit-margin-right="0"
     fit-margin-bottom="0"
     inkscape:window-width="1600"
     inkscape:window-height="1147"
     inkscape:window-x="-8"
     inkscape:window-y="-8"
     inkscape:window-maximized="1" />
  <metadata
     id="metadata4276">
    <rdf:RDF>
      <cc:Work
         rdf:about="">
        <dc:format>image/svg+xml</dc:format>
        <dc:type
           rdf:resource="http://purl.org/dc/dcmitype/StillImage" />
        <dc:title />
      </cc:Work>
    </rdf:RDF>
  </metadata>
  <g
     inkscape:label="Layer 1"
     inkscape:groupmode="layer"
     id="layer1"
     transform="translate(-281.4375,-566.48186)">
    <g
       id="g3036"
       transform="matrix(0.65605101,0.65605101,-0.65605101,0.65605101,504.62686,26.950131)">
      <path
         sodipodi:nodetypes="sssssssss"
         inkscape:connector-curvature="0"
         id="rect2998"
         d="m 260.81908,565.30468 9.35394,0 c 0.9241,0 1.57263,0.74471 1.66805,1.65873 l 2,19.15843 c 0.0954,0.91402 -0.74395,1.65873 -1.66805,1.65873 l -13.35394,0 c -0.9241,0 -1.76347,-0.74471 -1.66805,-1.65873 l 2,-19.15843 c 0.0954,-0.91402 0.74395,-1.65873 1.66805,-1.65873 z"
         style="fill:#000000;fill-opacity:1;stroke:none" />
      <path
         inkscape:connector-curvature="0"
         id="rect3006"
         d="m 258.74889,589.14636 0,1.5625 c 1.85857,1.51523 2.07552,1.96245 2.42897,4.3125 0,0.57554 0.46729,1.03125 1.01957,1.03125 l 3.26862,0 0.06,0 3.26862,0 c 0.55228,0 1.01957,-0.45571 1.01957,-1.03125 0.35345,-2.35005 0.5704,-2.79727 2.42897,-4.3125 l 0,-1.5625 -6.71716,0 -0.06,0 -6.71716,0 z"
         style="fill:#000000;fill-opacity:1;stroke:none" />
      <path
         sodipodi:nodetypes="cccccc"
         inkscape:connector-curvature="0"
         id="rect3033"
         d="m 262.82861,596.87193 5.33487,0 0,3.06202 -4.05639,1.32583 -1.27848,-1.32583 z"
         style="fill:#000000;fill-opacity:1;stroke:none" />
    </g>
  </g>
</svg>
