<?xml version="1.0" encoding="UTF-8" standalone="no"?>
<!-- Created with Inkscape (http://www.inkscape.org/) -->

<svg
   xmlns:dc="http://purl.org/dc/elements/1.1/"
   xmlns:cc="http://creativecommons.org/ns#"
   xmlns:rdf="http://www.w3.org/1999/02/22-rdf-syntax-ns#"
   xmlns:svg="http://www.w3.org/2000/svg"
   xmlns="http://www.w3.org/2000/svg"
   xmlns:sodipodi="http://sodipodi.sourceforge.net/DTD/sodipodi-0.dtd"
   xmlns:inkscape="http://www.inkscape.org/namespaces/inkscape"
   width="32"
   height="32"
   id="svg3608"
   version="1.1"
   inkscape:version="0.91 r13725"
   sodipodi:docname="visualidentity-bpm.svg">
  <defs
     id="defs3610">
    <linearGradient
       y2="276.55899"
       x2="434.30521"
       y1="290.0405"
       x1="423.79391"
       gradientUnits="userSpaceOnUse"
       id="SVGID_3_">
      <stop
         id="stop26"
         style="stop-color:#6299BE"
         offset="0" />
      <stop
         id="stop28"
         style="stop-color:#3B80AE"
         offset="1" />
    </linearGradient>
    <linearGradient
       y2="300.50229"
       x2="388.9137"
       y1="293.1777"
       x1="420.64011"
       gradientUnits="userSpaceOnUse"
       id="SVGID_2_">
      <stop
         id="stop17"
         style="stop-color:#89B5D0"
         offset="0" />
      <stop
         id="stop19"
         style="stop-color:#6BA2C4"
         offset="1" />
    </linearGradient>
    <linearGradient
       y2="322.70029"
       x2="435.91449"
       y1="294.87839"
       x1="423.02151"
       gradientUnits="userSpaceOnUse"
       id="SVGID_1_">
      <stop
         id="stop8"
         style="stop-color:#7690BA"
         offset="0" />
      <stop
         id="stop10"
         style="stop-color:#5474A9"
         offset="1" />
    </linearGradient>
    <linearGradient
       y2="276.55899"
       x2="434.30521"
       y1="290.0405"
       x1="423.79391"
       gradientUnits="userSpaceOnUse"
       id="SVGID_3_-8">
      <stop
         id="stop26-8"
         style="stop-color:#6299BE"
         offset="0" />
      <stop
         id="stop28-2"
         style="stop-color:#3B80AE"
         offset="1" />
    </linearGradient>
    <linearGradient
       y2="300.50229"
       x2="388.9137"
       y1="293.1777"
       x1="420.64011"
       gradientUnits="userSpaceOnUse"
       id="SVGID_2_-0">
      <stop
         id="stop17-9"
         style="stop-color:#89B5D0"
         offset="0" />
      <stop
         id="stop19-4"
         style="stop-color:#6BA2C4"
         offset="1" />
    </linearGradient>
    <linearGradient
       y2="322.70029"
       x2="435.91449"
       y1="294.87839"
       x1="423.02151"
       gradientUnits="userSpaceOnUse"
       id="SVGID_1_-1">
      <stop
         id="stop8-7"
         style="stop-color:#7690BA"
         offset="0" />
      <stop
         id="stop10-4"
         style="stop-color:#5474A9"
         offset="1" />
    </linearGradient>
  </defs>
  <sodipodi:namedview
     id="base"
     pagecolor="#ffffff"
     bordercolor="#666666"
     borderopacity="1.0"
     inkscape:pageopacity="0.0"
     inkscape:pageshadow="2"
     inkscape:zoom="10.606602"
     inkscape:cx="8.1857041"
     inkscape:cy="16"
     inkscape:document-units="px"
     inkscape:current-layer="layer1"
     showgrid="false"
     inkscape:window-width="1920"
     inkscape:window-height="1017"
     inkscape:window-x="1912"
     inkscape:window-y="-8"
     inkscape:window-maximized="1"
     fit-margin-top="0"
     fit-margin-left="0"
     fit-margin-right="0"
     fit-margin-bottom="0" />
  <metadata
     id="metadata3613">
    <rdf:RDF>
      <cc:Work
         rdf:about="">
        <dc:format>image/svg+xml</dc:format>
        <dc:type
           rdf:resource="http://purl.org/dc/dcmitype/StillImage" />
        <dc:title />
      </cc:Work>
    </rdf:RDF>
  </metadata>
  <g
     inkscape:label="Layer 1"
     inkscape:groupmode="layer"
     id="layer1"
     transform="translate(-203.3125,-672.125)">
    <path
       style="fill:#000000;fill-opacity:1;stroke:none"
       d="M 3 2 C 2.446 2 2 2.446 2 3 L 2 29 C 2 29.554 2.446 30 3 30 L 29 30 C 29.554 30 30 29.554 30 29 L 30 3 C 30 2.446 29.554 2 29 2 L 3 2 z M 15.082031 14.236328 C 15.128031 14.236328 15.259829 14.371092 15.478516 14.638672 C 15.697189 14.906259 15.847161 15.099856 15.927734 15.220703 C 16.042821 15.20917 16.12996 15.203125 16.1875 15.203125 C 16.245033 15.203125 16.330219 15.20917 16.445312 15.220703 C 16.738806 14.81213 17.004308 14.48984 17.240234 14.253906 L 17.291016 14.236328 C 17.314149 14.236328 17.670901 14.438984 18.361328 14.841797 C 18.384195 14.859064 18.396484 14.879344 18.396484 14.902344 C 18.396484 15.046204 18.250498 15.443497 17.957031 16.09375 C 18.054845 16.226097 18.14003 16.374129 18.214844 16.541016 C 19.07227 16.627329 19.501953 16.71652 19.501953 16.808594 L 19.501953 18.017578 C 19.501953 18.109651 19.07227 18.198836 18.214844 18.285156 C 18.14579 18.440523 18.060605 18.590515 17.957031 18.734375 C 18.250498 19.384635 18.396484 19.781915 18.396484 19.925781 C 18.396484 19.948781 18.384195 19.969061 18.361328 19.986328 C 17.659281 20.394901 17.302522 20.597656 17.291016 20.597656 C 17.244949 20.597656 17.113178 20.463819 16.894531 20.193359 C 16.675851 19.922899 16.525879 19.726322 16.445312 19.605469 C 16.330226 19.617002 16.24504 19.623047 16.1875 19.623047 C 16.129967 19.623047 16.042828 19.617002 15.927734 19.605469 C 15.847161 19.726322 15.697189 19.922899 15.478516 20.193359 C 15.259856 20.463819 15.128058 20.597656 15.082031 20.597656 C 15.070498 20.597656 14.713739 20.394901 14.011719 19.986328 C 13.988585 19.969061 13.976563 19.948781 13.976562 19.925781 C 13.976562 19.781915 14.124509 19.384635 14.417969 18.734375 C 14.314402 18.590515 14.227256 18.440523 14.158203 18.285156 C 13.30079 18.198836 12.873047 18.109651 12.873047 18.017578 L 12.873047 16.808594 C 12.873047 16.71652 13.30079 16.627329 14.158203 16.541016 C 14.233016 16.374129 14.320162 16.226097 14.417969 16.09375 C 14.124509 15.443497 13.976563 15.04621 13.976562 14.902344 C 13.976562 14.879344 13.988585 14.859064 14.011719 14.841797 C 14.034852 14.830264 14.13618 14.771522 14.314453 14.667969 C 14.49284 14.564382 14.661159 14.467073 14.822266 14.375 C 14.983406 14.282933 15.070518 14.236328 15.082031 14.236328 z M 7.6503906 16.308594 L 9.2558594 16.308594 C 9.319126 16.308594 9.3759144 16.329914 9.4277344 16.373047 C 9.4795344 16.41618 9.5079385 16.465871 9.5136719 16.523438 L 9.7128906 17.845703 C 9.908544 17.903236 10.123448 17.992421 10.359375 18.113281 L 11.378906 17.34375 C 11.424906 17.303483 11.481695 17.283203 11.550781 17.283203 C 11.614115 17.283203 11.674902 17.307516 11.732422 17.353516 C 12.561055 18.118869 12.976563 18.579008 12.976562 18.734375 C 12.976562 18.786175 12.956282 18.840904 12.916016 18.898438 C 12.846962 18.990517 12.725374 19.144615 12.552734 19.363281 C 12.380101 19.581955 12.250376 19.756219 12.164062 19.882812 C 12.296416 20.159032 12.393731 20.394197 12.457031 20.589844 L 13.769531 20.789062 C 13.827065 20.800596 13.875729 20.83004 13.916016 20.878906 C 13.956282 20.92784 13.976562 20.983595 13.976562 21.046875 L 13.976562 22.644531 C 13.976562 22.702065 13.956282 22.75782 13.916016 22.8125 C 13.875749 22.867167 13.831104 22.89661 13.779297 22.902344 L 12.441406 23.111328 C 12.37814 23.312728 12.284942 23.529685 12.164062 23.765625 C 12.359716 24.041838 12.619153 24.374219 12.941406 24.759766 C 12.981673 24.817299 13.001953 24.874081 13.001953 24.931641 C 13.001953 25.000694 12.981673 25.05543 12.941406 25.095703 C 12.809053 25.268343 12.570902 25.526754 12.228516 25.869141 C 11.886116 26.211541 11.660115 26.382812 11.550781 26.382812 C 11.487448 26.382812 11.4286 26.362532 11.371094 26.322266 L 10.376953 25.544922 C 10.164033 25.654262 9.9430706 25.743447 9.7128906 25.8125 C 9.649624 26.43398 9.5827519 26.879924 9.5136719 27.150391 C 9.4734052 27.288491 9.388226 27.357422 9.2558594 27.357422 L 7.6503906 27.357422 C 7.587124 27.357422 7.5283825 27.336102 7.4765625 27.292969 C 7.4247625 27.249835 7.3963583 27.198192 7.390625 27.140625 L 7.1933594 25.820312 C 6.997706 25.762779 6.7808485 25.673588 6.5449219 25.552734 L 5.5273438 26.322266 C 5.4870771 26.362532 5.4283356 26.382812 5.3535156 26.382812 C 5.290249 26.382812 5.229455 26.358567 5.171875 26.3125 C 4.3432283 25.547147 3.9296875 25.087007 3.9296875 24.931641 C 3.9296875 24.879841 3.9499677 24.825118 3.9902344 24.767578 C 4.0477677 24.687018 4.16535 24.534967 4.34375 24.310547 C 4.5221367 24.086114 4.6579267 23.909796 4.75 23.783203 C 4.6176467 23.530003 4.516319 23.294839 4.4472656 23.076172 L 3.1347656 22.869141 C 3.0772323 22.863141 3.0285679 22.835776 2.9882812 22.787109 C 2.9480146 22.738176 2.9277344 22.682421 2.9277344 22.619141 L 2.9277344 21.021484 C 2.9277344 20.963951 2.9480146 20.908196 2.9882812 20.853516 C 3.0285479 20.798849 3.0751465 20.767452 3.1269531 20.761719 L 4.4648438 20.554688 C 4.5281771 20.353274 4.6194277 20.136324 4.7402344 19.900391 C 4.5445877 19.624184 4.2870971 19.291803 3.9648438 18.90625 C 3.9245771 18.842983 3.9042969 18.786202 3.9042969 18.734375 C 3.9042969 18.665322 3.9245771 18.608527 3.9648438 18.5625 C 4.0914437 18.38986 4.3266083 18.132489 4.671875 17.792969 C 5.0171483 17.453462 5.2441823 17.283203 5.3535156 17.283203 C 5.4167823 17.283203 5.4775829 17.303483 5.5351562 17.34375 L 6.5273438 18.121094 C 6.7229971 18.017514 6.9459127 17.92627 7.1933594 17.845703 C 7.256626 17.224223 7.321545 16.780332 7.390625 16.515625 C 7.4308917 16.377518 7.518024 16.308594 7.6503906 16.308594 z M 16.1875 16.308594 C 15.888273 16.308594 15.628836 16.418052 15.410156 16.636719 C 15.191503 16.855385 15.082031 17.114829 15.082031 17.414062 C 15.082031 17.719049 15.190477 17.979519 15.40625 18.195312 C 15.622057 18.411106 15.88252 18.517578 16.1875 18.517578 C 16.492507 18.517578 16.752977 18.411106 16.96875 18.195312 C 17.18455 17.979519 17.291016 17.719049 17.291016 17.414062 C 17.291016 17.114829 17.181571 16.855385 16.962891 16.636719 C 16.744237 16.418052 16.486747 16.308594 16.1875 16.308594 z M 8.453125 19.623047 C 7.8431517 19.623047 7.3222117 19.839898 6.890625 20.271484 C 6.459045 20.703071 6.2421875 21.222058 6.2421875 21.832031 C 6.2421875 22.442005 6.459045 22.962945 6.890625 23.394531 C 7.3222117 23.826118 7.8431517 24.042969 8.453125 24.042969 C 9.0630983 24.042969 9.5840383 23.826118 10.015625 23.394531 C 10.447205 22.962945 10.662109 22.442005 10.662109 21.832031 C 10.662109 21.222058 10.447205 20.703071 10.015625 20.271484 C 9.5840383 19.839898 9.0630983 19.623047 8.453125 19.623047 z M 15.082031 23.076172 C 15.128031 23.076172 15.259829 23.208989 15.478516 23.476562 C 15.697189 23.744149 15.847161 23.9397 15.927734 24.060547 C 16.042821 24.049014 16.12996 24.042969 16.1875 24.042969 C 16.245033 24.042969 16.330219 24.049014 16.445312 24.060547 C 16.738806 23.651974 17.004308 23.329677 17.240234 23.09375 L 17.291016 23.076172 C 17.314149 23.076172 17.670901 23.276874 18.361328 23.679688 C 18.384195 23.696954 18.396484 23.717234 18.396484 23.740234 C 18.396484 23.884094 18.250498 24.281387 17.957031 24.931641 C 18.054845 25.064001 18.14003 25.213979 18.214844 25.380859 C 19.07227 25.467173 19.501953 25.556364 19.501953 25.648438 L 19.501953 26.857422 C 19.501953 26.949495 19.07227 27.038687 18.214844 27.125 C 18.14579 27.280367 18.060605 27.428399 17.957031 27.572266 C 18.250498 28.222519 18.396484 28.619812 18.396484 28.763672 C 18.396484 28.786672 18.384195 28.806952 18.361328 28.824219 C 17.659281 29.232785 17.302522 29.4375 17.291016 29.4375 C 17.244949 29.4375 17.113178 29.30171 16.894531 29.03125 C 16.675851 28.760783 16.525879 28.566152 16.445312 28.445312 C 16.330226 28.456846 16.24504 28.462891 16.1875 28.462891 C 16.129967 28.462891 16.042828 28.456846 15.927734 28.445312 C 15.847161 28.566152 15.697189 28.760783 15.478516 29.03125 C 15.259856 29.30171 15.128058 29.4375 15.082031 29.4375 C 15.070498 29.4375 14.713739 29.232785 14.011719 28.824219 C 13.988585 28.806952 13.976563 28.786672 13.976562 28.763672 C 13.976562 28.619812 14.124509 28.222519 14.417969 27.572266 C 14.314402 27.428399 14.227256 27.280367 14.158203 27.125 C 13.30079 27.038687 12.873047 26.949495 12.873047 26.857422 L 12.873047 25.648438 C 12.873047 25.556364 13.30079 25.467179 14.158203 25.380859 C 14.233016 25.213979 14.320162 25.063987 14.417969 24.931641 C 14.124509 24.281381 13.976563 23.884101 13.976562 23.740234 C 13.976562 23.717234 13.988585 23.696954 14.011719 23.679688 C 14.034852 23.668154 14.13618 23.611379 14.314453 23.507812 C 14.49284 23.404239 14.661159 23.306924 14.822266 23.214844 C 14.983406 23.122784 15.070518 23.076172 15.082031 23.076172 z M 16.1875 25.148438 C 15.888273 25.148438 15.628836 25.255943 15.410156 25.474609 C 15.191503 25.693283 15.082031 25.95272 15.082031 26.251953 C 15.082031 26.55694 15.190477 26.81741 15.40625 27.033203 C 15.622057 27.24899 15.88252 27.357422 16.1875 27.357422 C 16.492507 27.357422 16.752977 27.24899 16.96875 27.033203 C 17.18455 26.81741 17.291016 26.55694 17.291016 26.251953 C 17.291016 25.95272 17.181571 25.693283 16.962891 25.474609 C 16.744237 25.255943 16.486747 25.148438 16.1875 25.148438 z "
       transform="translate(203.3125,672.125)"
       id="rect2995" />
  </g>
</svg>
