<?xml version="1.0" encoding="UTF-8" standalone="no"?>
<!-- Created with Inkscape (http://www.inkscape.org/) -->

<svg
   xmlns:dc="http://purl.org/dc/elements/1.1/"
   xmlns:cc="http://creativecommons.org/ns#"
   xmlns:rdf="http://www.w3.org/1999/02/22-rdf-syntax-ns#"
   xmlns:svg="http://www.w3.org/2000/svg"
   xmlns="http://www.w3.org/2000/svg"
   xmlns:xlink="http://www.w3.org/1999/xlink"
   xmlns:sodipodi="http://sodipodi.sourceforge.net/DTD/sodipodi-0.dtd"
   xmlns:inkscape="http://www.inkscape.org/namespaces/inkscape"
   width="32"
   height="32"
   id="svg4271"
   version="1.1"
   inkscape:version="0.92.4 (5da689c313, 2019-01-14)"
   sodipodi:docname="visualidentity-uep.svg"
   inkscape:export-filename="C:\Projects\sien-common\edicons\colorizedpngs\visualidentity-uep.png"
   inkscape:export-xdpi="576"
   inkscape:export-ydpi="576">
  <defs
     id="defs4273">
    <inkscape:path-effect
       effect="skeletal"
       id="path-effect3060"
       is_visible="true"
       pattern="M 9.53125,0 C 9.53125,0 0,9.04999 0,15.3125 0,20.406167 2.831179,24.694903 6.71875,26.125 L 8.9375,9.34375 l 0,17.28125 0,4.65625 2.90625,0 -0.625,-4.8125 C 15.669796,25.513216 19.0625,20.883181 19.0625,15.3125 19.0625,9.04999 9.53125,0 9.53125,0 z"
       copytype="single_stretched"
       prop_scale="1"
       scale_y_rel="false"
       spacing="0"
       normal_offset="0"
       tang_offset="0"
       prop_units="false"
       vertical_pattern="false"
       fuse_tolerance="0" />
    <inkscape:path-effect
       effect="skeletal"
       id="path-effect3050"
       is_visible="true"
       pattern="M 9.53125,0 C 9.53125,0 0,9.04999 0,15.3125 0,20.406167 2.831179,24.694903 6.71875,26.125 L 8.9375,9.34375 l 0,17.28125 0,4.65625 2.90625,0 -0.625,-4.8125 C 15.669796,25.513216 19.0625,20.883181 19.0625,15.3125 19.0625,9.04999 9.53125,0 9.53125,0 z"
       copytype="single_stretched"
       prop_scale="1"
       scale_y_rel="false"
       spacing="0"
       normal_offset="0"
       tang_offset="0"
       prop_units="false"
       vertical_pattern="false"
       fuse_tolerance="0" />
    <inkscape:path-effect
       effect="skeletal"
       id="path-effect3011"
       is_visible="true"
       pattern="M 0,0 1,0"
       copytype="single_stretched"
       prop_scale="1"
       scale_y_rel="false"
       spacing="0"
       normal_offset="0"
       tang_offset="0"
       prop_units="false"
       vertical_pattern="false"
       fuse_tolerance="0" />
    <inkscape:path-effect
       effect="skeletal"
       id="path-effect3002"
       is_visible="true"
       pattern="m 316.73214,558.2899 c 0,0 -9.07677,9.53125 -15.33928,9.53125 -6.26252,0 -11.33929,-4.26729 -11.33929,-9.53125 0,-5.26397 5.07677,-9.53125 11.33929,-9.53125 6.26251,0 15.33928,9.53125 15.33928,9.53125 z"
       copytype="single_stretched"
       prop_scale="1"
       scale_y_rel="false"
       spacing="0"
       normal_offset="0"
       tang_offset="0"
       prop_units="false"
       vertical_pattern="false"
       fuse_tolerance="0" />
    <clipPath
       id="SVGID_2_">
      <use
         id="use9"
         overflow="visible"
         xlink:href="#SVGID_1_" />
    </clipPath>
    <clipPath
       id="SVGID_2_-1">
      <use
         xlink:href="#SVGID_1_"
         overflow="visible"
         id="use9-7" />
    </clipPath>
    <defs
       id="defs5">
      <rect
         id="SVGID_1_"
         x="180.133"
         y="92.544"
         width="232.938"
         height="157.803" />
    </defs>
  </defs>
  <sodipodi:namedview
     id="base"
     pagecolor="#ffffff"
     bordercolor="#666666"
     borderopacity="1.0"
     inkscape:pageopacity="0.0"
     inkscape:pageshadow="2"
     inkscape:zoom="11.2"
     inkscape:cx="-10.469642"
     inkscape:cy="27.900947"
     inkscape:document-units="px"
     inkscape:current-layer="layer1"
     showgrid="false"
     fit-margin-top="0"
     fit-margin-left="0"
     fit-margin-right="0"
     fit-margin-bottom="0"
     inkscape:window-width="1920"
     inkscape:window-height="1027"
     inkscape:window-x="1912"
     inkscape:window-y="-8"
     inkscape:window-maximized="1"
     showguides="false"
     inkscape:guide-bbox="true" />
  <metadata
     id="metadata4276">
    <rdf:RDF>
      <cc:Work
         rdf:about="">
        <dc:format>image/svg+xml</dc:format>
        <dc:type
           rdf:resource="http://purl.org/dc/dcmitype/StillImage" />
        <dc:title />
      </cc:Work>
    </rdf:RDF>
  </metadata>
  <g
     inkscape:label="Layer 1"
     inkscape:groupmode="layer"
     id="layer1"
     transform="translate(-281.4375,-566.48186)">
    <path
       style="fill:#000000;fill-opacity:1;stroke:none"
       d="M 3 2 C 2.446 2 2 2.446 2 3 L 2 20.103516 L 2 29 C 2 29.554 2.446 30 3 30 L 11.894531 30 L 29 30 C 29.1385 30 29.270915 29.972375 29.390625 29.921875 C 29.749785 29.77049 30 29.4155 30 29 L 30 24.890625 A 0.62476969 0.62476969 0 0 1 29.871094 24.904297 L 26.248047 24.904297 C 25.444047 26.377577 23.739497 27.404297 21.748047 27.404297 C 19.756587 27.404297 18.054 26.377577 17.25 24.904297 L 16.75 24.904297 A 1.2495393 1.2495393 0 0 0 15.5 26.154297 A 1.2495393 1.2495393 0 0 1 14.251953 27.404297 L 11.751953 27.404297 A 1.2495393 1.2495393 0 0 1 10.501953 26.154297 A 6.2476969 6.2476969 0 0 1 16.75 19.90625 L 18.257812 19.90625 C 18.871253 19.38144 19.64367 19.006953 20.5 18.814453 L 20.5 16.957031 L 21.748047 16.824219 L 22.998047 16.957031 L 22.998047 18.814453 C 23.854367 19.009683 24.624831 19.38301 25.238281 19.90625 L 29.871094 19.90625 A 0.62476969 0.62476969 0 0 1 30 19.921875 L 30 11.896484 L 30 3 C 30 2.446 29.554 2 29 2 L 20.105469 2 L 3 2 z M 21.123047 12.410156 L 22.373047 12.410156 A 0.62476969 0.62476969 0 0 1 22.998047 13.035156 L 22.998047 14.117188 L 27.308594 13.662109 C 27.676424 13.623409 27.996094 13.928269 27.996094 14.318359 L 27.996094 15.498047 C 27.996094 15.888137 27.676424 16.193347 27.308594 16.154297 L 21.748047 15.568359 L 16.1875 16.154297 C 15.81966 16.193297 15.5 15.888137 15.5 15.498047 L 15.5 14.318359 C 15.5 13.927879 15.81966 13.623449 16.1875 13.662109 L 20.5 14.117188 L 20.5 13.035156 A 0.62476969 0.62476969 0 0 1 21.123047 12.410156 z "
       transform="translate(281.4375,566.48186)"
       id="rect2995" />
  </g>
</svg>
