<?xml version="1.0" encoding="UTF-8" standalone="no"?>
<!-- Created with Inkscape (http://www.inkscape.org/) -->

<svg
   xmlns:dc="http://purl.org/dc/elements/1.1/"
   xmlns:cc="http://creativecommons.org/ns#"
   xmlns:rdf="http://www.w3.org/1999/02/22-rdf-syntax-ns#"
   xmlns:svg="http://www.w3.org/2000/svg"
   xmlns="http://www.w3.org/2000/svg"
   xmlns:sodipodi="http://sodipodi.sourceforge.net/DTD/sodipodi-0.dtd"
   xmlns:inkscape="http://www.inkscape.org/namespaces/inkscape"
   width="32"
   height="32"
   id="svg3608"
   version="1.1"
   inkscape:version="0.92.4 (5da689c313, 2019-01-14)"
   sodipodi:docname="visualidentity-celfon.svg"
   inkscape:export-filename="C:\Projects\sien-common\edicons\colorizedpngs\visualidentity-celfon.png"
   inkscape:export-xdpi="540"
   inkscape:export-ydpi="540">
  <defs
     id="defs3610">
    <linearGradient
       y2="276.55899"
       x2="434.30521"
       y1="290.0405"
       x1="423.79391"
       gradientUnits="userSpaceOnUse"
       id="SVGID_3_">
      <stop
         id="stop26"
         style="stop-color:#6299BE"
         offset="0" />
      <stop
         id="stop28"
         style="stop-color:#3B80AE"
         offset="1" />
    </linearGradient>
    <linearGradient
       y2="300.50229"
       x2="388.9137"
       y1="293.1777"
       x1="420.64011"
       gradientUnits="userSpaceOnUse"
       id="SVGID_2_">
      <stop
         id="stop17"
         style="stop-color:#89B5D0"
         offset="0" />
      <stop
         id="stop19"
         style="stop-color:#6BA2C4"
         offset="1" />
    </linearGradient>
    <linearGradient
       y2="322.70029"
       x2="435.91449"
       y1="294.87839"
       x1="423.02151"
       gradientUnits="userSpaceOnUse"
       id="SVGID_1_">
      <stop
         id="stop8"
         style="stop-color:#7690BA"
         offset="0" />
      <stop
         id="stop10"
         style="stop-color:#5474A9"
         offset="1" />
    </linearGradient>
    <linearGradient
       y2="276.55899"
       x2="434.30521"
       y1="290.0405"
       x1="423.79391"
       gradientUnits="userSpaceOnUse"
       id="SVGID_3_-8">
      <stop
         id="stop26-8"
         style="stop-color:#6299BE"
         offset="0" />
      <stop
         id="stop28-2"
         style="stop-color:#3B80AE"
         offset="1" />
    </linearGradient>
    <linearGradient
       y2="300.50229"
       x2="388.9137"
       y1="293.1777"
       x1="420.64011"
       gradientUnits="userSpaceOnUse"
       id="SVGID_2_-0">
      <stop
         id="stop17-9"
         style="stop-color:#89B5D0"
         offset="0" />
      <stop
         id="stop19-4"
         style="stop-color:#6BA2C4"
         offset="1" />
    </linearGradient>
    <linearGradient
       y2="322.70029"
       x2="435.91449"
       y1="294.87839"
       x1="423.02151"
       gradientUnits="userSpaceOnUse"
       id="SVGID_1_-1">
      <stop
         id="stop8-7"
         style="stop-color:#7690BA"
         offset="0" />
      <stop
         id="stop10-4"
         style="stop-color:#5474A9"
         offset="1" />
    </linearGradient>
  </defs>
  <sodipodi:namedview
     id="base"
     pagecolor="#ffffff"
     bordercolor="#666666"
     borderopacity="1.0"
     inkscape:pageopacity="0.0"
     inkscape:pageshadow="2"
     inkscape:zoom="7.919596"
     inkscape:cx="-63.658027"
     inkscape:cy="7.4438953"
     inkscape:document-units="px"
     inkscape:current-layer="layer1"
     showgrid="false"
     inkscape:window-width="1920"
     inkscape:window-height="1017"
     inkscape:window-x="-8"
     inkscape:window-y="-8"
     inkscape:window-maximized="1"
     fit-margin-top="0"
     fit-margin-left="0"
     fit-margin-right="0"
     fit-margin-bottom="0" />
  <metadata
     id="metadata3613">
    <rdf:RDF>
      <cc:Work
         rdf:about="">
        <dc:format>image/svg+xml</dc:format>
        <dc:type
           rdf:resource="http://purl.org/dc/dcmitype/StillImage" />
        <dc:title />
      </cc:Work>
    </rdf:RDF>
  </metadata>
  <g
     inkscape:label="Layer 1"
     inkscape:groupmode="layer"
     id="layer1"
     transform="translate(-203.3125,-672.125)">
    <path
       style="fill:#000000;fill-opacity:1;stroke:none"
       d="M 3 2 C 2.446 2 2 2.446 2 3 L 2 29 C 2 29.554 2.446 30 3 30 L 23.445312 30 L 17.134766 19.671875 A 3.8827014 3.8827014 0 0 1 16.949219 19.714844 A 3.8827014 3.8827014 0 0 1 16.841797 19.738281 A 3.8827014 3.8827014 0 0 1 16.617188 19.771484 A 3.8827014 3.8827014 0 0 1 16.449219 19.794922 A 3.8827014 3.8827014 0 0 1 16.240234 19.806641 A 3.8827014 3.8827014 0 0 1 16.064453 19.8125 A 3.8827014 3.8827014 0 0 1 15.84375 19.800781 A 3.8827014 3.8827014 0 0 1 15.671875 19.789062 A 3.8827014 3.8827014 0 0 1 15.484375 19.759766 A 3.8827014 3.8827014 0 0 1 15.287109 19.726562 A 3.8827014 3.8827014 0 0 1 15.105469 19.679688 A 3.8827014 3.8827014 0 0 1 14.908203 19.625 A 3.8827014 3.8827014 0 0 1 14.730469 19.560547 A 3.8827014 3.8827014 0 0 1 14.554688 19.492188 A 3.8827014 3.8827014 0 0 1 14.361328 19.400391 A 3.8827014 3.8827014 0 0 1 14.240234 19.341797 A 3.8827014 3.8827014 0 0 1 14.189453 19.310547 A 3.8827014 3.8827014 0 0 1 14.126953 19.275391 A 3.8827014 3.8827014 0 0 1 13.904297 19.130859 A 3.8827014 3.8827014 0 0 1 13.771484 19.037109 A 3.8827014 3.8827014 0 0 1 13.605469 18.904297 A 3.8827014 3.8827014 0 0 1 13.478516 18.792969 A 3.8827014 3.8827014 0 0 1 13.306641 18.626953 A 3.8827014 3.8827014 0 0 1 13.205078 18.519531 A 3.8827014 3.8827014 0 0 1 13.072266 18.359375 A 3.8827014 3.8827014 0 0 1 12.943359 18.189453 A 3.8827014 3.8827014 0 0 1 12.853516 18.058594 A 3.8827014 3.8827014 0 0 1 12.783203 17.958984 A 3.8827014 3.8827014 0 0 1 12.712891 17.833984 A 3.8827014 3.8827014 0 0 1 12.681641 17.775391 A 3.8827014 3.8827014 0 0 1 12.570312 17.548828 A 3.8827014 3.8827014 0 0 1 12.513672 17.421875 A 3.8827014 3.8827014 0 0 1 12.431641 17.199219 A 3.8827014 3.8827014 0 0 1 12.378906 17.042969 A 3.8827014 3.8827014 0 0 1 12.326172 16.839844 A 3.8827014 3.8827014 0 0 1 12.287109 16.673828 A 3.8827014 3.8827014 0 0 1 12.255859 16.478516 A 3.8827014 3.8827014 0 0 1 12.230469 16.267578 A 3.8827014 3.8827014 0 0 1 12.224609 16.138672 A 3.8827014 3.8827014 0 0 1 12.214844 15.882812 A 3.8827014 3.8827014 0 0 1 12.226562 15.716797 A 3.8827014 3.8827014 0 0 1 12.240234 15.505859 A 3.8827014 3.8827014 0 0 1 12.267578 15.335938 A 3.8827014 3.8827014 0 0 1 12.306641 15.107422 A 3.8827014 3.8827014 0 0 1 12.339844 14.974609 A 3.8827014 3.8827014 0 0 1 12.404297 14.744141 A 3.8827014 3.8827014 0 0 1 12.462891 14.580078 A 3.8827014 3.8827014 0 0 1 12.541016 14.380859 A 3.8827014 3.8827014 0 0 1 12.613281 14.230469 A 3.8827014 3.8827014 0 0 1 12.6875 14.078125 A 3.8827014 3.8827014 0 0 1 12.722656 14.017578 A 3.8827014 3.8827014 0 0 1 12.75 13.96875 A 3.8827014 3.8827014 0 0 1 12.892578 13.748047 A 3.8827014 3.8827014 0 0 1 12.998047 13.599609 A 3.8827014 3.8827014 0 0 1 13.121094 13.445312 A 3.8827014 3.8827014 0 0 1 13.242188 13.308594 A 3.8827014 3.8827014 0 0 1 13.392578 13.150391 A 3.8827014 3.8827014 0 0 1 13.519531 13.033203 A 3.8827014 3.8827014 0 0 1 13.667969 12.908203 A 3.8827014 3.8827014 0 0 1 13.833984 12.78125 A 3.8827014 3.8827014 0 0 1 13.992188 12.673828 A 3.8827014 3.8827014 0 0 1 14.072266 12.621094 L 14.074219 12.619141 A 3.8827014 3.8827014 0 0 1 14.177734 12.560547 A 3.8827014 3.8827014 0 0 1 14.261719 12.511719 A 3.8827014 3.8827014 0 0 1 14.457031 12.417969 A 3.8827014 3.8827014 0 0 1 14.628906 12.339844 A 3.8827014 3.8827014 0 0 1 14.78125 12.283203 A 3.8827014 3.8827014 0 0 1 15.003906 12.208984 A 3.8827014 3.8827014 0 0 1 15.134766 12.175781 A 3.8827014 3.8827014 0 0 1 15.375 12.117188 A 3.8827014 3.8827014 0 0 1 15.576172 12.087891 A 3.8827014 3.8827014 0 0 1 15.740234 12.066406 A 3.8827014 3.8827014 0 0 1 15.945312 12.054688 A 3.8827014 3.8827014 0 0 1 16.150391 12.048828 A 3.8827014 3.8827014 0 0 1 16.316406 12.060547 A 3.8827014 3.8827014 0 0 1 16.525391 12.072266 A 3.8827014 3.8827014 0 0 1 16.720703 12.101562 A 3.8827014 3.8827014 0 0 1 16.910156 12.136719 A 3.8827014 3.8827014 0 0 1 17.113281 12.1875 A 3.8827014 3.8827014 0 0 1 17.273438 12.232422 A 3.8827014 3.8827014 0 0 1 17.480469 12.306641 A 3.8827014 3.8827014 0 0 1 17.648438 12.373047 A 3.8827014 3.8827014 0 0 1 17.847656 12.470703 A 3.8827014 3.8827014 0 0 1 17.955078 12.521484 A 3.8827014 3.8827014 0 0 1 17.980469 12.537109 A 3.8827014 3.8827014 0 0 1 18.158203 12.644531 A 3.8827014 3.8827014 0 0 1 18.308594 12.742188 A 3.8827014 3.8827014 0 0 1 18.466797 12.859375 A 3.8827014 3.8827014 0 0 1 18.615234 12.978516 A 3.8827014 3.8827014 0 0 1 18.765625 13.119141 A 3.8827014 3.8827014 0 0 1 18.894531 13.244141 A 3.8827014 3.8827014 0 0 1 19.042969 13.412109 A 3.8827014 3.8827014 0 0 1 19.142578 13.529297 A 3.8827014 3.8827014 0 0 1 19.287109 13.728516 A 3.8827014 3.8827014 0 0 1 19.367188 13.84375 A 3.8827014 3.8827014 0 0 1 19.410156 13.908203 A 3.8827014 3.8827014 0 0 1 19.5 14.070312 A 3.8827014 3.8827014 0 0 1 19.552734 14.166016 A 3.8827014 3.8827014 0 0 1 19.667969 14.419922 A 3.8827014 3.8827014 0 0 1 19.710938 14.517578 A 3.8827014 3.8827014 0 0 1 19.802734 14.787109 A 3.8827014 3.8827014 0 0 1 19.832031 14.880859 A 3.8827014 3.8827014 0 0 1 19.894531 15.148438 A 3.8827014 3.8827014 0 0 1 19.919922 15.273438 A 3.8827014 3.8827014 0 0 1 19.949219 15.509766 A 3.8827014 3.8827014 0 0 1 19.966797 15.65625 A 3.8827014 3.8827014 0 0 1 19.972656 15.884766 A 3.8827014 3.8827014 0 0 1 19.972656 16.050781 A 3.8827014 3.8827014 0 0 1 19.957031 16.279297 A 3.8827014 3.8827014 0 0 1 19.941406 16.429688 A 3.8827014 3.8827014 0 0 1 19.892578 16.712891 A 3.8827014 3.8827014 0 0 1 19.880859 16.78125 L 30 22.291016 L 30 3 C 30 2.446 29.554 2 29 2 L 3 2 z M 16.199219 13.912109 A 2.0211322 2.0211322 0 0 0 16.193359 13.914062 A 2.0211322 2.0211322 0 0 0 16.039062 13.914062 A 2.0211322 2.0211322 0 0 0 15.980469 13.914062 A 2.0211322 2.0211322 0 0 0 15.878906 13.923828 A 2.0211322 2.0211322 0 0 0 15.773438 13.9375 A 2.0211322 2.0211322 0 0 0 15.677734 13.957031 A 2.0211322 2.0211322 0 0 0 15.572266 13.980469 A 2.0211322 2.0211322 0 0 0 15.462891 14.013672 A 2.0211322 2.0211322 0 0 0 15.40625 14.03125 A 2.0211322 2.0211322 0 0 0 15.394531 14.037109 A 2.0211322 2.0211322 0 0 0 15.253906 14.095703 A 2.0211322 2.0211322 0 0 0 15.208984 14.117188 A 2.0211322 2.0211322 0 0 0 15.083984 14.185547 A 2.0211322 2.0211322 0 0 0 15.025391 14.21875 L 15.023438 14.220703 A 2.0211322 2.0211322 0 0 0 14.966797 14.259766 A 2.0211322 2.0211322 0 0 0 14.880859 14.322266 A 2.0211322 2.0211322 0 0 0 14.808594 14.376953 A 2.0211322 2.0211322 0 0 0 14.712891 14.460938 A 2.0211322 2.0211322 0 0 0 14.660156 14.511719 A 2.0211322 2.0211322 0 0 0 14.578125 14.599609 A 2.0211322 2.0211322 0 0 0 14.517578 14.671875 A 2.0211322 2.0211322 0 0 0 14.457031 14.75 A 2.0211322 2.0211322 0 0 0 14.398438 14.837891 A 2.0211322 2.0211322 0 0 0 14.349609 14.917969 A 2.0211322 2.0211322 0 0 0 14.289062 15.029297 A 2.0211322 2.0211322 0 0 0 14.269531 15.070312 A 2.0211322 2.0211322 0 0 0 14.222656 15.179688 A 2.0211322 2.0211322 0 0 0 14.193359 15.251953 A 2.0211322 2.0211322 0 0 0 14.160156 15.353516 A 2.0211322 2.0211322 0 0 0 14.128906 15.46875 A 2.0211322 2.0211322 0 0 0 14.113281 15.542969 A 2.0211322 2.0211322 0 0 0 14.095703 15.642578 A 2.0211322 2.0211322 0 0 0 14.082031 15.773438 A 2.0211322 2.0211322 0 0 0 14.076172 15.853516 A 2.0211322 2.0211322 0 0 0 14.076172 15.955078 A 2.0211322 2.0211322 0 0 0 14.080078 16.060547 A 2.0211322 2.0211322 0 0 0 14.087891 16.144531 A 2.0211322 2.0211322 0 0 0 14.101562 16.257812 A 2.0211322 2.0211322 0 0 0 14.119141 16.347656 A 2.0211322 2.0211322 0 0 0 14.144531 16.458984 A 2.0211322 2.0211322 0 0 0 14.175781 16.556641 A 2.0211322 2.0211322 0 0 0 14.203125 16.638672 A 2.0211322 2.0211322 0 0 0 14.244141 16.738281 A 2.0211322 2.0211322 0 0 0 14.291016 16.841797 A 2.0211322 2.0211322 0 0 0 14.326172 16.904297 A 2.0211322 2.0211322 0 0 0 14.382812 17.007812 A 2.0211322 2.0211322 0 0 0 14.417969 17.058594 A 2.0211322 2.0211322 0 0 0 14.435547 17.083984 A 2.0211322 2.0211322 0 0 0 14.535156 17.214844 A 2.0211322 2.0211322 0 0 0 14.574219 17.257812 A 2.0211322 2.0211322 0 0 0 14.677734 17.371094 A 2.0211322 2.0211322 0 0 0 14.695312 17.386719 A 2.0211322 2.0211322 0 0 0 14.830078 17.505859 A 2.0211322 2.0211322 0 0 0 14.851562 17.521484 A 2.0211322 2.0211322 0 0 0 14.986328 17.619141 A 2.0211322 2.0211322 0 0 0 15.029297 17.644531 A 2.0211322 2.0211322 0 0 0 15.345703 17.804688 A 2.0211322 2.0211322 0 0 0 15.361328 17.8125 A 2.0211322 2.0211322 0 0 0 15.478516 17.853516 A 2.0211322 2.0211322 0 0 0 15.572266 17.882812 A 2.0211322 2.0211322 0 0 0 15.677734 17.908203 A 2.0211322 2.0211322 0 0 0 15.767578 17.923828 A 2.0211322 2.0211322 0 0 0 15.888672 17.939453 A 2.0211322 2.0211322 0 0 0 15.957031 17.947266 A 2.0211322 2.0211322 0 0 0 16.087891 17.949219 A 2.0211322 2.0211322 0 0 0 16.167969 17.949219 A 2.0211322 2.0211322 0 0 0 16.265625 17.943359 A 2.0211322 2.0211322 0 0 0 16.375 17.931641 A 2.0211322 2.0211322 0 0 0 16.474609 17.912109 A 2.0211322 2.0211322 0 0 0 16.564453 17.894531 A 2.0211322 2.0211322 0 0 0 16.664062 17.869141 A 2.0211322 2.0211322 0 0 0 16.748047 17.841797 L 17.498047 17.384766 A 2.0211322 2.0211322 0 0 0 17.570312 17.310547 A 2.0211322 2.0211322 0 0 0 17.582031 17.298828 A 2.0211322 2.0211322 0 0 0 17.617188 17.253906 L 18.037109 16.486328 A 2.0211322 2.0211322 0 0 1 18.039062 16.484375 A 2.0211322 2.0211322 0 0 0 18.052734 16.4375 A 2.0211322 2.0211322 0 0 0 18.056641 16.417969 A 2.0211322 2.0211322 0 0 0 18.072266 16.337891 A 2.0211322 2.0211322 0 0 0 18.097656 16.197266 A 2.0211322 2.0211322 0 0 0 18.097656 16.193359 A 2.0211322 2.0211322 0 0 0 18.099609 16.175781 A 2.0211322 2.0211322 0 0 0 18.113281 16.009766 A 2.0211322 2.0211322 0 0 0 18.113281 15.941406 A 2.0211322 2.0211322 0 0 0 18.109375 15.789062 A 2.0211322 2.0211322 0 0 0 18.085938 15.587891 A 2.0211322 2.0211322 0 0 0 18.042969 15.394531 A 2.0211322 2.0211322 0 0 0 18.041016 15.390625 A 2.0211322 2.0211322 0 0 0 18.035156 15.375 A 2.0211322 2.0211322 0 0 0 17.982422 15.210938 A 2.0211322 2.0211322 0 0 0 17.962891 15.164062 A 2.0211322 2.0211322 0 0 0 17.900391 15.023438 A 2.0211322 2.0211322 0 0 0 17.878906 14.980469 A 2.0211322 2.0211322 0 0 0 17.796875 14.839844 A 2.0211322 2.0211322 0 0 0 17.693359 14.695312 A 2.0211322 2.0211322 0 0 0 17.662109 14.65625 A 2.0211322 2.0211322 0 0 0 17.566406 14.546875 A 2.0211322 2.0211322 0 0 0 17.519531 14.5 A 2.0211322 2.0211322 0 0 0 17.419922 14.40625 A 2.0211322 2.0211322 0 0 0 17.378906 14.369141 A 2.0211322 2.0211322 0 0 0 17.273438 14.289062 A 2.0211322 2.0211322 0 0 0 17.1875 14.230469 A 2.0211322 2.0211322 0 0 0 17.123047 14.191406 A 2.0211322 2.0211322 0 0 0 16.990234 14.119141 A 2.0211322 2.0211322 0 0 0 16.978516 14.111328 A 2.0211322 2.0211322 0 0 0 16.970703 14.109375 A 2.0211322 2.0211322 0 0 0 16.859375 14.0625 A 2.0211322 2.0211322 0 0 0 16.765625 14.025391 A 2.0211322 2.0211322 0 0 0 16.681641 14 A 2.0211322 2.0211322 0 0 0 16.574219 13.96875 A 2.0211322 2.0211322 0 0 0 16.480469 13.949219 A 2.0211322 2.0211322 0 0 0 16.378906 13.931641 A 2.0211322 2.0211322 0 0 0 16.232422 13.916016 A 2.0211322 2.0211322 0 0 0 16.199219 13.912109 z M 19.074219 18.763672 L 25.939453 30 L 29 30 C 29.554 30 30 29.554 30 29 L 30 24.712891 L 19.074219 18.763672 z "
       transform="translate(203.3125,672.125)"
       id="rect2995" />
  </g>
</svg>
