<?xml version="1.0" encoding="UTF-8" standalone="no"?>
<!-- Created with Inkscape (http://www.inkscape.org/) -->

<svg
   xmlns:dc="http://purl.org/dc/elements/1.1/"
   xmlns:cc="http://creativecommons.org/ns#"
   xmlns:rdf="http://www.w3.org/1999/02/22-rdf-syntax-ns#"
   xmlns:svg="http://www.w3.org/2000/svg"
   xmlns="http://www.w3.org/2000/svg"
   xmlns:xlink="http://www.w3.org/1999/xlink"
   xmlns:sodipodi="http://sodipodi.sourceforge.net/DTD/sodipodi-0.dtd"
   xmlns:inkscape="http://www.inkscape.org/namespaces/inkscape"
   width="32"
   height="32"
   id="svg4271"
   version="1.1"
   inkscape:version="0.48.5 r10040"
   sodipodi:docname="visualidentity-er.svg">
  <defs
     id="defs4273">
    <inkscape:path-effect
       effect="skeletal"
       id="path-effect3060"
       is_visible="true"
       pattern="M 9.53125,0 C 9.53125,0 0,9.04999 0,15.3125 0,20.406167 2.831179,24.694903 6.71875,26.125 L 8.9375,9.34375 l 0,17.28125 0,4.65625 2.90625,0 -0.625,-4.8125 C 15.669796,25.513216 19.0625,20.883181 19.0625,15.3125 19.0625,9.04999 9.53125,0 9.53125,0 z"
       copytype="single_stretched"
       prop_scale="1"
       scale_y_rel="false"
       spacing="0"
       normal_offset="0"
       tang_offset="0"
       prop_units="false"
       vertical_pattern="false"
       fuse_tolerance="0" />
    <inkscape:path-effect
       effect="skeletal"
       id="path-effect3050"
       is_visible="true"
       pattern="M 9.53125,0 C 9.53125,0 0,9.04999 0,15.3125 0,20.406167 2.831179,24.694903 6.71875,26.125 L 8.9375,9.34375 l 0,17.28125 0,4.65625 2.90625,0 -0.625,-4.8125 C 15.669796,25.513216 19.0625,20.883181 19.0625,15.3125 19.0625,9.04999 9.53125,0 9.53125,0 z"
       copytype="single_stretched"
       prop_scale="1"
       scale_y_rel="false"
       spacing="0"
       normal_offset="0"
       tang_offset="0"
       prop_units="false"
       vertical_pattern="false"
       fuse_tolerance="0" />
    <inkscape:path-effect
       effect="skeletal"
       id="path-effect3011"
       is_visible="true"
       pattern="M 0,0 1,0"
       copytype="single_stretched"
       prop_scale="1"
       scale_y_rel="false"
       spacing="0"
       normal_offset="0"
       tang_offset="0"
       prop_units="false"
       vertical_pattern="false"
       fuse_tolerance="0" />
    <inkscape:path-effect
       effect="skeletal"
       id="path-effect3002"
       is_visible="true"
       pattern="m 316.73214,558.2899 c 0,0 -9.07677,9.53125 -15.33928,9.53125 -6.26252,0 -11.33929,-4.26729 -11.33929,-9.53125 0,-5.26397 5.07677,-9.53125 11.33929,-9.53125 6.26251,0 15.33928,9.53125 15.33928,9.53125 z"
       copytype="single_stretched"
       prop_scale="1"
       scale_y_rel="false"
       spacing="0"
       normal_offset="0"
       tang_offset="0"
       prop_units="false"
       vertical_pattern="false"
       fuse_tolerance="0" />
    <clipPath
       id="SVGID_2_">
      <use
         id="use9"
         overflow="visible"
         xlink:href="#SVGID_1_" />
    </clipPath>
    <clipPath
       id="SVGID_2_-1">
      <use
         xlink:href="#SVGID_1_"
         overflow="visible"
         id="use9-7" />
    </clipPath>
    <defs
       id="defs5">
      <rect
         id="SVGID_1_"
         x="180.133"
         y="92.544"
         width="232.938"
         height="157.803" />
    </defs>
    <clipPath
       id="SVGID_14_">
      <use
         id="use91"
         overflow="visible"
         xlink:href="#SVGID_13_" />
    </clipPath>
    <clipPath
       id="SVGID_12_">
      <use
         id="use49"
         overflow="visible"
         xlink:href="#SVGID_11_" />
    </clipPath>
    <clipPath
       id="SVGID_14_-1">
      <use
         id="use91-7"
         overflow="visible"
         xlink:href="#SVGID_13_" />
    </clipPath>
    <clipPath
       id="SVGID_12_-4">
      <use
         id="use49-0"
         overflow="visible"
         xlink:href="#SVGID_11_" />
    </clipPath>
    <clipPath
       id="SVGID_14_-8">
      <use
         id="use91-8"
         overflow="visible"
         xlink:href="#SVGID_13_" />
    </clipPath>
    <clipPath
       id="SVGID_12_-2">
      <use
         id="use49-4"
         overflow="visible"
         xlink:href="#SVGID_11_" />
    </clipPath>
    <clipPath
       id="SVGID_12_-1">
      <use
         id="use49-7"
         overflow="visible"
         xlink:href="#SVGID_11_" />
    </clipPath>
    <clipPath
       id="SVGID_12_-15">
      <use
         id="use49-2"
         overflow="visible"
         xlink:href="#SVGID_11_" />
    </clipPath>
    <clipPath
       id="SVGID_12_-14">
      <use
         xlink:href="#SVGID_11_"
         overflow="visible"
         id="use49-23" />
    </clipPath>
    <defs
       id="defs45">
      <rect
         id="SVGID_11_"
         width="595.28"
         height="841.89" />
    </defs>
    <clipPath
       id="SVGID_14_-7">
      <use
         xlink:href="#SVGID_13_"
         overflow="visible"
         id="use91-6" />
    </clipPath>
    <defs
       id="defs87">
      <rect
         id="SVGID_13_"
         width="595.28"
         height="841.89" />
    </defs>
    <defs
       id="defs5-1">
      <rect
         height="157.803"
         width="232.938"
         y="92.544"
         x="180.133"
         id="SVGID_1_-23" />
    </defs>
    <clipPath
       id="SVGID_2_-1-4">
      <use
         id="use9-7-3"
         overflow="visible"
         xlink:href="#SVGID_1_-23" />
    </clipPath>
    <clipPath
       id="SVGID_2_-9">
      <use
         xlink:href="#SVGID_1_-23"
         overflow="visible"
         id="use9-5" />
    </clipPath>
    <inkscape:path-effect
       fuse_tolerance="0"
       vertical_pattern="false"
       prop_units="false"
       tang_offset="0"
       normal_offset="0"
       spacing="0"
       scale_y_rel="false"
       prop_scale="1"
       copytype="single_stretched"
       pattern="m 316.73214,558.2899 c 0,0 -9.07677,9.53125 -15.33928,9.53125 -6.26252,0 -11.33929,-4.26729 -11.33929,-9.53125 0,-5.26397 5.07677,-9.53125 11.33929,-9.53125 6.26251,0 15.33928,9.53125 15.33928,9.53125 z"
       is_visible="true"
       id="path-effect3002-7"
       effect="skeletal" />
    <inkscape:path-effect
       fuse_tolerance="0"
       vertical_pattern="false"
       prop_units="false"
       tang_offset="0"
       normal_offset="0"
       spacing="0"
       scale_y_rel="false"
       prop_scale="1"
       copytype="single_stretched"
       pattern="M 0,0 1,0"
       is_visible="true"
       id="path-effect3011-2"
       effect="skeletal" />
    <inkscape:path-effect
       fuse_tolerance="0"
       vertical_pattern="false"
       prop_units="false"
       tang_offset="0"
       normal_offset="0"
       spacing="0"
       scale_y_rel="false"
       prop_scale="1"
       copytype="single_stretched"
       pattern="M 9.53125,0 C 9.53125,0 0,9.04999 0,15.3125 0,20.406167 2.831179,24.694903 6.71875,26.125 L 8.9375,9.34375 l 0,17.28125 0,4.65625 2.90625,0 -0.625,-4.8125 C 15.669796,25.513216 19.0625,20.883181 19.0625,15.3125 19.0625,9.04999 9.53125,0 9.53125,0 z"
       is_visible="true"
       id="path-effect3050-9"
       effect="skeletal" />
    <inkscape:path-effect
       fuse_tolerance="0"
       vertical_pattern="false"
       prop_units="false"
       tang_offset="0"
       normal_offset="0"
       spacing="0"
       scale_y_rel="false"
       prop_scale="1"
       copytype="single_stretched"
       pattern="M 9.53125,0 C 9.53125,0 0,9.04999 0,15.3125 0,20.406167 2.831179,24.694903 6.71875,26.125 L 8.9375,9.34375 l 0,17.28125 0,4.65625 2.90625,0 -0.625,-4.8125 C 15.669796,25.513216 19.0625,20.883181 19.0625,15.3125 19.0625,9.04999 9.53125,0 9.53125,0 z"
       is_visible="true"
       id="path-effect3060-8"
       effect="skeletal" />
  </defs>
  <sodipodi:namedview
     id="base"
     pagecolor="#ffffff"
     bordercolor="#666666"
     borderopacity="1.0"
     inkscape:pageopacity="0.0"
     inkscape:pageshadow="2"
     inkscape:zoom="10.24"
     inkscape:cx="-8.9452448"
     inkscape:cy="18.942341"
     inkscape:document-units="px"
     inkscape:current-layer="layer1"
     showgrid="false"
     fit-margin-top="0"
     fit-margin-left="0"
     fit-margin-right="0"
     fit-margin-bottom="0"
     inkscape:window-width="832"
     inkscape:window-height="666"
     inkscape:window-x="486"
     inkscape:window-y="226"
     inkscape:window-maximized="0"
     showguides="true"
     inkscape:guide-bbox="true" />
  <metadata
     id="metadata4276">
    <rdf:RDF>
      <cc:Work
         rdf:about="">
        <dc:format>image/svg+xml</dc:format>
        <dc:type
           rdf:resource="http://purl.org/dc/dcmitype/StillImage" />
        <dc:title />
      </cc:Work>
    </rdf:RDF>
  </metadata>
  <g
     inkscape:label="Layer 1"
     inkscape:groupmode="layer"
     id="layer1"
     transform="translate(-281.4375,-566.48186)">
    <path
       transform="translate(281.43751,566.48186)"
       style="fill:#fefefe"
       inkscape:connector-curvature="0"
       id="path53"
       d="m 222.958,354.819 -8.88,15.696 h 10.843 l 12.599,-15.696 h -14.562 z m -12.703,41.514 c 0.415,-4.234 3.1,-10.224 9.709,-10.224 7.228,0 8.881,6.402 8.881,10.224 h -18.59 z m 32.636,10.741 c 0.206,-1.137 0.516,-3.511 0.516,-6.196 0,-12.497 -6.196,-25.2 -22.513,-25.2 -17.556,0 -25.507,14.148 -25.507,26.954 0,15.799 9.811,25.715 26.952,25.715 6.817,0 13.116,-1.034 18.28,-3.099 l -2.065,-10.636 c -4.235,1.342 -8.571,2.066 -13.942,2.066 -7.332,0 -13.736,-3.099 -14.251,-9.604 h 32.53 z"
       clip-path="url(#SVGID_12_)" />
    <path
       transform="translate(281.43751,566.48186)"
       style="fill:#fefefe"
       inkscape:connector-curvature="0"
       id="path93"
       d="m 273.109,390.543 c -1.986,-1.079 -4.303,-1.62 -6.949,-1.62 -3.588,0 -6.392,1.315 -8.412,3.945 -2.02,2.63 -3.03,6.209 -3.03,10.737 v 25.547 h -16.509 v -53.5 h 16.509 v 9.927 h 0.209 c 2.612,-7.245 7.315,-10.868 14.106,-10.868 1.742,0 3.1,0.209 4.076,0.627 v 15.205 z"
       clip-path="url(#SVGID_14_)" />
    <path
       transform="translate(281.43751,566.48186)"
       style="fill:#fefefe"
       inkscape:connector-curvature="0"
       id="path53-9"
       d="m 222.958,354.819 -8.88,15.696 h 10.843 l 12.599,-15.696 h -14.562 z m -12.703,41.514 c 0.415,-4.234 3.1,-10.224 9.709,-10.224 7.228,0 8.881,6.402 8.881,10.224 h -18.59 z m 32.636,10.741 c 0.206,-1.137 0.516,-3.511 0.516,-6.196 0,-12.497 -6.196,-25.2 -22.513,-25.2 -17.556,0 -25.507,14.148 -25.507,26.954 0,15.799 9.811,25.715 26.952,25.715 6.817,0 13.116,-1.034 18.28,-3.099 l -2.065,-10.636 c -4.235,1.342 -8.571,2.066 -13.942,2.066 -7.332,0 -13.736,-3.099 -14.251,-9.604 h 32.53 z"
       clip-path="url(#SVGID_12_-4)" />
    <path
       transform="translate(281.43751,566.48186)"
       style="fill:#fefefe"
       inkscape:connector-curvature="0"
       id="path93-4"
       d="m 273.109,390.543 c -1.986,-1.079 -4.303,-1.62 -6.949,-1.62 -3.588,0 -6.392,1.315 -8.412,3.945 -2.02,2.63 -3.03,6.209 -3.03,10.737 v 25.547 h -16.509 v -53.5 h 16.509 v 9.927 h 0.209 c 2.612,-7.245 7.315,-10.868 14.106,-10.868 1.742,0 3.1,0.209 4.076,0.627 v 15.205 z"
       clip-path="url(#SVGID_14_-1)" />
    <path
       transform="translate(281.43751,566.48186)"
       style="fill:#fefefe"
       inkscape:connector-curvature="0"
       id="path53-5"
       d="m 222.958,354.819 -8.88,15.696 h 10.843 l 12.599,-15.696 h -14.562 z m -12.703,41.514 c 0.415,-4.234 3.1,-10.224 9.709,-10.224 7.228,0 8.881,6.402 8.881,10.224 h -18.59 z m 32.636,10.741 c 0.206,-1.137 0.516,-3.511 0.516,-6.196 0,-12.497 -6.196,-25.2 -22.513,-25.2 -17.556,0 -25.507,14.148 -25.507,26.954 0,15.799 9.811,25.715 26.952,25.715 6.817,0 13.116,-1.034 18.28,-3.099 l -2.065,-10.636 c -4.235,1.342 -8.571,2.066 -13.942,2.066 -7.332,0 -13.736,-3.099 -14.251,-9.604 h 32.53 z"
       clip-path="url(#SVGID_12_-2)" />
    <path
       transform="translate(281.43751,566.48186)"
       style="fill:#fefefe"
       inkscape:connector-curvature="0"
       id="path93-5"
       d="m 273.109,390.543 c -1.986,-1.079 -4.303,-1.62 -6.949,-1.62 -3.588,0 -6.392,1.315 -8.412,3.945 -2.02,2.63 -3.03,6.209 -3.03,10.737 v 25.547 h -16.509 v -53.5 h 16.509 v 9.927 h 0.209 c 2.612,-7.245 7.315,-10.868 14.106,-10.868 1.742,0 3.1,0.209 4.076,0.627 v 15.205 z"
       clip-path="url(#SVGID_14_-8)" />
    <path
       style="fill:#808080"
       clip-path="url(#SVGID_12_-1)"
       d="m 222.96875,354.8125 -8.90625,15.6875 10.84375,0 12.625,-15.6875 -14.5625,0 z m 46.0625,19.90625 c -6.791,0 -11.48175,3.63 -14.09375,10.875 l -0.21875,0 0,-9.9375 -16.5,0 0,7.875 c -3.59092,-4.69974 -9.19361,-7.84375 -17.3125,-7.84375 -17.556,0 -25.53125,14.1315 -25.53125,26.9375 0,15.799 9.82775,25.71875 26.96875,25.71875 5.79912,0 11.20543,-0.75531 15.875,-2.25 l 0,3.0625 16.5,0 0,-25.5625 c 0,-4.528 1.01125,-8.08875 3.03125,-10.71875 2.02,-2.63 4.81825,-3.9375 8.40625,-3.9375 2.646,0 4.9515,0.51475 6.9375,1.59375 l 0,-15.1875 c -0.976,-0.418 -2.3205,-0.625 -4.0625,-0.625 z m -49.0625,11.375 c 7.228,0 8.875,6.428 8.875,10.25 l -18.59375,0 c 0.415,-4.234 3.10975,-10.25 9.71875,-10.25 z m -9.59375,20.96875 27.84375,0 0,7.65625 c -4.1274,1.27371 -8.36672,1.96875 -13.59375,1.96875 -7.332,0 -13.735,-3.12 -14.25,-9.625 z"
       id="path53-1"
       inkscape:connector-curvature="0"
       transform="translate(281.4375,566.48186)" />
    <path
       transform="translate(281.43751,566.48186)"
       style="fill:#e254a5"
       inkscape:connector-curvature="0"
       id="path51"
       d="m 208.563,308.65 c 0,0 -6.1,0 -6.1,6.098 v 103.679 c 0,0 0,6.097 6.1,6.097 h 140.269 c 0,0 6.097,0 6.097,-6.097 V 314.748 c 0,0 0,-6.098 -6.097,-6.098 H 208.563 z"
       clip-path="url(#SVGID_12_-15)" />
    <g
       id="g3"
       transform="translate(-1.4484757,216.04427)">
      <defs
         id="defs5-2">
        <rect
           y="0"
           x="0"
           id="SVGID_1_-2"
           width="595.28003"
           height="841.89001" />
      </defs>
      <clipPath
         id="SVGID_2_-16">
        <use
           height="1"
           width="1"
           y="0"
           x="0"
           style="overflow:visible"
           xlink:href="#SVGID_1_-2"
           overflow="visible"
           id="use9-8" />
      </clipPath>
    </g>
    <g
       id="g11"
       transform="translate(-1.4484757,216.04427)">
      <defs
         id="defs13">
        <rect
           id="SVGID_3_"
           x="204.966"
           y="275.37799"
           width="232.938"
           height="157.802" />
      </defs>
      <clipPath
         id="SVGID_4_">
        <use
           height="1"
           width="1"
           y="0"
           x="0"
           style="overflow:visible"
           xlink:href="#SVGID_3_"
           overflow="visible"
           id="use17" />
      </clipPath>
    </g>
    <g
       id="g19"
       transform="translate(-1.4484757,216.04427)">
      <defs
         id="defs21">
        <rect
           y="0"
           x="0"
           id="SVGID_5_"
           width="595.28003"
           height="841.89001" />
      </defs>
      <clipPath
         id="SVGID_6_">
        <use
           height="1"
           width="1"
           y="0"
           x="0"
           style="overflow:visible"
           xlink:href="#SVGID_5_"
           overflow="visible"
           id="use25" />
      </clipPath>
    </g>
    <g
       id="g27"
       transform="translate(-1.4484757,216.04427)">
      <defs
         id="defs29">
        <rect
           y="0"
           x="0"
           id="SVGID_7_"
           width="595.28003"
           height="841.89001" />
      </defs>
      <clipPath
         id="SVGID_8_">
        <use
           height="1"
           width="1"
           y="0"
           x="0"
           style="overflow:visible"
           xlink:href="#SVGID_7_"
           overflow="visible"
           id="use33" />
      </clipPath>
    </g>
    <g
       id="g35"
       transform="translate(-1.4484757,216.04427)">
      <defs
         id="defs37">
        <rect
           y="0"
           x="0"
           id="SVGID_9_"
           width="595.28003"
           height="841.89001" />
      </defs>
      <clipPath
         id="SVGID_10_">
        <use
           height="1"
           width="1"
           y="0"
           x="0"
           style="overflow:visible"
           xlink:href="#SVGID_9_"
           overflow="visible"
           id="use41" />
      </clipPath>
    </g>
    <path
       style="fill:#000000"
       clip-path="url(#SVGID_12_-14)"
       d="M 3.125,2 C 3.125,2 2,1.9952184 2,3.46875 l 0,13.25 c 1.2574918,-1.101205 2.9429078,-1.8125 5.125,-1.8125 2.5118668,0 4.232771,0.952219 5.34375,2.40625 l 0,-2.4375 5.125,0 0,3.09375 0.0625,0 c 0.808115,-2.241498 2.242713,-3.375 4.34375,-3.375 0.53895,0 0.97929,0.05818 1.28125,0.1875 l 0,4.71875 C 22.66681,19.166173 21.943634,19 21.125,19 c -1.110075,0 -1.968791,0.405066 -2.59375,1.21875 -0.624959,0.813684 -0.9375,1.911602 -0.9375,3.3125 l 0,6.46875 11.28125,0 c 0,0 1.125,0.0045 1.125,-1.46875 L 30,3.46875 C 30,3.46875 29.994699,2 28.875,2 L 3.125,2 z m 4.625,6.4375 4.53125,0 L 8.375,13.28125 5,13.28125 7.75,8.4375 z M 6.84375,18.125 c -2.0447288,0 -2.902855,1.846312 -3.03125,3.15625 l 5.78125,0 c 0,-1.182471 -0.5137616,-3.15625 -2.75,-3.15625 z M 3.875,24.59375 c 0.1593335,2.012553 2.1378355,3 4.40625,3 1.6171673,0 2.910542,-0.230933 4.1875,-0.625 l 0,-2.375 -8.59375,0 z"
       transform="translate(281.4375,566.48186)"
       id="path51-5"
       inkscape:connector-curvature="0" />
    <g
       id="g103"
       transform="translate(-1.4484757,216.04427)">
      <defs
         id="defs105">
        <rect
           y="0"
           x="0"
           id="SVGID_15_"
           width="595.28003"
           height="841.89001" />
      </defs>
      <clipPath
         id="SVGID_16_">
        <use
           height="1"
           width="1"
           y="0"
           x="0"
           style="overflow:visible"
           xlink:href="#SVGID_15_"
           overflow="visible"
           id="use109" />
      </clipPath>
    </g>
    <g
       id="g111"
       transform="translate(-1.4484757,216.04427)">
      <defs
         id="defs113">
        <rect
           y="0"
           x="0"
           id="SVGID_17_"
           width="595.28003"
           height="841.89001" />
      </defs>
      <clipPath
         id="SVGID_18_">
        <use
           height="1"
           width="1"
           y="0"
           x="0"
           style="overflow:visible"
           xlink:href="#SVGID_17_"
           overflow="visible"
           id="use117" />
      </clipPath>
    </g>
    <g
       id="g119"
       transform="translate(-1.4484757,216.04427)">
      <defs
         id="defs121">
        <rect
           y="0"
           x="0"
           id="SVGID_19_"
           width="595.28003"
           height="841.89001" />
      </defs>
      <clipPath
         id="SVGID_20_">
        <use
           height="1"
           width="1"
           y="0"
           x="0"
           style="overflow:visible"
           xlink:href="#SVGID_19_"
           overflow="visible"
           id="use125" />
      </clipPath>
    </g>
    <g
       id="g127"
       transform="translate(-1.4484757,216.04427)">
      <defs
         id="defs129">
        <rect
           y="0"
           x="0"
           id="SVGID_21_"
           width="595.28003"
           height="841.89001" />
      </defs>
      <clipPath
         id="SVGID_22_">
        <use
           height="1"
           width="1"
           y="0"
           x="0"
           style="overflow:visible"
           xlink:href="#SVGID_21_"
           overflow="visible"
           id="use133" />
      </clipPath>
    </g>
    <g
       id="g135"
       transform="translate(-1.4484757,216.04427)">
      <defs
         id="defs137">
        <rect
           y="0"
           x="0"
           id="SVGID_23_"
           width="595.28003"
           height="841.89001" />
      </defs>
      <clipPath
         id="SVGID_24_">
        <use
           height="1"
           width="1"
           y="0"
           x="0"
           style="overflow:visible"
           xlink:href="#SVGID_23_"
           overflow="visible"
           id="use141" />
      </clipPath>
    </g>
    <g
       id="g143"
       transform="translate(-1.4484757,216.04427)">
      <defs
         id="defs145">
        <rect
           y="0"
           x="0"
           id="SVGID_25_"
           width="595.28003"
           height="841.89001" />
      </defs>
      <clipPath
         id="SVGID_26_">
        <use
           height="1"
           width="1"
           y="0"
           x="0"
           style="overflow:visible"
           xlink:href="#SVGID_25_"
           overflow="visible"
           id="use149" />
      </clipPath>
    </g>
    <g
       id="g151"
       transform="translate(-1.4484757,216.04427)">
      <defs
         id="defs153">
        <rect
           y="0"
           x="0"
           id="SVGID_27_"
           width="595.28003"
           height="841.89001" />
      </defs>
      <clipPath
         id="SVGID_28_">
        <use
           height="1"
           width="1"
           y="0"
           x="0"
           style="overflow:visible"
           xlink:href="#SVGID_27_"
           overflow="visible"
           id="use157" />
      </clipPath>
    </g>
    <g
       id="g159"
       transform="translate(-1.4484757,216.04427)">
      <defs
         id="defs161">
        <rect
           y="0"
           x="0"
           id="SVGID_29_"
           width="595.28003"
           height="841.89001" />
      </defs>
      <clipPath
         id="SVGID_30_">
        <use
           height="1"
           width="1"
           y="0"
           x="0"
           style="overflow:visible"
           xlink:href="#SVGID_29_"
           overflow="visible"
           id="use165" />
      </clipPath>
    </g>
  </g>
</svg>
