<?xml version="1.0" encoding="UTF-8" standalone="no"?>
<!-- Created with Inkscape (http://www.inkscape.org/) -->

<svg
   xmlns:dc="http://purl.org/dc/elements/1.1/"
   xmlns:cc="http://creativecommons.org/ns#"
   xmlns:rdf="http://www.w3.org/1999/02/22-rdf-syntax-ns#"
   xmlns:svg="http://www.w3.org/2000/svg"
   xmlns="http://www.w3.org/2000/svg"
   xmlns:sodipodi="http://sodipodi.sourceforge.net/DTD/sodipodi-0.dtd"
   xmlns:inkscape="http://www.inkscape.org/namespaces/inkscape"
   width="32"
   height="32"
   id="svg3608"
   version="1.1"
   inkscape:version="0.91 r13725"
   sodipodi:docname="visualidentity-spch-licmgmt.svg">
  <defs
     id="defs3610">
    <linearGradient
       y2="276.55899"
       x2="434.30521"
       y1="290.0405"
       x1="423.79391"
       gradientUnits="userSpaceOnUse"
       id="SVGID_3_">
      <stop
         id="stop26"
         style="stop-color:#6299BE"
         offset="0" />
      <stop
         id="stop28"
         style="stop-color:#3B80AE"
         offset="1" />
    </linearGradient>
    <linearGradient
       y2="300.50229"
       x2="388.9137"
       y1="293.1777"
       x1="420.64011"
       gradientUnits="userSpaceOnUse"
       id="SVGID_2_">
      <stop
         id="stop17"
         style="stop-color:#89B5D0"
         offset="0" />
      <stop
         id="stop19"
         style="stop-color:#6BA2C4"
         offset="1" />
    </linearGradient>
    <linearGradient
       y2="322.70029"
       x2="435.91449"
       y1="294.87839"
       x1="423.02151"
       gradientUnits="userSpaceOnUse"
       id="SVGID_1_">
      <stop
         id="stop8"
         style="stop-color:#7690BA"
         offset="0" />
      <stop
         id="stop10"
         style="stop-color:#5474A9"
         offset="1" />
    </linearGradient>
    <linearGradient
       y2="276.55899"
       x2="434.30521"
       y1="290.0405"
       x1="423.79391"
       gradientUnits="userSpaceOnUse"
       id="SVGID_3_-8">
      <stop
         id="stop26-8"
         style="stop-color:#6299BE"
         offset="0" />
      <stop
         id="stop28-2"
         style="stop-color:#3B80AE"
         offset="1" />
    </linearGradient>
    <linearGradient
       y2="300.50229"
       x2="388.9137"
       y1="293.1777"
       x1="420.64011"
       gradientUnits="userSpaceOnUse"
       id="SVGID_2_-0">
      <stop
         id="stop17-9"
         style="stop-color:#89B5D0"
         offset="0" />
      <stop
         id="stop19-4"
         style="stop-color:#6BA2C4"
         offset="1" />
    </linearGradient>
    <linearGradient
       y2="322.70029"
       x2="435.91449"
       y1="294.87839"
       x1="423.02151"
       gradientUnits="userSpaceOnUse"
       id="SVGID_1_-1">
      <stop
         id="stop8-7"
         style="stop-color:#7690BA"
         offset="0" />
      <stop
         id="stop10-4"
         style="stop-color:#5474A9"
         offset="1" />
    </linearGradient>
  </defs>
  <sodipodi:namedview
     id="base"
     pagecolor="#ffffff"
     bordercolor="#666666"
     borderopacity="1.0"
     inkscape:pageopacity="0.0"
     inkscape:pageshadow="2"
     inkscape:zoom="15"
     inkscape:cx="24.533333"
     inkscape:cy="10.666667"
     inkscape:document-units="px"
     inkscape:current-layer="layer1"
     showgrid="false"
     inkscape:window-width="1920"
     inkscape:window-height="1017"
     inkscape:window-x="-8"
     inkscape:window-y="-4"
     inkscape:window-maximized="1"
     fit-margin-top="0"
     fit-margin-left="0"
     fit-margin-right="0"
     fit-margin-bottom="0" />
  <metadata
     id="metadata3613">
    <rdf:RDF>
      <cc:Work
         rdf:about="">
        <dc:format>image/svg+xml</dc:format>
        <dc:type
           rdf:resource="http://purl.org/dc/dcmitype/StillImage" />
        <dc:title />
      </cc:Work>
    </rdf:RDF>
  </metadata>
  <g
     inkscape:label="Layer 1"
     inkscape:groupmode="layer"
     id="layer1"
     transform="translate(-203.3125,-672.125)">
    <path
       style="fill:#000000;fill-opacity:1;stroke:none"
       d="M 3 2 C 2.446 2 2 2.446 2 3 L 2 29 C 2 29.554 2.446 30 3 30 L 29 30 C 29.554 30 30 29.554 30 29 L 30 3 C 30 2.446 29.554 2 29 2 L 3 2 z M 15.722656 6.5625 L 15.722656 6.5644531 L 17.742188 7.8144531 L 20.097656 8.1445312 L 20.640625 10.458984 L 22.072266 12.359375 L 20.822266 14.378906 L 20.490234 16.734375 L 18.646484 17.166016 L 18.646484 25.435547 L 15.998047 23.767578 L 13.353516 25.435547 L 13.353516 17.330078 L 11.898438 17.126953 L 11.357422 14.814453 L 9.9277344 12.914062 L 11.177734 10.892578 L 11.507812 8.5390625 L 13.822266 7.9921875 L 15.722656 6.5625 z M 15.814453 8.6191406 L 14.558594 9.5664062 L 13.029297 9.9257812 L 12.810547 11.482422 L 11.982422 12.818359 L 12.929688 14.074219 L 13.287109 15.605469 L 14.845703 15.824219 L 16.181641 16.650391 L 17.4375 15.705078 L 18.966797 15.345703 L 19.185547 13.789062 L 20.013672 12.451172 L 19.066406 11.197266 L 18.707031 9.6660156 L 17.150391 9.4492188 L 15.814453 8.6191406 z "
       transform="translate(203.3125,672.125)"
       id="rect2995" />
  </g>
</svg>
