<?xml version="1.0" encoding="UTF-8" standalone="no"?>
<!-- Created with Inkscape (http://www.inkscape.org/) -->

<svg
   xmlns:dc="http://purl.org/dc/elements/1.1/"
   xmlns:cc="http://creativecommons.org/ns#"
   xmlns:rdf="http://www.w3.org/1999/02/22-rdf-syntax-ns#"
   xmlns:svg="http://www.w3.org/2000/svg"
   xmlns="http://www.w3.org/2000/svg"
   xmlns:xlink="http://www.w3.org/1999/xlink"
   xmlns:sodipodi="http://sodipodi.sourceforge.net/DTD/sodipodi-0.dtd"
   xmlns:inkscape="http://www.inkscape.org/namespaces/inkscape"
   width="32"
   height="32"
   id="svg4271"
   version="1.1"
   inkscape:version="0.48.5 r10040"
   sodipodi:docname="visualidentity-ec.svg">
  <defs
     id="defs4273"><inkscape:path-effect
   effect="skeletal"
   id="path-effect3060"
   is_visible="true"
   pattern="M 9.53125,0 C 9.53125,0 0,9.04999 0,15.3125 0,20.406167 2.831179,24.694903 6.71875,26.125 L 8.9375,9.34375 l 0,17.28125 0,4.65625 2.90625,0 -0.625,-4.8125 C 15.669796,25.513216 19.0625,20.883181 19.0625,15.3125 19.0625,9.04999 9.53125,0 9.53125,0 z"
   copytype="single_stretched"
   prop_scale="1"
   scale_y_rel="false"
   spacing="0"
   normal_offset="0"
   tang_offset="0"
   prop_units="false"
   vertical_pattern="false"
   fuse_tolerance="0" />
<inkscape:path-effect
   effect="skeletal"
   id="path-effect3050"
   is_visible="true"
   pattern="M 9.53125,0 C 9.53125,0 0,9.04999 0,15.3125 0,20.406167 2.831179,24.694903 6.71875,26.125 L 8.9375,9.34375 l 0,17.28125 0,4.65625 2.90625,0 -0.625,-4.8125 C 15.669796,25.513216 19.0625,20.883181 19.0625,15.3125 19.0625,9.04999 9.53125,0 9.53125,0 z"
   copytype="single_stretched"
   prop_scale="1"
   scale_y_rel="false"
   spacing="0"
   normal_offset="0"
   tang_offset="0"
   prop_units="false"
   vertical_pattern="false"
   fuse_tolerance="0" />
<inkscape:path-effect
   effect="skeletal"
   id="path-effect3011"
   is_visible="true"
   pattern="M 0,0 1,0"
   copytype="single_stretched"
   prop_scale="1"
   scale_y_rel="false"
   spacing="0"
   normal_offset="0"
   tang_offset="0"
   prop_units="false"
   vertical_pattern="false"
   fuse_tolerance="0" />
<inkscape:path-effect
   effect="skeletal"
   id="path-effect3002"
   is_visible="true"
   pattern="m 316.73214,558.2899 c 0,0 -9.07677,9.53125 -15.33928,9.53125 -6.26252,0 -11.33929,-4.26729 -11.33929,-9.53125 0,-5.26397 5.07677,-9.53125 11.33929,-9.53125 6.26251,0 15.33928,9.53125 15.33928,9.53125 z"
   copytype="single_stretched"
   prop_scale="1"
   scale_y_rel="false"
   spacing="0"
   normal_offset="0"
   tang_offset="0"
   prop_units="false"
   vertical_pattern="false"
   fuse_tolerance="0" />
<clipPath
   id="SVGID_2_">
  <use
     id="use9"
     overflow="visible"
     xlink:href="#SVGID_1_" />
</clipPath>

	
	
	
	
	
<clipPath
   id="SVGID_2_-1">
		<use
   xlink:href="#SVGID_1_"
   overflow="visible"
   id="use9-7" />

	</clipPath>

	<defs
   id="defs5">
		<rect
   id="SVGID_1_"
   x="180.133"
   y="92.544"
   width="232.938"
   height="157.803" />

	</defs>

	</defs>
  <sodipodi:namedview
     id="base"
     pagecolor="#ffffff"
     bordercolor="#666666"
     borderopacity="1.0"
     inkscape:pageopacity="0.0"
     inkscape:pageshadow="2"
     inkscape:zoom="3.959798"
     inkscape:cx="-16.312236"
     inkscape:cy="-64.633592"
     inkscape:document-units="px"
     inkscape:current-layer="layer1"
     showgrid="false"
     fit-margin-top="0"
     fit-margin-left="0"
     fit-margin-right="0"
     fit-margin-bottom="0"
     inkscape:window-width="1600"
     inkscape:window-height="1147"
     inkscape:window-x="-8"
     inkscape:window-y="-8"
     inkscape:window-maximized="1"
     showguides="true"
     inkscape:guide-bbox="true" />
  <metadata
     id="metadata4276">
    <rdf:RDF>
      <cc:Work
         rdf:about="">
        <dc:format>image/svg+xml</dc:format>
        <dc:type
           rdf:resource="http://purl.org/dc/dcmitype/StillImage" />
        <dc:title />
      </cc:Work>
    </rdf:RDF>
  </metadata>
  <g
     inkscape:label="Layer 1"
     inkscape:groupmode="layer"
     id="layer1"
     transform="translate(-281.4375,-566.48186)">
    <path
       id="path11-4"
       transform="matrix(0.18364419,0,0,0.18364419,246.80048,551.25725)"
       d="m 205.34375,93.8125 c -1.16758,0.109699 -5.84375,0.979266 -5.84375,8 l 0,76.03125 c 6.96139,-7.10294 16.87617,-11.8125 29.96875,-11.8125 19.31073,0 30.09131,10.62599 34.78125,24.25 6.96548,-14.40228 21.84663,-24.25 43.84375,-24.25 6.91173,0 14.5657,1.14908 20.09375,3.21875 L 324,188.8125 c -3.11204,-1.38369 -7.77744,-2.59375 -14.6875,-2.59375 -13.82347,0 -22.83026,9.8657 -22.65625,23.6875 0,15.55182 10.40138,23.65625 23.1875,23.65625 6.22073,0 11.05587,-1.04108 15.03125,-2.59375 l 2.4375,15.28125 18.5625,0 c 0,0 6.09375,0.0224 6.09375,-8 l 0,-136.4375 c 0,0 0.003,-8 -6.09375,-8 l -140.28125,0 c 0,0 -0.0832,-0.01567 -0.25,0 z m 27.5625,37.28125 24.375,0 -21.125,26.25 -18.125,0 14.875,-26.25 z m -5,52.34375 c -11.05777,0 -15.5869,10.07218 -16.28125,17.15625 l 31.125,0 c 0,-6.39474 -2.75031,-17.15625 -14.84375,-17.15625 z m -16.0625,35.09375 c 0.86167,10.88377 11.5763,16.09375 23.84375,16.09375 8.98643,0 16.22676,-1.2234 23.3125,-3.46875 l 2.9375,15.09375 14.53125,0 C 267.6228,240.11665 261.90956,230.62236 260.25,218.53125 l -48.40625,0 z"
       clip-path="url(#SVGID_2_-1)"
       style="fill:#000000"
       inkscape:connector-curvature="0" />
  </g>
</svg>
