<?xml version="1.0" encoding="UTF-8" standalone="no"?>
<!-- Created with Inkscape (http://www.inkscape.org/) -->

<svg
   xmlns:dc="http://purl.org/dc/elements/1.1/"
   xmlns:cc="http://creativecommons.org/ns#"
   xmlns:rdf="http://www.w3.org/1999/02/22-rdf-syntax-ns#"
   xmlns:svg="http://www.w3.org/2000/svg"
   xmlns="http://www.w3.org/2000/svg"
   xmlns:sodipodi="http://sodipodi.sourceforge.net/DTD/sodipodi-0.dtd"
   xmlns:inkscape="http://www.inkscape.org/namespaces/inkscape"
   width="32"
   height="32"
   id="svg3608"
   version="1.1"
   inkscape:version="0.48.5 r10040"
   sodipodi:docname="rpnsite.svg">
  <defs
     id="defs3610">
    <linearGradient
       y2="276.55899"
       x2="434.30521"
       y1="290.0405"
       x1="423.79391"
       gradientUnits="userSpaceOnUse"
       id="SVGID_3_">
      <stop
         id="stop26"
         style="stop-color:#6299BE"
         offset="0" />
      <stop
         id="stop28"
         style="stop-color:#3B80AE"
         offset="1" />
    </linearGradient>
    <linearGradient
       y2="300.50229"
       x2="388.9137"
       y1="293.1777"
       x1="420.64011"
       gradientUnits="userSpaceOnUse"
       id="SVGID_2_">
      <stop
         id="stop17"
         style="stop-color:#89B5D0"
         offset="0" />
      <stop
         id="stop19"
         style="stop-color:#6BA2C4"
         offset="1" />
    </linearGradient>
    <linearGradient
       y2="322.70029"
       x2="435.91449"
       y1="294.87839"
       x1="423.02151"
       gradientUnits="userSpaceOnUse"
       id="SVGID_1_">
      <stop
         id="stop8"
         style="stop-color:#7690BA"
         offset="0" />
      <stop
         id="stop10"
         style="stop-color:#5474A9"
         offset="1" />
    </linearGradient>
  </defs>
  <sodipodi:namedview
     id="base"
     pagecolor="#ffffff"
     bordercolor="#666666"
     borderopacity="1.0"
     inkscape:pageopacity="0.0"
     inkscape:pageshadow="2"
     inkscape:zoom="15.839192"
     inkscape:cx="6.4858074"
     inkscape:cy="38.051707"
     inkscape:document-units="px"
     inkscape:current-layer="layer1"
     showgrid="false"
     inkscape:window-width="1600"
     inkscape:window-height="1147"
     inkscape:window-x="-8"
     inkscape:window-y="-8"
     inkscape:window-maximized="1"
     fit-margin-top="0"
     fit-margin-left="0"
     fit-margin-right="0"
     fit-margin-bottom="0" />
  <metadata
     id="metadata3613">
    <rdf:RDF>
      <cc:Work
         rdf:about="">
        <dc:format>image/svg+xml</dc:format>
        <dc:type
           rdf:resource="http://purl.org/dc/dcmitype/StillImage" />
        <dc:title />
      </cc:Work>
    </rdf:RDF>
  </metadata>
  <g
     inkscape:label="Layer 1"
     inkscape:groupmode="layer"
     id="layer1"
     transform="translate(-203.3125,-672.125)">
    <path
       style="color:#000000;fill:#000000;fill-opacity:1;fill-rule:nonzero;stroke:#ffffff;stroke-width:0.04376715;stroke-miterlimit:4;stroke-dasharray:none;stroke-dashoffset:31.37999773;marker:none;visibility:visible;display:inline;overflow:visible;enable-background:accumulate"
       d="m 219.31123,674.17956 c -7.70216,0 -13.94417,6.24456 -13.94417,13.94672 0,7.70216 6.24201,13.94417 13.94417,13.94417 7.70215,0 13.94671,-6.24201 13.94671,-13.94417 0,-7.70215 -6.24456,-13.94672 -13.94671,-13.94672 z m -3.66591,5.37684 c 1.65476,0.27975 3.3137,0.66737 4.97008,0.98639 1.18997,0.33022 2.51309,0.28366 3.56676,0.98639 1.68468,1.46576 3.27653,3.04509 4.92686,4.55313 0.0388,0.0915 0.41602,0.28757 0.28727,0.39406 -2.00265,-0.0882 -4.00834,-0.30106 -6.01239,-0.43473 -1.04589,-0.17502 -2.26927,0.1074 -3.13459,-0.64572 -1.52023,-1.7827 -2.95911,-3.6455 -4.44891,-5.45819 -0.0287,-0.0705 -0.34421,-0.34126 -0.15508,-0.38133 z m -1.53551,0.46268 c 0.0705,0.004 0.13844,0.0301 0.19829,0.0686 1.37657,1.60446 2.67024,3.2941 4.01674,4.9294 0.4369,0.55749 1.15987,1.14818 0.89741,1.94481 -1.47872,2.75964 -3.05168,5.48295 -4.56585,8.22922 -0.0995,0.242 -0.38571,0.81461 -0.71437,0.50082 -1.58448,-2.29905 -3.10238,-4.65385 -4.66247,-6.97335 -0.26395,-0.25634 -0.38245,-0.57073 -0.1805,-0.89233 1.28209,-2.2272 2.69218,-4.38938 4.02183,-6.59202 0.33261,-0.36401 0.41876,-1.03514 0.91774,-1.21265 0.0239,-0.003 0.0477,-0.004 0.0711,-0.003 z m 7.13098,7.10301 c 2.53355,0.17463 5.06539,0.38805 7.59874,0.57709 0.26768,-0.016 0.89944,0.0116 0.7703,0.44236 -1.11409,2.04853 -2.32909,4.05529 -3.48032,6.08865 -0.49879,0.72977 -0.75374,1.82514 -1.71855,2.07192 -2.72985,0.17938 -5.47367,0.23342 -8.20889,0.36608 -0.23116,0.0191 -0.8698,0.12442 -0.76521,-0.30252 1.43775,-2.68482 2.96874,-5.33258 4.44129,-8.00296 0.2416,-0.58197 0.6666,-1.218 1.36264,-1.24062 z"
       id="path3653"
       inkscape:connector-curvature="0" />
  </g>
</svg>
