<?xml version="1.0" encoding="UTF-8" standalone="no"?>
<!-- Created with Inkscape (http://www.inkscape.org/) -->

<svg
   width="32"
   height="32"
   id="svg3608"
   version="1.1"
   inkscape:version="1.1 (c68e22c387, 2021-05-23)"
   sodipodi:docname="visualidentity-editx.svg"
   inkscape:export-filename="C:\Projects\sien-common\edicons\colorizedpngs\visualidentity-editx.png"
   inkscape:export-xdpi="540"
   inkscape:export-ydpi="540"
   xmlns:inkscape="http://www.inkscape.org/namespaces/inkscape"
   xmlns:sodipodi="http://sodipodi.sourceforge.net/DTD/sodipodi-0.dtd"
   xmlns="http://www.w3.org/2000/svg"
   xmlns:svg="http://www.w3.org/2000/svg"
   xmlns:rdf="http://www.w3.org/1999/02/22-rdf-syntax-ns#"
   xmlns:cc="http://creativecommons.org/ns#"
   xmlns:dc="http://purl.org/dc/elements/1.1/">
  <defs
     id="defs3610">
    <linearGradient
       y2="276.55899"
       x2="434.30521"
       y1="290.0405"
       x1="423.79391"
       gradientUnits="userSpaceOnUse"
       id="SVGID_3_">
      <stop
         id="stop26"
         style="stop-color:#6299BE"
         offset="0" />
      <stop
         id="stop28"
         style="stop-color:#3B80AE"
         offset="1" />
    </linearGradient>
    <linearGradient
       y2="300.50229"
       x2="388.9137"
       y1="293.1777"
       x1="420.64011"
       gradientUnits="userSpaceOnUse"
       id="SVGID_2_">
      <stop
         id="stop17"
         style="stop-color:#89B5D0"
         offset="0" />
      <stop
         id="stop19"
         style="stop-color:#6BA2C4"
         offset="1" />
    </linearGradient>
    <linearGradient
       y2="322.70029"
       x2="435.91449"
       y1="294.87839"
       x1="423.02151"
       gradientUnits="userSpaceOnUse"
       id="SVGID_1_">
      <stop
         id="stop8"
         style="stop-color:#7690BA"
         offset="0" />
      <stop
         id="stop10"
         style="stop-color:#5474A9"
         offset="1" />
    </linearGradient>
    <linearGradient
       y2="276.55899"
       x2="434.30521"
       y1="290.0405"
       x1="423.79391"
       gradientUnits="userSpaceOnUse"
       id="SVGID_3_-8">
      <stop
         id="stop26-8"
         style="stop-color:#6299BE"
         offset="0" />
      <stop
         id="stop28-2"
         style="stop-color:#3B80AE"
         offset="1" />
    </linearGradient>
    <linearGradient
       y2="300.50229"
       x2="388.9137"
       y1="293.1777"
       x1="420.64011"
       gradientUnits="userSpaceOnUse"
       id="SVGID_2_-0">
      <stop
         id="stop17-9"
         style="stop-color:#89B5D0"
         offset="0" />
      <stop
         id="stop19-4"
         style="stop-color:#6BA2C4"
         offset="1" />
    </linearGradient>
    <linearGradient
       y2="322.70029"
       x2="435.91449"
       y1="294.87839"
       x1="423.02151"
       gradientUnits="userSpaceOnUse"
       id="SVGID_1_-1">
      <stop
         id="stop8-7"
         style="stop-color:#7690BA"
         offset="0" />
      <stop
         id="stop10-4"
         style="stop-color:#5474A9"
         offset="1" />
    </linearGradient>
  </defs>
  <sodipodi:namedview
     id="base"
     pagecolor="#ffffff"
     bordercolor="#666666"
     borderopacity="1.0"
     inkscape:pageopacity="0.0"
     inkscape:pageshadow="2"
     inkscape:zoom="7.919596"
     inkscape:cx="17.298862"
     inkscape:cy="29.736365"
     inkscape:document-units="px"
     inkscape:current-layer="layer1"
     showgrid="false"
     inkscape:window-width="1920"
     inkscape:window-height="1027"
     inkscape:window-x="3832"
     inkscape:window-y="-8"
     inkscape:window-maximized="1"
     fit-margin-top="0"
     fit-margin-left="0"
     fit-margin-right="0"
     fit-margin-bottom="0"
     inkscape:pagecheckerboard="0" />
  <metadata
     id="metadata3613">
    <rdf:RDF>
      <cc:Work
         rdf:about="">
        <dc:format>image/svg+xml</dc:format>
        <dc:type
           rdf:resource="http://purl.org/dc/dcmitype/StillImage" />
        <dc:title />
      </cc:Work>
    </rdf:RDF>
  </metadata>
  <g
     inkscape:label="Layer 1"
     inkscape:groupmode="layer"
     id="layer1"
     transform="translate(-203.3125,-672.125)">
    <rect
       style="fill:#ffffff;stroke-width:7.49102"
       id="rect4568"
       width="24.55357"
       height="10.714294"
       x="123.22321"
       y="684.71429" />
    <path
       id="rect2995"
       style="fill:#000000;fill-opacity:1;stroke:none"
       d="M 3 2 C 2.446 2 2 2.446 2 3 L 2 29 C 2 29.554 2.446 30 3 30 L 12.611328 30 C 12.611233 29.992913 12.609375 29.987826 12.609375 29.980469 L 12.609375 29.412109 C 12.609375 29.313109 12.634093 29.238281 12.757812 29.238281 L 13.351562 29.238281 C 13.747433 29.238281 14.563721 28.990303 15.207031 28.470703 C 16.493641 27.382033 17.705426 25.476971 20.253906 21.988281 C 19.041516 20.083111 15.826242 14.442116 15.232422 13.947266 C 14.960262 13.699866 14.31643 13.601562 14.09375 13.601562 L 13.251953 13.601562 C 13.153033 13.601562 13.128906 13.501344 13.128906 13.402344 L 13.128906 12.785156 C 13.128906 12.661416 13.152953 12.585938 13.251953 12.585938 C 13.499373 12.585938 14.637719 12.660156 17.136719 12.660156 C 19.610969 12.660156 20.650367 12.585938 20.873047 12.585938 C 21.046187 12.585938 21.070312 12.684874 21.070312 12.808594 L 21.070312 13.378906 C 21.070312 13.527386 21.045596 13.601562 20.847656 13.601562 L 20.253906 13.601562 C 19.858026 13.601562 19.5625 13.798141 19.5625 14.144531 C 19.5625 14.565151 21.863224 18.647714 22.308594 19.365234 L 22.408203 19.365234 C 23.422643 17.781724 25.525391 14.788472 25.525391 14.169922 C 25.525391 13.897752 25.401101 13.601562 24.832031 13.601562 L 24.212891 13.601562 C 24.089231 13.601562 24.064453 13.502626 24.064453 13.378906 L 24.064453 12.759766 C 24.064453 12.636066 24.089831 12.585938 24.238281 12.585938 C 24.510451 12.585938 25.524518 12.660156 27.429688 12.660156 C 28.790527 12.660156 29.682267 12.585938 29.929688 12.585938 C 29.959073 12.585938 29.978556 12.592317 30 12.597656 L 30 3 C 30 2.446 29.554 2 29 2 L 3 2 z M 30 13.597656 C 29.992206 13.598179 29.987275 13.601562 29.978516 13.601562 L 29.310547 13.601562 C 28.642497 13.601562 28.222063 13.675094 27.751953 14.021484 C 26.984943 14.590564 25.055594 17.312139 22.927734 20.355469 C 24.486514 22.953429 27.133999 27.283041 28.074219 28.619141 C 28.445349 29.138701 29.063756 29.238281 29.410156 29.238281 L 29.96875 29.238281 C 29.987564 29.161401 30 29.082839 30 29 L 30 13.597656 z M 20.724609 23.003906 C 19.734919 24.488446 17.310547 28.026633 17.310547 28.595703 C 17.310547 28.942103 17.558548 29.238281 17.929688 29.238281 L 18.646484 29.238281 C 18.819624 29.238281 18.84375 29.312519 18.84375 29.386719 L 18.84375 30 L 22.654297 30 L 22.654297 29.412109 C 22.654297 29.313109 22.679034 29.238281 22.802734 29.238281 L 23.173828 29.238281 C 23.742908 29.238281 23.941406 29.114629 23.941406 28.792969 C 23.941406 28.471319 21.764439 24.636906 20.824219 23.003906 L 20.724609 23.003906 z "
       transform="translate(203.3125,672.125)"
       inkscape:export-filename="C:\Projects\sien-common\edicons\colorizedpngs\rect2995.png"
       inkscape:export-xdpi="540"
       inkscape:export-ydpi="540" />
  </g>
</svg>
