<?xml version="1.0" encoding="UTF-8" standalone="no"?>
<!-- Created with Inkscape (http://www.inkscape.org/) -->

<svg
   xmlns:dc="http://purl.org/dc/elements/1.1/"
   xmlns:cc="http://creativecommons.org/ns#"
   xmlns:rdf="http://www.w3.org/1999/02/22-rdf-syntax-ns#"
   xmlns:svg="http://www.w3.org/2000/svg"
   xmlns="http://www.w3.org/2000/svg"
   xmlns:xlink="http://www.w3.org/1999/xlink"
   xmlns:sodipodi="http://sodipodi.sourceforge.net/DTD/sodipodi-0.dtd"
   xmlns:inkscape="http://www.inkscape.org/namespaces/inkscape"
   width="32"
   height="32"
   id="svg4271"
   version="1.1"
   inkscape:version="0.48.4 r9939"
   sodipodi:docname="visualidentity-phoenix.svg"
   inkscape:export-filename="C:\Projects\sien-common\edicons\colorizedpngs\visualidentity-phoenix.png"
   inkscape:export-xdpi="1406.25"
   inkscape:export-ydpi="1406.25">
  <defs
     id="defs4273">
    <inkscape:path-effect
       effect="skeletal"
       id="path-effect3060"
       is_visible="true"
       pattern="M 9.53125,0 C 9.53125,0 0,9.04999 0,15.3125 0,20.406167 2.831179,24.694903 6.71875,26.125 L 8.9375,9.34375 l 0,17.28125 0,4.65625 2.90625,0 -0.625,-4.8125 C 15.669796,25.513216 19.0625,20.883181 19.0625,15.3125 19.0625,9.04999 9.53125,0 9.53125,0 z"
       copytype="single_stretched"
       prop_scale="1"
       scale_y_rel="false"
       spacing="0"
       normal_offset="0"
       tang_offset="0"
       prop_units="false"
       vertical_pattern="false"
       fuse_tolerance="0" />
    <inkscape:path-effect
       effect="skeletal"
       id="path-effect3050"
       is_visible="true"
       pattern="M 9.53125,0 C 9.53125,0 0,9.04999 0,15.3125 0,20.406167 2.831179,24.694903 6.71875,26.125 L 8.9375,9.34375 l 0,17.28125 0,4.65625 2.90625,0 -0.625,-4.8125 C 15.669796,25.513216 19.0625,20.883181 19.0625,15.3125 19.0625,9.04999 9.53125,0 9.53125,0 z"
       copytype="single_stretched"
       prop_scale="1"
       scale_y_rel="false"
       spacing="0"
       normal_offset="0"
       tang_offset="0"
       prop_units="false"
       vertical_pattern="false"
       fuse_tolerance="0" />
    <inkscape:path-effect
       effect="skeletal"
       id="path-effect3011"
       is_visible="true"
       pattern="M 0,0 1,0"
       copytype="single_stretched"
       prop_scale="1"
       scale_y_rel="false"
       spacing="0"
       normal_offset="0"
       tang_offset="0"
       prop_units="false"
       vertical_pattern="false"
       fuse_tolerance="0" />
    <inkscape:path-effect
       effect="skeletal"
       id="path-effect3002"
       is_visible="true"
       pattern="m 316.73214,558.2899 c 0,0 -9.07677,9.53125 -15.33928,9.53125 -6.26252,0 -11.33929,-4.26729 -11.33929,-9.53125 0,-5.26397 5.07677,-9.53125 11.33929,-9.53125 6.26251,0 15.33928,9.53125 15.33928,9.53125 z"
       copytype="single_stretched"
       prop_scale="1"
       scale_y_rel="false"
       spacing="0"
       normal_offset="0"
       tang_offset="0"
       prop_units="false"
       vertical_pattern="false"
       fuse_tolerance="0" />
    <clipPath
       id="SVGID_2_">
      <use
         id="use9"
         overflow="visible"
         xlink:href="#SVGID_1_" />
    </clipPath>
    <clipPath
       id="SVGID_2_-1">
      <use
         xlink:href="#SVGID_1_"
         overflow="visible"
         id="use9-7" />
    </clipPath>
    <defs
       id="defs5">
      <rect
         id="SVGID_1_"
         x="180.133"
         y="92.544"
         width="232.938"
         height="157.803" />
    </defs>
    <clipPath
       id="SVGID_2_-1-1">
      <use
         xlink:href="#SVGID_1_"
         overflow="visible"
         id="use9-7-7" />
    </clipPath>
  </defs>
  <sodipodi:namedview
     id="base"
     pagecolor="#ffffff"
     bordercolor="#666666"
     borderopacity="1.0"
     inkscape:pageopacity="0.0"
     inkscape:pageshadow="2"
     inkscape:zoom="11.2"
     inkscape:cx="-13.767857"
     inkscape:cy="17.27403"
     inkscape:document-units="px"
     inkscape:current-layer="layer1"
     showgrid="false"
     fit-margin-top="0"
     fit-margin-left="0"
     fit-margin-right="0"
     fit-margin-bottom="0"
     inkscape:window-width="1600"
     inkscape:window-height="1147"
     inkscape:window-x="-8"
     inkscape:window-y="-8"
     inkscape:window-maximized="1"
     showguides="true"
     inkscape:guide-bbox="true" />
  <metadata
     id="metadata4276">
    <rdf:RDF>
      <cc:Work
         rdf:about="">
        <dc:format>image/svg+xml</dc:format>
        <dc:type
           rdf:resource="http://purl.org/dc/dcmitype/StillImage" />
        <dc:title />
      </cc:Work>
    </rdf:RDF>
  </metadata>
  <g
     inkscape:label="Layer 1"
     inkscape:groupmode="layer"
     id="layer1"
     transform="translate(-281.4375,-566.48186)">
    <path
       style="fill:#000000;fill-opacity:1;stroke:none"
       d="M 3,2 C 2.4502076,2 2,2.4502076 2,3 l 0,26 c 0,0.549792 0.4502076,1 1,1 l 6.9375,0 C 8.9854336,29.602077 6.6866016,27.858246 6.15625,26.25 5.2249,23.82737 6.18376,21.17525 7.5625,19.21875 c 0.50307,-0.89446 0.69914,-2.00016 0.53125,-3.0625 2.25475,1.80767 3.74638,4.16664 4.15625,6.8125 0.13037,-0.8757 0.43925,-1.68026 0.71875,-2.5 1.24836,-3.24238 4.79249,-4.85189 7.625,-6.25 l 1,-0.4375 c 1.50972,-0.7275 3.15976,-1.93551 3.71875,-3.59375 0.03721,-0.0931 0.1753,-0.29915 0.25,-0.09375 0.55869,2.66462 -0.26891,5.29406 -1.3125,7.4375 0.67092,-0.61557 1.21688,-1.191 1.90625,-1.75 0.0747,0.05596 0.03125,0.14435 0.03125,0.21875 -1.22961,3.01884 0.37006,6.5002 -0.46875,9.59375 C 25.21349,27.762254 23.224522,29.390458 21.125,30 L 29,30 c 0.549792,0 1,-0.450208 1,-1 L 30,3 C 30,2.4502076 29.549792,2 29,2 z m 19.25,14.09375 c -1.78892,1.82612 -4.20906,2.68244 -5.625,4.9375 -1.50942,1.80767 -1.063408,5.646323 -1.6875,6.59375 -0.94138,1.429098 -2.713903,2.091704 -4.09375,2.375 l 4.375,0 c 2.29861,-0.568889 4.265407,-2.146232 5.3125,-4.28125 C 22.02191,23.1473 20.55133,19.62742 21.78125,17 21.89348,16.68299 22.25,16.35542 22.25,16.09375 z"
       transform="translate(281.4375,566.48186)"
       id="rect3023"
       inkscape:connector-curvature="0"
       sodipodi:nodetypes="sssscccccccccccccccsssssccsccccc" />
  </g>
</svg>
