<?xml version="1.0" encoding="UTF-8" standalone="no"?>
<!-- Created with Inkscape (http://www.inkscape.org/) -->

<svg
   xmlns:dc="http://purl.org/dc/elements/1.1/"
   xmlns:cc="http://creativecommons.org/ns#"
   xmlns:rdf="http://www.w3.org/1999/02/22-rdf-syntax-ns#"
   xmlns:svg="http://www.w3.org/2000/svg"
   xmlns="http://www.w3.org/2000/svg"
   xmlns:sodipodi="http://sodipodi.sourceforge.net/DTD/sodipodi-0.dtd"
   xmlns:inkscape="http://www.inkscape.org/namespaces/inkscape"
   width="32"
   height="32"
   id="svg3608"
   version="1.1"
   inkscape:version="0.91 r13725"
   sodipodi:docname="visualidentity-gu.svg">
  <defs
     id="defs3610">
    <linearGradient
       y2="276.55899"
       x2="434.30521"
       y1="290.0405"
       x1="423.79391"
       gradientUnits="userSpaceOnUse"
       id="SVGID_3_">
      <stop
         id="stop26"
         style="stop-color:#6299BE"
         offset="0" />
      <stop
         id="stop28"
         style="stop-color:#3B80AE"
         offset="1" />
    </linearGradient>
    <linearGradient
       y2="300.50229"
       x2="388.9137"
       y1="293.1777"
       x1="420.64011"
       gradientUnits="userSpaceOnUse"
       id="SVGID_2_">
      <stop
         id="stop17"
         style="stop-color:#89B5D0"
         offset="0" />
      <stop
         id="stop19"
         style="stop-color:#6BA2C4"
         offset="1" />
    </linearGradient>
    <linearGradient
       y2="322.70029"
       x2="435.91449"
       y1="294.87839"
       x1="423.02151"
       gradientUnits="userSpaceOnUse"
       id="SVGID_1_">
      <stop
         id="stop8"
         style="stop-color:#7690BA"
         offset="0" />
      <stop
         id="stop10"
         style="stop-color:#5474A9"
         offset="1" />
    </linearGradient>
    <linearGradient
       y2="276.55899"
       x2="434.30521"
       y1="290.0405"
       x1="423.79391"
       gradientUnits="userSpaceOnUse"
       id="SVGID_3_-8">
      <stop
         id="stop26-8"
         style="stop-color:#6299BE"
         offset="0" />
      <stop
         id="stop28-2"
         style="stop-color:#3B80AE"
         offset="1" />
    </linearGradient>
    <linearGradient
       y2="300.50229"
       x2="388.9137"
       y1="293.1777"
       x1="420.64011"
       gradientUnits="userSpaceOnUse"
       id="SVGID_2_-0">
      <stop
         id="stop17-9"
         style="stop-color:#89B5D0"
         offset="0" />
      <stop
         id="stop19-4"
         style="stop-color:#6BA2C4"
         offset="1" />
    </linearGradient>
    <linearGradient
       y2="322.70029"
       x2="435.91449"
       y1="294.87839"
       x1="423.02151"
       gradientUnits="userSpaceOnUse"
       id="SVGID_1_-1">
      <stop
         id="stop8-7"
         style="stop-color:#7690BA"
         offset="0" />
      <stop
         id="stop10-4"
         style="stop-color:#5474A9"
         offset="1" />
    </linearGradient>
  </defs>
  <sodipodi:namedview
     id="base"
     pagecolor="#ffffff"
     bordercolor="#666666"
     borderopacity="1.0"
     inkscape:pageopacity="0.0"
     inkscape:pageshadow="2"
     inkscape:zoom="7.919596"
     inkscape:cx="-25.903576"
     inkscape:cy="20.374038"
     inkscape:document-units="px"
     inkscape:current-layer="layer1"
     showgrid="false"
     inkscape:window-width="1920"
     inkscape:window-height="1017"
     inkscape:window-x="-8"
     inkscape:window-y="-8"
     inkscape:window-maximized="1"
     fit-margin-top="0"
     fit-margin-left="0"
     fit-margin-right="0"
     fit-margin-bottom="0" />
  <metadata
     id="metadata3613">
    <rdf:RDF>
      <cc:Work
         rdf:about="">
        <dc:format>image/svg+xml</dc:format>
        <dc:type
           rdf:resource="http://purl.org/dc/dcmitype/StillImage" />
        <dc:title />
      </cc:Work>
    </rdf:RDF>
  </metadata>
  <g
     inkscape:label="Layer 1"
     inkscape:groupmode="layer"
     id="layer1"
     transform="translate(-203.3125,-672.125)">
    <path
       style="fill:#000000;fill-opacity:1;stroke:none"
       d="M 3 2 C 2.446 2 2 2.446 2 3 L 2 29 C 2 29.554 2.446 30 3 30 L 29 30 C 29.554 30 30 29.554 30 29 L 30 3 C 30 2.446 29.554 2 29 2 L 3 2 z M 18.912109 17.916016 L 18.912109 17.917969 C 19.243169 17.917969 19.463406 18.031276 19.572266 18.259766 C 19.681346 18.488096 19.736328 18.817917 19.736328 19.248047 L 19.736328 24.527344 C 19.736328 25.130324 19.674394 25.649474 19.552734 26.083984 C 19.431424 26.519044 19.23704 26.878859 18.96875 27.162109 C 18.70055 27.446009 18.350116 27.656439 17.916016 27.792969 C 17.482656 27.930799 16.942225 28 16.296875 28 C 15.705945 28 15.177961 27.912591 14.712891 27.738281 C 14.247741 27.562531 13.890132 27.335374 13.638672 27.058594 C 13.387202 26.781004 13.261719 26.495835 13.261719 26.203125 C 13.261719 25.981745 13.332339 25.801869 13.474609 25.662109 C 13.617209 25.521969 13.789084 25.451172 13.990234 25.451172 C 14.241704 25.451172 14.461771 25.569808 14.650391 25.804688 C 14.742511 25.924477 14.837247 26.045359 14.935547 26.167969 C 15.034067 26.289049 15.144772 26.394069 15.263672 26.480469 C 15.383622 26.567009 15.525679 26.631428 15.693359 26.673828 C 15.861029 26.715628 16.053504 26.736328 16.271484 26.736328 C 16.715774 26.736328 17.061001 26.671556 17.306641 26.541016 C 17.551391 26.409166 17.723366 26.225124 17.822266 25.990234 C 17.920276 25.754784 17.977541 25.504458 17.994141 25.236328 C 18.011041 24.968128 18.025203 24.536216 18.033203 23.941406 C 17.768953 24.331916 17.462398 24.629674 17.117188 24.833984 C 16.771097 25.037804 16.360582 25.138672 15.882812 25.138672 C 15.308542 25.138672 14.806033 24.984498 14.376953 24.673828 C 13.947063 24.363318 13.617219 23.927871 13.386719 23.369141 C 13.156359 22.810081 13.041016 22.163541 13.041016 21.431641 C 13.041016 20.885601 13.111623 20.392805 13.251953 19.953125 C 13.392293 19.513855 13.591852 19.143897 13.851562 18.841797 C 14.111442 18.540027 14.412493 18.313576 14.751953 18.160156 C 15.091503 18.007296 15.464494 17.929688 15.871094 17.929688 C 16.357034 17.929688 16.776522 18.029122 17.132812 18.226562 C 17.488933 18.424323 17.821143 18.732587 18.126953 19.154297 L 18.126953 18.908203 C 18.126953 18.593163 18.198903 18.349031 18.345703 18.175781 C 18.492263 18.002911 18.681439 17.916016 18.912109 17.916016 z M 22.271484 18.023438 C 22.554074 18.023438 22.781508 18.115788 22.955078 18.298828 C 23.128058 18.482348 23.214844 18.755157 23.214844 19.117188 L 23.214844 22.046875 C 23.214844 22.471665 23.250819 22.828917 23.324219 23.117188 C 23.396699 23.405368 23.52956 23.629909 23.71875 23.792969 C 23.90736 23.956749 24.162868 24.039062 24.486328 24.039062 C 24.801198 24.039062 25.09693 23.946882 25.375 23.763672 C 25.65251 23.580562 25.855042 23.340302 25.982422 23.044922 C 26.086972 22.786262 26.140625 22.22003 26.140625 21.34375 L 26.140625 19.117188 C 26.140625 18.755157 26.226811 18.482348 26.400391 18.298828 C 26.573391 18.115738 26.799895 18.023438 27.078125 18.023438 C 27.356035 18.023438 27.579167 18.113912 27.748047 18.294922 C 27.916077 18.476182 28 18.750948 28 19.117188 L 28 24.419922 C 28 24.768692 27.919093 25.030618 27.757812 25.205078 C 27.596043 25.379028 27.387503 25.466797 27.132812 25.466797 C 26.877132 25.466797 26.66597 25.375852 26.5 25.195312 C 26.33323 25.014302 26.25 24.760034 26.25 24.433594 L 26.25 24.199219 C 26.0262 24.476719 25.792915 24.708674 25.546875 24.896484 C 25.300585 25.084294 25.031254 25.225406 24.740234 25.316406 C 24.448494 25.407476 24.115698 25.453125 23.742188 25.453125 C 23.290937 25.453125 22.886707 25.359804 22.529297 25.177734 C 22.171067 24.994864 21.893076 24.741742 21.697266 24.419922 C 21.464976 24.031192 21.349609 23.473201 21.349609 22.744141 L 21.349609 19.117188 C 21.349609 18.750948 21.433253 18.476182 21.601562 18.294922 C 21.770123 18.113892 21.993334 18.023438 22.271484 18.023438 z M 16.384766 19.275391 C 15.894376 19.275391 15.502011 19.471908 15.207031 19.867188 C 14.911161 20.261818 14.763672 20.823171 14.763672 21.550781 C 14.763672 22.287691 14.91463 22.845416 15.21875 23.222656 C 15.52222 23.599896 15.916618 23.789062 16.398438 23.789062 C 16.683388 23.789062 16.951268 23.706852 17.205078 23.544922 C 17.458318 23.382752 17.664959 23.13869 17.824219 22.8125 C 17.983499 22.4863 18.0625 22.09097 18.0625 21.625 C 18.0625 20.88412 17.909963 20.307281 17.601562 19.894531 C 17.294043 19.481631 16.887696 19.275391 16.384766 19.275391 z "
       transform="translate(203.3125,672.125)"
       id="rect2995" />
  </g>
</svg>
