<?xml version="1.0" encoding="UTF-8" standalone="no"?>
<!-- Created with Inkscape (http://www.inkscape.org/) -->

<svg
   xmlns:dc="http://purl.org/dc/elements/1.1/"
   xmlns:cc="http://creativecommons.org/ns#"
   xmlns:rdf="http://www.w3.org/1999/02/22-rdf-syntax-ns#"
   xmlns:svg="http://www.w3.org/2000/svg"
   xmlns="http://www.w3.org/2000/svg"
   xmlns:sodipodi="http://sodipodi.sourceforge.net/DTD/sodipodi-0.dtd"
   xmlns:inkscape="http://www.inkscape.org/namespaces/inkscape"
   width="32"
   height="32"
   id="svg3608"
   version="1.1"
   inkscape:version="0.91 r13725"
   sodipodi:docname="visualidentity-nemo.svg"
   inkscape:export-filename="C:\Projects\github\edicons\src\visualidentity-archiclass.png"
   inkscape:export-xdpi="540"
   inkscape:export-ydpi="540">
  <defs
     id="defs3610">
    <linearGradient
       y2="276.55899"
       x2="434.30521"
       y1="290.0405"
       x1="423.79391"
       gradientUnits="userSpaceOnUse"
       id="SVGID_3_">
      <stop
         id="stop26"
         style="stop-color:#6299BE"
         offset="0" />
      <stop
         id="stop28"
         style="stop-color:#3B80AE"
         offset="1" />
    </linearGradient>
    <linearGradient
       y2="300.50229"
       x2="388.9137"
       y1="293.1777"
       x1="420.64011"
       gradientUnits="userSpaceOnUse"
       id="SVGID_2_">
      <stop
         id="stop17"
         style="stop-color:#89B5D0"
         offset="0" />
      <stop
         id="stop19"
         style="stop-color:#6BA2C4"
         offset="1" />
    </linearGradient>
    <linearGradient
       y2="322.70029"
       x2="435.91449"
       y1="294.87839"
       x1="423.02151"
       gradientUnits="userSpaceOnUse"
       id="SVGID_1_">
      <stop
         id="stop8"
         style="stop-color:#7690BA"
         offset="0" />
      <stop
         id="stop10"
         style="stop-color:#5474A9"
         offset="1" />
    </linearGradient>
    <linearGradient
       y2="276.55899"
       x2="434.30521"
       y1="290.0405"
       x1="423.79391"
       gradientUnits="userSpaceOnUse"
       id="SVGID_3_-8">
      <stop
         id="stop26-8"
         style="stop-color:#6299BE"
         offset="0" />
      <stop
         id="stop28-2"
         style="stop-color:#3B80AE"
         offset="1" />
    </linearGradient>
    <linearGradient
       y2="300.50229"
       x2="388.9137"
       y1="293.1777"
       x1="420.64011"
       gradientUnits="userSpaceOnUse"
       id="SVGID_2_-0">
      <stop
         id="stop17-9"
         style="stop-color:#89B5D0"
         offset="0" />
      <stop
         id="stop19-4"
         style="stop-color:#6BA2C4"
         offset="1" />
    </linearGradient>
    <linearGradient
       y2="322.70029"
       x2="435.91449"
       y1="294.87839"
       x1="423.02151"
       gradientUnits="userSpaceOnUse"
       id="SVGID_1_-1">
      <stop
         id="stop8-7"
         style="stop-color:#7690BA"
         offset="0" />
      <stop
         id="stop10-4"
         style="stop-color:#5474A9"
         offset="1" />
    </linearGradient>
    <clipPath
       clipPathUnits="userSpaceOnUse"
       id="clipPath8126">
      <rect
         style="opacity:1;fill:#ffd5d5;fill-opacity:1;stroke:none;stroke-width:1;stroke-miterlimit:4;stroke-dasharray:none;stroke-dashoffset:0;stroke-opacity:1"
         id="rect8128"
         width="4.293148"
         height="9.4070454"
         x="8.4286194"
         y="21.709106" />
    </clipPath>
  </defs>
  <sodipodi:namedview
     id="base"
     pagecolor="#ffffff"
     bordercolor="#666666"
     borderopacity="1.0"
     inkscape:pageopacity="0.0"
     inkscape:pageshadow="2"
     inkscape:zoom="22.627417"
     inkscape:cx="16.417432"
     inkscape:cy="12.796591"
     inkscape:document-units="px"
     inkscape:current-layer="layer1"
     showgrid="false"
     inkscape:window-width="1920"
     inkscape:window-height="1017"
     inkscape:window-x="1912"
     inkscape:window-y="-8"
     inkscape:window-maximized="1"
     fit-margin-top="0"
     fit-margin-left="0"
     fit-margin-right="0"
     fit-margin-bottom="0"
     showguides="true" />
  <metadata
     id="metadata3613">
    <rdf:RDF>
      <cc:Work
         rdf:about="">
        <dc:format>image/svg+xml</dc:format>
        <dc:type
           rdf:resource="http://purl.org/dc/dcmitype/StillImage" />
        <dc:title />
      </cc:Work>
    </rdf:RDF>
  </metadata>
  <g
     inkscape:label="Layer 1"
     inkscape:groupmode="layer"
     id="layer1"
     transform="translate(-203.3125,-672.125)">
    <path
       style="fill:#000000;fill-opacity:1;stroke:none"
       d="M 3 2 C 2.446 2 2 2.446 2 3 L 2 29 C 2 29.554 2.446 30 3 30 L 29 30 C 29.554 30 30 29.554 30 29 L 30 17.369141 C 27.124847 20.131413 23.288653 23.671176 22.011719 24.712891 C 20.504909 25.942121 19.275889 26.556641 18.324219 26.556641 C 16.698459 26.556641 15.884766 25.486943 15.884766 23.345703 C 15.884766 22.711253 15.985304 22.087276 16.183594 21.472656 C 16.381864 20.858036 16.649288 20.222639 16.986328 19.568359 C 17.343208 18.894269 17.878047 17.942121 18.591797 16.712891 C 19.305537 15.463841 20.128707 14.056524 21.060547 12.490234 C 19.930447 13.065204 18.511711 14.205096 16.806641 15.910156 C 15.696371 16.980786 14.755642 18.003119 13.982422 18.974609 C 13.209202 19.926269 12.376565 20.995967 11.484375 22.185547 C 10.612025 23.355297 9.9671413 24.148093 9.5507812 24.564453 C 9.1542713 24.960963 8.7483813 25.160156 8.3320312 25.160156 C 7.6975814 25.160156 7.1114819 24.496319 6.5761719 23.167969 C 6.0408519 21.839609 5.7734375 20.291894 5.7734375 18.527344 C 5.7734375 17.436904 5.8928994 16.585323 6.1308594 15.970703 C 6.3885994 15.356083 6.8836175 14.483626 7.6171875 13.353516 C 8.9852075 11.251926 10.16494 9.7156306 11.15625 8.7441406 C 12.14756 7.7528306 13.099709 7.2558594 14.011719 7.2558594 C 14.646169 7.2558594 15.152607 7.3658844 15.529297 7.5839844 C 15.925827 7.8020744 16.123047 8.1396931 16.123047 8.5957031 C 16.123047 8.7939631 16.064253 9.00066 15.945312 9.21875 C 15.826393 9.43684 15.687907 9.6360131 15.529297 9.8144531 C 15.390577 9.9928931 15.083252 10.339989 14.607422 10.855469 C 11.474872 14.325079 9.9082031 16.574489 9.9082031 17.605469 C 9.9082031 18.180429 10.095966 18.46875 10.472656 18.46875 C 10.710576 18.46875 11.167697 18.091291 11.841797 17.337891 C 12.535717 16.564671 13.417651 15.563214 14.488281 14.333984 C 15.578741 13.084934 16.857079 11.787653 18.324219 10.439453 C 19.811189 9.0912732 21.495406 7.7920188 23.378906 6.5429688 C 24.429706 5.8093888 25.302174 5.4433594 25.996094 5.4433594 C 26.313314 5.4433594 26.620579 5.8795931 26.917969 6.7519531 C 27.235189 7.6243031 27.394531 8.5062475 27.394531 9.3984375 C 27.394531 9.8346175 26.967754 10.498445 26.115234 11.390625 C 22.625804 15.276595 20.880859 17.983126 20.880859 19.509766 C 20.880859 20.362286 21.227955 20.787109 21.921875 20.787109 C 22.496845 20.787109 23.240334 20.491284 24.152344 19.896484 C 24.889856 19.410033 27.819659 16.843871 30 15.011719 L 30 3 C 30 2.446 29.554 2 29 2 L 3 2 z "
       transform="translate(203.3125,672.125)"
       id="rect2995" />
  </g>
</svg>
