<?xml version="1.0" encoding="UTF-8" standalone="no"?>
<!-- Created with Inkscape (http://www.inkscape.org/) -->

<svg
   xmlns:dc="http://purl.org/dc/elements/1.1/"
   xmlns:cc="http://creativecommons.org/ns#"
   xmlns:rdf="http://www.w3.org/1999/02/22-rdf-syntax-ns#"
   xmlns:svg="http://www.w3.org/2000/svg"
   xmlns="http://www.w3.org/2000/svg"
   xmlns:xlink="http://www.w3.org/1999/xlink"
   xmlns:sodipodi="http://sodipodi.sourceforge.net/DTD/sodipodi-0.dtd"
   xmlns:inkscape="http://www.inkscape.org/namespaces/inkscape"
   width="32"
   height="32"
   id="svg4271"
   version="1.1"
   inkscape:version="0.92.4 (5da689c313, 2019-01-14)"
   sodipodi:docname="visualidentity-covid.svg"
   inkscape:export-filename="C:\Users\Golayp\Desktop\covid-octo.png"
   inkscape:export-xdpi="900"
   inkscape:export-ydpi="900">
  <defs
     id="defs4273">
    <inkscape:path-effect
       effect="skeletal"
       id="path-effect3060"
       is_visible="true"
       pattern="M 9.53125,0 C 9.53125,0 0,9.04999 0,15.3125 0,20.406167 2.831179,24.694903 6.71875,26.125 L 8.9375,9.34375 l 0,17.28125 0,4.65625 2.90625,0 -0.625,-4.8125 C 15.669796,25.513216 19.0625,20.883181 19.0625,15.3125 19.0625,9.04999 9.53125,0 9.53125,0 z"
       copytype="single_stretched"
       prop_scale="1"
       scale_y_rel="false"
       spacing="0"
       normal_offset="0"
       tang_offset="0"
       prop_units="false"
       vertical_pattern="false"
       fuse_tolerance="0" />
    <inkscape:path-effect
       effect="skeletal"
       id="path-effect3050"
       is_visible="true"
       pattern="M 9.53125,0 C 9.53125,0 0,9.04999 0,15.3125 0,20.406167 2.831179,24.694903 6.71875,26.125 L 8.9375,9.34375 l 0,17.28125 0,4.65625 2.90625,0 -0.625,-4.8125 C 15.669796,25.513216 19.0625,20.883181 19.0625,15.3125 19.0625,9.04999 9.53125,0 9.53125,0 z"
       copytype="single_stretched"
       prop_scale="1"
       scale_y_rel="false"
       spacing="0"
       normal_offset="0"
       tang_offset="0"
       prop_units="false"
       vertical_pattern="false"
       fuse_tolerance="0" />
    <inkscape:path-effect
       effect="skeletal"
       id="path-effect3011"
       is_visible="true"
       pattern="M 0,0 1,0"
       copytype="single_stretched"
       prop_scale="1"
       scale_y_rel="false"
       spacing="0"
       normal_offset="0"
       tang_offset="0"
       prop_units="false"
       vertical_pattern="false"
       fuse_tolerance="0" />
    <inkscape:path-effect
       effect="skeletal"
       id="path-effect3002"
       is_visible="true"
       pattern="m 316.73214,558.2899 c 0,0 -9.07677,9.53125 -15.33928,9.53125 -6.26252,0 -11.33929,-4.26729 -11.33929,-9.53125 0,-5.26397 5.07677,-9.53125 11.33929,-9.53125 6.26251,0 15.33928,9.53125 15.33928,9.53125 z"
       copytype="single_stretched"
       prop_scale="1"
       scale_y_rel="false"
       spacing="0"
       normal_offset="0"
       tang_offset="0"
       prop_units="false"
       vertical_pattern="false"
       fuse_tolerance="0" />
    <clipPath
       id="SVGID_2_">
      <use
         id="use9"
         overflow="visible"
         xlink:href="#SVGID_1_" />
    </clipPath>
    <clipPath
       id="SVGID_2_-1">
      <use
         xlink:href="#SVGID_1_"
         overflow="visible"
         id="use9-7" />
    </clipPath>
    <defs
       id="defs5">
      <rect
         id="SVGID_1_"
         x="180.133"
         y="92.544"
         width="232.938"
         height="157.803" />
    </defs>
    <linearGradient
       id="SVGID_3_"
       gradientUnits="userSpaceOnUse"
       x1="423.79391"
       y1="290.0405"
       x2="434.30521"
       y2="276.55899">
      <stop
         offset="0"
         style="stop-color:#6299BE"
         id="stop26" />
      <stop
         offset="1"
         style="stop-color:#3B80AE"
         id="stop28" />
    </linearGradient>
    <linearGradient
       id="SVGID_2_-09"
       gradientUnits="userSpaceOnUse"
       x1="420.64011"
       y1="293.1777"
       x2="388.9137"
       y2="300.50229">
      <stop
         offset="0"
         style="stop-color:#89B5D0"
         id="stop17" />
      <stop
         offset="1"
         style="stop-color:#6BA2C4"
         id="stop19" />
    </linearGradient>
    <linearGradient
       id="SVGID_1_-4"
       gradientUnits="userSpaceOnUse"
       x1="423.02151"
       y1="294.87839"
       x2="435.91449"
       y2="322.70029">
      <stop
         offset="0"
         style="stop-color:#7690BA"
         id="stop8" />
      <stop
         offset="1"
         style="stop-color:#5474A9"
         id="stop10" />
    </linearGradient>
  </defs>
  <sodipodi:namedview
     id="base"
     pagecolor="#ffffff"
     bordercolor="#666666"
     borderopacity="1.0"
     inkscape:pageopacity="0.0"
     inkscape:pageshadow="2"
     inkscape:zoom="15.839192"
     inkscape:cx="3.5802516"
     inkscape:cy="24.717589"
     inkscape:document-units="px"
     inkscape:current-layer="layer1"
     showgrid="false"
     fit-margin-top="0"
     fit-margin-left="0"
     fit-margin-right="0"
     fit-margin-bottom="0"
     inkscape:window-width="1920"
     inkscape:window-height="1017"
     inkscape:window-x="1912"
     inkscape:window-y="-8"
     inkscape:window-maximized="1"
     showguides="false"
     inkscape:guide-bbox="true" />
  <metadata
     id="metadata4276">
    <rdf:RDF>
      <cc:Work
         rdf:about="">
        <dc:format>image/svg+xml</dc:format>
        <dc:type
           rdf:resource="http://purl.org/dc/dcmitype/StillImage" />
        <dc:title />
      </cc:Work>
    </rdf:RDF>
  </metadata>
  <g
     inkscape:label="Layer 1"
     inkscape:groupmode="layer"
     id="layer1"
     transform="translate(-281.4375,-566.48186)">
    <path
       style="fill:#ff0066;fill-opacity:1;stroke:none"
       d="M 3 2 C 2.446 2 2 2.446 2 3 L 2 20.103516 L 2 29 C 2 29.554 2.446 30 3 30 L 11.894531 30 L 29 30 C 29.1385 30 29.270915 29.972375 29.390625 29.921875 C 29.749785 29.77049 30 29.4155 30 29 L 30 11.896484 L 30 3 C 30 2.446 29.554 2 29 2 L 20.105469 2 L 3 2 z M 14.119141 7.9023438 C 14.764451 7.8638238 15.369909 8.2826306 15.542969 8.9316406 C 15.692849 9.4951006 15.475707 10.093364 14.998047 10.427734 C 15.108657 10.840534 15.219478 11.253226 15.330078 11.666016 A 4.3878498 4.3878498 0 0 1 16 11.613281 A 4.3878498 4.3878498 0 0 1 17.794922 12.001953 C 17.952012 11.729863 18.108535 11.457637 18.265625 11.185547 C 17.911795 10.765257 17.860496 10.167456 18.134766 9.6914062 C 18.494926 9.0658563 19.292769 8.8521106 19.917969 9.2128906 C 20.543019 9.5739306 20.756201 10.373357 20.394531 10.998047 C 20.119551 11.472347 19.578982 11.724206 19.039062 11.628906 C 18.881552 11.901726 18.723916 12.174456 18.566406 12.447266 A 4.3878498 4.3878498 0 0 1 20.386719 16 A 4.3878498 4.3878498 0 0 1 20.34375 16.576172 C 21.12887 16.786542 21.914099 16.996661 22.699219 17.207031 C 23.101329 16.630831 23.82109 16.367588 24.5 16.548828 C 25.39204 16.786708 25.922364 17.703903 25.683594 18.595703 C 25.444484 19.487413 24.526226 20.015401 23.634766 19.775391 C 22.957766 19.592671 22.46725 19.007144 22.40625 18.308594 C 21.62171 18.098374 20.837274 17.887954 20.052734 17.677734 A 4.3878498 4.3878498 0 0 1 17.585938 20.091797 C 17.696387 20.503987 17.807529 20.915935 17.917969 21.328125 C 18.498809 21.378865 18.986802 21.786679 19.138672 22.349609 C 19.338242 23.090849 18.89769 23.853914 18.15625 24.052734 C 17.41473 24.251264 16.652868 23.810079 16.455078 23.068359 C 16.304378 22.503859 16.522793 21.904662 17.001953 21.570312 C 16.891503 21.158133 16.780362 20.746174 16.669922 20.333984 A 4.3878498 4.3878498 0 0 1 16 20.388672 A 4.3878498 4.3878498 0 0 1 14.205078 20 C 14.047578 20.27281 13.889932 20.545539 13.732422 20.818359 C 14.084892 21.238309 14.138554 21.833324 13.865234 22.308594 C 13.505074 22.934144 12.705268 23.149852 12.080078 22.789062 C 11.455028 22.428013 11.241846 21.628596 11.603516 21.003906 C 11.878646 20.528366 12.421991 20.274794 12.962891 20.371094 C 13.119981 20.099014 13.276504 19.826767 13.433594 19.554688 A 4.3878498 4.3878498 0 0 1 11.611328 16 A 4.3878498 4.3878498 0 0 1 11.654297 15.425781 C 10.868547 15.215241 10.082625 15.005462 9.296875 14.794922 C 8.894735 15.369372 8.1756769 15.631502 7.4980469 15.451172 C 6.6059969 15.213292 6.0776363 14.29805 6.3164062 13.40625 C 6.5555462 12.51454 7.4718213 11.984599 8.3632812 12.224609 C 9.0418513 12.407099 9.53365 12.995193 9.59375 13.695312 C 10.37765 13.905363 11.161403 14.116122 11.945312 14.326172 A 4.3878498 4.3878498 0 0 1 14.412109 11.910156 C 14.301699 11.498136 14.192431 11.085848 14.082031 10.673828 C 13.499901 10.623858 13.011115 10.214611 12.859375 9.6503906 C 12.659805 8.9091506 13.100357 8.1480588 13.841797 7.9492188 C 13.934487 7.9244187 14.026941 7.9073437 14.119141 7.9023438 z "
       transform="translate(281.4375,566.48186)"
       id="rect2995"
       inkscape:export-filename="C:\Users\Golayp\Desktop\covid.png"
       inkscape:export-xdpi="1028.5699"
       inkscape:export-ydpi="1028.5699" />
  </g>
</svg>
