<?xml version="1.0" encoding="UTF-8" standalone="no"?>
<!-- Created with Inkscape (http://www.inkscape.org/) -->

<svg
   xmlns:dc="http://purl.org/dc/elements/1.1/"
   xmlns:cc="http://creativecommons.org/ns#"
   xmlns:rdf="http://www.w3.org/1999/02/22-rdf-syntax-ns#"
   xmlns:svg="http://www.w3.org/2000/svg"
   xmlns="http://www.w3.org/2000/svg"
   xmlns:sodipodi="http://sodipodi.sourceforge.net/DTD/sodipodi-0.dtd"
   xmlns:inkscape="http://www.inkscape.org/namespaces/inkscape"
   width="32"
   height="32"
   id="svg3608"
   version="1.1"
   inkscape:version="0.48.5 r10040"
   sodipodi:docname="rpn.svg">
  <defs
     id="defs3610" />
  <sodipodi:namedview
     id="base"
     pagecolor="#ffffff"
     bordercolor="#666666"
     borderopacity="1.0"
     inkscape:pageopacity="0.0"
     inkscape:pageshadow="2"
     inkscape:zoom="15.839192"
     inkscape:cx="11.442098"
     inkscape:cy="18.113869"
     inkscape:document-units="px"
     inkscape:current-layer="layer1"
     showgrid="false"
     inkscape:window-width="1600"
     inkscape:window-height="1147"
     inkscape:window-x="-8"
     inkscape:window-y="-8"
     inkscape:window-maximized="1"
     fit-margin-top="0"
     fit-margin-left="0"
     fit-margin-right="0"
     fit-margin-bottom="0" />
  <metadata
     id="metadata3613">
    <rdf:RDF>
      <cc:Work
         rdf:about="">
        <dc:format>image/svg+xml</dc:format>
        <dc:type
           rdf:resource="http://purl.org/dc/dcmitype/StillImage" />
        <dc:title />
      </cc:Work>
    </rdf:RDF>
  </metadata>
  <g
     inkscape:label="Layer 1"
     inkscape:groupmode="layer"
     id="layer1"
     transform="translate(-246.18717,-607.65662)">
    <g
       style="fill:#000000;display:inline"
       id="g3056"
       transform="matrix(0.44013428,0,0,0.44013428,77.196742,492.69038)"
       inkscape:export-filename="C:\Projects\sien-common\edicons\colorizedpngs\d1.png"
       inkscape:export-xdpi="75"
       inkscape:export-ydpi="75">
      <g
         style="fill:#000000"
         id="g5">
        <linearGradient
           y2="322.70029"
           x2="435.91449"
           y1="294.87839"
           x1="423.02151"
           gradientUnits="userSpaceOnUse"
           id="SVGID_1_">
          <stop
             id="stop8"
             style="stop-color:#7690BA"
             offset="0" />
          <stop
             id="stop10"
             style="stop-color:#5474A9"
             offset="1" />
        </linearGradient>
        <path
           id="path12"
           d="m 426.53,294.039 c -1.427,-0.109 -3.164,0.823 -3.86,2.073 l -14.372,25.774 c -0.697,1.25 -0.097,2.225 1.333,2.166 l 25.434,-1.045 c 1.43,-0.059 3.184,-1.121 3.897,-2.361 l 12.846,-22.313 c 0.714,-1.24 0.131,-2.345 -1.296,-2.454 l -23.982,-1.84 z"
           style="fill:#000000"
           inkscape:connector-curvature="0" />
      </g>
      <g
         style="fill:#000000"
         id="g14">
        <linearGradient
           y2="300.50229"
           x2="388.9137"
           y1="293.1777"
           x1="420.64011"
           gradientUnits="userSpaceOnUse"
           id="SVGID_2_">
          <stop
             id="stop17"
             style="stop-color:#89B5D0"
             offset="0" />
          <stop
             id="stop19"
             style="stop-color:#6BA2C4"
             offset="1" />
        </linearGradient>
        <path
           id="path21"
           d="m 420.242,294.813 c 0.697,-1.25 0.531,-3.183 -0.369,-4.295 l -13.959,-17.265 c -0.899,-1.113 -2.25,-1.026 -3,0.192 l -13.488,21.896 c -0.75,1.218 -1.124,2.578 -0.829,3.021 0.295,0.443 1.184,1.78 1.976,2.971 l 8.193,12.321 c 0.792,1.191 2.089,3.141 2.881,4.333 l 1.645,2.473 c 0.792,1.192 2.011,1.145 2.708,-0.105 l 14.242,-25.542 z"
           style="fill:#000000"
           inkscape:connector-curvature="0" />
      </g>
      <g
         style="fill:#000000"
         id="g23">
        <linearGradient
           y2="276.55899"
           x2="434.30521"
           y1="290.0405"
           x1="423.79391"
           gradientUnits="userSpaceOnUse"
           id="SVGID_3_">
          <stop
             id="stop26"
             style="stop-color:#6299BE"
             offset="0" />
          <stop
             id="stop28"
             style="stop-color:#3B80AE"
             offset="1" />
        </linearGradient>
        <path
           id="path30"
           d="m 422.227,289.05 c 0.899,1.113 2.803,2.113 4.229,2.223 l 23.774,1.823 c 1.427,0.11 1.738,-0.6 0.691,-1.576 l -14.604,-13.631 c -1.047,-0.977 -3.05,-2.008 -4.452,-2.293 L 409.87,271.13 c -1.402,-0.285 -1.814,0.393 -0.914,1.506 l 13.271,16.414 z"
           style="fill:#000000"
           inkscape:connector-curvature="0" />
      </g>
    </g>
  </g>
</svg>
