<?xml version="1.0" encoding="UTF-8" standalone="no"?>
<!-- Created with Inkscape (http://www.inkscape.org/) -->

<svg
   xmlns:dc="http://purl.org/dc/elements/1.1/"
   xmlns:cc="http://creativecommons.org/ns#"
   xmlns:rdf="http://www.w3.org/1999/02/22-rdf-syntax-ns#"
   xmlns:svg="http://www.w3.org/2000/svg"
   xmlns="http://www.w3.org/2000/svg"
   xmlns:xlink="http://www.w3.org/1999/xlink"
   xmlns:sodipodi="http://sodipodi.sourceforge.net/DTD/sodipodi-0.dtd"
   xmlns:inkscape="http://www.inkscape.org/namespaces/inkscape"
   width="32"
   height="32"
   id="svg4271"
   version="1.1"
   inkscape:version="0.91 r13725"
   sodipodi:docname="visualidentity-folio.svg">
  <defs
     id="defs4273">
    <inkscape:path-effect
       effect="skeletal"
       id="path-effect3060"
       is_visible="true"
       pattern="M 9.53125,0 C 9.53125,0 0,9.04999 0,15.3125 0,20.406167 2.831179,24.694903 6.71875,26.125 L 8.9375,9.34375 l 0,17.28125 0,4.65625 2.90625,0 -0.625,-4.8125 C 15.669796,25.513216 19.0625,20.883181 19.0625,15.3125 19.0625,9.04999 9.53125,0 9.53125,0 z"
       copytype="single_stretched"
       prop_scale="1"
       scale_y_rel="false"
       spacing="0"
       normal_offset="0"
       tang_offset="0"
       prop_units="false"
       vertical_pattern="false"
       fuse_tolerance="0" />
    <inkscape:path-effect
       effect="skeletal"
       id="path-effect3050"
       is_visible="true"
       pattern="M 9.53125,0 C 9.53125,0 0,9.04999 0,15.3125 0,20.406167 2.831179,24.694903 6.71875,26.125 L 8.9375,9.34375 l 0,17.28125 0,4.65625 2.90625,0 -0.625,-4.8125 C 15.669796,25.513216 19.0625,20.883181 19.0625,15.3125 19.0625,9.04999 9.53125,0 9.53125,0 z"
       copytype="single_stretched"
       prop_scale="1"
       scale_y_rel="false"
       spacing="0"
       normal_offset="0"
       tang_offset="0"
       prop_units="false"
       vertical_pattern="false"
       fuse_tolerance="0" />
    <inkscape:path-effect
       effect="skeletal"
       id="path-effect3011"
       is_visible="true"
       pattern="M 0,0 1,0"
       copytype="single_stretched"
       prop_scale="1"
       scale_y_rel="false"
       spacing="0"
       normal_offset="0"
       tang_offset="0"
       prop_units="false"
       vertical_pattern="false"
       fuse_tolerance="0" />
    <inkscape:path-effect
       effect="skeletal"
       id="path-effect3002"
       is_visible="true"
       pattern="m 316.73214,558.2899 c 0,0 -9.07677,9.53125 -15.33928,9.53125 -6.26252,0 -11.33929,-4.26729 -11.33929,-9.53125 0,-5.26397 5.07677,-9.53125 11.33929,-9.53125 6.26251,0 15.33928,9.53125 15.33928,9.53125 z"
       copytype="single_stretched"
       prop_scale="1"
       scale_y_rel="false"
       spacing="0"
       normal_offset="0"
       tang_offset="0"
       prop_units="false"
       vertical_pattern="false"
       fuse_tolerance="0" />
    <clipPath
       id="SVGID_2_">
      <use
         id="use9"
         overflow="visible"
         xlink:href="#SVGID_1_" />
    </clipPath>
    <clipPath
       id="SVGID_2_-1">
      <use
         xlink:href="#SVGID_1_"
         overflow="visible"
         id="use9-7" />
    </clipPath>
    <defs
       id="defs5">
      <rect
         id="SVGID_1_"
         x="180.133"
         y="92.544"
         width="232.938"
         height="157.803" />
    </defs>
  </defs>
  <sodipodi:namedview
     id="base"
     pagecolor="#ffffff"
     bordercolor="#666666"
     borderopacity="1.0"
     inkscape:pageopacity="0.0"
     inkscape:pageshadow="2"
     inkscape:zoom="11.2"
     inkscape:cx="0.20203714"
     inkscape:cy="26.197668"
     inkscape:document-units="px"
     inkscape:current-layer="layer1"
     showgrid="false"
     fit-margin-top="0"
     fit-margin-left="0"
     fit-margin-right="0"
     fit-margin-bottom="0"
     inkscape:window-width="1920"
     inkscape:window-height="1017"
     inkscape:window-x="1912"
     inkscape:window-y="-8"
     inkscape:window-maximized="1"
     showguides="false"
     inkscape:guide-bbox="true" />
  <metadata
     id="metadata4276">
    <rdf:RDF>
      <cc:Work
         rdf:about="">
        <dc:format>image/svg+xml</dc:format>
        <dc:type
           rdf:resource="http://purl.org/dc/dcmitype/StillImage" />
        <dc:title />
      </cc:Work>
    </rdf:RDF>
  </metadata>
  <g
     inkscape:label="Layer 1"
     inkscape:groupmode="layer"
     id="layer1"
     transform="translate(-281.4375,-566.48186)">
    <path
       style="fill:#000000;fill-opacity:1;stroke:none"
       d="m 284.4375,568.48186 c -0.554,0 -1,0.446 -1,1 l 0,17.10351 0,8.89649 c 0,0.554 0.446,1 1,1 l 8.89454,0 17.10546,0 c 0.1385,0 0.27092,-0.0276 0.39063,-0.0781 0.35916,-0.15139 0.60937,-0.50637 0.60937,-0.92187 l 0,-17.10352 0,-8.89648 c 0,-0.554 -0.446,-1 -1,-1 l -8.89453,0 -17.10547,0 z m 19.42579,2.32812 a 3.2808715,3.2808715 0 0 1 3.28125,3.28321 3.2808715,3.2808715 0 0 1 -3.28125,3.27929 3.2808715,3.2808715 0 0 1 -3.28125,-3.27929 3.2808715,3.2808715 0 0 1 3.28125,-3.28321 z m -14.73829,0.002 a 3.2808715,3.2808715 0 0 1 1.5625,0.4375 3.2808715,3.2808715 0 0 1 1.20118,4.48242 3.2808715,3.2808715 0 0 1 -4.48047,1.20117 3.2808715,3.2808715 0 0 1 -1.20313,-4.48047 3.2808715,3.2808715 0 0 1 2.6875,-1.63672 3.2808715,3.2808715 0 0 1 0.23242,-0.004 z m 7.40625,0 a 3.2808715,3.2808715 0 0 1 1.56446,0.4375 3.2808715,3.2808715 0 0 1 1.20117,4.48242 3.2808715,3.2808715 0 0 1 -4.48242,1.20117 3.2808715,3.2808715 0 0 1 -1.19922,-4.48047 3.2808715,3.2808715 0 0 1 2.68555,-1.63672 3.2808715,3.2808715 0 0 1 0.23046,-0.004 z m -0.0762,7.40625 a 3.2808715,3.2808715 0 0 1 3.28125,3.28125 3.2808715,3.2808715 0 0 1 -3.28125,3.28125 3.2808715,3.2808715 0 0 1 -3.28125,-3.28125 3.2808715,3.2808715 0 0 1 3.28125,-3.28125 z m -7.33008,0.002 a 3.2808715,3.2808715 0 0 1 1.5625,0.43945 3.2808715,3.2808715 0 0 1 1.20118,4.48047 3.2808715,3.2808715 0 0 1 -4.48047,1.20117 3.2808715,3.2808715 0 0 1 -1.20313,-4.48047 3.2808715,3.2808715 0 0 1 2.6875,-1.63671 3.2808715,3.2808715 0 0 1 0.23242,-0.004 z m 0,7.4082 a 3.2808715,3.2808715 0 0 1 1.5625,0.43946 3.2808715,3.2808715 0 0 1 1.20118,4.48046 3.2808715,3.2808715 0 0 1 -4.48047,1.20118 3.2808715,3.2808715 0 0 1 -1.20313,-4.48243 3.2808715,3.2808715 0 0 1 2.6875,-1.63671 3.2808715,3.2808715 0 0 1 0.23242,-0.002 z"
       id="rect2995"
       inkscape:connector-curvature="0" />
  </g>
</svg>
