<?xml version="1.0" encoding="UTF-8" standalone="no"?>
<!-- Created with Inkscape (http://www.inkscape.org/) -->

<svg
   xmlns:dc="http://purl.org/dc/elements/1.1/"
   xmlns:cc="http://creativecommons.org/ns#"
   xmlns:rdf="http://www.w3.org/1999/02/22-rdf-syntax-ns#"
   xmlns:svg="http://www.w3.org/2000/svg"
   xmlns="http://www.w3.org/2000/svg"
   xmlns:xlink="http://www.w3.org/1999/xlink"
   xmlns:sodipodi="http://sodipodi.sourceforge.net/DTD/sodipodi-0.dtd"
   xmlns:inkscape="http://www.inkscape.org/namespaces/inkscape"
   width="32"
   height="32"
   id="svg4271"
   version="1.1"
   inkscape:version="0.91 r13725"
   sodipodi:docname="visualidentity-nemo.svg"
   inkscape:export-filename="C:\Projects\sien-common\edicons\colorizedpngs\visualidentity-nemo.png"
   inkscape:export-xdpi="281.25"
   inkscape:export-ydpi="281.25">
  <defs
     id="defs4273">
    <inkscape:path-effect
       effect="skeletal"
       id="path-effect3060"
       is_visible="true"
       pattern="M 9.53125,0 C 9.53125,0 0,9.04999 0,15.3125 0,20.406167 2.831179,24.694903 6.71875,26.125 L 8.9375,9.34375 l 0,17.28125 0,4.65625 2.90625,0 -0.625,-4.8125 C 15.669796,25.513216 19.0625,20.883181 19.0625,15.3125 19.0625,9.04999 9.53125,0 9.53125,0 z"
       copytype="single_stretched"
       prop_scale="1"
       scale_y_rel="false"
       spacing="0"
       normal_offset="0"
       tang_offset="0"
       prop_units="false"
       vertical_pattern="false"
       fuse_tolerance="0" />
    <inkscape:path-effect
       effect="skeletal"
       id="path-effect3050"
       is_visible="true"
       pattern="M 9.53125,0 C 9.53125,0 0,9.04999 0,15.3125 0,20.406167 2.831179,24.694903 6.71875,26.125 L 8.9375,9.34375 l 0,17.28125 0,4.65625 2.90625,0 -0.625,-4.8125 C 15.669796,25.513216 19.0625,20.883181 19.0625,15.3125 19.0625,9.04999 9.53125,0 9.53125,0 z"
       copytype="single_stretched"
       prop_scale="1"
       scale_y_rel="false"
       spacing="0"
       normal_offset="0"
       tang_offset="0"
       prop_units="false"
       vertical_pattern="false"
       fuse_tolerance="0" />
    <inkscape:path-effect
       effect="skeletal"
       id="path-effect3011"
       is_visible="true"
       pattern="M 0,0 1,0"
       copytype="single_stretched"
       prop_scale="1"
       scale_y_rel="false"
       spacing="0"
       normal_offset="0"
       tang_offset="0"
       prop_units="false"
       vertical_pattern="false"
       fuse_tolerance="0" />
    <inkscape:path-effect
       effect="skeletal"
       id="path-effect3002"
       is_visible="true"
       pattern="m 316.73214,558.2899 c 0,0 -9.07677,9.53125 -15.33928,9.53125 -6.26252,0 -11.33929,-4.26729 -11.33929,-9.53125 0,-5.26397 5.07677,-9.53125 11.33929,-9.53125 6.26251,0 15.33928,9.53125 15.33928,9.53125 z"
       copytype="single_stretched"
       prop_scale="1"
       scale_y_rel="false"
       spacing="0"
       normal_offset="0"
       tang_offset="0"
       prop_units="false"
       vertical_pattern="false"
       fuse_tolerance="0" />
    <clipPath
       id="SVGID_2_">
      <use
         id="use9"
         overflow="visible"
         xlink:href="#SVGID_1_" />
    </clipPath>
    <clipPath
       id="SVGID_2_-1">
      <use
         xlink:href="#SVGID_1_"
         overflow="visible"
         id="use9-7" />
    </clipPath>
    <defs
       id="defs5">
      <rect
         id="SVGID_1_"
         x="180.133"
         y="92.544"
         width="232.938"
         height="157.803" />
    </defs>
    <linearGradient
       id="SVGID_3_"
       gradientUnits="userSpaceOnUse"
       x1="423.79391"
       y1="290.0405"
       x2="434.30521"
       y2="276.55899">
      <stop
         offset="0"
         style="stop-color:#6299BE"
         id="stop26" />
      <stop
         offset="1"
         style="stop-color:#3B80AE"
         id="stop28" />
    </linearGradient>
    <linearGradient
       id="SVGID_2_-09"
       gradientUnits="userSpaceOnUse"
       x1="420.64011"
       y1="293.1777"
       x2="388.9137"
       y2="300.50229">
      <stop
         offset="0"
         style="stop-color:#89B5D0"
         id="stop17" />
      <stop
         offset="1"
         style="stop-color:#6BA2C4"
         id="stop19" />
    </linearGradient>
    <linearGradient
       id="SVGID_1_-4"
       gradientUnits="userSpaceOnUse"
       x1="423.02151"
       y1="294.87839"
       x2="435.91449"
       y2="322.70029">
      <stop
         offset="0"
         style="stop-color:#7690BA"
         id="stop8" />
      <stop
         offset="1"
         style="stop-color:#5474A9"
         id="stop10" />
    </linearGradient>
  </defs>
  <sodipodi:namedview
     id="base"
     pagecolor="#ffffff"
     bordercolor="#666666"
     borderopacity="1.0"
     inkscape:pageopacity="0.0"
     inkscape:pageshadow="2"
     inkscape:zoom="5.6"
     inkscape:cx="-88.664185"
     inkscape:cy="23.421372"
     inkscape:document-units="px"
     inkscape:current-layer="layer1"
     showgrid="false"
     fit-margin-top="0"
     fit-margin-left="0"
     fit-margin-right="0"
     fit-margin-bottom="0"
     inkscape:window-width="1920"
     inkscape:window-height="1017"
     inkscape:window-x="-8"
     inkscape:window-y="-4"
     inkscape:window-maximized="1"
     showguides="true"
     inkscape:guide-bbox="true" />
  <metadata
     id="metadata4276">
    <rdf:RDF>
      <cc:Work
         rdf:about="">
        <dc:format>image/svg+xml</dc:format>
        <dc:type
           rdf:resource="http://purl.org/dc/dcmitype/StillImage" />
        <dc:title />
      </cc:Work>
    </rdf:RDF>
  </metadata>
  <g
     inkscape:label="Layer 1"
     inkscape:groupmode="layer"
     id="layer1"
     transform="translate(-281.4375,-566.48186)">
    <path
       style="fill:#000000;fill-opacity:1;stroke:none"
       d="M 3 2 C 2.446 2 2 2.446 2 3 L 2 20.103516 L 2 29 C 2 29.554 2.446 30 3 30 L 11.894531 30 L 29 30 C 29.1385 30 29.270915 29.972375 29.390625 29.921875 C 29.749785 29.77049 30 29.4155 30 29 L 30 11.896484 L 30 3 C 30 2.446 29.554 2 29 2 L 20.105469 2 L 3 2 z M 5.5234375 5.4003906 C 6.8057075 6.4915506 8.4515719 6.9664144 10.044922 7.4277344 C 11.705452 7.9089644 13.420872 8.4064956 14.669922 9.6035156 C 15.321422 10.229426 15.807241 11.007492 16.150391 11.982422 C 15.838431 12.464522 15.637653 13.010618 15.564453 13.580078 C 15.458693 13.498768 15.352148 13.419697 15.242188 13.341797 C 14.046038 12.500657 12.711471 11.873381 11.300781 11.488281 C 10.896911 11.379241 10.488249 11.294275 10.074219 11.234375 C 7.5709188 10.877565 5.5175669 11.555858 4.2480469 13.148438 C 4.1528769 12.283358 4.1162719 11.412959 4.1386719 10.542969 C 4.1998019 8.2056888 4.7030175 6.3459706 5.5234375 5.4003906 z M 21.726562 9.8808594 C 21.931942 9.8858594 22.136294 9.9021875 22.339844 9.9296875 C 22.509774 9.9523975 22.67868 9.9870031 22.84375 10.033203 C 23.07573 10.089613 23.293036 10.197276 23.478516 10.347656 L 23.488281 10.357422 L 23.494141 10.359375 C 23.942631 11.248785 23.446508 12.094274 23.111328 12.521484 C 22.628838 13.115304 22.002539 13.577051 21.292969 13.863281 C 21.186009 13.794841 21.073431 13.734394 20.957031 13.683594 C 21.326101 13.134024 21.570415 12.509619 21.671875 11.855469 C 21.783975 11.067179 21.624207 10.380509 21.216797 9.8867188 C 21.386867 9.8777187 21.556933 9.8768594 21.726562 9.8808594 z M 20.056641 9.953125 C 20.178831 9.941825 20.303481 9.9447906 20.425781 9.9628906 L 20.435547 9.9648438 C 21.157787 10.443804 21.155591 11.301017 21.087891 11.773438 C 20.987551 12.401988 20.739761 12.998519 20.363281 13.511719 C 20.246761 13.493319 20.127666 13.481469 20.009766 13.480469 C 20.024566 12.938499 19.930905 12.399831 19.734375 11.894531 C 19.472475 11.242681 19.062855 10.795832 18.546875 10.576172 C 18.656955 10.506902 18.768813 10.440606 18.882812 10.378906 C 19.034933 10.295886 19.191633 10.221097 19.351562 10.154297 C 19.464703 10.107357 19.579896 10.06625 19.697266 10.03125 C 19.813976 9.99045 19.934461 9.964725 20.056641 9.953125 z M 24.226562 10.681641 C 24.418783 10.777241 24.608046 10.882361 24.791016 10.994141 C 24.999786 11.121581 25.200308 11.260799 25.392578 11.412109 C 25.573178 11.551339 25.741301 11.70605 25.894531 11.875 C 26.047891 12.0381 26.167541 12.230986 26.244141 12.441406 L 26.246094 12.455078 L 26.251953 12.472656 C 26.188203 13.611286 25.222377 14.165714 24.648438 14.396484 C 23.830917 14.709034 22.945828 14.805814 22.080078 14.677734 C 22.016848 14.571384 21.945787 14.4706 21.867188 14.375 C 21.849087 14.3453 21.830194 14.316262 21.808594 14.289062 C 22.498714 13.963453 23.105351 13.484532 23.582031 12.888672 C 24.145061 12.171252 24.366672 11.400051 24.226562 10.681641 z M 17.912109 11.03125 L 17.914062 11.03125 C 18.666013 11.08072 19.035876 11.731087 19.191406 12.117188 C 19.377616 12.603377 19.454816 13.125401 19.416016 13.644531 C 19.314716 13.686631 19.216247 13.737022 19.123047 13.794922 C 18.897937 13.403712 18.60235 13.057571 18.25 12.775391 C 17.99818 12.571381 17.708004 12.419278 17.396484 12.330078 C 17.394484 12.329568 17.390672 12.330578 17.388672 12.330078 C 17.191522 12.277378 16.98459 12.257691 16.78125 12.275391 L 16.8125 12.21875 C 16.85038 12.15038 16.885475 12.086244 16.921875 12.027344 C 17.000345 11.899294 17.084822 11.778636 17.169922 11.666016 C 17.225862 11.592696 17.280584 11.525144 17.333984 11.464844 C 17.538994 11.234404 17.740189 11.08335 17.912109 11.03125 z M 9.0761719 11.738281 C 9.3718719 11.748781 9.6755713 11.777366 9.9882812 11.822266 C 11.910491 12.096036 13.978873 13.028712 15.533203 14.320312 C 15.443413 14.852453 15.467836 15.395769 15.603516 15.917969 C 15.534876 15.910369 15.467337 15.903484 15.398438 15.896484 C 13.718457 15.740664 11.913133 15.984399 10.445312 16.574219 C 8.3704525 17.408419 7.0870456 18.830519 6.7910156 20.605469 C 6.3494756 19.998509 5.9484938 19.362525 5.5898438 18.703125 C 4.9497138 17.522035 4.5333969 16.399709 4.3730469 15.449219 C 4.3248469 15.163999 4.3025938 14.873154 4.3085938 14.583984 C 4.3131938 14.421784 4.3319813 14.260773 4.3632812 14.101562 C 4.3792812 14.042123 4.3940031 13.984741 4.4082031 13.931641 C 5.3690131 12.428371 7.0062219 11.664981 9.0761719 11.738281 z M 16.837891 12.867188 C 17.280471 12.833768 17.6771 13.091008 17.875 13.242188 C 18.19488 13.500637 18.459127 13.819711 18.654297 14.181641 C 18.583857 14.262361 18.521444 14.348453 18.464844 14.439453 C 18.151494 14.278043 17.813444 14.169487 17.464844 14.117188 C 17.340054 14.099788 17.213931 14.090797 17.087891 14.091797 C 17.029091 14.091797 16.987887 14.094609 16.929688 14.099609 C 16.871498 14.104509 16.818831 14.109187 16.769531 14.117188 C 16.588521 14.145787 16.41252 14.204462 16.25 14.289062 C 16.21142 14.312063 16.171013 14.336128 16.132812 14.361328 L 16.132812 14.310547 C 16.131813 14.262267 16.133766 14.212863 16.134766 14.164062 L 16.136719 14.121094 C 16.140819 14.007344 16.148056 13.898582 16.160156 13.794922 C 16.169056 13.728632 16.178553 13.664369 16.189453 13.605469 C 16.242143 13.317469 16.332363 13.091002 16.439453 12.976562 C 16.485273 12.953263 16.531478 12.934769 16.580078 12.917969 C 16.622188 12.904169 16.665484 12.892766 16.708984 12.884766 C 16.751684 12.876166 16.794491 12.870188 16.837891 12.867188 z M 26.738281 13.121094 L 26.740234 13.121094 C 26.885714 13.339634 27.025644 13.572544 27.152344 13.802734 C 27.293874 14.063564 27.419071 14.334178 27.525391 14.611328 C 27.629751 14.874638 27.705553 15.148444 27.751953 15.427734 C 27.787853 15.631634 27.785947 15.841332 27.748047 16.044922 L 27.746094 16.056641 C 27.743094 16.066641 27.738328 16.076937 27.736328 16.085938 C 27.028868 17.173688 25.761936 17.171366 25.066406 17.072266 C 24.099586 16.917586 23.187149 16.519882 22.417969 15.914062 C 22.418269 15.708583 22.393297 15.503648 22.341797 15.304688 C 23.199217 15.378828 24.062184 15.254942 24.865234 14.945312 C 25.830774 14.556632 26.487841 13.916784 26.738281 13.121094 z M 17.119141 14.683594 C 17.207061 14.683794 17.295712 14.691025 17.382812 14.703125 C 17.730642 14.757505 18.063434 14.877324 18.365234 15.058594 C 18.359234 15.140484 18.361141 15.222887 18.369141 15.304688 L 18.294922 15.308594 C 18.005902 15.330124 17.722615 15.395423 17.453125 15.501953 C 17.420025 15.515753 17.387969 15.530022 17.355469 15.544922 C 17.301939 15.568822 17.254638 15.591534 17.210938 15.615234 C 17.176637 15.633534 17.143428 15.652375 17.111328 15.671875 L 17.082031 15.691406 L 17.070312 15.699219 C 17.028012 15.725219 16.987419 15.75235 16.949219 15.78125 C 16.888359 15.82728 16.831444 15.877741 16.777344 15.931641 C 16.737264 15.971691 16.699462 16.014394 16.664062 16.058594 C 16.637563 16.091684 16.610631 16.131381 16.582031 16.175781 C 16.566531 16.199781 16.550709 16.222194 16.537109 16.246094 L 16.480469 16.144531 L 16.458984 16.105469 C 16.416144 16.023399 16.37785 15.941081 16.34375 15.863281 L 16.328125 15.830078 C 16.315025 15.798178 16.301116 15.762575 16.291016 15.734375 C 16.280916 15.706075 16.270719 15.679444 16.261719 15.652344 C 16.244119 15.593684 16.227744 15.542681 16.214844 15.488281 L 16.212891 15.486328 C 16.178591 15.367068 16.169647 15.242231 16.185547 15.119141 C 16.237247 15.043041 16.299694 14.974216 16.371094 14.916016 C 16.405964 14.888316 16.441869 14.864197 16.480469 14.841797 C 16.519619 14.817097 16.561216 14.796144 16.603516 14.777344 C 16.682896 14.744544 16.764909 14.719678 16.849609 14.705078 C 16.889779 14.698478 16.939275 14.693453 16.984375 14.689453 C 17.029435 14.685453 17.075041 14.683524 17.119141 14.683594 z M 18.548828 15.886719 L 18.550781 15.886719 C 18.578681 15.935489 18.607425 15.983997 18.640625 16.029297 C 18.584385 16.067197 18.529109 16.108091 18.474609 16.150391 C 18.314059 16.275591 18.169209 16.418445 18.042969 16.578125 C 18.027869 16.597725 18.0141 16.616919 18 16.636719 L 17.998047 16.646484 C 17.968547 16.686664 17.942422 16.723566 17.919922 16.759766 L 17.90625 16.779297 C 17.87885 16.822947 17.854025 16.870928 17.828125 16.923828 L 17.816406 16.945312 C 17.772036 17.037192 17.736738 17.133622 17.710938 17.232422 C 17.696438 17.287542 17.685734 17.343891 17.677734 17.400391 C 17.673734 17.431891 17.671922 17.464094 17.669922 17.496094 L 17.667969 17.529297 L 17.625 17.503906 L 17.595703 17.484375 L 17.583984 17.482422 C 17.520294 17.441732 17.45965 17.400128 17.40625 17.361328 L 17.396484 17.359375 C 17.358664 17.332175 17.322162 17.305244 17.289062 17.277344 L 17.244141 17.238281 C 17.201001 17.200891 17.160094 17.162694 17.121094 17.121094 C 17.048074 17.048694 16.990772 16.962188 16.951172 16.867188 C 16.957072 16.794418 16.972747 16.722797 16.998047 16.654297 C 17.013147 16.613617 17.031134 16.574709 17.052734 16.537109 C 17.075734 16.495669 17.103313 16.455169 17.132812 16.417969 C 17.150712 16.395269 17.169906 16.373263 17.191406 16.351562 C 17.218106 16.324862 17.246091 16.299091 17.275391 16.275391 C 17.314341 16.243491 17.356137 16.212747 17.398438 16.185547 C 17.434877 16.162947 17.473772 16.139841 17.513672 16.119141 C 17.553512 16.098441 17.594619 16.078647 17.636719 16.060547 L 17.646484 16.056641 L 17.673828 16.044922 C 17.952988 15.937522 18.249708 15.883719 18.548828 15.886719 z M 21.005859 16.148438 C 21.080789 16.166938 21.157475 16.1795 21.234375 16.1875 L 21.246094 16.191406 L 21.267578 16.197266 L 21.283203 16.201172 C 21.316403 16.205172 21.347906 16.207984 21.378906 16.208984 L 21.421875 16.210938 L 21.488281 16.210938 C 21.517381 16.208938 21.550291 16.206172 21.587891 16.201172 C 21.650451 16.193872 21.713037 16.181963 21.773438 16.164062 L 21.785156 16.160156 C 21.783456 16.190056 21.782438 16.223759 21.773438 16.255859 L 21.769531 16.273438 C 21.760531 16.320957 21.748322 16.368462 21.732422 16.414062 C 21.721822 16.447762 21.7059 16.479566 21.6875 16.509766 C 21.672 16.516466 21.656825 16.522344 21.640625 16.527344 C 21.605145 16.537044 21.56795 16.541486 21.53125 16.541016 C 21.49925 16.540416 21.4686 16.536297 21.4375 16.529297 L 21.408203 16.521484 C 21.390303 16.517784 21.372869 16.513812 21.355469 16.507812 L 21.330078 16.5 C 21.291698 16.483 21.255903 16.464306 21.220703 16.441406 C 21.189503 16.422306 21.161919 16.402312 21.136719 16.382812 L 21.121094 16.369141 L 21.109375 16.361328 C 21.053575 16.313708 21.002078 16.261378 20.955078 16.205078 C 20.972478 16.186878 20.989059 16.169391 21.005859 16.150391 L 21.005859 16.148438 z M 14.511719 16.447266 C 14.955549 16.453036 15.397072 16.486128 15.826172 16.548828 C 16.038022 17.009698 16.339791 17.424068 16.712891 17.767578 L 16.642578 17.798828 C 15.270658 18.429998 13.980079 19.430262 13.105469 20.544922 C 11.886259 22.099992 11.518548 23.758016 12.048828 25.253906 C 11.461938 24.989406 10.891017 24.687513 10.341797 24.351562 C 9.4285169 23.790922 8.6655325 23.179051 8.1328125 22.582031 C 7.9170625 22.345681 7.7271063 22.087307 7.5664062 21.810547 C 7.4843962 21.668137 7.4156281 21.518421 7.3613281 21.363281 C 7.3442281 21.313551 7.3297594 21.267856 7.3183594 21.222656 C 7.3982994 19.419256 8.5858756 17.964706 10.666016 17.128906 C 11.820696 16.664236 13.180239 16.429866 14.511719 16.447266 z M 19.099609 16.458984 L 19.101562 16.458984 C 19.132962 16.477284 19.166419 16.495019 19.199219 16.511719 C 19.152429 16.609299 19.111825 16.711503 19.078125 16.814453 C 19.038825 16.934803 19.008834 17.056411 18.990234 17.181641 C 18.993234 17.198041 18.990328 17.213816 18.986328 17.228516 L 18.982422 17.244141 C 18.979422 17.279651 18.974656 17.313456 18.972656 17.347656 L 18.96875 17.359375 C 18.9677 17.374875 18.970797 17.390497 18.966797 17.404297 C 18.965797 17.452087 18.966703 17.5036 18.970703 17.5625 L 18.96875 17.568359 C 18.97555 17.664709 18.991678 17.760416 19.017578 17.853516 C 19.032078 17.908616 19.050466 17.962925 19.072266 18.015625 L 19.070312 18.015625 L 19.085938 18.046875 L 19.099609 18.074219 L 19.066406 18.074219 L 19.060547 18.072266 C 19.004507 18.068266 18.956803 18.0675 18.908203 18.0625 L 18.892578 18.058594 C 18.843048 18.053194 18.794747 18.049609 18.748047 18.037109 L 18.716797 18.029297 C 18.661387 18.017697 18.606434 18.002075 18.552734 17.984375 C 18.472884 17.963005 18.398631 17.927906 18.332031 17.878906 C 18.307131 17.827466 18.288844 17.772797 18.277344 17.716797 C 18.269644 17.675697 18.265705 17.633597 18.265625 17.591797 C 18.265625 17.548047 18.267391 17.504037 18.275391 17.460938 C 18.279891 17.442738 18.286016 17.425503 18.291016 17.408203 C 18.298316 17.373593 18.307259 17.338387 18.318359 17.304688 C 18.331459 17.269617 18.346881 17.236625 18.363281 17.203125 C 18.383181 17.162385 18.403634 17.122384 18.427734 17.083984 C 18.451334 17.047154 18.477459 17.009256 18.505859 16.972656 L 18.517578 16.958984 C 18.679298 16.757474 18.875749 16.588064 19.099609 16.458984 z M 20.46875 16.546875 C 20.55564 16.656765 20.656435 16.75585 20.765625 16.84375 L 20.775391 16.851562 L 20.791016 16.863281 L 20.794922 16.865234 L 20.835938 16.894531 C 20.868238 16.916931 20.900441 16.937931 20.931641 16.957031 C 20.958041 16.973331 20.985319 16.988353 21.011719 17.001953 L 21.080078 17.037109 C 21.137898 17.063409 21.196512 17.084862 21.257812 17.101562 L 21.259766 17.101562 L 21.291016 17.109375 L 21.361328 17.126953 L 21.335938 17.166016 C 21.309038 17.203996 21.2802 17.239291 21.25 17.275391 C 21.21548 17.317331 21.178772 17.357931 21.138672 17.394531 C 21.102872 17.428131 21.061678 17.454862 21.017578 17.476562 C 20.989278 17.473062 20.962947 17.466984 20.935547 17.458984 C 20.898227 17.448384 20.861725 17.433463 20.828125 17.414062 C 20.792225 17.392763 20.758716 17.368744 20.728516 17.339844 C 20.707216 17.319344 20.686569 17.296438 20.667969 17.273438 L 20.638672 17.234375 C 20.613272 17.199145 20.590613 17.161447 20.570312 17.123047 C 20.552212 17.086827 20.535684 17.049619 20.521484 17.011719 L 20.517578 17 C 20.465978 16.86039 20.434228 16.714856 20.423828 16.566406 L 20.46875 16.546875 z M 22.324219 16.587891 C 23.115719 17.144071 24.024569 17.511886 24.980469 17.660156 C 26.154159 17.827486 27.155177 17.554938 27.835938 16.892578 C 27.861337 17.215118 27.871281 17.539791 27.863281 17.863281 C 27.855811 18.234081 27.820213 18.60317 27.757812 18.96875 C 27.705133 19.28778 27.613941 19.600388 27.488281 19.898438 C 27.412271 20.080057 27.308567 20.247624 27.179688 20.396484 L 27.177734 20.404297 L 27.144531 20.439453 C 25.830091 21.112473 24.585614 20.392081 23.958984 19.900391 C 23.095724 19.199771 22.428111 18.287926 22.019531 17.253906 C 22.154611 17.048746 22.256519 16.824021 22.324219 16.587891 z M 19.771484 16.667969 L 19.773438 16.667969 L 19.835938 16.669922 C 19.849038 16.798382 19.872803 16.924638 19.908203 17.048828 C 19.926103 17.112418 19.948256 17.176881 19.972656 17.238281 L 19.984375 17.263672 L 19.988281 17.275391 C 19.998681 17.298891 20.006231 17.318603 20.019531 17.345703 C 20.032831 17.372803 20.042047 17.390428 20.060547 17.423828 C 20.079147 17.457238 20.099547 17.490644 20.123047 17.527344 L 20.126953 17.529297 L 20.148438 17.560547 L 20.148438 17.5625 C 20.195237 17.6317 20.249394 17.696859 20.308594 17.755859 C 20.342324 17.788459 20.378516 17.817403 20.416016 17.845703 L 20.34375 17.882812 L 20.306641 17.900391 C 20.263081 17.920191 20.218381 17.937025 20.175781 17.953125 L 20.162109 17.958984 C 20.109559 17.977984 20.0545 17.993459 20 18.005859 C 19.93739 18.021439 19.872794 18.026484 19.808594 18.021484 C 19.775294 17.996984 19.74625 17.9684 19.71875 17.9375 C 19.69135 17.9076 19.666884 17.874944 19.646484 17.839844 C 19.625084 17.804164 19.605797 17.765763 19.591797 17.726562 L 19.587891 17.708984 L 19.587891 17.705078 C 19.578791 17.673778 19.571406 17.641475 19.566406 17.609375 C 19.562406 17.582675 19.558641 17.555397 19.556641 17.529297 C 19.552811 17.485347 19.550734 17.442437 19.552734 17.398438 C 19.554434 17.354727 19.558453 17.312231 19.564453 17.269531 L 19.566406 17.263672 C 19.599106 17.054392 19.668604 16.853179 19.771484 16.667969 z M 21.662109 17.9375 C 22.115659 18.87899 22.774644 19.707348 23.589844 20.361328 C 24.057314 20.740108 24.597161 21.020527 25.175781 21.185547 C 25.717401 21.336517 26.289921 21.33725 26.832031 21.1875 C 26.666871 21.54037 26.481567 21.883847 26.279297 22.216797 C 26.037587 22.616827 25.761748 22.994966 25.455078 23.347656 C 25.226018 23.615266 24.965694 23.853621 24.677734 24.056641 C 24.527594 24.161111 24.364096 24.244388 24.191406 24.304688 L 24.111328 24.328125 C 22.435288 24.248895 21.621196 22.838613 21.285156 22.001953 C 20.849396 20.863393 20.707884 19.633861 20.871094 18.425781 C 21.153874 18.295671 21.418819 18.13171 21.662109 17.9375 z M 17.253906 18.181641 C 17.577806 18.386821 17.932394 18.541425 18.302734 18.640625 C 18.361344 18.656325 18.416909 18.672 18.474609 18.6875 L 18.443359 18.728516 C 17.659499 19.833796 17.141998 21.105099 16.929688 22.443359 C 16.683917 24.169989 17.121842 25.609833 18.169922 26.539062 C 17.623562 26.590663 17.075974 26.609603 16.527344 26.595703 C 15.773154 26.584943 15.022559 26.482336 14.292969 26.291016 C 13.953589 26.201236 13.626999 26.071547 13.318359 25.904297 C 13.169319 25.822257 13.028711 25.724911 12.900391 25.613281 C 12.867991 25.583981 12.837447 25.555144 12.810547 25.527344 C 12.076007 24.109064 12.346016 22.46921 13.572266 20.90625 C 14.477506 19.75763 15.833756 18.754781 17.253906 18.181641 z M 20.248047 18.648438 L 20.246094 18.65625 C 20.132884 19.86651 20.300838 21.087786 20.736328 22.222656 C 21.289688 23.599226 22.207369 24.501628 23.349609 24.804688 L 23.470703 24.835938 C 23.089993 25.102967 22.693626 25.348183 22.285156 25.570312 C 21.766716 25.859562 21.220327 26.096571 20.654297 26.275391 C 20.308637 26.384801 19.949891 26.450503 19.587891 26.470703 C 19.413941 26.477803 19.241033 26.463988 19.070312 26.429688 C 19.034513 26.420088 19.002856 26.410344 18.972656 26.402344 C 17.371826 25.375864 17.371785 23.532677 17.515625 22.523438 C 17.700325 21.229798 18.30871 19.843428 19.15625 18.767578 C 19.52426 18.781358 19.891647 18.741337 20.248047 18.648438 z "
       transform="translate(281.4375,566.48186)"
       id="rect2995" />
  </g>
</svg>
