<?xml version="1.0" encoding="UTF-8" standalone="no"?>
<!-- Created with Inkscape (http://www.inkscape.org/) -->

<svg
   xmlns:dc="http://purl.org/dc/elements/1.1/"
   xmlns:cc="http://creativecommons.org/ns#"
   xmlns:rdf="http://www.w3.org/1999/02/22-rdf-syntax-ns#"
   xmlns:svg="http://www.w3.org/2000/svg"
   xmlns="http://www.w3.org/2000/svg"
   xmlns:xlink="http://www.w3.org/1999/xlink"
   xmlns:sodipodi="http://sodipodi.sourceforge.net/DTD/sodipodi-0.dtd"
   xmlns:inkscape="http://www.inkscape.org/namespaces/inkscape"
   width="32"
   height="32"
   id="svg4271"
   version="1.1"
   inkscape:version="0.91 r13725"
   sodipodi:docname="visualidentity-idserver.svg"
   inkscape:export-filename="C:\Users\Golayp\Desktop\visualidentity-satax.png"
   inkscape:export-xdpi="540"
   inkscape:export-ydpi="540">
  <defs
     id="defs4273">
    <inkscape:path-effect
       effect="skeletal"
       id="path-effect3060"
       is_visible="true"
       pattern="M 9.53125,0 C 9.53125,0 0,9.04999 0,15.3125 0,20.406167 2.831179,24.694903 6.71875,26.125 L 8.9375,9.34375 l 0,17.28125 0,4.65625 2.90625,0 -0.625,-4.8125 C 15.669796,25.513216 19.0625,20.883181 19.0625,15.3125 19.0625,9.04999 9.53125,0 9.53125,0 z"
       copytype="single_stretched"
       prop_scale="1"
       scale_y_rel="false"
       spacing="0"
       normal_offset="0"
       tang_offset="0"
       prop_units="false"
       vertical_pattern="false"
       fuse_tolerance="0" />
    <inkscape:path-effect
       effect="skeletal"
       id="path-effect3050"
       is_visible="true"
       pattern="M 9.53125,0 C 9.53125,0 0,9.04999 0,15.3125 0,20.406167 2.831179,24.694903 6.71875,26.125 L 8.9375,9.34375 l 0,17.28125 0,4.65625 2.90625,0 -0.625,-4.8125 C 15.669796,25.513216 19.0625,20.883181 19.0625,15.3125 19.0625,9.04999 9.53125,0 9.53125,0 z"
       copytype="single_stretched"
       prop_scale="1"
       scale_y_rel="false"
       spacing="0"
       normal_offset="0"
       tang_offset="0"
       prop_units="false"
       vertical_pattern="false"
       fuse_tolerance="0" />
    <inkscape:path-effect
       effect="skeletal"
       id="path-effect3011"
       is_visible="true"
       pattern="M 0,0 1,0"
       copytype="single_stretched"
       prop_scale="1"
       scale_y_rel="false"
       spacing="0"
       normal_offset="0"
       tang_offset="0"
       prop_units="false"
       vertical_pattern="false"
       fuse_tolerance="0" />
    <inkscape:path-effect
       effect="skeletal"
       id="path-effect3002"
       is_visible="true"
       pattern="m 316.73214,558.2899 c 0,0 -9.07677,9.53125 -15.33928,9.53125 -6.26252,0 -11.33929,-4.26729 -11.33929,-9.53125 0,-5.26397 5.07677,-9.53125 11.33929,-9.53125 6.26251,0 15.33928,9.53125 15.33928,9.53125 z"
       copytype="single_stretched"
       prop_scale="1"
       scale_y_rel="false"
       spacing="0"
       normal_offset="0"
       tang_offset="0"
       prop_units="false"
       vertical_pattern="false"
       fuse_tolerance="0" />
    <clipPath
       id="SVGID_2_">
      <use
         id="use9"
         overflow="visible"
         xlink:href="#SVGID_1_" />
    </clipPath>
    <clipPath
       id="SVGID_2_-1">
      <use
         xlink:href="#SVGID_1_"
         overflow="visible"
         id="use9-7" />
    </clipPath>
    <defs
       id="defs5">
      <rect
         id="SVGID_1_"
         x="180.133"
         y="92.544"
         width="232.938"
         height="157.803" />
    </defs>
    <linearGradient
       id="SVGID_3_"
       gradientUnits="userSpaceOnUse"
       x1="423.79391"
       y1="290.0405"
       x2="434.30521"
       y2="276.55899">
      <stop
         offset="0"
         style="stop-color:#6299BE"
         id="stop26" />
      <stop
         offset="1"
         style="stop-color:#3B80AE"
         id="stop28" />
    </linearGradient>
    <linearGradient
       id="SVGID_2_-09"
       gradientUnits="userSpaceOnUse"
       x1="420.64011"
       y1="293.1777"
       x2="388.9137"
       y2="300.50229">
      <stop
         offset="0"
         style="stop-color:#89B5D0"
         id="stop17" />
      <stop
         offset="1"
         style="stop-color:#6BA2C4"
         id="stop19" />
    </linearGradient>
    <linearGradient
       id="SVGID_1_-4"
       gradientUnits="userSpaceOnUse"
       x1="423.02151"
       y1="294.87839"
       x2="435.91449"
       y2="322.70029">
      <stop
         offset="0"
         style="stop-color:#7690BA"
         id="stop8" />
      <stop
         offset="1"
         style="stop-color:#5474A9"
         id="stop10" />
    </linearGradient>
  </defs>
  <sodipodi:namedview
     id="base"
     pagecolor="#ffffff"
     bordercolor="#666666"
     borderopacity="1.0"
     inkscape:pageopacity="0.0"
     inkscape:pageshadow="2"
     inkscape:zoom="15.839192"
     inkscape:cx="26.624356"
     inkscape:cy="7.0399191"
     inkscape:document-units="px"
     inkscape:current-layer="layer1"
     showgrid="false"
     fit-margin-top="0"
     fit-margin-left="0"
     fit-margin-right="0"
     fit-margin-bottom="0"
     inkscape:window-width="1920"
     inkscape:window-height="1017"
     inkscape:window-x="1912"
     inkscape:window-y="-8"
     inkscape:window-maximized="1"
     showguides="true"
     inkscape:guide-bbox="true" />
  <metadata
     id="metadata4276">
    <rdf:RDF>
      <cc:Work
         rdf:about="">
        <dc:format>image/svg+xml</dc:format>
        <dc:type
           rdf:resource="http://purl.org/dc/dcmitype/StillImage" />
        <dc:title />
      </cc:Work>
    </rdf:RDF>
  </metadata>
  <g
     inkscape:label="Layer 1"
     inkscape:groupmode="layer"
     id="layer1"
     transform="translate(-281.4375,-566.48186)">
    <path
       style="fill:#000000;fill-opacity:1;stroke:none"
       d="M 3 2 C 2.446 2 2 2.446 2 3 L 2 20.103516 L 2 29 C 2 29.554 2.446 30 3 30 L 11.894531 30 L 29 30 C 29.1385 30 29.270915 29.972375 29.390625 29.921875 C 29.749785 29.770485 30 29.4155 30 29 L 30 11.896484 L 30 3 C 30 2.446 29.554 2 29 2 L 20.105469 2 L 3 2 z M 10 14.429688 L 26 14.429688 C 27.108 14.429688 28 15.321688 28 16.429688 L 28 26 C 28 27.10799 27.108 28 26 28 L 10 28 C 8.892 28 8 27.10799 8 26 L 8 16.429688 C 8 15.321688 8.892 14.429688 10 14.429688 z M 14 16.740234 C 12.79367 16.740234 11.613668 18.237951 11.992188 19.650391 C 12.264598 20.667121 12.551721 21.433598 13.119141 21.798828 L 13.119141 22.494141 C 9.9132506 22.693901 9.7113719 24.035683 9.7011719 25.689453 L 18.302734 25.689453 C 18.292334 24.035683 18.090636 22.693901 14.884766 22.494141 L 14.884766 21.802734 C 15.449606 21.441684 15.733856 20.680011 16.009766 19.650391 C 16.388206 18.237951 15.20633 16.740234 14 16.740234 z M 19.712891 17.740234 C 19.549261 17.740234 19.417969 18.023287 19.417969 18.373047 C 19.417969 18.722817 19.549261 19.003906 19.712891 19.003906 L 26.003906 19.003906 C 26.167536 19.003906 26.298828 18.722817 26.298828 18.373047 C 26.298828 18.023287 26.167536 17.740234 26.003906 17.740234 L 19.712891 17.740234 z M 19.712891 20.583984 C 19.549261 20.583984 19.417969 20.867037 19.417969 21.216797 C 19.417969 21.566567 19.549261 21.847656 19.712891 21.847656 L 26.003906 21.847656 C 26.167536 21.847656 26.298828 21.566567 26.298828 21.216797 C 26.298828 20.867037 26.167536 20.583984 26.003906 20.583984 L 19.712891 20.583984 z M 19.712891 23.427734 C 19.549261 23.427734 19.417969 23.710787 19.417969 24.060547 C 19.417969 24.410317 19.549261 24.691406 19.712891 24.691406 L 26.003906 24.691406 C 26.167536 24.691406 26.298828 24.410317 26.298828 24.060547 C 26.298828 23.710787 26.167536 23.427734 26.003906 23.427734 L 19.712891 23.427734 z "
       transform="translate(281.4375,566.48186)"
       id="rect2995" />
  </g>
</svg>
