<?xml version="1.0" encoding="UTF-8" standalone="no"?>
<!-- Created with Inkscape (http://www.inkscape.org/) -->

<svg
   xmlns:dc="http://purl.org/dc/elements/1.1/"
   xmlns:cc="http://creativecommons.org/ns#"
   xmlns:rdf="http://www.w3.org/1999/02/22-rdf-syntax-ns#"
   xmlns:svg="http://www.w3.org/2000/svg"
   xmlns="http://www.w3.org/2000/svg"
   xmlns:sodipodi="http://sodipodi.sourceforge.net/DTD/sodipodi-0.dtd"
   xmlns:inkscape="http://www.inkscape.org/namespaces/inkscape"
   width="32"
   height="32"
   id="svg3608"
   version="1.1"
   inkscape:version="0.91 r13725"
   sodipodi:docname="visualidentity-nemo.svg"
   inkscape:export-filename="C:\Projects\github\edicons\src\visualidentity-archiclass.png"
   inkscape:export-xdpi="540"
   inkscape:export-ydpi="540">
  <defs
     id="defs3610">
    <linearGradient
       y2="276.55899"
       x2="434.30521"
       y1="290.0405"
       x1="423.79391"
       gradientUnits="userSpaceOnUse"
       id="SVGID_3_">
      <stop
         id="stop26"
         style="stop-color:#6299BE"
         offset="0" />
      <stop
         id="stop28"
         style="stop-color:#3B80AE"
         offset="1" />
    </linearGradient>
    <linearGradient
       y2="300.50229"
       x2="388.9137"
       y1="293.1777"
       x1="420.64011"
       gradientUnits="userSpaceOnUse"
       id="SVGID_2_">
      <stop
         id="stop17"
         style="stop-color:#89B5D0"
         offset="0" />
      <stop
         id="stop19"
         style="stop-color:#6BA2C4"
         offset="1" />
    </linearGradient>
    <linearGradient
       y2="322.70029"
       x2="435.91449"
       y1="294.87839"
       x1="423.02151"
       gradientUnits="userSpaceOnUse"
       id="SVGID_1_">
      <stop
         id="stop8"
         style="stop-color:#7690BA"
         offset="0" />
      <stop
         id="stop10"
         style="stop-color:#5474A9"
         offset="1" />
    </linearGradient>
    <linearGradient
       y2="276.55899"
       x2="434.30521"
       y1="290.0405"
       x1="423.79391"
       gradientUnits="userSpaceOnUse"
       id="SVGID_3_-8">
      <stop
         id="stop26-8"
         style="stop-color:#6299BE"
         offset="0" />
      <stop
         id="stop28-2"
         style="stop-color:#3B80AE"
         offset="1" />
    </linearGradient>
    <linearGradient
       y2="300.50229"
       x2="388.9137"
       y1="293.1777"
       x1="420.64011"
       gradientUnits="userSpaceOnUse"
       id="SVGID_2_-0">
      <stop
         id="stop17-9"
         style="stop-color:#89B5D0"
         offset="0" />
      <stop
         id="stop19-4"
         style="stop-color:#6BA2C4"
         offset="1" />
    </linearGradient>
    <linearGradient
       y2="322.70029"
       x2="435.91449"
       y1="294.87839"
       x1="423.02151"
       gradientUnits="userSpaceOnUse"
       id="SVGID_1_-1">
      <stop
         id="stop8-7"
         style="stop-color:#7690BA"
         offset="0" />
      <stop
         id="stop10-4"
         style="stop-color:#5474A9"
         offset="1" />
    </linearGradient>
  </defs>
  <sodipodi:namedview
     id="base"
     pagecolor="#ffffff"
     bordercolor="#666666"
     borderopacity="1.0"
     inkscape:pageopacity="0.0"
     inkscape:pageshadow="2"
     inkscape:zoom="15.839192"
     inkscape:cx="21.647197"
     inkscape:cy="15.020039"
     inkscape:document-units="px"
     inkscape:current-layer="layer1"
     showgrid="false"
     inkscape:window-width="1920"
     inkscape:window-height="1017"
     inkscape:window-x="-8"
     inkscape:window-y="-4"
     inkscape:window-maximized="1"
     fit-margin-top="0"
     fit-margin-left="0"
     fit-margin-right="0"
     fit-margin-bottom="0"
     showguides="false" />
  <metadata
     id="metadata3613">
    <rdf:RDF>
      <cc:Work
         rdf:about="">
        <dc:format>image/svg+xml</dc:format>
        <dc:type
           rdf:resource="http://purl.org/dc/dcmitype/StillImage" />
        <dc:title />
      </cc:Work>
    </rdf:RDF>
  </metadata>
  <g
     inkscape:label="Layer 1"
     inkscape:groupmode="layer"
     id="layer1"
     transform="translate(-203.3125,-672.125)">
    <path
       style="fill:#000000;fill-opacity:1;stroke:none"
       d="M 3 2 C 2.446 2 2 2.446 2 3 L 2 29 C 2 29.554 2.446 30 3 30 L 29 30 C 29.554 30 30 29.554 30 29 L 30 3 C 30 2.446 29.554 2 29 2 L 3 2 z M 18.255859 12.044922 L 18.257812 12.044922 A 2.4088319 2.3711944 0 0 1 19.548828 12.419922 L 19.548828 27.583984 A 2.4088319 2.3711944 0 0 1 18.261719 27.955078 A 2.4088319 2.3711944 0 0 1 15.853516 25.583984 A 2.4088319 2.3711944 0 0 1 15.853516 25.574219 A 2.4088319 2.3711944 0 0 1 15.671875 25.583984 A 2.4088319 2.3711944 0 0 1 13.263672 23.212891 A 2.4088319 2.3711944 0 0 1 13.503906 22.183594 A 2.4088319 2.3711944 0 0 1 12.195312 20.076172 A 2.4088319 2.3711944 0 0 1 12.207031 19.939453 A 2.4088319 2.3711944 0 0 1 12.203125 19.921875 A 2.4088319 2.3711944 0 0 1 13.503906 17.820312 A 2.4088319 2.3711944 0 0 1 13.259766 16.787109 A 2.4088319 2.3711944 0 0 1 15.671875 14.416016 A 2.4088319 2.3711944 0 0 1 15.849609 14.423828 A 2.4088319 2.3711944 0 0 1 15.849609 14.416016 A 2.4088319 2.3711944 0 0 1 18.255859 12.044922 z M 21.740234 12.044922 L 21.742188 12.044922 A 2.4088319 2.3711944 0 0 1 24.150391 14.416016 A 2.4088319 2.3711944 0 0 1 24.150391 14.423828 A 2.4088319 2.3711944 0 0 1 24.330078 14.416016 A 2.4088319 2.3711944 0 0 1 26.740234 16.787109 A 2.4088319 2.3711944 0 0 1 26.498047 17.820312 A 2.4088319 2.3711944 0 0 1 27.796875 19.921875 A 2.4088319 2.3711944 0 0 1 27.794922 19.939453 A 2.4088319 2.3711944 0 0 1 27.802734 20.076172 A 2.4088319 2.3711944 0 0 1 26.496094 22.183594 A 2.4088319 2.3711944 0 0 1 26.734375 23.212891 A 2.4088319 2.3711944 0 0 1 24.328125 25.583984 A 2.4088319 2.3711944 0 0 1 24.146484 25.574219 A 2.4088319 2.3711944 0 0 1 24.146484 25.583984 A 2.4088319 2.3711944 0 0 1 21.736328 27.955078 A 2.4088319 2.3711944 0 0 1 20.449219 27.583984 L 20.449219 12.419922 A 2.4088319 2.3711944 0 0 1 21.740234 12.044922 z "
       transform="translate(203.3125,672.125)"
       id="rect2995" />
  </g>
</svg>
