<?xml version="1.0" encoding="UTF-8" standalone="no"?>
<!-- Created with Inkscape (http://www.inkscape.org/) -->

<svg
   xmlns:dc="http://purl.org/dc/elements/1.1/"
   xmlns:cc="http://creativecommons.org/ns#"
   xmlns:rdf="http://www.w3.org/1999/02/22-rdf-syntax-ns#"
   xmlns:svg="http://www.w3.org/2000/svg"
   xmlns="http://www.w3.org/2000/svg"
   xmlns:sodipodi="http://sodipodi.sourceforge.net/DTD/sodipodi-0.dtd"
   xmlns:inkscape="http://www.inkscape.org/namespaces/inkscape"
   width="32"
   height="32"
   id="svg3608"
   version="1.1"
   inkscape:version="0.91 r13725"
   sodipodi:docname="visualidentity-load.svg">
  <defs
     id="defs3610">
    <linearGradient
       y2="276.55899"
       x2="434.30521"
       y1="290.0405"
       x1="423.79391"
       gradientUnits="userSpaceOnUse"
       id="SVGID_3_">
      <stop
         id="stop26"
         style="stop-color:#6299BE"
         offset="0" />
      <stop
         id="stop28"
         style="stop-color:#3B80AE"
         offset="1" />
    </linearGradient>
    <linearGradient
       y2="300.50229"
       x2="388.9137"
       y1="293.1777"
       x1="420.64011"
       gradientUnits="userSpaceOnUse"
       id="SVGID_2_">
      <stop
         id="stop17"
         style="stop-color:#89B5D0"
         offset="0" />
      <stop
         id="stop19"
         style="stop-color:#6BA2C4"
         offset="1" />
    </linearGradient>
    <linearGradient
       y2="322.70029"
       x2="435.91449"
       y1="294.87839"
       x1="423.02151"
       gradientUnits="userSpaceOnUse"
       id="SVGID_1_">
      <stop
         id="stop8"
         style="stop-color:#7690BA"
         offset="0" />
      <stop
         id="stop10"
         style="stop-color:#5474A9"
         offset="1" />
    </linearGradient>
    <linearGradient
       y2="276.55899"
       x2="434.30521"
       y1="290.0405"
       x1="423.79391"
       gradientUnits="userSpaceOnUse"
       id="SVGID_3_-8">
      <stop
         id="stop26-8"
         style="stop-color:#6299BE"
         offset="0" />
      <stop
         id="stop28-2"
         style="stop-color:#3B80AE"
         offset="1" />
    </linearGradient>
    <linearGradient
       y2="300.50229"
       x2="388.9137"
       y1="293.1777"
       x1="420.64011"
       gradientUnits="userSpaceOnUse"
       id="SVGID_2_-0">
      <stop
         id="stop17-9"
         style="stop-color:#89B5D0"
         offset="0" />
      <stop
         id="stop19-4"
         style="stop-color:#6BA2C4"
         offset="1" />
    </linearGradient>
    <linearGradient
       y2="322.70029"
       x2="435.91449"
       y1="294.87839"
       x1="423.02151"
       gradientUnits="userSpaceOnUse"
       id="SVGID_1_-1">
      <stop
         id="stop8-7"
         style="stop-color:#7690BA"
         offset="0" />
      <stop
         id="stop10-4"
         style="stop-color:#5474A9"
         offset="1" />
    </linearGradient>
  </defs>
  <sodipodi:namedview
     id="base"
     pagecolor="#ffffff"
     bordercolor="#666666"
     borderopacity="1.0"
     inkscape:pageopacity="0.0"
     inkscape:pageshadow="2"
     inkscape:zoom="15.839192"
     inkscape:cx="-12.580822"
     inkscape:cy="20.374038"
     inkscape:document-units="px"
     inkscape:current-layer="layer1"
     showgrid="false"
     inkscape:window-width="1920"
     inkscape:window-height="1017"
     inkscape:window-x="-8"
     inkscape:window-y="-8"
     inkscape:window-maximized="1"
     fit-margin-top="0"
     fit-margin-left="0"
     fit-margin-right="0"
     fit-margin-bottom="0" />
  <metadata
     id="metadata3613">
    <rdf:RDF>
      <cc:Work
         rdf:about="">
        <dc:format>image/svg+xml</dc:format>
        <dc:type
           rdf:resource="http://purl.org/dc/dcmitype/StillImage" />
        <dc:title />
      </cc:Work>
    </rdf:RDF>
  </metadata>
  <g
     inkscape:label="Layer 1"
     inkscape:groupmode="layer"
     id="layer1"
     transform="translate(-203.3125,-672.125)">
    <path
       style="fill:#000000;fill-opacity:1;stroke:none"
       d="M 3 2 C 2.446 2 2 2.446 2 3 L 2 29 C 2 29.554 2.446 30 3 30 L 29 30 C 29.554 30 30 29.554 30 29 L 30 3 C 30 2.446 29.554 2 29 2 L 3 2 z M 8.5019531 5.7402344 A 2.9673324 2.9673324 0 0 1 11.46875 8.7070312 A 2.9673324 2.9673324 0 0 1 9.3925781 11.533203 C 9.4738781 12.014803 10.010372 14.699399 12.232422 15.605469 C 13.542722 16.139759 14.434929 17.0493 15.042969 17.96875 L 15.042969 11.511719 A 2.9673324 2.9673324 0 0 1 13.033203 8.7070312 A 2.9673324 2.9673324 0 0 1 16 5.7402344 A 2.9673324 2.9673324 0 0 1 18.96875 8.7070312 A 2.9673324 2.9673324 0 0 1 16.642578 11.601562 L 16.642578 18.509766 C 17.239728 17.421196 18.197828 16.245559 19.767578 15.605469 C 21.989628 14.699399 22.526122 12.014803 22.607422 11.533203 A 2.9673324 2.9673324 0 0 1 20.53125 8.7070312 A 2.9673324 2.9673324 0 0 1 23.498047 5.7402344 A 2.9673324 2.9673324 0 0 1 26.464844 8.7070312 A 2.9673324 2.9673324 0 0 1 24.224609 11.580078 C 24.209729 11.720378 23.761824 15.705291 20.371094 17.087891 C 18.521754 17.841981 17.732895 19.780871 17.453125 20.707031 A 2.9673324 2.9673324 0 0 1 18.966797 23.291016 A 2.9673324 2.9673324 0 0 1 16 26.259766 A 2.9673324 2.9673324 0 0 1 13.033203 23.291016 A 2.9673324 2.9673324 0 0 1 14.546875 20.707031 C 14.267105 19.780871 13.478246 17.841981 11.628906 17.087891 C 8.2381763 15.705291 7.7902906 11.720388 7.7753906 11.580078 A 2.9673324 2.9673324 0 0 1 5.5351562 8.7070312 A 2.9673324 2.9673324 0 0 1 8.5019531 5.7402344 z M 8.5019531 7.0019531 A 1.706216 1.706216 0 0 0 6.7949219 8.7070312 A 1.706216 1.706216 0 0 0 8.5019531 10.414062 A 1.706216 1.706216 0 0 0 10.208984 8.7070312 A 1.706216 1.706216 0 0 0 8.5019531 7.0019531 z M 16 7.0019531 A 1.706216 1.706216 0 0 0 14.294922 8.7070312 A 1.706216 1.706216 0 0 0 16 10.414062 A 1.706216 1.706216 0 0 0 17.707031 8.7070312 A 1.706216 1.706216 0 0 0 16 7.0019531 z M 23.498047 7.0019531 A 1.706216 1.706216 0 0 0 21.791016 8.7070312 A 1.706216 1.706216 0 0 0 23.498047 10.414062 A 1.706216 1.706216 0 0 0 25.205078 8.7070312 A 1.706216 1.706216 0 0 0 23.498047 7.0019531 z M 16 21.585938 A 1.706216 1.706216 0 0 0 14.294922 23.291016 A 1.706216 1.706216 0 0 0 16 24.998047 A 1.706216 1.706216 0 0 0 17.707031 23.291016 A 1.706216 1.706216 0 0 0 16 21.585938 z "
       transform="translate(203.3125,672.125)"
       id="rect2995" />
  </g>
</svg>
