<?xml version="1.0" encoding="UTF-8" standalone="no"?>
<!-- Created with Inkscape (http://www.inkscape.org/) -->

<svg
   xmlns:dc="http://purl.org/dc/elements/1.1/"
   xmlns:cc="http://creativecommons.org/ns#"
   xmlns:rdf="http://www.w3.org/1999/02/22-rdf-syntax-ns#"
   xmlns:svg="http://www.w3.org/2000/svg"
   xmlns="http://www.w3.org/2000/svg"
   xmlns:xlink="http://www.w3.org/1999/xlink"
   xmlns:sodipodi="http://sodipodi.sourceforge.net/DTD/sodipodi-0.dtd"
   xmlns:inkscape="http://www.inkscape.org/namespaces/inkscape"
   width="32"
   height="32"
   id="svg4271"
   version="1.1"
   inkscape:version="0.91 r13725"
   sodipodi:docname="visualidentity-groupons.svg"
   inkscape:export-filename="C:\Projects\sien-common\edicons\colorizedpngs\visualidentity-groupons.png"
   inkscape:export-xdpi="540"
   inkscape:export-ydpi="540">
  <defs
     id="defs4273">
    <inkscape:path-effect
       effect="skeletal"
       id="path-effect3060"
       is_visible="true"
       pattern="M 9.53125,0 C 9.53125,0 0,9.04999 0,15.3125 0,20.406167 2.831179,24.694903 6.71875,26.125 L 8.9375,9.34375 l 0,17.28125 0,4.65625 2.90625,0 -0.625,-4.8125 C 15.669796,25.513216 19.0625,20.883181 19.0625,15.3125 19.0625,9.04999 9.53125,0 9.53125,0 z"
       copytype="single_stretched"
       prop_scale="1"
       scale_y_rel="false"
       spacing="0"
       normal_offset="0"
       tang_offset="0"
       prop_units="false"
       vertical_pattern="false"
       fuse_tolerance="0" />
    <inkscape:path-effect
       effect="skeletal"
       id="path-effect3050"
       is_visible="true"
       pattern="M 9.53125,0 C 9.53125,0 0,9.04999 0,15.3125 0,20.406167 2.831179,24.694903 6.71875,26.125 L 8.9375,9.34375 l 0,17.28125 0,4.65625 2.90625,0 -0.625,-4.8125 C 15.669796,25.513216 19.0625,20.883181 19.0625,15.3125 19.0625,9.04999 9.53125,0 9.53125,0 z"
       copytype="single_stretched"
       prop_scale="1"
       scale_y_rel="false"
       spacing="0"
       normal_offset="0"
       tang_offset="0"
       prop_units="false"
       vertical_pattern="false"
       fuse_tolerance="0" />
    <inkscape:path-effect
       effect="skeletal"
       id="path-effect3011"
       is_visible="true"
       pattern="M 0,0 1,0"
       copytype="single_stretched"
       prop_scale="1"
       scale_y_rel="false"
       spacing="0"
       normal_offset="0"
       tang_offset="0"
       prop_units="false"
       vertical_pattern="false"
       fuse_tolerance="0" />
    <inkscape:path-effect
       effect="skeletal"
       id="path-effect3002"
       is_visible="true"
       pattern="m 316.73214,558.2899 c 0,0 -9.07677,9.53125 -15.33928,9.53125 -6.26252,0 -11.33929,-4.26729 -11.33929,-9.53125 0,-5.26397 5.07677,-9.53125 11.33929,-9.53125 6.26251,0 15.33928,9.53125 15.33928,9.53125 z"
       copytype="single_stretched"
       prop_scale="1"
       scale_y_rel="false"
       spacing="0"
       normal_offset="0"
       tang_offset="0"
       prop_units="false"
       vertical_pattern="false"
       fuse_tolerance="0" />
    <clipPath
       id="SVGID_2_">
      <use
         id="use9"
         overflow="visible"
         xlink:href="#SVGID_1_" />
    </clipPath>
    <clipPath
       id="SVGID_2_-1">
      <use
         xlink:href="#SVGID_1_"
         overflow="visible"
         id="use9-7" />
    </clipPath>
    <defs
       id="defs5">
      <rect
         id="SVGID_1_"
         x="180.133"
         y="92.544"
         width="232.938"
         height="157.803" />
    </defs>
  </defs>
  <sodipodi:namedview
     id="base"
     pagecolor="#ffffff"
     bordercolor="#666666"
     borderopacity="1.0"
     inkscape:pageopacity="0.0"
     inkscape:pageshadow="2"
     inkscape:zoom="11.2"
     inkscape:cx="-9.9732144"
     inkscape:cy="13.570761"
     inkscape:document-units="px"
     inkscape:current-layer="layer1"
     showgrid="false"
     fit-margin-top="0"
     fit-margin-left="0"
     fit-margin-right="0"
     fit-margin-bottom="0"
     inkscape:window-width="1920"
     inkscape:window-height="1017"
     inkscape:window-x="-8"
     inkscape:window-y="-4"
     inkscape:window-maximized="1"
     showguides="false"
     inkscape:guide-bbox="true" />
  <metadata
     id="metadata4276">
    <rdf:RDF>
      <cc:Work
         rdf:about="">
        <dc:format>image/svg+xml</dc:format>
        <dc:type
           rdf:resource="http://purl.org/dc/dcmitype/StillImage" />
        <dc:title />
      </cc:Work>
    </rdf:RDF>
  </metadata>
  <g
     inkscape:label="Layer 1"
     inkscape:groupmode="layer"
     id="layer1"
     transform="translate(-281.4375,-566.48186)">
    <path
       style="fill:#000000;fill-opacity:1;stroke:none"
       d="M 3 2 C 2.446 2 2 2.446 2 3 L 2 20.103516 L 2 29 C 2 29.554 2.446 30 3 30 L 11.894531 30 L 29 30 C 29.1385 30 29.270915 29.972375 29.390625 29.921875 C 29.749785 29.77049 30 29.4155 30 29 L 30 11.896484 L 30 3 C 30 2.446 29.554 2 29 2 L 20.105469 2 L 3 2 z M 16.265625 7.625 C 17.653275 7.625 18.951243 7.8813913 20.158203 8.3945312 C 21.177253 8.8281713 22.174711 9.5737164 23.150391 10.628906 L 21.013672 12.742188 C 19.662162 11.311177 18.086709 10.595703 16.287109 10.595703 C 14.718789 10.595703 13.404207 11.11552 12.341797 12.15625 C 11.286607 13.19698 10.757812 14.462352 10.757812 15.951172 C 10.757813 17.490592 11.3077 18.795594 12.40625 19.865234 C 13.5048 20.934874 14.859013 21.46875 16.470703 21.46875 C 17.518673 21.46875 18.401687 21.249454 19.117188 20.808594 C 19.839918 20.367724 20.420458 19.677831 20.861328 18.738281 L 17.283203 18.738281 L 17.283203 20.210938 L 12.285156 17.324219 L 17.283203 14.439453 L 17.283203 15.886719 L 24.265625 15.886719 L 24.287109 16.558594 C 24.287109 17.953464 23.925855 19.275071 23.203125 20.525391 C 22.480395 21.775721 21.545634 22.730982 20.396484 23.388672 C 19.247344 24.046352 17.898212 24.375 16.351562 24.375 C 14.696513 24.375 13.218879 24.016281 11.917969 23.300781 C 10.624279 22.578051 9.5987037 21.552476 8.8398438 20.222656 C 8.0881937 18.892826 7.7128906 17.457379 7.7128906 15.917969 C 7.7128906 13.807589 8.4098075 11.973209 9.8046875 10.412109 C 11.459738 8.5546998 13.613205 7.625 16.265625 7.625 z "
       transform="translate(281.4375,566.48186)"
       id="rect2995"
       inkscape:export-filename="C:\Projects\sien-common\edicons\colorizedpngs\rect2995.png"
       inkscape:export-xdpi="540"
       inkscape:export-ydpi="540" />
  </g>
</svg>
