<?xml version="1.0" encoding="UTF-8" standalone="no"?>
<!-- Created with Inkscape (http://www.inkscape.org/) -->

<svg
   xmlns:dc="http://purl.org/dc/elements/1.1/"
   xmlns:cc="http://creativecommons.org/ns#"
   xmlns:rdf="http://www.w3.org/1999/02/22-rdf-syntax-ns#"
   xmlns:svg="http://www.w3.org/2000/svg"
   xmlns="http://www.w3.org/2000/svg"
   xmlns:sodipodi="http://sodipodi.sourceforge.net/DTD/sodipodi-0.dtd"
   xmlns:inkscape="http://www.inkscape.org/namespaces/inkscape"
   width="32"
   height="32"
   id="svg3608"
   version="1.1"
   inkscape:version="0.91 r13725"
   sodipodi:docname="visualidentity-archiclass.svg"
   inkscape:export-filename="C:\Projects\sien-common\edicons\colorizedpngs\visualidentity-archiclass.png"
   inkscape:export-xdpi="540"
   inkscape:export-ydpi="540">
  <defs
     id="defs3610">
    <linearGradient
       y2="276.55899"
       x2="434.30521"
       y1="290.0405"
       x1="423.79391"
       gradientUnits="userSpaceOnUse"
       id="SVGID_3_">
      <stop
         id="stop26"
         style="stop-color:#6299BE"
         offset="0" />
      <stop
         id="stop28"
         style="stop-color:#3B80AE"
         offset="1" />
    </linearGradient>
    <linearGradient
       y2="300.50229"
       x2="388.9137"
       y1="293.1777"
       x1="420.64011"
       gradientUnits="userSpaceOnUse"
       id="SVGID_2_">
      <stop
         id="stop17"
         style="stop-color:#89B5D0"
         offset="0" />
      <stop
         id="stop19"
         style="stop-color:#6BA2C4"
         offset="1" />
    </linearGradient>
    <linearGradient
       y2="322.70029"
       x2="435.91449"
       y1="294.87839"
       x1="423.02151"
       gradientUnits="userSpaceOnUse"
       id="SVGID_1_">
      <stop
         id="stop8"
         style="stop-color:#7690BA"
         offset="0" />
      <stop
         id="stop10"
         style="stop-color:#5474A9"
         offset="1" />
    </linearGradient>
    <linearGradient
       y2="276.55899"
       x2="434.30521"
       y1="290.0405"
       x1="423.79391"
       gradientUnits="userSpaceOnUse"
       id="SVGID_3_-8">
      <stop
         id="stop26-8"
         style="stop-color:#6299BE"
         offset="0" />
      <stop
         id="stop28-2"
         style="stop-color:#3B80AE"
         offset="1" />
    </linearGradient>
    <linearGradient
       y2="300.50229"
       x2="388.9137"
       y1="293.1777"
       x1="420.64011"
       gradientUnits="userSpaceOnUse"
       id="SVGID_2_-0">
      <stop
         id="stop17-9"
         style="stop-color:#89B5D0"
         offset="0" />
      <stop
         id="stop19-4"
         style="stop-color:#6BA2C4"
         offset="1" />
    </linearGradient>
    <linearGradient
       y2="322.70029"
       x2="435.91449"
       y1="294.87839"
       x1="423.02151"
       gradientUnits="userSpaceOnUse"
       id="SVGID_1_-1">
      <stop
         id="stop8-7"
         style="stop-color:#7690BA"
         offset="0" />
      <stop
         id="stop10-4"
         style="stop-color:#5474A9"
         offset="1" />
    </linearGradient>
  </defs>
  <sodipodi:namedview
     id="base"
     pagecolor="#ffffff"
     bordercolor="#666666"
     borderopacity="1.0"
     inkscape:pageopacity="0.0"
     inkscape:pageshadow="2"
     inkscape:zoom="7.919596"
     inkscape:cx="-20.943475"
     inkscape:cy="12.494658"
     inkscape:document-units="px"
     inkscape:current-layer="layer1"
     showgrid="false"
     inkscape:window-width="1920"
     inkscape:window-height="1017"
     inkscape:window-x="-8"
     inkscape:window-y="-4"
     inkscape:window-maximized="1"
     fit-margin-top="0"
     fit-margin-left="0"
     fit-margin-right="0"
     fit-margin-bottom="0" />
  <metadata
     id="metadata3613">
    <rdf:RDF>
      <cc:Work
         rdf:about="">
        <dc:format>image/svg+xml</dc:format>
        <dc:type
           rdf:resource="http://purl.org/dc/dcmitype/StillImage" />
        <dc:title />
      </cc:Work>
    </rdf:RDF>
  </metadata>
  <g
     inkscape:label="Layer 1"
     inkscape:groupmode="layer"
     id="layer1"
     transform="translate(-203.3125,-672.125)">
    <path
       style="fill:#000000;fill-opacity:1;stroke:none"
       d="M 3 2 C 2.446 2 2 2.446 2 3 L 2 29 C 2 29.554 2.446 30 3 30 L 29 30 C 29.554 30 30 29.554 30 29 L 30 3 C 30 2.446 29.554 2 29 2 L 3 2 z M 9.9453125 7.8242188 L 22.054688 7.8242188 C 22.837867 7.8242188 23.46875 8.4551012 23.46875 9.2382812 L 23.46875 15.5625 L 8.53125 15.5625 L 8.53125 9.2382812 C 8.53125 8.4551012 9.1621325 7.8242188 9.9453125 7.8242188 z M 19.017578 10.794922 A 0.43863652 0.43863652 0 0 0 18.589844 11.255859 L 18.589844 11.720703 C 18.589844 11.976063 18.395985 12.167969 18.140625 12.167969 L 13.859375 12.167969 C 13.604015 12.167969 13.410156 11.976603 13.410156 11.720703 L 13.410156 11.255859 A 0.43863652 0.43863652 0 0 0 12.966797 10.8125 A 0.43863652 0.43863652 0 0 0 12.535156 11.255859 L 12.535156 11.720703 C 12.535156 12.446593 13.132945 13.044922 13.859375 13.044922 L 18.140625 13.044922 C 18.867055 13.044922 19.464844 12.447143 19.464844 11.720703 L 19.464844 11.255859 A 0.43863652 0.43863652 0 0 0 19.017578 10.794922 z M 8.53125 16.4375 L 23.46875 16.4375 L 23.46875 22.761719 C 23.46875 23.544889 22.837867 24.175781 22.054688 24.175781 L 9.9453125 24.175781 C 9.1621325 24.175781 8.53125 23.544889 8.53125 22.761719 L 8.53125 16.4375 z M 12.966797 18.830078 A 0.43863652 0.43863652 0 0 0 12.535156 19.275391 L 12.535156 19.738281 C 12.535156 20.464181 13.132945 21.0625 13.859375 21.0625 L 18.140625 21.0625 C 18.867055 21.0625 19.464844 20.464721 19.464844 19.738281 L 19.464844 19.275391 A 0.43863652 0.43863652 0 0 0 19.021484 18.830078 A 0.43863652 0.43863652 0 0 0 18.589844 19.275391 L 18.589844 19.738281 C 18.589844 19.993641 18.395985 20.1875 18.140625 20.1875 L 13.859375 20.1875 C 13.604015 20.1875 13.410156 19.994181 13.410156 19.738281 L 13.410156 19.275391 A 0.43863652 0.43863652 0 0 0 12.966797 18.830078 z "
       transform="translate(203.3125,672.125)"
       id="rect2995"
       inkscape:export-filename="C:\Projects\sien-common\edicons\colorizedpngs\visualidentity-archiclass.png"
       inkscape:export-xdpi="540"
       inkscape:export-ydpi="540" />
  </g>
</svg>
