<?xml version="1.0" encoding="UTF-8" standalone="no"?>
<!-- Created with Inkscape (http://www.inkscape.org/) -->

<svg
   xmlns:dc="http://purl.org/dc/elements/1.1/"
   xmlns:cc="http://creativecommons.org/ns#"
   xmlns:rdf="http://www.w3.org/1999/02/22-rdf-syntax-ns#"
   xmlns:svg="http://www.w3.org/2000/svg"
   xmlns="http://www.w3.org/2000/svg"
   xmlns:sodipodi="http://sodipodi.sourceforge.net/DTD/sodipodi-0.dtd"
   xmlns:inkscape="http://www.inkscape.org/namespaces/inkscape"
   width="32"
   height="32"
   id="svg3608"
   version="1.1"
   inkscape:version="0.91 r13725"
   sodipodi:docname="visualidentity-gusto.svg"
   inkscape:export-filename="C:\Projects\sien-common\edicons\colorizedpngs\visualidentity-gusto.png"
   inkscape:export-xdpi="540"
   inkscape:export-ydpi="540">
  <defs
     id="defs3610">
    <linearGradient
       y2="276.55899"
       x2="434.30521"
       y1="290.0405"
       x1="423.79391"
       gradientUnits="userSpaceOnUse"
       id="SVGID_3_">
      <stop
         id="stop26"
         style="stop-color:#6299BE"
         offset="0" />
      <stop
         id="stop28"
         style="stop-color:#3B80AE"
         offset="1" />
    </linearGradient>
    <linearGradient
       y2="300.50229"
       x2="388.9137"
       y1="293.1777"
       x1="420.64011"
       gradientUnits="userSpaceOnUse"
       id="SVGID_2_">
      <stop
         id="stop17"
         style="stop-color:#89B5D0"
         offset="0" />
      <stop
         id="stop19"
         style="stop-color:#6BA2C4"
         offset="1" />
    </linearGradient>
    <linearGradient
       y2="322.70029"
       x2="435.91449"
       y1="294.87839"
       x1="423.02151"
       gradientUnits="userSpaceOnUse"
       id="SVGID_1_">
      <stop
         id="stop8"
         style="stop-color:#7690BA"
         offset="0" />
      <stop
         id="stop10"
         style="stop-color:#5474A9"
         offset="1" />
    </linearGradient>
    <linearGradient
       y2="276.55899"
       x2="434.30521"
       y1="290.0405"
       x1="423.79391"
       gradientUnits="userSpaceOnUse"
       id="SVGID_3_-8">
      <stop
         id="stop26-8"
         style="stop-color:#6299BE"
         offset="0" />
      <stop
         id="stop28-2"
         style="stop-color:#3B80AE"
         offset="1" />
    </linearGradient>
    <linearGradient
       y2="300.50229"
       x2="388.9137"
       y1="293.1777"
       x1="420.64011"
       gradientUnits="userSpaceOnUse"
       id="SVGID_2_-0">
      <stop
         id="stop17-9"
         style="stop-color:#89B5D0"
         offset="0" />
      <stop
         id="stop19-4"
         style="stop-color:#6BA2C4"
         offset="1" />
    </linearGradient>
    <linearGradient
       y2="322.70029"
       x2="435.91449"
       y1="294.87839"
       x1="423.02151"
       gradientUnits="userSpaceOnUse"
       id="SVGID_1_-1">
      <stop
         id="stop8-7"
         style="stop-color:#7690BA"
         offset="0" />
      <stop
         id="stop10-4"
         style="stop-color:#5474A9"
         offset="1" />
    </linearGradient>
  </defs>
  <sodipodi:namedview
     id="base"
     pagecolor="#ffffff"
     bordercolor="#666666"
     borderopacity="1.0"
     inkscape:pageopacity="0.0"
     inkscape:pageshadow="2"
     inkscape:zoom="7.919596"
     inkscape:cx="-10.751288"
     inkscape:cy="19.588421"
     inkscape:document-units="px"
     inkscape:current-layer="layer1"
     showgrid="false"
     inkscape:window-width="1920"
     inkscape:window-height="1017"
     inkscape:window-x="1912"
     inkscape:window-y="-8"
     inkscape:window-maximized="1"
     fit-margin-top="0"
     fit-margin-left="0"
     fit-margin-right="0"
     fit-margin-bottom="0" />
  <metadata
     id="metadata3613">
    <rdf:RDF>
      <cc:Work
         rdf:about="">
        <dc:format>image/svg+xml</dc:format>
        <dc:type
           rdf:resource="http://purl.org/dc/dcmitype/StillImage" />
        <dc:title />
      </cc:Work>
    </rdf:RDF>
  </metadata>
  <g
     inkscape:label="Layer 1"
     inkscape:groupmode="layer"
     id="layer1"
     transform="translate(-203.3125,-672.125)">
    <path
       style="fill:#000000;fill-opacity:1;stroke:none"
       d="M 3 2 C 2.446 2 2 2.446 2 3 L 2 29 C 2 29.554 2.446 30 3 30 L 15.650391 30 L 15.617188 24.410156 L 15.572266 16.673828 L 15.238281 16.621094 C 14.758761 16.548714 14.205943 16.149646 13.970703 15.697266 C 13.762573 15.317266 13.763428 15.289728 13.736328 10.892578 C 13.709178 7.0021082 13.726856 6.4517188 13.853516 6.2617188 C 13.934946 6.1350787 14.080361 6.0429688 14.207031 6.0429688 C 14.650401 6.0429687 14.667691 6.1156681 14.712891 9.5175781 L 14.757812 12.693359 L 15.166016 12.693359 L 15.572266 12.693359 L 15.599609 9.5351562 C 15.617699 6.7484864 15.635774 6.3517914 15.771484 6.2070312 C 15.952434 6.0079812 16.188906 5.9975 16.378906 6.1875 C 16.505566 6.30512 16.523438 6.730625 16.523438 9.390625 C 16.523438 12.711145 16.523864 12.738281 17.021484 12.738281 C 17.546204 12.738281 17.517578 12.90191 17.517578 9.5 C 17.517578 6.72238 17.536165 6.3608413 17.671875 6.2070312 C 17.852825 6.0080312 18.042616 5.9982156 18.259766 6.1972656 C 18.413616 6.3329756 18.423828 6.5600319 18.423828 9.4824219 C 18.423828 12.893372 18.404724 12.738281 18.902344 12.738281 C 19.381854 12.729231 19.372769 12.802097 19.417969 9.3730469 L 19.462891 6.1796875 L 19.726562 6.0898438 C 19.943703 6.0174638 20.005631 6.0338937 20.150391 6.2148438 C 20.313291 6.4138936 20.322266 6.640313 20.322266 10.820312 C 20.322266 15.172224 20.322087 15.209332 20.123047 15.607422 C 19.878757 16.086952 19.372506 16.52135 18.947266 16.59375 C 18.784416 16.62995 18.595316 16.691794 18.541016 16.746094 C 18.450596 16.809434 18.423828 18.466989 18.423828 24.474609 L 18.423828 30 L 25.248047 30 C 25.235983 29.271508 25.222872 28.842501 25.208984 27.369141 L 25.164062 22.464844 L 24.394531 22.419922 L 23.625 22.375 L 23.625 15.181641 C 23.625 8.5316402 23.635253 7.9525838 23.789062 7.5273438 C 24.006203 6.8940137 24.603396 6.34214 25.291016 6.125 C 25.401848 6.0922025 25.515644 6.0705487 25.630859 6.0605469 C 26.437366 5.9905342 27.312939 6.4623475 27.724609 7.2460938 L 27.96875 7.7167969 L 27.96875 19.941406 L 27.96875 30 L 29 30 C 29.554 30 30 29.554 30 29 L 30 3 C 30 2.446 29.554 2 29 2 L 3 2 z "
       transform="translate(203.3125,672.125)"
       id="rect2995" />
  </g>
</svg>
