<?xml version="1.0" encoding="UTF-8" standalone="no"?>
<!-- Created with Inkscape (http://www.inkscape.org/) -->

<svg
   xmlns:dc="http://purl.org/dc/elements/1.1/"
   xmlns:cc="http://creativecommons.org/ns#"
   xmlns:rdf="http://www.w3.org/1999/02/22-rdf-syntax-ns#"
   xmlns:svg="http://www.w3.org/2000/svg"
   xmlns="http://www.w3.org/2000/svg"
   xmlns:sodipodi="http://sodipodi.sourceforge.net/DTD/sodipodi-0.dtd"
   xmlns:inkscape="http://www.inkscape.org/namespaces/inkscape"
   width="32"
   height="32"
   id="svg3608"
   version="1.1"
   inkscape:version="0.92.4 (5da689c313, 2019-01-14)"
   sodipodi:docname="visualidentity-epay.svg"
   inkscape:export-filename="C:\Projects\sien-common\edicons\colorizedpngs\visualidentity-epay.png"
   inkscape:export-xdpi="540"
   inkscape:export-ydpi="540">
  <defs
     id="defs3610">
    <linearGradient
       y2="276.55899"
       x2="434.30521"
       y1="290.0405"
       x1="423.79391"
       gradientUnits="userSpaceOnUse"
       id="SVGID_3_">
      <stop
         id="stop26"
         style="stop-color:#6299BE"
         offset="0" />
      <stop
         id="stop28"
         style="stop-color:#3B80AE"
         offset="1" />
    </linearGradient>
    <linearGradient
       y2="300.50229"
       x2="388.9137"
       y1="293.1777"
       x1="420.64011"
       gradientUnits="userSpaceOnUse"
       id="SVGID_2_">
      <stop
         id="stop17"
         style="stop-color:#89B5D0"
         offset="0" />
      <stop
         id="stop19"
         style="stop-color:#6BA2C4"
         offset="1" />
    </linearGradient>
    <linearGradient
       y2="322.70029"
       x2="435.91449"
       y1="294.87839"
       x1="423.02151"
       gradientUnits="userSpaceOnUse"
       id="SVGID_1_">
      <stop
         id="stop8"
         style="stop-color:#7690BA"
         offset="0" />
      <stop
         id="stop10"
         style="stop-color:#5474A9"
         offset="1" />
    </linearGradient>
    <linearGradient
       y2="276.55899"
       x2="434.30521"
       y1="290.0405"
       x1="423.79391"
       gradientUnits="userSpaceOnUse"
       id="SVGID_3_-8">
      <stop
         id="stop26-8"
         style="stop-color:#6299BE"
         offset="0" />
      <stop
         id="stop28-2"
         style="stop-color:#3B80AE"
         offset="1" />
    </linearGradient>
    <linearGradient
       y2="300.50229"
       x2="388.9137"
       y1="293.1777"
       x1="420.64011"
       gradientUnits="userSpaceOnUse"
       id="SVGID_2_-0">
      <stop
         id="stop17-9"
         style="stop-color:#89B5D0"
         offset="0" />
      <stop
         id="stop19-4"
         style="stop-color:#6BA2C4"
         offset="1" />
    </linearGradient>
    <linearGradient
       y2="322.70029"
       x2="435.91449"
       y1="294.87839"
       x1="423.02151"
       gradientUnits="userSpaceOnUse"
       id="SVGID_1_-1">
      <stop
         id="stop8-7"
         style="stop-color:#7690BA"
         offset="0" />
      <stop
         id="stop10-4"
         style="stop-color:#5474A9"
         offset="1" />
    </linearGradient>
  </defs>
  <sodipodi:namedview
     id="base"
     pagecolor="#ffffff"
     bordercolor="#666666"
     borderopacity="1.0"
     inkscape:pageopacity="0.0"
     inkscape:pageshadow="2"
     inkscape:zoom="5.6"
     inkscape:cx="8.5491981"
     inkscape:cy="19.531285"
     inkscape:document-units="px"
     inkscape:current-layer="layer1"
     showgrid="false"
     inkscape:window-width="1920"
     inkscape:window-height="1017"
     inkscape:window-x="1912"
     inkscape:window-y="-8"
     inkscape:window-maximized="1"
     fit-margin-top="0"
     fit-margin-left="0"
     fit-margin-right="0"
     fit-margin-bottom="0" />
  <metadata
     id="metadata3613">
    <rdf:RDF>
      <cc:Work
         rdf:about="">
        <dc:format>image/svg+xml</dc:format>
        <dc:type
           rdf:resource="http://purl.org/dc/dcmitype/StillImage" />
        <dc:title />
      </cc:Work>
    </rdf:RDF>
  </metadata>
  <g
     inkscape:label="Layer 1"
     inkscape:groupmode="layer"
     id="layer1"
     transform="translate(-203.3125,-672.125)">
    <path
       style="fill:#000000;fill-opacity:1;stroke:none"
       d="M 3 2 C 2.446 2 2 2.446 2 3 L 2 20.103516 L 2 29 C 2 29.554 2.446 30 3 30 L 11.894531 30 L 29 30 C 29.1385 30 29.270906 29.972365 29.390625 29.921875 C 29.749781 29.770484 30 29.4155 30 29 L 30 11.896484 L 30 3 C 30 2.446 29.554 2 29 2 L 20.105469 2 L 3 2 z M 16.876953 9.0117188 C 17.180893 9.0084688 17.474581 9.1764969 17.619141 9.4667969 L 17.927734 10.087891 L 12.123047 11.671875 L 11.328125 11.671875 L 16.523438 9.0957031 C 16.637027 9.0392031 16.758013 9.0127187 16.876953 9.0117188 z M 19.728516 10.132812 C 20.088256 10.132812 20.419478 10.371688 20.517578 10.736328 L 20.771484 11.671875 L 18.712891 11.671875 L 13.984375 11.671875 L 18.150391 10.535156 L 19.513672 10.162109 C 19.585622 10.142609 19.656616 10.132812 19.728516 10.132812 z M 9.5390625 12.244141 L 10.025391 12.244141 L 10.171875 12.244141 L 10.957031 12.244141 L 11.888672 12.244141 L 18.996094 12.244141 L 20.931641 12.244141 L 21.183594 12.244141 L 21.4375 12.244141 L 21.625 12.244141 C 22.0763 12.244141 22.441453 12.61119 22.439453 13.0625 L 22.439453 15.292969 L 22.267578 15.292969 L 22.013672 15.292969 L 21.759766 15.292969 L 17.587891 15.292969 C 17.532291 15.292969 17.475875 15.295734 17.421875 15.302734 C 17.098115 15.340344 16.807637 15.492444 16.591797 15.714844 C 16.348137 15.965024 16.199219 16.305561 16.199219 16.681641 L 16.199219 17.244141 L 16.199219 17.498047 L 16.199219 17.751953 L 16.199219 18.5 C 16.199219 19.2669 16.821001 19.890625 17.587891 19.890625 L 22.439453 19.890625 L 22.439453 22.171875 C 22.439453 22.623195 22.074367 22.988281 21.623047 22.988281 L 9.5371094 22.988281 C 9.0858094 22.988281 8.71875 22.623195 8.71875 22.171875 L 8.71875 14.091797 L 8.71875 13.160156 L 8.71875 13.0625 C 8.71875 12.98891 8.7300469 12.916356 8.7480469 12.847656 C 8.7774769 12.738106 8.8297375 12.637481 8.8984375 12.550781 C 9.0488775 12.362731 9.2807025 12.244141 9.5390625 12.244141 z M 17.587891 15.861328 L 21.257812 15.861328 L 22.171875 15.861328 L 22.425781 15.861328 L 22.441406 15.861328 L 22.462891 15.861328 C 22.556091 15.861328 22.645116 15.876497 22.728516 15.904297 C 22.836436 15.941907 22.931872 16.000972 23.013672 16.076172 C 23.177192 16.224952 23.28125 16.440938 23.28125 16.679688 L 23.28125 18.498047 C 23.28125 18.736767 23.177192 18.952752 23.013672 19.101562 C 22.931912 19.176823 22.836436 19.235484 22.728516 19.271484 C 22.645116 19.299284 22.556091 19.316406 22.462891 19.316406 L 22.441406 19.316406 L 17.587891 19.316406 C 17.136561 19.316406 16.771484 18.949347 16.771484 18.498047 L 16.771484 17.59375 L 16.771484 17.339844 L 16.771484 17.085938 L 16.771484 16.679688 C 16.771484 16.228358 17.136561 15.861328 17.587891 15.861328 z M 18.615234 17.070312 C 18.520414 17.070312 18.433581 17.106156 18.363281 17.160156 C 18.266811 17.233736 18.207031 17.349659 18.207031 17.480469 L 18.207031 17.751953 C 18.207031 17.977603 18.389584 18.160156 18.615234 18.160156 L 18.886719 18.160156 C 19.112369 18.160156 19.294922 17.977603 19.294922 17.751953 L 19.294922 17.480469 C 19.294922 17.254799 19.112369 17.070312 18.886719 17.070312 L 18.683594 17.070312 L 18.615234 17.070312 z "
       transform="translate(203.3125,672.125)"
       id="rect2995" />
  </g>
</svg>
