<?xml version="1.0" encoding="UTF-8" standalone="no"?>
<!-- Created with Inkscape (http://www.inkscape.org/) -->

<svg
   width="32"
   height="32"
   id="svg3608"
   version="1.1"
   inkscape:version="1.1 (c68e22c387, 2021-05-23)"
   sodipodi:docname="visualidentity-dotnet.svg"
   inkscape:export-filename="C:\Users\Golayp\Desktop\visualidentity-dotnet.png"
   inkscape:export-xdpi="1536"
   inkscape:export-ydpi="1536"
   xmlns:inkscape="http://www.inkscape.org/namespaces/inkscape"
   xmlns:sodipodi="http://sodipodi.sourceforge.net/DTD/sodipodi-0.dtd"
   xmlns="http://www.w3.org/2000/svg"
   xmlns:svg="http://www.w3.org/2000/svg"
   xmlns:rdf="http://www.w3.org/1999/02/22-rdf-syntax-ns#"
   xmlns:cc="http://creativecommons.org/ns#"
   xmlns:dc="http://purl.org/dc/elements/1.1/">
  <defs
     id="defs3610">
    <linearGradient
       y2="276.55899"
       x2="434.30521"
       y1="290.0405"
       x1="423.79391"
       gradientUnits="userSpaceOnUse"
       id="SVGID_3_">
      <stop
         id="stop26"
         style="stop-color:#6299BE"
         offset="0" />
      <stop
         id="stop28"
         style="stop-color:#3B80AE"
         offset="1" />
    </linearGradient>
    <linearGradient
       y2="300.50229"
       x2="388.9137"
       y1="293.1777"
       x1="420.64011"
       gradientUnits="userSpaceOnUse"
       id="SVGID_2_">
      <stop
         id="stop17"
         style="stop-color:#89B5D0"
         offset="0" />
      <stop
         id="stop19"
         style="stop-color:#6BA2C4"
         offset="1" />
    </linearGradient>
    <linearGradient
       y2="322.70029"
       x2="435.91449"
       y1="294.87839"
       x1="423.02151"
       gradientUnits="userSpaceOnUse"
       id="SVGID_1_">
      <stop
         id="stop8"
         style="stop-color:#7690BA"
         offset="0" />
      <stop
         id="stop10"
         style="stop-color:#5474A9"
         offset="1" />
    </linearGradient>
    <linearGradient
       y2="276.55899"
       x2="434.30521"
       y1="290.0405"
       x1="423.79391"
       gradientUnits="userSpaceOnUse"
       id="SVGID_3_-8">
      <stop
         id="stop26-8"
         style="stop-color:#6299BE"
         offset="0" />
      <stop
         id="stop28-2"
         style="stop-color:#3B80AE"
         offset="1" />
    </linearGradient>
    <linearGradient
       y2="300.50229"
       x2="388.9137"
       y1="293.1777"
       x1="420.64011"
       gradientUnits="userSpaceOnUse"
       id="SVGID_2_-0">
      <stop
         id="stop17-9"
         style="stop-color:#89B5D0"
         offset="0" />
      <stop
         id="stop19-4"
         style="stop-color:#6BA2C4"
         offset="1" />
    </linearGradient>
    <linearGradient
       y2="322.70029"
       x2="435.91449"
       y1="294.87839"
       x1="423.02151"
       gradientUnits="userSpaceOnUse"
       id="SVGID_1_-1">
      <stop
         id="stop8-7"
         style="stop-color:#7690BA"
         offset="0" />
      <stop
         id="stop10-4"
         style="stop-color:#5474A9"
         offset="1" />
    </linearGradient>
  </defs>
  <sodipodi:namedview
     id="base"
     pagecolor="#ffffff"
     bordercolor="#666666"
     borderopacity="1.0"
     inkscape:pageopacity="0.0"
     inkscape:pageshadow="2"
     inkscape:zoom="3.959798"
     inkscape:cx="23.864854"
     inkscape:cy="15.278557"
     inkscape:document-units="px"
     inkscape:current-layer="layer1"
     showgrid="false"
     inkscape:window-width="1920"
     inkscape:window-height="1027"
     inkscape:window-x="3832"
     inkscape:window-y="-8"
     inkscape:window-maximized="1"
     fit-margin-top="0"
     fit-margin-left="0"
     fit-margin-right="0"
     fit-margin-bottom="0"
     inkscape:pagecheckerboard="0" />
  <metadata
     id="metadata3613">
    <rdf:RDF>
      <cc:Work
         rdf:about="">
        <dc:format>image/svg+xml</dc:format>
        <dc:type
           rdf:resource="http://purl.org/dc/dcmitype/StillImage" />
      </cc:Work>
    </rdf:RDF>
  </metadata>
  <g
     inkscape:label="Layer 1"
     inkscape:groupmode="layer"
     id="layer1"
     transform="translate(-203.3125,-672.125)">
    <path
       id="rect2995"
       style="fill:#000000;fill-opacity:1;stroke:none"
       d="M 3 2 C 2.446 2 2 2.446 2 3 L 2 20.103516 L 2 29 C 2 29.554 2.446 30 3 30 L 11.894531 30 L 29 30 C 29.1385 30 29.270906 29.972355 29.390625 29.921875 C 29.749781 29.770479 30 29.4155 30 29 L 30 11.896484 L 30 3 C 30 2.446 29.554 2 29 2 L 20.105469 2 L 3 2 z M 8.375 12.173828 L 9.1621094 12.173828 C 9.2267393 12.173828 9.2825039 12.177943 9.328125 12.185547 C 9.3737461 12.189349 9.4130498 12.199741 9.4472656 12.21875 C 9.4852832 12.233957 9.5203672 12.256695 9.5507812 12.287109 C 9.5849971 12.317523 9.6222432 12.35878 9.6640625 12.408203 L 13.394531 17.322266 C 13.371721 17.07135 13.359375 16.833679 13.359375 16.609375 L 13.359375 12.173828 L 14.677734 12.173828 L 14.677734 19.746094 L 13.90625 19.746094 C 13.788396 19.746094 13.691165 19.727471 13.611328 19.689453 C 13.535293 19.647634 13.458848 19.581477 13.382812 19.490234 L 9.6640625 14.603516 C 9.686873 14.839225 9.6992188 15.056319 9.6992188 15.257812 L 9.6992188 19.746094 L 8.375 19.746094 L 8.375 12.173828 z M 16.044922 12.173828 L 20.664062 12.173828 L 20.664062 13.365234 L 17.550781 13.365234 L 17.550781 15.367188 L 19.974609 15.367188 L 19.974609 16.513672 L 17.550781 16.513672 L 17.550781 18.554688 L 20.669922 18.554688 L 20.664062 19.746094 L 16.044922 19.746094 L 16.044922 12.173828 z M 21.171875 12.173828 L 26.75 12.173828 L 26.75 13.394531 L 24.707031 13.394531 L 24.707031 19.746094 L 23.212891 19.746094 L 23.212891 13.394531 L 21.171875 13.394531 L 21.171875 12.173828 z M 6.1171875 18.103516 C 6.2388437 18.103516 6.3525352 18.126254 6.4589844 18.171875 C 6.5654336 18.217496 6.6563867 18.279434 6.7324219 18.355469 C 6.8122588 18.431504 6.8762539 18.522457 6.921875 18.628906 C 6.9674961 18.735355 6.9902344 18.846989 6.9902344 18.964844 C 6.9902344 19.0865 6.9674961 19.200191 6.921875 19.306641 C 6.8762539 19.41309 6.8122588 19.505996 6.7324219 19.582031 C 6.6563867 19.658066 6.5654336 19.715993 6.4589844 19.757812 C 6.3525352 19.803434 6.2388437 19.826172 6.1171875 19.826172 C 5.9955313 19.826172 5.8818398 19.803434 5.7753906 19.757812 C 5.6689414 19.715993 5.5759307 19.658066 5.4960938 19.582031 C 5.4200586 19.505996 5.3581211 19.41309 5.3125 19.306641 C 5.2706807 19.200191 5.25 19.0865 5.25 18.964844 C 5.25 18.846989 5.2706807 18.735355 5.3125 18.628906 C 5.3581211 18.522457 5.4200586 18.431504 5.4960938 18.355469 C 5.5759307 18.279434 5.6689414 18.217496 5.7753906 18.171875 C 5.8818398 18.126254 5.9955313 18.103516 6.1171875 18.103516 z "
       transform="translate(203.3125,672.125)" />
  </g>
</svg>
