<?xml version="1.0" encoding="UTF-8" standalone="no"?>
<!-- Created with Inkscape (http://www.inkscape.org/) -->

<svg
   xmlns:dc="http://purl.org/dc/elements/1.1/"
   xmlns:cc="http://creativecommons.org/ns#"
   xmlns:rdf="http://www.w3.org/1999/02/22-rdf-syntax-ns#"
   xmlns:svg="http://www.w3.org/2000/svg"
   xmlns="http://www.w3.org/2000/svg"
   xmlns:sodipodi="http://sodipodi.sourceforge.net/DTD/sodipodi-0.dtd"
   xmlns:inkscape="http://www.inkscape.org/namespaces/inkscape"
   width="32"
   height="32"
   id="svg3608"
   version="1.1"
   inkscape:version="0.92.4 (5da689c313, 2019-01-14)"
   sodipodi:docname="visualidentity-api.svg"
   inkscape:export-filename="C:\Projects\sien-common\edicons\colorizedpngs\visualidentity-celfonapi.png"
   inkscape:export-xdpi="540"
   inkscape:export-ydpi="540">
  <defs
     id="defs3610">
    <linearGradient
       y2="276.55899"
       x2="434.30521"
       y1="290.0405"
       x1="423.79391"
       gradientUnits="userSpaceOnUse"
       id="SVGID_3_">
      <stop
         id="stop26"
         style="stop-color:#6299BE"
         offset="0" />
      <stop
         id="stop28"
         style="stop-color:#3B80AE"
         offset="1" />
    </linearGradient>
    <linearGradient
       y2="300.50229"
       x2="388.9137"
       y1="293.1777"
       x1="420.64011"
       gradientUnits="userSpaceOnUse"
       id="SVGID_2_">
      <stop
         id="stop17"
         style="stop-color:#89B5D0"
         offset="0" />
      <stop
         id="stop19"
         style="stop-color:#6BA2C4"
         offset="1" />
    </linearGradient>
    <linearGradient
       y2="322.70029"
       x2="435.91449"
       y1="294.87839"
       x1="423.02151"
       gradientUnits="userSpaceOnUse"
       id="SVGID_1_">
      <stop
         id="stop8"
         style="stop-color:#7690BA"
         offset="0" />
      <stop
         id="stop10"
         style="stop-color:#5474A9"
         offset="1" />
    </linearGradient>
    <linearGradient
       y2="276.55899"
       x2="434.30521"
       y1="290.0405"
       x1="423.79391"
       gradientUnits="userSpaceOnUse"
       id="SVGID_3_-8">
      <stop
         id="stop26-8"
         style="stop-color:#6299BE"
         offset="0" />
      <stop
         id="stop28-2"
         style="stop-color:#3B80AE"
         offset="1" />
    </linearGradient>
    <linearGradient
       y2="300.50229"
       x2="388.9137"
       y1="293.1777"
       x1="420.64011"
       gradientUnits="userSpaceOnUse"
       id="SVGID_2_-0">
      <stop
         id="stop17-9"
         style="stop-color:#89B5D0"
         offset="0" />
      <stop
         id="stop19-4"
         style="stop-color:#6BA2C4"
         offset="1" />
    </linearGradient>
    <linearGradient
       y2="322.70029"
       x2="435.91449"
       y1="294.87839"
       x1="423.02151"
       gradientUnits="userSpaceOnUse"
       id="SVGID_1_-1">
      <stop
         id="stop8-7"
         style="stop-color:#7690BA"
         offset="0" />
      <stop
         id="stop10-4"
         style="stop-color:#5474A9"
         offset="1" />
    </linearGradient>
  </defs>
  <sodipodi:namedview
     id="base"
     pagecolor="#ffffff"
     bordercolor="#666666"
     borderopacity="1.0"
     inkscape:pageopacity="0.0"
     inkscape:pageshadow="2"
     inkscape:zoom="7.919596"
     inkscape:cx="-33.795393"
     inkscape:cy="7.4438953"
     inkscape:document-units="px"
     inkscape:current-layer="layer1"
     showgrid="false"
     inkscape:window-width="1920"
     inkscape:window-height="1017"
     inkscape:window-x="1912"
     inkscape:window-y="-8"
     inkscape:window-maximized="1"
     fit-margin-top="0"
     fit-margin-left="0"
     fit-margin-right="0"
     fit-margin-bottom="0" />
  <metadata
     id="metadata3613">
    <rdf:RDF>
      <cc:Work
         rdf:about="">
        <dc:format>image/svg+xml</dc:format>
        <dc:type
           rdf:resource="http://purl.org/dc/dcmitype/StillImage" />
        <dc:title />
      </cc:Work>
    </rdf:RDF>
  </metadata>
  <g
     inkscape:label="Layer 1"
     inkscape:groupmode="layer"
     id="layer1"
     transform="translate(-203.3125,-672.125)">
    <path
       style="fill:#000000;fill-opacity:1;stroke:none"
       d="M 3 2 C 2.446 2 2 2.446 2 3 L 2 29 C 2 29.554 2.446 30 3 30 L 29 30 C 29.554 30 30 29.554 30 29 L 30 3 C 30 2.446 29.554 2 29 2 L 3 2 z M 12.888672 7.015625 L 14.683594 7.015625 L 14.683594 9.0820312 L 13.935547 9.0820312 C 13.673514 9.0820312 13.43665 9.1086625 13.222656 9.1640625 C 13.01303 9.2194625 12.835526 9.324829 12.691406 9.4785156 C 12.542926 9.638409 12.431662 9.8722003 12.357422 10.179688 C 12.283175 10.48102 12.246094 10.871884 12.246094 11.351562 L 12.246094 12.355469 C 12.246094 13.216429 12.073522 13.937552 11.728516 14.515625 C 11.387876 15.093698 10.900825 15.550439 10.267578 15.888672 L 10.267578 16.111328 C 10.900825 16.449555 11.387876 16.906295 11.728516 17.484375 C 12.073522 18.062455 12.246094 18.783571 12.246094 19.644531 L 12.246094 20.648438 C 12.246094 21.12811 12.283175 21.518973 12.357422 21.820312 C 12.431662 22.127799 12.542926 22.361598 12.691406 22.521484 C 12.831166 22.681378 13.00867 22.786738 13.222656 22.835938 C 13.43665 22.891336 13.673514 22.917969 13.935547 22.917969 L 14.683594 22.917969 L 14.683594 24.984375 L 12.888672 24.984375 C 12.041439 24.984375 11.364022 24.681086 10.857422 24.072266 C 10.355195 23.469592 10.103516 22.58251 10.103516 21.414062 L 10.103516 20.058594 C 10.103516 18.96394 9.9309442 18.205583 9.5859375 17.78125 C 9.2409308 17.35077 8.684649 17.134766 7.9160156 17.134766 L 7.4570312 17.134766 L 7.4570312 14.865234 L 7.9160156 14.865234 C 8.684649 14.865234 9.2409308 14.652842 9.5859375 14.228516 C 9.9309442 13.798036 10.103516 13.03606 10.103516 11.941406 L 10.103516 10.585938 C 10.103516 9.4174903 10.355195 8.5304077 10.857422 7.9277344 C 11.364022 7.318901 12.041439 7.015625 12.888672 7.015625 z M 17.316406 7.015625 L 19.111328 7.015625 C 19.958561 7.015625 20.634492 7.3189077 21.136719 7.9277344 C 21.643312 8.5304077 21.896484 9.4174903 21.896484 10.585938 L 21.896484 11.941406 C 21.896484 13.03606 22.069049 13.798036 22.414062 14.228516 C 22.759069 14.652842 23.315351 14.865234 24.083984 14.865234 L 24.542969 14.865234 L 24.542969 17.134766 L 24.083984 17.134766 C 23.315351 17.134766 22.759069 17.35077 22.414062 17.78125 C 22.06905 18.205583 21.896484 18.96394 21.896484 20.058594 L 21.896484 21.414062 C 21.896484 22.58251 21.643312 23.469592 21.136719 24.072266 C 20.634492 24.681086 19.958561 24.984375 19.111328 24.984375 L 17.316406 24.984375 L 17.316406 22.917969 L 18.064453 22.917969 C 18.326493 22.917969 18.561864 22.891337 18.771484 22.835938 C 18.985478 22.780538 19.164474 22.675171 19.308594 22.521484 C 19.457074 22.361591 19.568331 22.127799 19.642578 21.820312 C 19.716825 21.518973 19.753906 21.128104 19.753906 20.648438 L 19.753906 19.644531 C 19.753906 18.783565 19.923039 18.062448 20.263672 17.484375 C 20.608685 16.906295 21.099182 16.449555 21.732422 16.111328 L 21.732422 15.888672 C 21.099182 15.550439 20.608685 15.093698 20.263672 14.515625 C 19.923039 13.937552 19.753906 13.216435 19.753906 12.355469 L 19.753906 11.351562 C 19.753906 10.871884 19.716825 10.481013 19.642578 10.179688 C 19.568331 9.8721937 19.457074 9.6384023 19.308594 9.4785156 C 19.164474 9.324769 18.985478 9.2194092 18.771484 9.1640625 C 18.561864 9.1086625 18.326493 9.0820312 18.064453 9.0820312 L 17.316406 9.0820312 L 17.316406 7.015625 z "
       transform="translate(203.3125,672.125)"
       id="rect2995" />
  </g>
</svg>
