<?xml version="1.0" encoding="utf-8"?>
<!-- Generator: Adobe Illustrator 15.0.0, SVG Export Plug-In . SVG Version: 6.00 Build 0)  -->
<!DOCTYPE svg PUBLIC "-//W3C//DTD SVG 1.1//EN" "http://www.w3.org/Graphics/SVG/1.1/DTD/svg11.dtd">
<svg version="1.1" id="Calque_1" xmlns="http://www.w3.org/2000/svg" xmlns:xlink="http://www.w3.org/1999/xlink" x="0px" y="0px"
	 width="32px" height="32px" viewBox="0 0 32 32" enable-background="new 0 0 32 32" xml:space="preserve">
<g>
	<defs>
		<rect id="SVGID_1_" width="32" height="32"/>
	</defs>
	<clipPath id="SVGID_2_">
		<use xlink:href="#SVGID_1_"  overflow="visible"/>
	</clipPath>
	<path clip-path="url(#SVGID_2_)" d="M24.099,16.824c0,0.528-0.432,0.961-0.96,0.961h-3.555c-0.527,0-0.959-0.433-0.959-0.961
		v-0.612h-5.418v0.612c0,0.528-0.432,0.961-0.96,0.961H8.691c-0.528,0-0.96-0.433-0.96-0.961v-0.612H0v10.3
		c0,1.583,1.296,2.878,2.879,2.878h26.244c1.583,0,2.878-1.295,2.878-2.878v-10.3h-7.901V16.824z"/>
	<path clip-path="url(#SVGID_2_)" d="M29.122,7.153h-6.745V4.417c0-0.996-0.81-1.807-1.806-1.807h-9.142
		c-0.996,0-1.807,0.811-1.807,1.807v2.736H2.878C1.295,7.153,0,8.448,0,10.031v5.108h7.732v-0.613c0-0.528,0.432-0.96,0.96-0.96
		h3.554c0.528,0,0.96,0.432,0.96,0.96v0.613h5.418v-0.613c0-0.528,0.432-0.96,0.96-0.96h3.555c0.528,0,0.96,0.432,0.96,0.96v0.613
		H32v-5.108C32,8.448,30.705,7.153,29.122,7.153 M20.685,7.153h-9.369V4.417c0-0.061,0.053-0.114,0.113-0.114h9.142
		c0.06,0,0.113,0.053,0.113,0.114V7.153z"/>
</g>
</svg>
