<?xml version="1.0" encoding="UTF-8" standalone="no"?>
<!-- Generator: Adobe Illustrator 15.0.0, SVG Export Plug-In . SVG Version: 6.00 Build 0)  -->

<svg
   xmlns:dc="http://purl.org/dc/elements/1.1/"
   xmlns:cc="http://creativecommons.org/ns#"
   xmlns:rdf="http://www.w3.org/1999/02/22-rdf-syntax-ns#"
   xmlns:svg="http://www.w3.org/2000/svg"
   xmlns="http://www.w3.org/2000/svg"
   xmlns:sodipodi="http://sodipodi.sourceforge.net/DTD/sodipodi-0.dtd"
   xmlns:inkscape="http://www.inkscape.org/namespaces/inkscape"
   version="1.1"
   id="Calque_1"
   x="0px"
   y="0px"
   width="32px"
   height="32px"
   viewBox="0 0 32 32"
   enable-background="new 0 0 32 32"
   xml:space="preserve"
   inkscape:version="0.91 r13725"
   sodipodi:docname="wheel.svg"><metadata
     id="metadata17"><rdf:RDF><cc:Work
         rdf:about=""><dc:format>image/svg+xml</dc:format><dc:type
           rdf:resource="http://purl.org/dc/dcmitype/StillImage" /></cc:Work></rdf:RDF></metadata><defs
     id="defs15" /><sodipodi:namedview
     pagecolor="#ffffff"
     bordercolor="#666666"
     borderopacity="1"
     objecttolerance="10"
     gridtolerance="10"
     guidetolerance="10"
     inkscape:pageopacity="0"
     inkscape:pageshadow="2"
     inkscape:window-width="1920"
     inkscape:window-height="1017"
     id="namedview13"
     showgrid="false"
     inkscape:zoom="20.85965"
     inkscape:cx="16"
     inkscape:cy="16"
     inkscape:window-x="-8"
     inkscape:window-y="-4"
     inkscape:window-maximized="1"
     inkscape:current-layer="Calque_1" /><path
     style="color:#000000;font-style:normal;font-variant:normal;font-weight:normal;font-stretch:normal;font-size:medium;line-height:normal;font-family:sans-serif;text-indent:0;text-align:start;text-decoration:none;text-decoration-line:none;text-decoration-style:solid;text-decoration-color:#000000;letter-spacing:normal;word-spacing:normal;text-transform:none;direction:ltr;block-progression:tb;writing-mode:lr-tb;baseline-shift:baseline;text-anchor:start;white-space:normal;clip-rule:nonzero;display:inline;overflow:visible;visibility:visible;opacity:1;isolation:auto;mix-blend-mode:normal;color-interpolation:sRGB;color-interpolation-filters:linearRGB;solid-color:#000000;solid-opacity:1;fill:#000000;fill-opacity:1;fill-rule:nonzero;stroke:none;stroke-width:3;stroke-linecap:round;stroke-linejoin:miter;stroke-miterlimit:4;stroke-dasharray:none;stroke-dashoffset:0;stroke-opacity:1;color-rendering:auto;image-rendering:auto;shape-rendering:auto;text-rendering:auto;enable-background:accumulate"
     d="m 16,1.1894826 c -8.1599163,0 -14.8105174,6.6484152 -14.8105174,14.8083304 0,8.159916 6.6506012,14.812705 14.8105174,14.812705 8.159915,0 14.810518,-6.652789 14.810518,-14.812705 C 30.810518,7.8378978 24.159915,1.1894826 16,1.1894826 Z m -1.965843,3.5380801 0,7.0870943 A 4.63017,4.63017 0 0 0 11.370756,16 4.63017,4.63017 0 0 0 11.38169,16.227417 L 5.2020766,19.793924 C 4.7866714,18.605368 4.5482534,17.33154 4.5482534,15.997813 c 0,-5.672619 4.0865319,-10.3420901 9.4859036,-11.2702503 z m 3.931686,0 c 5.399371,0.9281602 9.485904,5.5976313 9.485904,11.2702503 0,1.333727 -0.238419,2.607555 -0.653824,3.796111 L 20.620496,16.229603 A 4.63017,4.63017 0 0 0 20.629244,16 4.63017,4.63017 0 0 0 17.965843,11.814657 l 0,-7.0870943 z M 16,14.283441 A 1.717521,1.717521 0 0 1 17.716559,16 1.717521,1.717521 0 0 1 16,17.716559 1.717521,1.717521 0 0 1 14.283441,16 1.717521,1.717521 0 0 1 16,14.283441 Z m -2.768362,5.418642 A 4.63017,4.63017 0 0 0 16,20.629244 4.63017,4.63017 0 0 0 18.770548,19.702083 l 6.1162,3.53152 C 22.790335,25.809268 19.594751,27.451747 16,27.451747 c -3.594751,0 -6.7903359,-1.642479 -8.8867479,-4.218144 l 6.1183859,-3.53152 z"
     id="path8077"
     inkscape:connector-curvature="0" /></svg>