<?xml version="1.0" encoding="UTF-8" standalone="no"?>
<!-- Generator: Adobe Illustrator 15.0.0, SVG Export Plug-In . SVG Version: 6.00 Build 0)  -->

<svg
   xmlns:dc="http://purl.org/dc/elements/1.1/"
   xmlns:cc="http://creativecommons.org/ns#"
   xmlns:rdf="http://www.w3.org/1999/02/22-rdf-syntax-ns#"
   xmlns:svg="http://www.w3.org/2000/svg"
   xmlns="http://www.w3.org/2000/svg"
   xmlns:xlink="http://www.w3.org/1999/xlink"
   xmlns:sodipodi="http://sodipodi.sourceforge.net/DTD/sodipodi-0.dtd"
   xmlns:inkscape="http://www.inkscape.org/namespaces/inkscape"
   version="1.1"
   id="Calque_1"
   x="0px"
   y="0px"
   width="32px"
   height="32px"
   viewBox="0 0 32 32"
   enable-background="new 0 0 32 32"
   xml:space="preserve"
   sodipodi:docname="wildlife.svg"
   inkscape:version="0.92.4 (5da689c313, 2019-01-14)"><metadata
   id="metadata17"><rdf:RDF><cc:Work
       rdf:about=""><dc:format>image/svg+xml</dc:format><dc:type
         rdf:resource="http://purl.org/dc/dcmitype/StillImage" /></cc:Work></rdf:RDF></metadata><defs
   id="defs15"><clipPath
     id="SVGID_2_"><use
       height="100%"
       width="100%"
       y="0"
       x="0"
       style="overflow:visible"
       xlink:href="#SVGID_1_"
       overflow="visible"
       id="use5" /></clipPath><rect
     y="0"
     x="0"
     id="SVGID_1_"
     width="32"
     height="32" /><defs
     id="defs3"><rect
       height="32"
       width="32"
       id="rect137"
       x="0"
       y="0" /></defs><clipPath
     id="clipPath33"><use
       id="use31"
       overflow="visible"
       xlink:href="#SVGID_1_"
       style="overflow:visible"
       x="0"
       y="0"
       width="100%"
       height="100%" /></clipPath><clipPath
     id="SVGID_2_-3"><use
       height="100%"
       width="100%"
       y="0"
       x="0"
       style="overflow:visible"
       xlink:href="#SVGID_1_-0"
       overflow="visible"
       id="use5-7" /></clipPath><rect
     y="0"
     x="0"
     id="SVGID_1_-0"
     width="32"
     height="32" /><defs
     id="defs3-1"><rect
       height="32"
       width="32"
       id="rect4773"
       x="0"
       y="0" /></defs><clipPath
     id="clipPath51"><use
       id="use49"
       overflow="visible"
       xlink:href="#SVGID_1_-0"
       style="overflow:visible"
       x="0"
       y="0"
       width="100%"
       height="100%" /></clipPath></defs><sodipodi:namedview
   pagecolor="#ffffff"
   bordercolor="#666666"
   borderopacity="1"
   objecttolerance="10"
   gridtolerance="10"
   guidetolerance="10"
   inkscape:pageopacity="0"
   inkscape:pageshadow="2"
   inkscape:window-width="1920"
   inkscape:window-height="1027"
   id="namedview13"
   showgrid="false"
   inkscape:zoom="10.429825"
   inkscape:cx="-6.7740677"
   inkscape:cy="12.31512"
   inkscape:window-x="-8"
   inkscape:window-y="-8"
   inkscape:window-maximized="1"
   inkscape:current-layer="Calque_1"
   showguides="false"
   inkscape:guide-bbox="true" />

<path
   style="fill:#000000;stroke:none;stroke-width:1.41996562px;stroke-linecap:butt;stroke-linejoin:miter;stroke-opacity:1"
   d="m 20.645395,4.0081878 a 3.0806035,4.7171741 12.180405 0 0 -3.48058,4.0047467 3.0806035,4.7171741 12.180405 0 0 2.01624,5.2583115 3.0806035,4.7171741 12.180405 0 0 4.004747,-3.9603745 3.0806035,4.7171741 12.180405 0 0 -2.01624,-5.2610831 3.0806035,4.7171741 12.180405 0 0 -0.305071,-0.041601 3.0806035,4.7171741 12.180405 0 0 -0.219096,4e-7 z m -9.509888,0.1719491 a 4.7171741,3.0806035 77.819595 0 0 -0.30507,0.041601 4.7171741,3.0806035 77.819595 0 0 -2.0162398,5.2610846 4.7171741,3.0806035 77.819595 0 0 4.0047458,3.9603725 4.7171741,3.0806035 77.819595 0 0 2.016241,-5.2583105 4.7171741,3.0806035 77.819595 0 0 -3.699677,-4.0047476 z m 15.048309,6.2872301 a 3.0806035,4.7171741 19.668298 0 0 -3.655302,3.522181 3.0806035,4.7171741 19.668298 0 0 1.314577,5.48018 3.0806035,4.7171741 19.668298 0 0 4.487313,-3.405698 3.0806035,4.7171741 19.668298 0 0 -1.311804,-5.480182 3.0806035,4.7171741 19.668298 0 0 -0.607368,-0.116479 3.0806035,4.7171741 19.668298 0 0 -0.227416,-2e-6 z M 5.5887674,10.636543 a 4.7171741,3.0806035 70.331702 0 0 -0.6073681,0.11648 4.7171741,3.0806035 70.331702 0 0 -1.3118042,5.48018 4.7171741,3.0806035 70.331702 0 0 4.4873131,3.4057 4.7171741,3.0806035 70.331702 0 0 1.314577,-5.48018 4.7171741,3.0806035 70.331702 0 0 -3.8827178,-3.52218 z M 16,13.543036 c -2.406723,0 -2.737844,1.98154 -3.705223,3.705223 -0.967377,1.723683 -3.5779898,2.937515 -4.3736068,3.943733 -0.795615,1.006219 -1.32898,3.392765 -0.452058,4.911638 0.876921,1.518872 3.6286888,2.401682 4.9060918,1.572502 C 13.850031,26.718799 14.243092,26.10363 16,26.10363 c 1.756908,0 2.15274,0.615169 3.627568,1.572502 1.277402,0.82918 4.029171,-0.05363 4.906092,-1.572502 0.876923,-1.518873 0.340787,-3.905419 -0.454832,-4.911638 -0.795617,-1.006218 -3.403455,-2.22005 -4.370832,-3.943733 C 18.740616,15.524576 18.406722,13.543036 16,13.543036 Z"
   id="path33"
   inkscape:connector-curvature="0" /></svg>